<svg width="501" height="274" viewBox="0 0 501 274" fill="none"
    xmlns="http://www.w3.org/2000/svg">
    <mask id="mask0_2809_5086" style="mask-type:alpha" maskUnits="userSpaceOnUse" x="0" y="0" width="501" height="274">
        <path d="M501 1H1V274H501V1Z" fill="white"/>
        <path d="M1 0H0V1H1V0Z" fill="white"/>
    </mask>
    <g mask="url(#mask0_2809_5086)">
        <path d="M493 1H9C4.58172 1 1 4.58172 1 9V266C1 270.418 4.58172 274 9 274H493C497.418 274 501 270.418 501 266V9C501 4.58172 497.418 1 493 1Z" fill="#181622"/>
        <path d="M493 1H9C4.58172 1 1 4.58172 1 9V49C1 53.4183 4.58172 57 9 57H493C497.418 57 501 53.4183 501 49V9C501 4.58172 497.418 1 493 1Z" fill="#181622"/>
        <path d="M21.9631 37.6992L18.3835 24.6083H19.9943L22.7301 35.2702H22.858L25.6449 24.6083H27.4347L30.2216 35.2702H30.3494L33.0852 24.6083H34.696L31.1165 37.6992H29.4801L26.5909 27.2674H26.4886L23.5994 37.6992H21.9631ZM37.9751 31.793V37.6992H36.4666V24.6083H37.9751V29.4151H38.103C38.3331 28.908 38.6783 28.5053 39.1385 28.207C39.603 27.9045 40.2209 27.7532 40.9922 27.7532C41.6612 27.7532 42.2472 27.8874 42.75 28.1559C43.2528 28.4201 43.6428 28.8271 43.9197 29.3768C44.201 29.9222 44.3416 30.6168 44.3416 31.4606V37.6992H42.8331V31.5629C42.8331 30.783 42.6307 30.18 42.2259 29.7539C41.8253 29.3235 41.2692 29.1083 40.5575 29.1083C40.0632 29.1083 39.62 29.2127 39.228 29.4215C38.8402 29.6303 38.5334 29.935 38.3075 30.3356C38.0859 30.7362 37.9751 31.2219 37.9751 31.793ZM49.9906 37.9293C49.3684 37.9293 48.8038 37.8121 48.2967 37.5778C47.7896 37.3391 47.3869 36.9961 47.0886 36.5487C46.7903 36.0969 46.6412 35.5515 46.6412 34.9123C46.6412 34.3498 46.752 33.8938 46.9735 33.5444C47.1951 33.1907 47.4913 32.9137 47.862 32.7134C48.2328 32.5131 48.6419 32.364 49.0893 32.266C49.541 32.1637 49.9949 32.0827 50.4508 32.0231C51.0474 31.9464 51.5311 31.8888 51.9018 31.8505C52.2768 31.8079 52.5495 31.7376 52.72 31.6396C52.8947 31.5415 52.9821 31.3711 52.9821 31.1282V31.0771C52.9821 30.4464 52.8095 29.9563 52.4643 29.6069C52.1234 29.2575 51.6056 29.0827 50.911 29.0827C50.1909 29.0827 49.6262 29.2404 49.2172 29.5558C48.8081 29.8711 48.5204 30.2077 48.3542 30.5657L46.9224 30.0543C47.1781 29.4577 47.519 28.9933 47.9451 28.6609C48.3755 28.3242 48.8443 28.0898 49.3514 27.9577C49.8627 27.8214 50.3656 27.7532 50.8599 27.7532C51.1752 27.7532 51.5375 27.7915 51.9466 27.8683C52.3599 27.9407 52.7583 28.092 53.1419 28.3221C53.5297 28.5522 53.8514 28.8995 54.1071 29.364C54.3627 29.8285 54.4906 30.4506 54.4906 31.2305V37.6992H52.9821V36.3697H52.9054C52.8031 36.5827 52.6326 36.8107 52.394 37.0536C52.1554 37.2965 51.8379 37.5032 51.4416 37.6737C51.0453 37.8441 50.5616 37.9293 49.9906 37.9293ZM50.2207 36.5742C50.8173 36.5742 51.3201 36.457 51.7292 36.2227C52.1426 35.9883 52.4537 35.6857 52.6625 35.315C52.8755 34.9442 52.9821 34.5543 52.9821 34.1452V32.7646C52.9181 32.8413 52.7775 32.9116 52.5602 32.9755C52.3471 33.0352 52.1 33.0884 51.8187 33.1353C51.5417 33.1779 51.2711 33.2163 51.0069 33.2504C50.747 33.2802 50.536 33.3058 50.3741 33.3271C49.9821 33.3782 49.6156 33.4613 49.2747 33.5763C48.938 33.6871 48.6653 33.8555 48.4565 34.0813C48.252 34.3029 48.1497 34.6055 48.1497 34.989C48.1497 35.5131 48.3436 35.9094 48.7314 36.1779C49.1234 36.4421 49.6199 36.5742 50.2207 36.5742ZM61.5138 27.881V29.1594H56.4258V27.881H61.5138ZM57.9087 25.5288H59.4173V34.8867C59.4173 35.3129 59.479 35.6325 59.6026 35.8455C59.7305 36.0543 59.8924 36.195 60.0884 36.2674C60.2887 36.3356 60.4996 36.3697 60.7212 36.3697C60.8874 36.3697 61.0238 36.3612 61.1303 36.3441C61.2369 36.3228 61.3221 36.3058 61.386 36.293L61.6928 37.6481C61.5906 37.6864 61.4478 37.7248 61.2646 37.7631C61.0813 37.8058 60.8491 37.8271 60.5678 37.8271C60.1417 37.8271 59.7241 37.7354 59.315 37.5522C58.9102 37.369 58.5735 37.0898 58.305 36.7148C58.0408 36.3398 57.9087 35.8668 57.9087 35.2958V25.5288ZM72.8342 37.9038C71.9137 37.9038 71.1211 37.6864 70.4563 37.2518C69.7915 36.8171 69.2802 36.2184 68.9222 35.4556C68.5643 34.6928 68.3853 33.8214 68.3853 32.8413C68.3853 31.8441 68.5685 30.9641 68.935 30.2013C69.3058 29.4343 69.8214 28.8356 70.4819 28.4052C71.1467 27.9705 71.9222 27.7532 72.8086 27.7532C73.4989 27.7532 74.1211 27.881 74.6751 28.1367C75.229 28.3924 75.6829 28.7504 76.0366 29.2106C76.3903 29.6708 76.6097 30.2077 76.695 30.8214H75.1864C75.0714 30.3739 74.8157 29.9776 74.4194 29.6325C74.0273 29.283 73.4989 29.1083 72.8342 29.1083C72.2461 29.1083 71.7305 29.2617 71.2873 29.5685C70.8484 29.8711 70.5053 30.2994 70.2582 30.8533C70.0153 31.4031 69.8938 32.0487 69.8938 32.7901C69.8938 33.5487 70.0131 34.2092 70.2518 34.7717C70.4947 35.3342 70.8356 35.771 71.2745 36.082C71.7177 36.3931 72.2376 36.5487 72.8342 36.5487C73.2262 36.5487 73.582 36.4805 73.9016 36.3441C74.2212 36.2077 74.4918 36.0117 74.7134 35.756C74.935 35.5004 75.0927 35.1935 75.1864 34.8356H76.695C76.6097 35.4151 76.3988 35.9371 76.0621 36.4016C75.7298 36.8619 75.2887 37.2283 74.739 37.5011C74.1935 37.7695 73.5586 37.9038 72.8342 37.9038ZM81.7894 37.9293C81.1673 37.9293 80.6026 37.8121 80.0955 37.5778C79.5884 37.3391 79.1857 36.9961 78.8874 36.5487C78.5891 36.0969 78.44 35.5515 78.44 34.9123C78.44 34.3498 78.5508 33.8938 78.7724 33.5444C78.994 33.1907 79.2901 32.9137 79.6609 32.7134C80.0316 32.5131 80.4407 32.364 80.8881 32.266C81.3398 32.1637 81.7937 32.0827 82.2496 32.0231C82.8462 31.9464 83.3299 31.8888 83.7006 31.8505C84.0756 31.8079 84.3484 31.7376 84.5188 31.6396C84.6935 31.5415 84.7809 31.3711 84.7809 31.1282V31.0771C84.7809 30.4464 84.6083 29.9563 84.2631 29.6069C83.9222 29.2575 83.4045 29.0827 82.7099 29.0827C81.9897 29.0827 81.4251 29.2404 81.016 29.5558C80.6069 29.8711 80.3192 30.2077 80.1531 30.5657L78.7212 30.0543C78.9769 29.4577 79.3178 28.9933 79.744 28.6609C80.1744 28.3242 80.6431 28.0898 81.1502 27.9577C81.6616 27.8214 82.1644 27.7532 82.6587 27.7532C82.9741 27.7532 83.3363 27.7915 83.7454 27.8683C84.1587 27.9407 84.5572 28.092 84.9407 28.3221C85.3285 28.5522 85.6502 28.8995 85.9059 29.364C86.1616 29.8285 86.2894 30.4506 86.2894 31.2305V37.6992H84.7809V36.3697H84.7042C84.6019 36.5827 84.4315 36.8107 84.1928 37.0536C83.9542 37.2965 83.6367 37.5032 83.2404 37.6737C82.8441 37.8441 82.3604 37.9293 81.7894 37.9293ZM82.0195 36.5742C82.6161 36.5742 83.119 36.457 83.5281 36.2227C83.9414 35.9883 84.2525 35.6857 84.4613 35.315C84.6744 34.9442 84.7809 34.5543 84.7809 34.1452V32.7646C84.717 32.8413 84.5763 32.9116 84.359 32.9755C84.146 33.0352 83.8988 33.0884 83.6175 33.1353C83.3406 33.1779 83.07 33.2163 82.8058 33.2504C82.5458 33.2802 82.3349 33.3058 82.1729 33.3271C81.7809 33.3782 81.4144 33.4613 81.0735 33.5763C80.7369 33.6871 80.4641 33.8555 80.2553 34.0813C80.0508 34.3029 79.9485 34.6055 79.9485 34.989C79.9485 35.5131 80.1424 35.9094 80.5302 36.1779C80.9222 36.4421 81.4187 36.5742 82.0195 36.5742ZM90.5513 31.793V37.6992H89.0428V27.881H90.5002V29.4151H90.628C90.8581 28.9165 91.2076 28.516 91.6763 28.2134C92.1451 27.9066 92.7502 27.7532 93.4917 27.7532C94.1564 27.7532 94.7381 27.8896 95.2367 28.1623C95.7353 28.4308 96.123 28.8398 96.4 29.3896C96.677 29.935 96.8155 30.6254 96.8155 31.4606V37.6992H95.307V31.5629C95.307 30.7915 95.1067 30.1907 94.7061 29.7603C94.3056 29.3256 93.7559 29.1083 93.057 29.1083C92.5755 29.1083 92.1451 29.2127 91.7658 29.4215C91.3908 29.6303 91.0946 29.935 90.8773 30.3356C90.66 30.7362 90.5513 31.2219 90.5513 31.793ZM106.859 37.6992L103.868 27.881H105.453L107.575 35.3981H107.677L109.774 27.881H111.385L113.456 35.3725H113.558L115.68 27.881H117.265L114.274 37.6992H112.791L110.643 30.1566H110.49L108.342 37.6992H106.859ZM123.042 37.9038C122.096 37.9038 121.28 37.695 120.594 37.2773C119.912 36.8555 119.386 36.2674 119.015 35.5131C118.649 34.7546 118.465 33.8725 118.465 32.8668C118.465 31.8612 118.649 30.9748 119.015 30.2077C119.386 29.4364 119.901 28.8356 120.562 28.4052C121.227 27.9705 122.002 27.7532 122.889 27.7532C123.4 27.7532 123.905 27.8384 124.404 28.0089C124.902 28.1793 125.356 28.4563 125.765 28.8398C126.174 29.2191 126.5 29.7219 126.743 30.3484C126.986 30.9748 127.107 31.7461 127.107 32.6623V33.3015H119.539V31.9975H125.573C125.573 31.4435 125.463 30.9492 125.241 30.5146C125.024 30.0799 124.713 29.7369 124.308 29.4854C123.907 29.234 123.434 29.1083 122.889 29.1083C122.288 29.1083 121.768 29.2575 121.329 29.5558C120.894 29.8498 120.56 30.2333 120.325 30.7063C120.091 31.1793 119.974 31.6864 119.974 32.2276V33.0969C119.974 33.8384 120.102 34.467 120.357 34.9826C120.617 35.494 120.977 35.8839 121.438 36.1523C121.898 36.4165 122.433 36.5487 123.042 36.5487C123.438 36.5487 123.796 36.4933 124.116 36.3825C124.44 36.2674 124.719 36.0969 124.953 35.8711C125.188 35.641 125.369 35.3555 125.497 35.0146L126.954 35.4237C126.801 35.918 126.543 36.3526 126.181 36.7276C125.818 37.0984 125.371 37.3881 124.838 37.5969C124.306 37.8015 123.707 37.9038 123.042 37.9038ZM135.973 31.793V37.6992H134.465V24.6083H135.973V29.4151H136.101C136.331 28.908 136.676 28.5053 137.137 28.207C137.601 27.9045 138.219 27.7532 138.99 27.7532C139.659 27.7532 140.245 27.8874 140.748 28.1559C141.251 28.4201 141.641 28.8271 141.918 29.3768C142.199 29.9222 142.34 30.6168 142.34 31.4606V37.6992H140.831V31.5629C140.831 30.783 140.629 30.18 140.224 29.7539C139.823 29.3235 139.267 29.1083 138.556 29.1083C138.061 29.1083 137.618 29.2127 137.226 29.4215C136.838 29.6303 136.531 29.935 136.306 30.3356C136.084 30.7362 135.973 31.2219 135.973 31.793ZM149.216 37.9038C148.27 37.9038 147.454 37.695 146.768 37.2773C146.086 36.8555 145.56 36.2674 145.189 35.5131C144.822 34.7546 144.639 33.8725 144.639 32.8668C144.639 31.8612 144.822 30.9748 145.189 30.2077C145.56 29.4364 146.075 28.8356 146.736 28.4052C147.401 27.9705 148.176 27.7532 149.062 27.7532C149.574 27.7532 150.079 27.8384 150.577 28.0089C151.076 28.1793 151.53 28.4563 151.939 28.8398C152.348 29.2191 152.674 29.7219 152.917 30.3484C153.16 30.9748 153.281 31.7461 153.281 32.6623V33.3015H145.713V31.9975H151.747C151.747 31.4435 151.636 30.9492 151.415 30.5146C151.197 30.0799 150.886 29.7369 150.482 29.4854C150.081 29.234 149.608 29.1083 149.062 29.1083C148.462 29.1083 147.942 29.2575 147.503 29.5558C147.068 29.8498 146.734 30.2333 146.499 30.7063C146.265 31.1793 146.148 31.6864 146.148 32.2276V33.0969C146.148 33.8384 146.276 34.467 146.531 34.9826C146.791 35.494 147.151 35.8839 147.612 36.1523C148.072 36.4165 148.607 36.5487 149.216 36.5487C149.612 36.5487 149.97 36.4933 150.29 36.3825C150.614 36.2674 150.893 36.0969 151.127 35.8711C151.362 35.641 151.543 35.3555 151.67 35.0146L153.128 35.4237C152.974 35.918 152.717 36.3526 152.354 36.7276C151.992 37.0984 151.545 37.3881 151.012 37.5969C150.479 37.8015 149.881 37.9038 149.216 37.9038ZM157.085 24.6083V37.6992H155.576V24.6083H157.085ZM159.847 41.381V27.881H161.305V29.4407H161.484C161.595 29.2702 161.748 29.0529 161.944 28.7887C162.144 28.5202 162.43 28.2816 162.801 28.0728C163.176 27.8597 163.683 27.7532 164.322 27.7532C165.149 27.7532 165.877 27.9599 166.508 28.3732C167.139 28.7866 167.631 29.3725 167.985 30.131C168.338 30.8896 168.515 31.7844 168.515 32.8157C168.515 33.8555 168.338 34.7567 167.985 35.5195C167.631 36.2781 167.141 36.8661 166.514 37.2837C165.888 37.6971 165.166 37.9038 164.347 37.9038C163.717 37.9038 163.212 37.7994 162.833 37.5906C162.453 37.3775 162.161 37.1367 161.957 36.8683C161.752 36.5955 161.595 36.3697 161.484 36.1907H161.356V41.381H159.847ZM161.33 32.7901C161.33 33.5316 161.439 34.1857 161.656 34.7525C161.874 35.315 162.191 35.756 162.609 36.0756C163.026 36.391 163.538 36.5487 164.143 36.5487C164.774 36.5487 165.3 36.3825 165.722 36.0501C166.148 35.7134 166.468 35.2617 166.681 34.695C166.898 34.1239 167.007 33.489 167.007 32.7901C167.007 32.0998 166.9 31.4776 166.687 30.9237C166.478 30.3654 166.161 29.9244 165.735 29.6005C165.313 29.2724 164.782 29.1083 164.143 29.1083C163.529 29.1083 163.014 29.2638 162.596 29.5749C162.178 29.8817 161.863 30.3121 161.65 30.8661C161.437 31.4158 161.33 32.0572 161.33 32.7901ZM178.103 37.6992L175.112 27.881H176.697L178.819 35.3981H178.921L181.018 27.881H182.629L184.7 35.3725H184.802L186.924 27.881H188.509L185.518 37.6992H184.035L181.887 30.1566H181.734L179.586 37.6992H178.103ZM190.504 37.6992V27.881H192.012V37.6992H190.504ZM191.271 26.2447C190.977 26.2447 190.723 26.1445 190.51 25.9442C190.301 25.744 190.197 25.5032 190.197 25.2219C190.197 24.9407 190.301 24.6999 190.51 24.4996C190.723 24.2994 190.977 24.1992 191.271 24.1992C191.565 24.1992 191.816 24.2994 192.025 24.4996C192.238 24.6999 192.345 24.9407 192.345 25.2219C192.345 25.5032 192.238 25.744 192.025 25.9442C191.816 26.1445 191.565 26.2447 191.271 26.2447ZM199.045 27.881V29.1594H193.957V27.881H199.045ZM195.44 25.5288H196.949V34.8867C196.949 35.3129 197.01 35.6325 197.134 35.8455C197.262 36.0543 197.424 36.195 197.62 36.2674C197.82 36.3356 198.031 36.3697 198.252 36.3697C198.419 36.3697 198.555 36.3612 198.662 36.3441C198.768 36.3228 198.853 36.3058 198.917 36.293L199.224 37.6481C199.122 37.6864 198.979 37.7248 198.796 37.7631C198.613 37.8058 198.38 37.8271 198.099 37.8271C197.673 37.8271 197.255 37.7354 196.846 37.5522C196.441 37.369 196.105 37.0898 195.836 36.7148C195.572 36.3398 195.44 35.8668 195.44 35.2958V25.5288ZM203.034 31.793V37.6992H201.525V24.6083H203.034V29.4151H203.162C203.392 28.908 203.737 28.5053 204.197 28.207C204.662 27.9045 205.279 27.7532 206.051 27.7532C206.72 27.7532 207.306 27.8874 207.809 28.1559C208.311 28.4201 208.701 28.8271 208.978 29.3768C209.26 29.9222 209.4 30.6168 209.4 31.4606V37.6992H207.892V31.5629C207.892 30.783 207.689 30.18 207.284 29.7539C206.884 29.3235 206.328 29.1083 205.616 29.1083C205.122 29.1083 204.679 29.2127 204.287 29.4215C203.899 29.6303 203.592 29.935 203.366 30.3356C203.145 30.7362 203.034 31.2219 203.034 31.793ZM214.129 34.0174V33.9407C214.137 33.1268 214.222 32.479 214.384 31.9975C214.546 31.516 214.776 31.1261 215.075 30.8278C215.373 30.5295 215.731 30.2546 216.149 30.0032C216.4 29.8498 216.626 29.6687 216.826 29.4599C217.026 29.2468 217.184 29.0018 217.299 28.7248C217.419 28.4478 217.478 28.141 217.478 27.8043C217.478 27.3867 217.38 27.0245 217.184 26.7177C216.988 26.4109 216.726 26.1744 216.398 26.0082C216.07 25.842 215.705 25.7589 215.305 25.7589C214.955 25.7589 214.619 25.8313 214.295 25.9762C213.971 26.1211 213.7 26.3491 213.483 26.6602C213.266 26.9712 213.14 27.3782 213.106 27.881H211.495C211.529 27.1566 211.717 26.5366 212.058 26.021C212.403 25.5053 212.857 25.1112 213.419 24.8384C213.986 24.5657 214.615 24.4293 215.305 24.4293C216.055 24.4293 216.707 24.5785 217.261 24.8768C217.819 25.1751 218.249 25.5842 218.552 26.104C218.859 26.6239 219.012 27.2163 219.012 27.881C219.012 28.3498 218.94 28.7738 218.795 29.1531C218.654 29.5323 218.45 29.8711 218.181 30.1694C217.917 30.4677 217.597 30.7319 217.222 30.962C216.847 31.1964 216.547 31.4435 216.321 31.7035C216.095 31.9592 215.931 32.2638 215.829 32.6175C215.727 32.9712 215.671 33.4123 215.663 33.9407V34.0174H214.129ZM214.947 37.8015C214.632 37.8015 214.361 37.6886 214.135 37.4627C213.909 37.2369 213.796 36.9663 213.796 36.6509C213.796 36.3356 213.909 36.065 214.135 35.8391C214.361 35.6133 214.632 35.5004 214.947 35.5004C215.262 35.5004 215.533 35.6133 215.759 35.8391C215.985 36.065 216.097 36.3356 216.097 36.6509C216.097 36.8597 216.044 37.0515 215.938 37.2262C215.835 37.4009 215.697 37.5415 215.522 37.6481C215.352 37.7504 215.16 37.8015 214.947 37.8015Z" fill="#A1A0AB"/>
        <mask id="mask1_2809_5086" style="mask-type:alpha" maskUnits="userSpaceOnUse" x="1" y="57" width="500" height="1">
            <path d="M501 57H1V58H501V57Z" fill="white"/>
        </mask>
        <g mask="url(#mask1_2809_5086)">
            <path d="M1 57H501" stroke="#211F2D" stroke-linecap="square"/>
        </g>
        <mask id="mask2_2809_5086" style="mask-type:alpha" maskUnits="userSpaceOnUse" x="1" y="58" width="500" height="216">
            <path d="M501 58H1V274H501V58Z" fill="white"/>
        </mask>
        <g mask="url(#mask2_2809_5086)">
            <path d="M481 167H21C16.5817 167 13 170.582 13 175V207C13 211.418 16.5817 215 21 215H481C485.418 215 489 211.418 489 207V175C489 170.582 485.418 167 481 167Z" fill="#211F2D"/>
            <path d="M44.3076 95.9685C44.1914 95.6165 43.887 95.3713 43.4933 95.3125C43.3077 95.2848 43.0951 95.2966 42.8435 95.3485C42.405 95.439 42.0796 95.4734 41.8422 95.4801C42.7384 93.967 43.4671 92.2416 43.8866 90.6174C44.565 87.991 44.2025 86.7946 43.7789 86.2534C42.6578 84.821 41.0223 84.0515 39.0491 84.0279C37.9965 84.015 37.0725 84.2229 36.5904 84.3723C36.1416 84.2931 35.659 84.2489 35.1527 84.2407C34.2035 84.2256 33.3649 84.4325 32.6483 84.8578C32.2515 84.7236 31.6148 84.5345 30.8795 84.4138C29.1502 84.1299 27.7563 84.3511 26.7368 85.0714C25.5023 85.9434 24.93 87.4585 25.0358 89.5746C25.0695 90.2464 25.4453 92.2906 26.037 94.2293C26.3771 95.3436 26.7398 96.2689 27.1149 96.9798C27.6469 97.9879 28.2162 98.5815 28.8553 98.7947C29.2134 98.9141 29.8643 98.9976 30.5487 98.4275C30.6355 98.5326 30.7513 98.637 30.9049 98.734C31.1 98.857 31.3386 98.9576 31.5768 99.0172C32.4354 99.2318 33.2397 99.1781 33.9259 98.8773C33.9301 98.9993 33.9334 99.1159 33.9361 99.2166C33.9406 99.3799 33.9452 99.54 33.9512 99.6898C33.9918 100.702 34.0607 101.49 34.2648 102.041C34.276 102.071 34.2911 102.117 34.307 102.166C34.4088 102.478 34.5791 103 35.0123 103.408C35.4609 103.832 36.0035 103.962 36.5005 103.962C36.7497 103.962 36.9875 103.929 37.1961 103.884C37.9396 103.725 38.784 103.482 39.3948 102.612C39.9723 101.79 40.2531 100.552 40.3039 98.6006C40.3104 98.5454 40.3165 98.4927 40.3223 98.4425L40.3344 98.3394L40.4705 98.3514L40.5055 98.3537C41.2628 98.3882 42.1887 98.2277 42.7574 97.9635C43.2067 97.755 44.6467 96.9948 44.3076 95.9685" fill="black"/>
            <path d="M43.0121 96.1671C40.7604 96.6316 40.6056 95.8692 40.6056 95.8692C42.9829 92.3417 43.9768 87.8639 43.1192 86.768C40.7794 83.7786 36.7293 85.1924 36.6617 85.2291L36.64 85.233C36.1951 85.1406 35.6973 85.0857 35.1378 85.0765C34.119 85.0599 33.3461 85.3436 32.7597 85.7883C32.7597 85.7883 25.5347 82.8119 25.8707 89.5318C25.9422 90.9613 27.9198 100.349 30.2784 97.5133C31.1406 96.4764 31.9736 95.5998 31.9736 95.5998C32.3873 95.8746 32.8826 96.0148 33.4018 95.9645L33.4421 95.9302C33.4296 96.059 33.4353 96.1849 33.4583 96.3339C32.8506 97.0128 33.0292 97.132 31.8145 97.3821C30.5854 97.6354 31.3074 98.0863 31.7789 98.2043C32.3504 98.3471 33.6726 98.5496 34.566 97.2989L34.5304 97.4417C34.7684 97.6324 34.9356 98.682 34.9076 99.6336C34.8796 100.585 34.8609 101.238 35.0484 101.749C35.2361 102.259 35.423 103.407 37.0199 103.065C38.3541 102.779 39.0456 102.038 39.1418 100.802C39.2101 99.9234 39.3646 100.053 39.3743 99.2676L39.4982 98.8957C39.6411 97.7046 39.5209 97.3203 40.3429 97.499L40.5428 97.5166C41.1477 97.5441 41.9396 97.4192 42.4044 97.2032C43.4052 96.7388 43.9987 95.9633 43.0119 96.1671H43.0121" fill="#336791"/>
            <path d="M33.1829 90.1722C32.98 90.144 32.7962 90.1701 32.7032 90.2405C32.651 90.2801 32.6348 90.326 32.6304 90.3575C32.6188 90.4412 32.6774 90.5337 32.7134 90.5814C32.8153 90.7165 32.9641 90.8093 33.1115 90.8298C33.1328 90.8328 33.1541 90.8341 33.1752 90.8341C33.4209 90.8341 33.6443 90.6428 33.664 90.5016C33.6886 90.3248 33.4319 90.2069 33.1829 90.1723M39.9047 90.1778C39.8853 90.0392 39.6387 89.9997 39.4046 90.0322C39.1708 90.0648 38.9441 90.1703 38.963 90.3092C38.9782 90.4173 39.1733 90.6017 39.4042 90.6017C39.4237 90.6017 39.4434 90.6004 39.4633 90.5976C39.6174 90.5763 39.7305 90.4784 39.7843 90.422C39.866 90.336 39.9134 90.2401 39.9047 90.1778" fill="white"/>
            <path d="M43.7633 96.1144C43.6774 95.8548 43.4011 95.7713 42.942 95.8661C41.5788 96.1474 41.0906 95.9525 40.9303 95.8345C41.9899 94.2204 42.8616 92.2692 43.3318 90.4487C43.5545 89.5864 43.6776 88.7855 43.6876 88.1327C43.6988 87.4163 43.5767 86.8898 43.3251 86.5682C42.3104 85.2716 40.8212 84.5762 39.0185 84.5571C37.7792 84.5432 36.7321 84.8603 36.5292 84.9495C36.1017 84.8432 35.6357 84.7779 35.1284 84.7696C34.198 84.7545 33.3938 84.9773 32.728 85.4313C32.4388 85.3237 31.6914 85.0671 30.7774 84.9198C29.1972 84.6654 27.9414 84.8582 27.0453 85.493C25.9761 86.2506 25.4824 87.6047 25.5781 89.5178C25.6102 90.1614 25.977 92.1414 26.5557 94.0375C27.3175 96.5332 28.1456 97.9461 29.0169 98.2367C29.1189 98.2707 29.2364 98.2945 29.3661 98.2945C29.684 98.2945 30.0736 98.1512 30.4791 97.6638C30.9736 97.0706 31.4851 96.4918 32.013 95.9281C32.3556 96.1119 32.7318 96.2146 33.1167 96.2249C33.1174 96.2349 33.1184 96.245 33.1193 96.255C33.0531 96.334 32.9882 96.4141 32.9247 96.4954C32.6581 96.8339 32.6026 96.9044 31.7443 97.0811C31.5001 97.1315 30.8516 97.2651 30.8421 97.7197C30.8318 98.2163 31.6087 98.4249 31.6972 98.447C32.0056 98.5243 32.3028 98.5623 32.5862 98.5623C33.2754 98.5623 33.8819 98.3358 34.3666 97.8975C34.3517 99.6681 34.4255 101.413 34.6381 101.944C34.8122 102.379 35.2375 103.443 36.5811 103.443C36.7782 103.443 36.9952 103.42 37.2339 103.369C38.6362 103.068 39.2451 102.448 39.4806 101.082C39.6067 100.352 39.823 98.6082 39.9248 97.6729C40.1395 97.7399 40.4159 97.7706 40.7147 97.7705C41.338 97.7705 42.0571 97.6381 42.5081 97.4287C43.0148 97.1934 43.9291 96.6161 43.7633 96.1144V96.1144ZM40.424 89.7941C40.4194 90.0702 40.3814 90.3209 40.3411 90.5826C40.2977 90.864 40.2529 91.1549 40.2416 91.5081C40.2305 91.8518 40.2734 92.2092 40.3149 92.5548C40.3988 93.2529 40.4849 93.9715 40.1517 94.6806C40.0963 94.5825 40.047 94.4812 40.004 94.3771C39.9626 94.2767 39.8727 94.1154 39.7481 93.8922C39.2637 93.0234 38.1291 90.9887 38.7099 90.1585C38.8829 89.9114 39.322 89.6573 40.424 89.7941V89.7941ZM39.0882 85.1162C40.7034 85.1519 41.981 85.7561 42.8856 86.9121C43.5794 87.7987 42.8154 91.8331 40.6037 95.3135C40.5815 95.2853 40.5591 95.2571 40.5366 95.229L40.5086 95.194C41.0802 94.2501 40.9684 93.3162 40.8689 92.4883C40.8281 92.1485 40.7894 91.8275 40.7993 91.5261C40.8094 91.2066 40.8517 90.9325 40.8926 90.6675C40.9428 90.341 40.9939 90.0031 40.9798 89.6048C40.9903 89.563 40.9945 89.5136 40.989 89.455C40.9531 89.073 40.517 87.9299 39.6281 86.8952C39.1419 86.3293 38.4329 85.696 37.4648 85.2688C37.8812 85.1825 38.4506 85.102 39.0882 85.1162V85.1162ZM30.05 97.3071C29.6033 97.8441 29.2949 97.7412 29.1934 97.7074C28.5325 97.4869 27.7655 96.0899 27.0894 93.8747C26.5043 91.9578 26.1624 90.0303 26.1353 89.4898C26.0499 87.7804 26.4642 86.5891 27.3669 85.9489C28.836 84.9072 31.2513 85.5307 32.2218 85.847C32.2079 85.8607 32.1934 85.8736 32.1796 85.8876C30.587 87.496 30.6247 90.244 30.6287 90.412C30.6285 90.4768 30.634 90.5686 30.6414 90.6948C30.6688 91.157 30.7198 92.0172 30.5836 92.9914C30.457 93.8966 30.736 94.7827 31.3491 95.4223C31.412 95.4879 31.4781 95.5502 31.5472 95.6092C31.2743 95.9014 30.6813 96.5477 30.05 97.3071V97.3071ZM31.7519 95.0363C31.2578 94.5207 31.0334 93.8036 31.1362 93.0686C31.28 92.0395 31.2269 91.1433 31.1984 90.6617C31.1944 90.5944 31.1908 90.5353 31.1888 90.4888C31.4214 90.2824 32.4996 89.7048 33.2685 89.881C33.6194 89.9613 33.8332 90.2002 33.9221 90.6112C34.3821 92.7389 33.9829 93.6257 33.6622 94.3383C33.5961 94.4851 33.5337 94.6239 33.4804 94.7674L33.439 94.8784C33.3344 95.159 33.237 95.4199 33.1767 95.6676C32.6514 95.6661 32.1405 95.4417 31.7519 95.0362V95.0363ZM31.8325 97.9057C31.6792 97.8674 31.5412 97.8008 31.4603 97.7457C31.5279 97.7139 31.6482 97.6705 31.8568 97.6275C32.8666 97.4197 33.0226 97.273 33.3631 96.8406C33.4412 96.7414 33.5297 96.6291 33.6522 96.4922L33.6524 96.492C33.8349 96.2876 33.9184 96.3223 34.0699 96.3851C34.1926 96.4359 34.3121 96.5897 34.3606 96.759C34.3835 96.8389 34.4093 96.9907 34.325 97.1088C33.6136 98.1048 32.577 98.092 31.8325 97.9057V97.9057ZM37.117 102.823C35.8818 103.088 35.4444 102.458 35.1561 101.737C34.9701 101.272 34.8787 99.1743 34.9436 96.8578C34.9444 96.827 34.94 96.7972 34.9315 96.7692C34.9239 96.7139 34.9124 96.6592 34.897 96.6055C34.8005 96.2685 34.5655 95.9865 34.2834 95.8696C34.1714 95.8232 33.9658 95.738 33.7186 95.8013C33.7713 95.5841 33.8627 95.3389 33.9618 95.0734L34.0034 94.9617C34.0502 94.8358 34.1089 94.7054 34.171 94.5673C34.5066 93.8217 34.9663 92.8004 34.4674 90.4933C34.2806 89.6291 33.6566 89.2071 32.7106 89.3052C32.1436 89.3639 31.6247 89.5926 31.3659 89.7239C31.3103 89.752 31.2594 89.7793 31.2119 89.8058C31.2841 88.9351 31.557 87.3079 32.5777 86.2784C33.2204 85.6304 34.0763 85.3103 35.1191 85.3275C37.1739 85.3611 38.4916 86.4156 39.2352 87.2944C39.876 88.0516 40.223 88.8143 40.3615 89.2258C39.3201 89.1198 38.6118 89.3254 38.2528 89.8387C37.4717 90.9553 38.6801 93.1224 39.2609 94.164C39.3674 94.3548 39.4593 94.5198 39.4882 94.5899C39.6773 95.0482 39.9222 95.3543 40.1009 95.5776C40.1557 95.6461 40.2089 95.7125 40.2493 95.7704C39.9339 95.8614 39.3674 96.0715 39.419 97.1216C39.3774 97.6486 39.0813 100.116 38.9308 100.987C38.7322 102.139 38.3085 102.568 37.117 102.823V102.823ZM42.2732 96.9227C41.9507 97.0724 41.4109 97.1846 40.8982 97.2088C40.3319 97.2353 40.0436 97.1453 39.9758 97.09C39.944 96.4356 40.1875 96.3672 40.4453 96.2948C40.4858 96.2835 40.5254 96.2723 40.5635 96.259C40.5872 96.2783 40.6132 96.2975 40.6417 96.3162C41.0968 96.6167 41.9087 96.6491 43.0548 96.4125L43.0674 96.41C42.9128 96.5545 42.6483 96.7485 42.2732 96.9227Z" fill="white"/>
            <path d="M58.8864 99.5996H57.4091L61.6818 87.9632H63.1364L67.4091 99.5996H65.9318L62.4545 89.8042H62.3636L58.8864 99.5996ZM59.4318 95.0542H65.3864V96.3042H59.4318V95.0542ZM72.3352 99.7814C71.608 99.7814 70.9659 99.5977 70.4091 99.2303C69.8523 98.8591 69.4167 98.3364 69.1023 97.6621C68.7879 96.9841 68.6307 96.1829 68.6307 95.2587C68.6307 94.342 68.7879 93.5466 69.1023 92.8723C69.4167 92.1981 69.8542 91.6773 70.4148 91.3098C70.9754 90.9424 71.6231 90.7587 72.358 90.7587C72.9261 90.7587 73.375 90.8534 73.7045 91.0428C74.0379 91.2284 74.2917 91.4405 74.4659 91.6792C74.6439 91.914 74.7822 92.1072 74.8807 92.2587H74.9943V87.9632H76.3352V99.5996H75.0398V98.2587H74.8807C74.7822 98.4178 74.642 98.6185 74.4602 98.861C74.2784 99.0996 74.0189 99.3136 73.6818 99.503C73.3447 99.6886 72.8958 99.7814 72.3352 99.7814ZM72.517 98.5769C73.0549 98.5769 73.5095 98.4367 73.8807 98.1564C74.2519 97.8723 74.5341 97.4803 74.7273 96.9803C74.9205 96.4765 75.017 95.8951 75.017 95.236C75.017 94.5845 74.9223 94.0144 74.733 93.5257C74.5436 93.0333 74.2633 92.6507 73.892 92.378C73.5208 92.1015 73.0625 91.9632 72.517 91.9632C71.9489 91.9632 71.4754 92.1091 71.0966 92.4007C70.7216 92.6886 70.4394 93.0807 70.25 93.5769C70.0644 94.0693 69.9716 94.6223 69.9716 95.236C69.9716 95.8572 70.0663 96.4216 70.2557 96.9292C70.4489 97.4329 70.733 97.8345 71.108 98.1337C71.4867 98.4292 71.9564 98.5769 72.517 98.5769ZM82.2727 99.7814C81.5455 99.7814 80.9034 99.5977 80.3466 99.2303C79.7898 98.8591 79.3542 98.3364 79.0398 97.6621C78.7254 96.9841 78.5682 96.1829 78.5682 95.2587C78.5682 94.342 78.7254 93.5466 79.0398 92.8723C79.3542 92.1981 79.7917 91.6773 80.3523 91.3098C80.9129 90.9424 81.5606 90.7587 82.2955 90.7587C82.8636 90.7587 83.3125 90.8534 83.642 91.0428C83.9754 91.2284 84.2292 91.4405 84.4034 91.6792C84.5814 91.914 84.7197 92.1072 84.8182 92.2587H84.9318V87.9632H86.2727V99.5996H84.9773V98.2587H84.8182C84.7197 98.4178 84.5795 98.6185 84.3977 98.861C84.2159 99.0996 83.9564 99.3136 83.6193 99.503C83.2822 99.6886 82.8333 99.7814 82.2727 99.7814ZM82.4545 98.5769C82.9924 98.5769 83.447 98.4367 83.8182 98.1564C84.1894 97.8723 84.4716 97.4803 84.6648 96.9803C84.858 96.4765 84.9545 95.8951 84.9545 95.236C84.9545 94.5845 84.8598 94.0144 84.6705 93.5257C84.4811 93.0333 84.2008 92.6507 83.8295 92.378C83.4583 92.1015 83 91.9632 82.4545 91.9632C81.8864 91.9632 81.4129 92.1091 81.0341 92.4007C80.6591 92.6886 80.3769 93.0807 80.1875 93.5769C80.0019 94.0693 79.9091 94.6223 79.9091 95.236C79.9091 95.8572 80.0038 96.4216 80.1932 96.9292C80.3864 97.4329 80.6705 97.8345 81.0455 98.1337C81.4242 98.4292 81.8939 98.5769 82.4545 98.5769ZM93.5966 99.5996V87.9632H97.5284C98.4413 87.9632 99.1875 88.128 99.767 88.4576C100.35 88.7833 100.782 89.2246 101.062 89.7814C101.343 90.3382 101.483 90.9595 101.483 91.6451C101.483 92.3307 101.343 92.9538 101.062 93.5144C100.786 94.075 100.358 94.522 99.7784 94.8553C99.1989 95.1848 98.4564 95.3496 97.5511 95.3496H94.733V94.0996H97.5057C98.1307 94.0996 98.6326 93.9917 99.0114 93.7757C99.3902 93.5598 99.6648 93.2682 99.8352 92.9007C100.009 92.5295 100.097 92.111 100.097 91.6451C100.097 91.1792 100.009 90.7625 99.8352 90.3951C99.6648 90.0276 99.3883 89.7398 99.0057 89.5314C98.6231 89.3193 98.1155 89.2132 97.483 89.2132H95.0057V99.5996H93.5966ZM107.023 99.7814C106.235 99.7814 105.544 99.5939 104.949 99.2189C104.358 98.8439 103.896 98.3193 103.562 97.6451C103.233 96.9708 103.068 96.1829 103.068 95.2814C103.068 94.3723 103.233 93.5788 103.562 92.9007C103.896 92.2227 104.358 91.6962 104.949 91.3212C105.544 90.9462 106.235 90.7587 107.023 90.7587C107.811 90.7587 108.5 90.9462 109.091 91.3212C109.686 91.6962 110.148 92.2227 110.477 92.9007C110.811 93.5788 110.977 94.3723 110.977 95.2814C110.977 96.1829 110.811 96.9708 110.477 97.6451C110.148 98.3193 109.686 98.8439 109.091 99.2189C108.5 99.5939 107.811 99.7814 107.023 99.7814ZM107.023 98.5769C107.621 98.5769 108.114 98.4235 108.5 98.1167C108.886 97.8098 109.172 97.4064 109.358 96.9064C109.544 96.4064 109.636 95.8648 109.636 95.2814C109.636 94.6981 109.544 94.1545 109.358 93.6507C109.172 93.147 108.886 92.7398 108.5 92.4292C108.114 92.1185 107.621 91.9632 107.023 91.9632C106.424 91.9632 105.932 92.1185 105.545 92.4292C105.159 92.7398 104.873 93.147 104.688 93.6507C104.502 94.1545 104.409 94.6981 104.409 95.2814C104.409 95.8648 104.502 96.4064 104.688 96.9064C104.873 97.4064 105.159 97.8098 105.545 98.1167C105.932 98.4235 106.424 98.5769 107.023 98.5769ZM119.206 92.8269L118.001 93.1678C117.926 92.967 117.814 92.772 117.666 92.5826C117.522 92.3894 117.325 92.2303 117.075 92.1053C116.825 91.9803 116.505 91.9178 116.115 91.9178C115.581 91.9178 115.136 92.0409 114.78 92.2871C114.428 92.5295 114.251 92.8382 114.251 93.2132C114.251 93.5466 114.373 93.8098 114.615 94.003C114.857 94.1962 115.236 94.3572 115.751 94.486L117.047 94.8042C117.827 94.9935 118.409 95.2833 118.791 95.6735C119.174 96.0598 119.365 96.5579 119.365 97.1678C119.365 97.6678 119.221 98.1148 118.933 98.5087C118.649 98.9026 118.251 99.2132 117.74 99.4405C117.229 99.6678 116.634 99.7814 115.956 99.7814C115.066 99.7814 114.329 99.5882 113.746 99.2019C113.162 98.8155 112.793 98.2511 112.638 97.5087L113.911 97.1905C114.032 97.6602 114.261 98.0125 114.598 98.2473C114.939 98.4822 115.384 98.5996 115.933 98.5996C116.558 98.5996 117.054 98.467 117.422 98.2019C117.793 97.9329 117.979 97.611 117.979 97.236C117.979 96.9329 117.873 96.6792 117.661 96.4746C117.448 96.2663 117.123 96.111 116.683 96.0087L115.229 95.6678C114.429 95.4784 113.842 95.1848 113.467 94.7871C113.096 94.3856 112.911 93.8837 112.911 93.2814C112.911 92.789 113.049 92.3534 113.325 91.9746C113.606 91.5958 113.986 91.2985 114.467 91.0826C114.952 90.8667 115.501 90.7587 116.115 90.7587C116.979 90.7587 117.657 90.9481 118.149 91.3269C118.645 91.7057 118.998 92.2057 119.206 92.8269ZM125.179 90.8723V92.0087H120.656V90.8723H125.179ZM121.974 88.7814H123.315V97.0996C123.315 97.4784 123.37 97.7625 123.48 97.9519C123.594 98.1375 123.738 98.2625 123.912 98.3269C124.09 98.3875 124.277 98.4178 124.474 98.4178C124.622 98.4178 124.743 98.4102 124.838 98.3951C124.933 98.3761 125.009 98.361 125.065 98.3496L125.338 99.5542C125.247 99.5882 125.12 99.6223 124.957 99.6564C124.795 99.6943 124.588 99.7132 124.338 99.7132C123.959 99.7132 123.588 99.6318 123.224 99.4689C122.865 99.306 122.565 99.0579 122.327 98.7246C122.092 98.3913 121.974 97.9708 121.974 97.4632V88.7814ZM130.625 103.054C129.977 103.054 129.42 102.971 128.955 102.804C128.489 102.641 128.1 102.425 127.79 102.156C127.483 101.891 127.239 101.607 127.057 101.304L128.125 100.554C128.246 100.713 128.4 100.895 128.585 101.1C128.771 101.308 129.025 101.488 129.347 101.639C129.672 101.795 130.098 101.872 130.625 101.872C131.33 101.872 131.911 101.702 132.369 101.361C132.828 101.02 133.057 100.486 133.057 99.7587V97.986H132.943C132.845 98.1451 132.705 98.342 132.523 98.5769C132.345 98.8079 132.087 99.0144 131.75 99.1962C131.417 99.3742 130.966 99.4632 130.398 99.4632C129.693 99.4632 129.061 99.2966 128.5 98.9632C127.943 98.6299 127.502 98.1451 127.176 97.5087C126.854 96.8723 126.693 96.0996 126.693 95.1905C126.693 94.2966 126.85 93.5182 127.165 92.8553C127.479 92.1886 127.917 91.6735 128.477 91.3098C129.038 90.9424 129.686 90.7587 130.42 90.7587C130.989 90.7587 131.439 90.8534 131.773 91.0428C132.11 91.2284 132.367 91.4405 132.545 91.6792C132.727 91.914 132.867 92.1072 132.966 92.2587H133.102V90.8723H134.398V99.8496C134.398 100.6 134.227 101.209 133.886 101.679C133.549 102.153 133.095 102.499 132.523 102.719C131.955 102.942 131.322 103.054 130.625 103.054ZM130.58 98.2587C131.117 98.2587 131.572 98.1356 131.943 97.8894C132.314 97.6432 132.597 97.289 132.79 96.8269C132.983 96.3648 133.08 95.8117 133.08 95.1678C133.08 94.539 132.985 93.9841 132.795 93.503C132.606 93.022 132.326 92.6451 131.955 92.3723C131.583 92.0996 131.125 91.9632 130.58 91.9632C130.011 91.9632 129.538 92.1072 129.159 92.3951C128.784 92.6829 128.502 93.0693 128.312 93.5542C128.127 94.039 128.034 94.5769 128.034 95.1678C128.034 95.7739 128.129 96.3098 128.318 96.7757C128.511 97.2379 128.795 97.6015 129.17 97.8667C129.549 98.128 130.019 98.2587 130.58 98.2587ZM136.852 99.5996V90.8723H138.148V92.1905H138.239C138.398 91.7587 138.686 91.4083 139.102 91.1394C139.519 90.8704 139.989 90.736 140.511 90.736C140.61 90.736 140.733 90.7379 140.881 90.7417C141.028 90.7454 141.14 90.7511 141.216 90.7587V92.1223C141.17 92.111 141.066 92.0939 140.903 92.0712C140.744 92.0447 140.576 92.0314 140.398 92.0314C139.973 92.0314 139.595 92.1204 139.261 92.2985C138.932 92.4727 138.67 92.7151 138.477 93.0257C138.288 93.3326 138.193 93.6829 138.193 94.0769V99.5996H136.852ZM146.199 99.7814C145.358 99.7814 144.633 99.5958 144.023 99.2246C143.417 98.8496 142.949 98.3269 142.619 97.6564C142.294 96.9822 142.131 96.1981 142.131 95.3042C142.131 94.4102 142.294 93.6223 142.619 92.9405C142.949 92.2549 143.407 91.7208 143.994 91.3382C144.585 90.9519 145.275 90.7587 146.062 90.7587C146.517 90.7587 146.966 90.8345 147.409 90.986C147.852 91.1375 148.256 91.3837 148.619 91.7246C148.983 92.0617 149.273 92.5087 149.489 93.0655C149.705 93.6223 149.812 94.3079 149.812 95.1223V95.6905H143.085V94.5314H148.449C148.449 94.039 148.35 93.5996 148.153 93.2132C147.96 92.8269 147.684 92.522 147.324 92.2985C146.968 92.075 146.547 91.9632 146.062 91.9632C145.528 91.9632 145.066 92.0958 144.676 92.361C144.29 92.6223 143.992 92.9632 143.784 93.3837C143.576 93.8042 143.472 94.2549 143.472 94.736V95.5087C143.472 96.1678 143.585 96.7265 143.812 97.1848C144.044 97.6394 144.364 97.986 144.773 98.2246C145.182 98.4595 145.657 98.5769 146.199 98.5769C146.551 98.5769 146.869 98.5276 147.153 98.4292C147.441 98.3269 147.689 98.1754 147.898 97.9746C148.106 97.7701 148.267 97.5163 148.381 97.2132L149.676 97.5769C149.54 98.0163 149.311 98.4026 148.989 98.736C148.667 99.0655 148.269 99.3231 147.795 99.5087C147.322 99.6905 146.79 99.7814 146.199 99.7814ZM158.398 90.8723C158.33 90.2966 158.053 89.8496 157.568 89.5314C157.083 89.2132 156.489 89.0542 155.784 89.0542C155.269 89.0542 154.818 89.1375 154.432 89.3042C154.049 89.4708 153.75 89.7 153.534 89.9917C153.322 90.2833 153.216 90.6148 153.216 90.986C153.216 91.2966 153.29 91.5636 153.438 91.7871C153.589 92.0068 153.782 92.1905 154.017 92.3382C154.252 92.4822 154.498 92.6015 154.756 92.6962C155.013 92.7871 155.25 92.861 155.466 92.9178L156.648 93.236C156.951 93.3155 157.288 93.4254 157.659 93.5655C158.034 93.7057 158.392 93.897 158.733 94.1394C159.078 94.378 159.362 94.6848 159.585 95.0598C159.809 95.4348 159.92 95.8951 159.92 96.4405C159.92 97.0693 159.756 97.6375 159.426 98.1451C159.1 98.6526 158.623 99.056 157.994 99.3553C157.369 99.6545 156.61 99.8042 155.716 99.8042C154.883 99.8042 154.161 99.6697 153.551 99.4007C152.945 99.1318 152.468 98.7568 152.119 98.2757C151.775 97.7947 151.58 97.236 151.534 96.5996H152.989C153.027 97.039 153.174 97.4026 153.432 97.6905C153.693 97.9746 154.023 98.1867 154.42 98.3269C154.822 98.4632 155.254 98.5314 155.716 98.5314C156.254 98.5314 156.737 98.4443 157.165 98.2701C157.593 98.092 157.932 97.8458 158.182 97.5314C158.432 97.2132 158.557 96.842 158.557 96.4178C158.557 96.0314 158.449 95.717 158.233 95.4746C158.017 95.2322 157.733 95.0352 157.381 94.8837C157.028 94.7322 156.648 94.5996 156.239 94.486L154.807 94.0769C153.898 93.8155 153.178 93.4424 152.648 92.9576C152.117 92.4727 151.852 91.8382 151.852 91.0542C151.852 90.4026 152.028 89.8345 152.381 89.3496C152.737 88.861 153.214 88.4822 153.812 88.2132C154.415 87.9405 155.087 87.8042 155.83 87.8042C156.58 87.8042 157.246 87.9386 157.83 88.2076C158.413 88.4727 158.875 88.8364 159.216 89.2985C159.561 89.7606 159.742 90.2852 159.761 90.8723H158.398ZM166.464 95.9632H168.01L169.305 97.6678L169.646 98.1223L171.578 100.691H170.033L168.76 98.986L168.442 98.5542L166.464 95.9632ZM172.055 93.7814C172.055 95.0087 171.834 96.0693 171.391 96.9632C170.947 97.8572 170.339 98.5466 169.567 99.0314C168.794 99.5163 167.911 99.7587 166.919 99.7587C165.927 99.7587 165.044 99.5163 164.271 99.0314C163.499 98.5466 162.891 97.8572 162.447 96.9632C162.004 96.0693 161.783 95.0087 161.783 93.7814C161.783 92.5542 162.004 91.4935 162.447 90.5996C162.891 89.7057 163.499 89.0163 164.271 88.5314C165.044 88.0466 165.927 87.8042 166.919 87.8042C167.911 87.8042 168.794 88.0466 169.567 88.5314C170.339 89.0163 170.947 89.7057 171.391 90.5996C171.834 91.4935 172.055 92.5542 172.055 93.7814ZM170.692 93.7814C170.692 92.7739 170.523 91.9235 170.186 91.2303C169.853 90.5371 169.4 90.0125 168.828 89.6564C168.26 89.3004 167.624 89.1223 166.919 89.1223C166.214 89.1223 165.576 89.3004 165.004 89.6564C164.436 90.0125 163.983 90.5371 163.646 91.2303C163.313 91.9235 163.146 92.7739 163.146 93.7814C163.146 94.789 163.313 95.6394 163.646 96.3326C163.983 97.0257 164.436 97.5504 165.004 97.9064C165.576 98.2625 166.214 98.4405 166.919 98.4405C167.624 98.4405 168.26 98.2625 168.828 97.9064C169.4 97.5504 169.853 97.0257 170.186 96.3326C170.523 95.6394 170.692 94.789 170.692 93.7814ZM174.425 99.5996V87.9632H175.834V98.3496H181.243V99.5996H174.425Z" fill="#878593"/>
            <path d="M44.2024 146.601C43.1359 147.157 37.6108 149.428 36.4346 150.042C35.2583 150.655 34.6049 150.649 33.6756 150.205C32.7465 149.76 26.8668 147.385 25.8077 146.879C25.2784 146.626 25 146.413 25 146.211V144.191C25 144.191 32.6546 142.524 33.8903 142.081C35.126 141.638 35.5547 141.622 36.6063 142.007C37.6581 142.392 43.9461 143.527 44.9855 143.907L44.985 145.899C44.9851 146.099 44.7453 146.318 44.2024 146.601" fill="#912626"/>
            <path d="M44.202 144.592C43.1355 145.148 37.6107 147.42 36.4344 148.033C35.2582 148.646 34.6048 148.64 33.6756 148.196C32.7464 147.752 26.867 145.377 25.8079 144.871C24.7488 144.365 24.7267 144.016 25.767 143.609C26.8073 143.201 32.6545 140.907 33.8904 140.464C35.1261 140.021 35.5547 140.005 36.6063 140.39C37.658 140.775 43.1499 142.961 44.1891 143.342C45.2286 143.723 45.2685 144.036 44.202 144.592" fill="#C6302B"/>
            <path d="M44.2024 143.331C43.1359 143.887 37.6108 146.159 36.4346 146.772C35.2583 147.385 34.6049 147.379 33.6756 146.935C32.7464 146.491 26.8668 144.116 25.8077 143.61C25.2784 143.357 25 143.143 25 142.942V140.921C25 140.921 32.6546 139.255 33.8903 138.812C35.126 138.368 35.5547 138.352 36.6063 138.737C37.6581 139.123 43.9462 140.257 44.9855 140.638L44.985 142.629C44.9851 142.829 44.7453 143.048 44.2024 143.331Z" fill="#912626"/>
            <path d="M44.202 141.325C43.1355 141.88 37.6107 144.152 36.4344 144.766C35.2582 145.379 34.6048 145.373 33.6756 144.928C32.7464 144.485 26.867 142.109 25.8079 141.603C24.7488 141.097 24.7267 140.749 25.767 140.341C26.8073 139.934 32.6546 137.64 33.8904 137.196C35.1261 136.753 35.5547 136.737 36.6063 137.122C37.658 137.507 43.1499 139.693 44.1891 140.074C45.2286 140.455 45.2685 140.769 44.202 141.325" fill="#C6302B"/>
            <path d="M44.2024 139.942C43.1359 140.498 37.6108 142.77 36.4346 143.383C35.2583 143.996 34.6049 143.99 33.6756 143.546C32.7464 143.102 26.8668 140.727 25.8077 140.221C25.2784 139.968 25 139.754 25 139.553V137.532C25 137.532 32.6546 135.866 33.8903 135.423C35.126 134.98 35.5547 134.964 36.6063 135.349C37.6581 135.734 43.9462 136.868 44.9855 137.249L44.985 139.241C44.9851 139.44 44.7453 139.659 44.2024 139.942Z" fill="#912626"/>
            <path d="M44.202 137.934C43.1355 138.49 37.6106 140.762 36.4344 141.375C35.2582 141.988 34.6048 141.982 33.6756 141.538C32.7464 141.094 26.8669 138.719 25.8079 138.212C24.7488 137.706 24.7267 137.358 25.767 136.95C26.8073 136.543 32.6545 134.249 33.8903 133.806C35.126 133.362 35.5547 133.346 36.6063 133.732C37.6579 134.117 43.1499 136.303 44.189 136.684C45.2286 137.064 45.2685 137.378 44.202 137.934" fill="#C6302B"/>
            <path d="M37.4356 135.968L35.7174 136.147L35.3327 137.072L34.7114 136.04L32.7273 135.861L34.2078 135.327L33.7636 134.508L35.1497 135.05L36.4564 134.622L36.1032 135.47L37.4356 135.968M35.2301 140.459L32.0233 139.129L36.6184 138.423L35.2301 140.459M30.7842 136.483C32.1406 136.483 33.2402 136.909 33.2402 137.435C33.2402 137.961 32.1406 138.387 30.7842 138.387C29.4277 138.387 28.3281 137.961 28.3281 137.435C28.3281 136.909 29.4277 136.483 30.7842 136.483" fill="white"/>
            <path d="M39.4648 136.221L42.1844 137.295L39.4672 138.369L39.4648 136.221" fill="#621B1C"/>
            <path d="M36.457 137.413L39.4658 136.223L39.4681 138.371L39.1731 138.486L36.457 137.413Z" fill="#9A2928"/>
            <path d="M58.8864 147.6H57.4091L61.6818 135.963H63.1364L67.4091 147.6H65.9318L62.4545 137.804H62.3636L58.8864 147.6ZM59.4318 143.054H65.3864V144.304H59.4318V143.054ZM72.3352 147.781C71.608 147.781 70.9659 147.598 70.4091 147.23C69.8523 146.859 69.4167 146.336 69.1023 145.662C68.7879 144.984 68.6307 144.183 68.6307 143.259C68.6307 142.342 68.7879 141.547 69.1023 140.872C69.4167 140.198 69.8542 139.677 70.4148 139.31C70.9754 138.942 71.6231 138.759 72.358 138.759C72.9261 138.759 73.375 138.853 73.7045 139.043C74.0379 139.228 74.2917 139.441 74.4659 139.679C74.6439 139.914 74.7822 140.107 74.8807 140.259H74.9943V135.963H76.3352V147.6H75.0398V146.259H74.8807C74.7822 146.418 74.642 146.619 74.4602 146.861C74.2784 147.1 74.0189 147.314 73.6818 147.503C73.3447 147.689 72.8958 147.781 72.3352 147.781ZM72.517 146.577C73.0549 146.577 73.5095 146.437 73.8807 146.156C74.2519 145.872 74.5341 145.48 74.7273 144.98C74.9205 144.477 75.017 143.895 75.017 143.236C75.017 142.584 74.9223 142.014 74.733 141.526C74.5436 141.033 74.2633 140.651 73.892 140.378C73.5208 140.102 73.0625 139.963 72.517 139.963C71.9489 139.963 71.4754 140.109 71.0966 140.401C70.7216 140.689 70.4394 141.081 70.25 141.577C70.0644 142.069 69.9716 142.622 69.9716 143.236C69.9716 143.857 70.0663 144.422 70.2557 144.929C70.4489 145.433 70.733 145.834 71.108 146.134C71.4867 146.429 71.9564 146.577 72.517 146.577ZM82.2727 147.781C81.5455 147.781 80.9034 147.598 80.3466 147.23C79.7898 146.859 79.3542 146.336 79.0398 145.662C78.7254 144.984 78.5682 144.183 78.5682 143.259C78.5682 142.342 78.7254 141.547 79.0398 140.872C79.3542 140.198 79.7917 139.677 80.3523 139.31C80.9129 138.942 81.5606 138.759 82.2955 138.759C82.8636 138.759 83.3125 138.853 83.642 139.043C83.9754 139.228 84.2292 139.441 84.4034 139.679C84.5814 139.914 84.7197 140.107 84.8182 140.259H84.9318V135.963H86.2727V147.6H84.9773V146.259H84.8182C84.7197 146.418 84.5795 146.619 84.3977 146.861C84.2159 147.1 83.9564 147.314 83.6193 147.503C83.2822 147.689 82.8333 147.781 82.2727 147.781ZM82.4545 146.577C82.9924 146.577 83.447 146.437 83.8182 146.156C84.1894 145.872 84.4716 145.48 84.6648 144.98C84.858 144.477 84.9545 143.895 84.9545 143.236C84.9545 142.584 84.8598 142.014 84.6705 141.526C84.4811 141.033 84.2008 140.651 83.8295 140.378C83.4583 140.102 83 139.963 82.4545 139.963C81.8864 139.963 81.4129 140.109 81.0341 140.401C80.6591 140.689 80.3769 141.081 80.1875 141.577C80.0019 142.069 79.9091 142.622 79.9091 143.236C79.9091 143.857 80.0038 144.422 80.1932 144.929C80.3864 145.433 80.6705 145.834 81.0455 146.134C81.4242 146.429 81.8939 146.577 82.4545 146.577ZM93.5966 147.6V135.963H97.5284C98.4375 135.963 99.1837 136.119 99.767 136.429C100.35 136.736 100.782 137.158 101.062 137.696C101.343 138.234 101.483 138.846 101.483 139.531C101.483 140.217 101.343 140.825 101.062 141.355C100.782 141.886 100.352 142.302 99.7727 142.605C99.1932 142.905 98.4527 143.054 97.5511 143.054H94.3693V141.781H97.5057C98.1269 141.781 98.6269 141.691 99.0057 141.509C99.3883 141.327 99.6648 141.069 99.8352 140.736C100.009 140.399 100.097 139.997 100.097 139.531C100.097 139.066 100.009 138.658 99.8352 138.31C99.661 137.961 99.3826 137.692 99 137.503C98.6174 137.31 98.1117 137.213 97.483 137.213H95.0057V147.6H93.5966ZM99.0739 142.372L101.938 147.6H100.301L97.483 142.372H99.0739ZM107.214 147.781C106.374 147.781 105.648 147.596 105.038 147.225C104.432 146.85 103.964 146.327 103.635 145.656C103.309 144.982 103.146 144.198 103.146 143.304C103.146 142.41 103.309 141.622 103.635 140.941C103.964 140.255 104.423 139.721 105.01 139.338C105.601 138.952 106.29 138.759 107.078 138.759C107.533 138.759 107.982 138.834 108.425 138.986C108.868 139.137 109.271 139.384 109.635 139.725C109.999 140.062 110.288 140.509 110.504 141.066C110.72 141.622 110.828 142.308 110.828 143.122V143.691H104.101V142.531H109.464C109.464 142.039 109.366 141.6 109.169 141.213C108.976 140.827 108.699 140.522 108.339 140.298C107.983 140.075 107.563 139.963 107.078 139.963C106.544 139.963 106.082 140.096 105.692 140.361C105.305 140.622 105.008 140.963 104.8 141.384C104.591 141.804 104.487 142.255 104.487 142.736V143.509C104.487 144.168 104.601 144.727 104.828 145.185C105.059 145.639 105.379 145.986 105.788 146.225C106.197 146.459 106.673 146.577 107.214 146.577C107.567 146.577 107.885 146.528 108.169 146.429C108.457 146.327 108.705 146.175 108.913 145.975C109.122 145.77 109.283 145.516 109.396 145.213L110.692 145.577C110.555 146.016 110.326 146.403 110.004 146.736C109.682 147.066 109.285 147.323 108.811 147.509C108.338 147.691 107.805 147.781 107.214 147.781ZM116.163 147.781C115.436 147.781 114.794 147.598 114.237 147.23C113.68 146.859 113.245 146.336 112.93 145.662C112.616 144.984 112.459 144.183 112.459 143.259C112.459 142.342 112.616 141.547 112.93 140.872C113.245 140.198 113.682 139.677 114.243 139.31C114.804 138.942 115.451 138.759 116.186 138.759C116.754 138.759 117.203 138.853 117.533 139.043C117.866 139.228 118.12 139.441 118.294 139.679C118.472 139.914 118.61 140.107 118.709 140.259H118.822V135.963H120.163V147.6H118.868V146.259H118.709C118.61 146.418 118.47 146.619 118.288 146.861C118.107 147.1 117.847 147.314 117.51 147.503C117.173 147.689 116.724 147.781 116.163 147.781ZM116.345 146.577C116.883 146.577 117.338 146.437 117.709 146.156C118.08 145.872 118.362 145.48 118.555 144.98C118.749 144.477 118.845 143.895 118.845 143.236C118.845 142.584 118.75 142.014 118.561 141.526C118.372 141.033 118.091 140.651 117.72 140.378C117.349 140.102 116.891 139.963 116.345 139.963C115.777 139.963 115.304 140.109 114.925 140.401C114.55 140.689 114.268 141.081 114.078 141.577C113.893 142.069 113.8 142.622 113.8 143.236C113.8 143.857 113.894 144.422 114.084 144.929C114.277 145.433 114.561 145.834 114.936 146.134C115.315 146.429 115.785 146.577 116.345 146.577ZM122.805 147.6V138.872H124.146V147.6H122.805ZM123.487 137.418C123.226 137.418 123 137.329 122.811 137.151C122.625 136.973 122.533 136.759 122.533 136.509C122.533 136.259 122.625 136.045 122.811 135.867C123 135.689 123.226 135.6 123.487 135.6C123.749 135.6 123.972 135.689 124.158 135.867C124.347 136.045 124.442 136.259 124.442 136.509C124.442 136.759 124.347 136.973 124.158 137.151C123.972 137.329 123.749 137.418 123.487 137.418ZM132.784 140.827L131.58 141.168C131.504 140.967 131.392 140.772 131.244 140.583C131.1 140.389 130.903 140.23 130.653 140.105C130.403 139.98 130.083 139.918 129.693 139.918C129.159 139.918 128.714 140.041 128.358 140.287C128.006 140.53 127.83 140.838 127.83 141.213C127.83 141.547 127.951 141.81 128.193 142.003C128.436 142.196 128.814 142.357 129.33 142.486L130.625 142.804C131.405 142.994 131.987 143.283 132.369 143.673C132.752 144.06 132.943 144.558 132.943 145.168C132.943 145.668 132.799 146.115 132.511 146.509C132.227 146.903 131.83 147.213 131.318 147.441C130.807 147.668 130.212 147.781 129.534 147.781C128.644 147.781 127.907 147.588 127.324 147.202C126.741 146.816 126.371 146.251 126.216 145.509L127.489 145.191C127.61 145.66 127.839 146.012 128.176 146.247C128.517 146.482 128.962 146.6 129.511 146.6C130.136 146.6 130.633 146.467 131 146.202C131.371 145.933 131.557 145.611 131.557 145.236C131.557 144.933 131.451 144.679 131.239 144.475C131.027 144.266 130.701 144.111 130.261 144.009L128.807 143.668C128.008 143.478 127.42 143.185 127.045 142.787C126.674 142.386 126.489 141.884 126.489 141.281C126.489 140.789 126.627 140.353 126.903 139.975C127.184 139.596 127.564 139.298 128.045 139.083C128.53 138.867 129.08 138.759 129.693 138.759C130.557 138.759 131.235 138.948 131.727 139.327C132.223 139.706 132.576 140.206 132.784 140.827Z" fill="#878593"/>
            <path fill-rule="evenodd" clip-rule="evenodd" d="M39.1378 188.95C39.0799 188.201 38.904 187.479 38.6593 186.772C38.1524 185.194 37.339 183.796 36.1932 182.594C35.9035 182.29 35.5814 182.012 35.3793 181.633C35.2515 181.394 35.1298 181.151 35.0053 180.91L34.9264 180.711C34.9131 180.757 34.9046 180.773 34.9042 180.789C34.894 181.183 34.6712 181.449 34.3937 181.698C34.0817 181.978 33.7912 182.282 33.4914 182.576L32.5693 183.789C32.3206 184.246 32.0721 184.703 31.8237 185.16L31.3253 186.506L31.3103 186.527C31.0359 187.429 30.9006 188.355 30.834 189.291C30.809 189.643 30.8374 190 30.8573 190.353C30.8856 190.859 30.9734 191.356 31.1051 191.845C31.5835 193.622 32.5545 195.095 33.8818 196.348C34.1285 196.58 34.3817 196.792 34.6392 197.013C34.6832 196.862 34.7184 196.712 34.7584 196.561C34.7984 196.411 34.8389 196.261 34.8659 196.111C34.8387 196.261 34.8082 196.411 34.7781 196.561L34.649 197.013L34.7643 197.404L34.8712 198.011L34.9221 198.644C34.9217 198.773 34.9165 198.902 34.9243 199.03C34.9262 199.063 34.9693 199.093 34.9934 199.125L35.2084 199.2L35.4324 199.287L35.394 198.725L35.3923 198.17L35.4696 197.326L35.5257 197.142L35.6862 196.857C35.8843 196.698 36.097 196.553 36.2774 196.376C36.604 196.055 36.9298 195.73 37.222 195.379C37.6023 194.923 37.927 194.424 38.1893 193.892C38.3646 193.535 38.5296 193.171 38.6662 192.798C38.7865 192.469 38.861 192.124 38.9559 191.785C38.9643 191.761 38.9756 191.737 38.9809 191.712C39.1768 190.8 39.2098 189.878 39.1378 188.95V188.95ZM35.4504 196.664L35.3246 196.389L35.4504 196.664L35.6353 196.822L35.4504 196.664Z" fill="#4FAA41"/>
            <path d="M58.8864 195.6H57.4091L61.6818 183.963H63.1364L67.4091 195.6H65.9318L62.4545 185.804H62.3636L58.8864 195.6ZM59.4318 191.054H65.3864V192.304H59.4318V191.054ZM72.3352 195.781C71.608 195.781 70.9659 195.598 70.4091 195.23C69.8523 194.859 69.4167 194.336 69.1023 193.662C68.7879 192.984 68.6307 192.183 68.6307 191.259C68.6307 190.342 68.7879 189.547 69.1023 188.872C69.4167 188.198 69.8542 187.677 70.4148 187.31C70.9754 186.942 71.6231 186.759 72.358 186.759C72.9261 186.759 73.375 186.853 73.7045 187.043C74.0379 187.228 74.2917 187.441 74.4659 187.679C74.6439 187.914 74.7822 188.107 74.8807 188.259H74.9943V183.963H76.3352V195.6H75.0398V194.259H74.8807C74.7822 194.418 74.642 194.619 74.4602 194.861C74.2784 195.1 74.0189 195.314 73.6818 195.503C73.3447 195.689 72.8958 195.781 72.3352 195.781ZM72.517 194.577C73.0549 194.577 73.5095 194.437 73.8807 194.156C74.2519 193.872 74.5341 193.48 74.7273 192.98C74.9205 192.477 75.017 191.895 75.017 191.236C75.017 190.584 74.9223 190.014 74.733 189.526C74.5436 189.033 74.2633 188.651 73.892 188.378C73.5208 188.102 73.0625 187.963 72.517 187.963C71.9489 187.963 71.4754 188.109 71.0966 188.401C70.7216 188.689 70.4394 189.081 70.25 189.577C70.0644 190.069 69.9716 190.622 69.9716 191.236C69.9716 191.857 70.0663 192.422 70.2557 192.929C70.4489 193.433 70.733 193.834 71.108 194.134C71.4867 194.429 71.9564 194.577 72.517 194.577ZM82.2727 195.781C81.5455 195.781 80.9034 195.598 80.3466 195.23C79.7898 194.859 79.3542 194.336 79.0398 193.662C78.7254 192.984 78.5682 192.183 78.5682 191.259C78.5682 190.342 78.7254 189.547 79.0398 188.872C79.3542 188.198 79.7917 187.677 80.3523 187.31C80.9129 186.942 81.5606 186.759 82.2955 186.759C82.8636 186.759 83.3125 186.853 83.642 187.043C83.9754 187.228 84.2292 187.441 84.4034 187.679C84.5814 187.914 84.7197 188.107 84.8182 188.259H84.9318V183.963H86.2727V195.6H84.9773V194.259H84.8182C84.7197 194.418 84.5795 194.619 84.3977 194.861C84.2159 195.1 83.9564 195.314 83.6193 195.503C83.2822 195.689 82.8333 195.781 82.2727 195.781ZM82.4545 194.577C82.9924 194.577 83.447 194.437 83.8182 194.156C84.1894 193.872 84.4716 193.48 84.6648 192.98C84.858 192.477 84.9545 191.895 84.9545 191.236C84.9545 190.584 84.8598 190.014 84.6705 189.526C84.4811 189.033 84.2008 188.651 83.8295 188.378C83.4583 188.102 83 187.963 82.4545 187.963C81.8864 187.963 81.4129 188.109 81.0341 188.401C80.6591 188.689 80.3769 189.081 80.1875 189.577C80.0019 190.069 79.9091 190.622 79.9091 191.236C79.9091 191.857 80.0038 192.422 80.1932 192.929C80.3864 193.433 80.6705 193.834 81.0455 194.134C81.4242 194.429 81.8939 194.577 82.4545 194.577ZM93.5966 183.963H95.2784L99.233 193.622H99.3693L103.324 183.963H105.006V195.6H103.688V186.759H103.574L99.9375 195.6H98.6648L95.0284 186.759H94.9148V195.6H93.5966V183.963ZM111.195 195.781C110.407 195.781 109.715 195.594 109.121 195.219C108.53 194.844 108.068 194.319 107.734 193.645C107.405 192.971 107.24 192.183 107.24 191.281C107.24 190.372 107.405 189.579 107.734 188.901C108.068 188.223 108.53 187.696 109.121 187.321C109.715 186.946 110.407 186.759 111.195 186.759C111.982 186.759 112.672 186.946 113.263 187.321C113.857 187.696 114.32 188.223 114.649 188.901C114.982 189.579 115.149 190.372 115.149 191.281C115.149 192.183 114.982 192.971 114.649 193.645C114.32 194.319 113.857 194.844 113.263 195.219C112.672 195.594 111.982 195.781 111.195 195.781ZM111.195 194.577C111.793 194.577 112.286 194.423 112.672 194.117C113.058 193.81 113.344 193.406 113.53 192.906C113.715 192.406 113.808 191.865 113.808 191.281C113.808 190.698 113.715 190.155 113.53 189.651C113.344 189.147 113.058 188.74 112.672 188.429C112.286 188.119 111.793 187.963 111.195 187.963C110.596 187.963 110.104 188.119 109.717 188.429C109.331 188.74 109.045 189.147 108.859 189.651C108.674 190.155 108.581 190.698 108.581 191.281C108.581 191.865 108.674 192.406 108.859 192.906C109.045 193.406 109.331 193.81 109.717 194.117C110.104 194.423 110.596 194.577 111.195 194.577ZM118.537 190.35V195.6H117.196V186.872H118.491V188.236H118.605C118.81 187.793 119.12 187.437 119.537 187.168C119.954 186.895 120.491 186.759 121.151 186.759C121.741 186.759 122.259 186.88 122.702 187.122C123.145 187.361 123.49 187.725 123.736 188.213C123.982 188.698 124.105 189.312 124.105 190.054V195.6H122.764V190.145C122.764 189.459 122.586 188.925 122.23 188.543C121.874 188.156 121.385 187.963 120.764 187.963C120.336 187.963 119.954 188.056 119.616 188.242C119.283 188.427 119.02 188.698 118.827 189.054C118.634 189.41 118.537 189.842 118.537 190.35ZM130.078 199.054C129.43 199.054 128.874 198.971 128.408 198.804C127.942 198.641 127.554 198.425 127.243 198.156C126.936 197.891 126.692 197.607 126.51 197.304L127.578 196.554C127.699 196.713 127.853 196.895 128.038 197.1C128.224 197.308 128.478 197.488 128.8 197.639C129.125 197.795 129.552 197.872 130.078 197.872C130.783 197.872 131.364 197.702 131.822 197.361C132.281 197.02 132.51 196.486 132.51 195.759V193.986H132.396C132.298 194.145 132.158 194.342 131.976 194.577C131.798 194.808 131.54 195.014 131.203 195.196C130.87 195.374 130.419 195.463 129.851 195.463C129.146 195.463 128.514 195.297 127.953 194.963C127.396 194.63 126.955 194.145 126.629 193.509C126.307 192.872 126.146 192.1 126.146 191.191C126.146 190.297 126.304 189.518 126.618 188.855C126.932 188.189 127.37 187.673 127.93 187.31C128.491 186.942 129.139 186.759 129.874 186.759C130.442 186.759 130.893 186.853 131.226 187.043C131.563 187.228 131.821 187.441 131.999 187.679C132.18 187.914 132.321 188.107 132.419 188.259H132.555V186.872H133.851V195.85C133.851 196.6 133.68 197.209 133.339 197.679C133.002 198.153 132.548 198.499 131.976 198.719C131.408 198.942 130.775 199.054 130.078 199.054ZM130.033 194.259C130.571 194.259 131.025 194.136 131.396 193.889C131.768 193.643 132.05 193.289 132.243 192.827C132.436 192.365 132.533 191.812 132.533 191.168C132.533 190.539 132.438 189.984 132.249 189.503C132.059 189.022 131.779 188.645 131.408 188.372C131.036 188.1 130.578 187.963 130.033 187.963C129.464 187.963 128.991 188.107 128.612 188.395C128.237 188.683 127.955 189.069 127.766 189.554C127.58 190.039 127.487 190.577 127.487 191.168C127.487 191.774 127.582 192.31 127.771 192.776C127.964 193.238 128.249 193.602 128.624 193.867C129.002 194.128 129.472 194.259 130.033 194.259ZM139.851 195.781C139.063 195.781 138.372 195.594 137.777 195.219C137.186 194.844 136.724 194.319 136.391 193.645C136.061 192.971 135.896 192.183 135.896 191.281C135.896 190.372 136.061 189.579 136.391 188.901C136.724 188.223 137.186 187.696 137.777 187.321C138.372 186.946 139.063 186.759 139.851 186.759C140.639 186.759 141.328 186.946 141.919 187.321C142.514 187.696 142.976 188.223 143.305 188.901C143.639 189.579 143.805 190.372 143.805 191.281C143.805 192.183 143.639 192.971 143.305 193.645C142.976 194.319 142.514 194.844 141.919 195.219C141.328 195.594 140.639 195.781 139.851 195.781ZM139.851 194.577C140.449 194.577 140.942 194.423 141.328 194.117C141.714 193.81 142 193.406 142.186 192.906C142.372 192.406 142.464 191.865 142.464 191.281C142.464 190.698 142.372 190.155 142.186 189.651C142 189.147 141.714 188.74 141.328 188.429C140.942 188.119 140.449 187.963 139.851 187.963C139.252 187.963 138.76 188.119 138.374 188.429C137.987 188.74 137.701 189.147 137.516 189.651C137.33 190.155 137.237 190.698 137.237 191.281C137.237 191.865 137.33 192.406 137.516 192.906C137.701 193.406 137.987 193.81 138.374 194.117C138.76 194.423 139.252 194.577 139.851 194.577ZM149.625 195.6H146.034V183.963H149.784C150.913 183.963 151.879 184.196 152.682 184.662C153.485 185.124 154.1 185.789 154.528 186.656C154.956 187.52 155.17 188.554 155.17 189.759C155.17 190.971 154.955 192.014 154.523 192.889C154.091 193.761 153.462 194.431 152.636 194.901C151.811 195.367 150.807 195.6 149.625 195.6ZM147.443 194.35H149.534C150.496 194.35 151.294 194.164 151.926 193.793C152.559 193.422 153.03 192.893 153.341 192.208C153.652 191.522 153.807 190.706 153.807 189.759C153.807 188.819 153.653 188.011 153.347 187.333C153.04 186.651 152.581 186.128 151.972 185.764C151.362 185.397 150.602 185.213 149.693 185.213H147.443V194.35ZM157.534 195.6V183.963H161.602C162.413 183.963 163.081 184.103 163.608 184.384C164.134 184.66 164.527 185.033 164.784 185.503C165.042 185.969 165.17 186.486 165.17 187.054C165.17 187.554 165.081 187.967 164.903 188.293C164.729 188.619 164.498 188.876 164.21 189.066C163.926 189.255 163.617 189.395 163.284 189.486V189.6C163.64 189.622 163.998 189.747 164.358 189.975C164.718 190.202 165.019 190.528 165.261 190.952C165.504 191.376 165.625 191.895 165.625 192.509C165.625 193.092 165.492 193.617 165.227 194.083C164.962 194.548 164.544 194.918 163.972 195.191C163.4 195.463 162.655 195.6 161.739 195.6H157.534ZM158.943 194.35H161.739C162.659 194.35 163.313 194.172 163.699 193.816C164.089 193.456 164.284 193.02 164.284 192.509C164.284 192.115 164.184 191.751 163.983 191.418C163.782 191.081 163.496 190.812 163.125 190.611C162.754 190.406 162.314 190.304 161.807 190.304H158.943V194.35ZM158.943 189.077H161.557C161.981 189.077 162.364 188.994 162.705 188.827C163.049 188.66 163.322 188.425 163.523 188.122C163.727 187.819 163.83 187.463 163.83 187.054C163.83 186.543 163.652 186.109 163.295 185.753C162.939 185.393 162.375 185.213 161.602 185.213H158.943V189.077Z" fill="white"/>
            <path d="M43.4081 243.323C42.3208 243.296 41.478 243.405 40.7712 243.704C40.5673 243.785 40.2411 243.785 40.2139 244.044C40.3226 244.152 40.3362 244.329 40.4314 244.479C40.5947 244.75 40.8799 245.117 41.1382 245.308C41.4236 245.525 41.7091 245.743 42.008 245.933C42.5382 246.259 43.1363 246.449 43.6528 246.776C43.9519 246.966 44.2508 247.211 44.5498 247.415C44.6993 247.523 44.7944 247.7 44.9848 247.768V247.727C44.8896 247.605 44.8624 247.428 44.7673 247.292C44.6315 247.156 44.4954 247.034 44.3595 246.898C43.9654 246.368 43.4761 245.906 42.946 245.525C42.5111 245.226 41.5595 244.818 41.3829 244.315C41.3829 244.315 41.3692 244.302 41.3557 244.288C41.6547 244.261 42.008 244.152 42.2936 244.071C42.7557 243.948 43.177 243.976 43.6528 243.853C43.8702 243.799 44.0877 243.731 44.3051 243.663V243.541C44.0606 243.296 43.8839 242.97 43.6256 242.739C42.9324 242.141 42.1711 241.556 41.3829 241.067C40.9615 240.795 40.4177 240.618 39.9692 240.387C39.8062 240.306 39.5343 240.265 39.4392 240.129C39.1944 239.83 39.0585 239.436 38.8818 239.082C38.4878 238.335 38.1071 237.506 37.7672 236.717C37.5227 236.187 37.3732 235.657 37.0741 235.168C35.6741 232.857 34.1518 231.457 31.814 230.084C31.311 229.799 30.7129 229.677 30.0741 229.527C29.7344 229.514 29.3945 229.486 29.0547 229.473C28.8372 229.378 28.6197 229.119 28.4294 228.997C27.6548 228.508 25.6566 227.448 25.0858 228.848C24.7187 229.731 25.6295 230.601 25.942 231.05C26.1733 231.362 26.4722 231.715 26.6353 232.069C26.7304 232.3 26.7575 232.545 26.8527 232.789C27.0703 233.387 27.274 234.053 27.5596 234.611C27.7091 234.896 27.8722 235.195 28.0625 235.453C28.1712 235.603 28.3615 235.671 28.4023 235.915C28.2121 236.187 28.1984 236.595 28.0896 236.935C27.6003 238.471 27.7907 240.374 28.4838 241.502C28.7012 241.842 29.2178 242.589 29.911 242.304C30.5227 242.059 30.3868 241.284 30.5633 240.605C30.6043 240.442 30.5771 240.333 30.6586 240.224V240.251C30.8489 240.632 31.0391 240.999 31.2158 241.38C31.6372 242.046 32.3711 242.739 32.9828 243.201C33.3091 243.446 33.5673 243.867 33.9751 244.016V243.976H33.9479C33.8663 243.853 33.744 243.799 33.6353 243.704C33.3907 243.459 33.1187 243.16 32.9285 242.888C32.3577 242.127 31.8547 241.284 31.4061 240.414C31.1887 239.993 30.9983 239.531 30.8217 239.11C30.74 238.946 30.74 238.702 30.6042 238.62C30.4003 238.919 30.1013 239.178 29.9518 239.545C29.6936 240.129 29.6664 240.849 29.5712 241.597C29.5168 241.611 29.544 241.597 29.5168 241.624C29.0819 241.515 28.9324 241.067 28.7692 240.686C28.3614 239.721 28.2934 238.172 28.6469 237.057C28.7421 236.772 29.1499 235.875 28.9868 235.603C28.9052 235.345 28.6333 235.195 28.4838 234.991C28.3072 234.733 28.1168 234.407 27.9945 234.121C27.6683 233.36 27.5051 232.517 27.1518 231.756C26.9886 231.403 26.7033 231.036 26.4722 230.71C26.214 230.343 25.9285 230.084 25.7246 229.649C25.6567 229.5 25.5615 229.255 25.6702 229.092C25.6974 228.983 25.7517 228.943 25.8605 228.916C26.0372 228.766 26.5402 228.956 26.7168 229.038C27.2197 229.242 27.6411 229.432 28.0625 229.717C28.2527 229.853 28.4566 230.112 28.7012 230.18H28.9867C29.4217 230.275 29.9109 230.207 30.3187 230.329C31.0392 230.56 31.6915 230.9 32.2761 231.267C34.0567 232.395 35.5245 233.999 36.5168 235.915C36.68 236.228 36.7479 236.514 36.8974 236.84C37.1829 237.506 37.5363 238.185 37.8216 238.838C38.1071 239.477 38.3789 240.129 38.7867 240.659C38.9906 240.945 39.8061 241.094 40.1731 241.244C40.445 241.366 40.8664 241.475 41.111 241.624C41.5731 241.91 42.0352 242.236 42.4702 242.548C42.6877 242.712 43.3672 243.051 43.4081 243.323V243.323Z" fill="#00546B"/>
            <path d="M29.5455 231.512C29.3145 231.512 29.1514 231.539 28.9883 231.58V231.607H29.0155C29.1243 231.824 29.3145 231.974 29.4503 232.164C29.5591 232.382 29.6542 232.599 29.763 232.817C29.7766 232.803 29.7902 232.79 29.7902 232.79C29.9805 232.654 30.0756 232.436 30.0756 232.11C29.9941 232.015 29.9805 231.92 29.9125 231.824C29.831 231.688 29.6542 231.621 29.5455 231.512V231.512Z" fill="#00546B"/>
            <path d="M58.8864 242.6H57.4091L61.6818 230.963H63.1364L67.4091 242.6H65.9318L62.4545 232.804H62.3636L58.8864 242.6ZM59.4318 238.054H65.3864V239.304H59.4318V238.054ZM72.3352 242.781C71.608 242.781 70.9659 242.598 70.4091 242.23C69.8523 241.859 69.4167 241.336 69.1023 240.662C68.7879 239.984 68.6307 239.183 68.6307 238.259C68.6307 237.342 68.7879 236.547 69.1023 235.872C69.4167 235.198 69.8542 234.677 70.4148 234.31C70.9754 233.942 71.6231 233.759 72.358 233.759C72.9261 233.759 73.375 233.853 73.7045 234.043C74.0379 234.228 74.2917 234.441 74.4659 234.679C74.6439 234.914 74.7822 235.107 74.8807 235.259H74.9943V230.963H76.3352V242.6H75.0398V241.259H74.8807C74.7822 241.418 74.642 241.619 74.4602 241.861C74.2784 242.1 74.0189 242.314 73.6818 242.503C73.3447 242.689 72.8958 242.781 72.3352 242.781ZM72.517 241.577C73.0549 241.577 73.5095 241.437 73.8807 241.156C74.2519 240.872 74.5341 240.48 74.7273 239.98C74.9205 239.477 75.017 238.895 75.017 238.236C75.017 237.584 74.9223 237.014 74.733 236.526C74.5436 236.033 74.2633 235.651 73.892 235.378C73.5208 235.102 73.0625 234.963 72.517 234.963C71.9489 234.963 71.4754 235.109 71.0966 235.401C70.7216 235.689 70.4394 236.081 70.25 236.577C70.0644 237.069 69.9716 237.622 69.9716 238.236C69.9716 238.857 70.0663 239.422 70.2557 239.929C70.4489 240.433 70.733 240.834 71.108 241.134C71.4867 241.429 71.9564 241.577 72.517 241.577ZM82.2727 242.781C81.5455 242.781 80.9034 242.598 80.3466 242.23C79.7898 241.859 79.3542 241.336 79.0398 240.662C78.7254 239.984 78.5682 239.183 78.5682 238.259C78.5682 237.342 78.7254 236.547 79.0398 235.872C79.3542 235.198 79.7917 234.677 80.3523 234.31C80.9129 233.942 81.5606 233.759 82.2955 233.759C82.8636 233.759 83.3125 233.853 83.642 234.043C83.9754 234.228 84.2292 234.441 84.4034 234.679C84.5814 234.914 84.7197 235.107 84.8182 235.259H84.9318V230.963H86.2727V242.6H84.9773V241.259H84.8182C84.7197 241.418 84.5795 241.619 84.3977 241.861C84.2159 242.1 83.9564 242.314 83.6193 242.503C83.2822 242.689 82.8333 242.781 82.2727 242.781ZM82.4545 241.577C82.9924 241.577 83.447 241.437 83.8182 241.156C84.1894 240.872 84.4716 240.48 84.6648 239.98C84.858 239.477 84.9545 238.895 84.9545 238.236C84.9545 237.584 84.8598 237.014 84.6705 236.526C84.4811 236.033 84.2008 235.651 83.8295 235.378C83.4583 235.102 83 234.963 82.4545 234.963C81.8864 234.963 81.4129 235.109 81.0341 235.401C80.6591 235.689 80.3769 236.081 80.1875 236.577C80.0019 237.069 79.9091 237.622 79.9091 238.236C79.9091 238.857 80.0038 239.422 80.1932 239.929C80.3864 240.433 80.6705 240.834 81.0455 241.134C81.4242 241.429 81.8939 241.577 82.4545 241.577ZM93.5966 230.963H95.2784L99.233 240.622H99.3693L103.324 230.963H105.006V242.6H103.688V233.759H103.574L99.9375 242.6H98.6648L95.0284 233.759H94.9148V242.6H93.5966V230.963ZM108.513 245.872C108.286 245.872 108.083 245.853 107.905 245.816C107.727 245.781 107.604 245.747 107.536 245.713L107.876 244.531C108.202 244.615 108.49 244.645 108.74 244.622C108.99 244.6 109.212 244.488 109.405 244.287C109.602 244.09 109.782 243.77 109.945 243.327L110.195 242.645L106.967 233.872H108.422L110.831 240.827H110.922L113.331 233.872H114.786L111.081 243.872C110.914 244.323 110.708 244.696 110.462 244.992C110.215 245.291 109.929 245.512 109.604 245.656C109.282 245.8 108.918 245.872 108.513 245.872ZM123.101 233.872C123.033 233.297 122.756 232.85 122.271 232.531C121.786 232.213 121.192 232.054 120.487 232.054C119.972 232.054 119.521 232.137 119.135 232.304C118.752 232.471 118.453 232.7 118.237 232.992C118.025 233.283 117.919 233.615 117.919 233.986C117.919 234.297 117.993 234.564 118.141 234.787C118.292 235.007 118.485 235.191 118.72 235.338C118.955 235.482 119.201 235.602 119.459 235.696C119.716 235.787 119.953 235.861 120.169 235.918L121.351 236.236C121.654 236.316 121.991 236.425 122.362 236.566C122.737 236.706 123.095 236.897 123.436 237.139C123.781 237.378 124.065 237.685 124.288 238.06C124.512 238.435 124.624 238.895 124.624 239.441C124.624 240.069 124.459 240.637 124.129 241.145C123.804 241.653 123.326 242.056 122.697 242.355C122.072 242.655 121.313 242.804 120.419 242.804C119.586 242.804 118.864 242.67 118.254 242.401C117.648 242.132 117.171 241.757 116.822 241.276C116.478 240.795 116.283 240.236 116.237 239.6H117.692C117.73 240.039 117.877 240.403 118.135 240.691C118.396 240.975 118.726 241.187 119.124 241.327C119.525 241.463 119.957 241.531 120.419 241.531C120.957 241.531 121.44 241.444 121.868 241.27C122.296 241.092 122.635 240.846 122.885 240.531C123.135 240.213 123.26 239.842 123.26 239.418C123.26 239.031 123.152 238.717 122.936 238.475C122.72 238.232 122.436 238.035 122.084 237.884C121.732 237.732 121.351 237.6 120.942 237.486L119.51 237.077C118.601 236.816 117.881 236.442 117.351 235.958C116.821 235.473 116.555 234.838 116.555 234.054C116.555 233.403 116.732 232.834 117.084 232.35C117.44 231.861 117.917 231.482 118.516 231.213C119.118 230.941 119.79 230.804 120.533 230.804C121.283 230.804 121.949 230.939 122.533 231.208C123.116 231.473 123.578 231.836 123.919 232.298C124.264 232.761 124.446 233.285 124.464 233.872H123.101ZM131.168 238.963H132.713L134.009 240.668L134.349 241.122L136.281 243.691H134.736L133.463 241.986L133.145 241.554L131.168 238.963ZM136.759 236.781C136.759 238.009 136.537 239.069 136.094 239.963C135.651 240.857 135.043 241.547 134.27 242.031C133.497 242.516 132.615 242.759 131.622 242.759C130.63 242.759 129.747 242.516 128.974 242.031C128.202 241.547 127.594 240.857 127.151 239.963C126.707 239.069 126.486 238.009 126.486 236.781C126.486 235.554 126.707 234.494 127.151 233.6C127.594 232.706 128.202 232.016 128.974 231.531C129.747 231.047 130.63 230.804 131.622 230.804C132.615 230.804 133.497 231.047 134.27 231.531C135.043 232.016 135.651 232.706 136.094 233.6C136.537 234.494 136.759 235.554 136.759 236.781ZM135.395 236.781C135.395 235.774 135.226 234.923 134.889 234.23C134.556 233.537 134.103 233.012 133.531 232.656C132.963 232.3 132.327 232.122 131.622 232.122C130.918 232.122 130.279 232.3 129.707 232.656C129.139 233.012 128.687 233.537 128.349 234.23C128.016 234.923 127.849 235.774 127.849 236.781C127.849 237.789 128.016 238.639 128.349 239.333C128.687 240.026 129.139 240.55 129.707 240.906C130.279 241.262 130.918 241.441 131.622 241.441C132.327 241.441 132.963 241.262 133.531 240.906C134.103 240.55 134.556 240.026 134.889 239.333C135.226 238.639 135.395 237.789 135.395 236.781ZM139.128 242.6V230.963H140.537V241.35H145.946V242.6H139.128Z" fill="#878593"/>
        </g>
    </g>
</svg>
