<?xml version="1.0" encoding="UTF-8" standalone="no"?>
<svg xmlns="http://www.w3.org/2000/svg" version="1.2" baseProfile="tiny" viewBox="0 0 180 180">
  <g stroke-width="2.0" fill="none" stroke-linecap="butt">
    <path stroke="#6a96ae" vector-effect="non-scaling-stroke"
      d="
  M 17.85 95.99
  Q 26.85 101.55 34.99 105.71
  Q 35.06 105.74 36.32 106.52
  Q 38.10 107.62 40.73 107.23
  C 41.05 107.19 41.32 106.98 41.44 106.68
  Q 43.51 101.87 48.10 99.54
  C 48.43 99.37 48.78 99.37 49.01 99.53
  Q 49.52 99.89 48.63 100.33
  Q 48.13 100.58 47.93 100.74
  Q 45.67 102.58 46.52 105.34
  C 46.62 105.65 46.83 105.91 47.11 106.06
  L 70.81 119.02
  C 71.10 119.19 71.44 119.22 71.74 119.12
  Q 73.25 118.60 73.70 117.06
  C 73.79 116.74 74.02 116.49 74.29 116.42
  Q 76.81 115.73 78.44 116.81
  Q 82.81 119.71 88.25 122.26
  C 88.90 122.56 89.62 122.55 90.19 122.24
  L 100.13 116.77
  Q 101.63 115.95 101.07 117.53
  Q 98.12 125.87 106.70 128.65
  C 107.31 128.85 107.81 129.26 108.08 129.80
  L 119.71 152.92
  Q 120.47 154.43 120.27 156.30
  Q 119.83 160.39 122.79 162.71
  Q 124.82 164.30 126.94 165.76
  Q 129.25 167.36 131.55 167.80
  Q 135.69 168.59 138.44 167.44
  Q 145.30 164.56 154.85 156.33
  Q 159.23 152.55 156.81 147.19
  Q 153.45 139.72 143.39 120.78
  Q 137.75 110.19 132.61 99.16
  C 132.49 98.89 132.59 98.58 132.85 98.43
  Q 144.92 91.68 156.75 85.00
  Q 159.08 83.68 158.14 81.67
  Q 157.68 80.68 156.02 79.71
  Q 154.71 78.94 153.49 78.10
  C 153.27 77.94 153.24 77.63 153.43 77.44
  Q 165.73 65.60 164.50 48.50
  Q 163.58 35.74 152.06 28.69
  Q 149.33 27.02 138.27 21.13
  Q 126.46 14.83 124.18 14.15
  Q 114.95 11.35 105.56 16.06
  Q 95.93 20.89 90.88 30.07
  Q 88.48 34.42 86.10 44.99
  Q 84.04 54.12 81.87 63.23
  Q 81.32 65.52 79.33 67.02
  C 78.95 67.31 78.44 67.35 78.03 67.12
  L 63.99 59.44
  C 63.73 59.29 63.53 59.02 63.45 58.69
  Q 62.55 55.06 59.54 54.35
  Q 57.46 53.85 54.19 55.40
  Q 50.96 56.94 47.88 58.79
  Q 47.82 58.83 44.88 60.34
  Q 41.30 62.18 41.00 66.00
  Q 40.82 68.30 40.11 69.42
  C 39.92 69.71 39.88 70.04 39.99 70.29
  Q 40.74 72.00 43.06 73.65
  C 43.31 73.83 43.41 74.15 43.30 74.43
  Q 41.27 80.04 41.59 85.36
  Q 41.64 86.16 40.92 85.80
  Q 24.42 77.50 16.84 92.35
  Q 15.67 94.64 17.85 95.99"
    />
    <path stroke="#80a2b6" vector-effect="non-scaling-stroke"
      d="
  M 115.75 15.29
  Q 114.08 15.01 112.50 15.54"
    />
    <path stroke="#017ba8" vector-effect="non-scaling-stroke" d="
  M 112.50 15.54
  L 109.46 16.50"
    />
    <path stroke="#80a2b6" vector-effect="non-scaling-stroke"
      d="
  M 109.46 16.50
  Q 108.03 16.65 106.31 17.56
  Q 92.62 24.83 89.02 39.76
  Q 86.05 52.09 83.25 64.46"
    />
    <path stroke="#017ba8" vector-effect="non-scaling-stroke" d="
  M 83.25 64.46
  L 82.54 66.50"
    />
    <path stroke="#80a2b6" vector-effect="non-scaling-stroke"
      d="
  M 82.54 66.50
  Q 82.13 66.89 82.15 67.33
  Q 82.16 67.67 82.56 68.05
  Q 83.79 69.19 85.25 70.04"
    />
    <path stroke="#017ba8" vector-effect="non-scaling-stroke"
      d="
  M 85.25 70.04
  Q 85.12 73.01 86.45 75.62
  C 86.59 75.90 86.84 76.12 87.15 76.24
  Q 98.66 80.93 97.00 93.72
  Q 95.83 102.77 88.22 107.67
  Q 85.76 109.26 88.10 108.76
  Q 88.43 108.69 88.73 108.51
  Q 93.69 105.50 96.31 100.68
  Q 97.34 98.77 100.07 90.76
  Q 101.91 85.36 103.25 79.79"
    />
    <path stroke="#80a2b6" vector-effect="non-scaling-stroke"
      d="
  M 103.25 79.79
  Q 103.83 79.01 103.75 78.04"
    />
    <path stroke="#017ba8" vector-effect="non-scaling-stroke"
      d="
  M 103.75 78.04
  Q 104.50 77.05 104.46 75.75"
    />
    <path stroke="#80a2b6" vector-effect="non-scaling-stroke"
      d="
  M 104.46 75.75
  Q 109.11 59.90 110.44 53.44
  Q 114.00 36.07 129.79 28.25"
    />
    <path stroke="#017ba8" vector-effect="non-scaling-stroke"
      d="
  M 129.79 28.25
  Q 131.53 28.23 132.04 26.75"
    />
    <path stroke="#80a2b6" vector-effect="non-scaling-stroke"
      d="
  M 132.04 26.75
  Q 133.51 27.32 134.79 26.50"
    />
    <path stroke="#017ba8" vector-effect="non-scaling-stroke"
      d="
  M 134.79 26.50
  L 142.75 25.79
  Q 143.25 25.75 142.82 25.51
  Q 135.10 21.28 127.35 17.12
  Q 121.89 14.19 115.75 15.29"
    />
    <path stroke="#80d8f2" vector-effect="non-scaling-stroke"
      d="
  M 134.79 26.50
  Q 134.85 25.82 134.06 25.44
  Q 126.50 21.81 115.75 15.29"
    />
    <path stroke="#80d8f2" vector-effect="non-scaling-stroke" d="
  M 132.04 26.75
  L 112.50 15.54"
    />
    <path stroke="#80d8f2" vector-effect="non-scaling-stroke"
      d="
  M 129.79 28.25
  Q 129.66 27.60 129.07 27.39
  Q 128.40 27.16 128.34 27.13
  Q 118.78 22.04 109.46 16.50"
    />
    <path stroke="#80d8f2" vector-effect="non-scaling-stroke"
      d="
  M 104.46 75.75
  Q 89.63 67.74 85.44 65.31
  Q 84.06 64.52 83.25 64.46"
    />
    <path stroke="#80d8f2" vector-effect="non-scaling-stroke" d="
  M 103.75 78.04
  L 82.54 66.50"
    />
    <path stroke="#80d8f2" vector-effect="non-scaling-stroke" d="
  M 103.25 79.79
  L 85.25 70.04"
    />
    <path stroke="#80a2b6" vector-effect="non-scaling-stroke"
      d="
  M 123.2363 81.2000
  C 135.29 87.80 151.33 81.71 159.0622 67.5928
  C 166.79 53.48 163.28 36.68 151.2237 30.0800
  C 139.17 23.48 123.13 29.57 115.3978 43.6872
  C 107.67 57.80 111.18 74.60 123.2363 81.2000"
    />
    <path stroke="#017ba8" vector-effect="non-scaling-stroke" d="
  M 43.54 68.75
  L 43.46 69.00"
    />
    <path stroke="#01638e" vector-effect="non-scaling-stroke"
      d="
  M 43.46 69.00
  Q 42.52 69.46 42.27 70.32
  C 42.19 70.59 42.34 70.90 42.62 71.06
  Q 51.23 76.08 60.06 80.69
  Q 62.77 82.10 65.04 81.21
  C 65.35 81.09 65.67 81.17 65.81 81.40
  L 69.35 87.29
  C 69.52 87.57 69.51 87.96 69.31 88.31
  Q 66.65 92.99 67.96 98.25"
    />
    <path stroke="#017ba8" vector-effect="non-scaling-stroke"
      d="
  M 67.96 98.25
  Q 69.78 107.20 76.97 108.54
  Q 82.86 109.65 88.42 105.81
  Q 94.81 101.42 95.75 93.00
  Q 96.86 83.02 87.50 78.71"
    />
    <path stroke="#01638e" vector-effect="non-scaling-stroke"
      d="
  M 87.50 78.71
  Q 86.70 78.34 85.79 78.50"
    />
    <path stroke="#017ba8" vector-effect="non-scaling-stroke"
      d="
  M 85.79 78.50
  Q 85.22 75.75 84.42 73.06
  Q 84.38 72.93 84.20 71.93
  Q 83.99 70.70 82.75 70.21"
    />
    <path stroke="#01638e" vector-effect="non-scaling-stroke"
      d="
  M 82.75 70.21
  Q 81.90 67.91 79.67 68.32
  Q 79.38 68.37 78.82 68.78
  Q 78.04 69.34 77.04 68.75"
    />
    <path stroke="#017ba8" vector-effect="non-scaling-stroke" d="
  M 77.04 68.75
  L 60.71 59.50"
    />
    <path stroke="#01638e" vector-effect="non-scaling-stroke"
      d="
  M 60.71 59.50
  Q 61.67 58.09 60.54 57.31
  Q 59.42 56.52 59.23 56.37
  Q 57.62 55.12 55.31 56.31
  Q 50.32 58.90 45.39 61.60
  Q 42.34 63.27 42.30 66.69
  C 42.30 66.95 42.47 67.22 42.76 67.40
  Q 43.47 67.83 43.54 68.75"
    />
    <path stroke="#0199ca" vector-effect="non-scaling-stroke"
      d="
  M 60.71 59.50
  Q 57.81 58.92 56.75 59.50
  Q 53.13 61.48 49.45 63.36
  Q 49.01 63.59 48.75 63.86
  Q 47.68 65.00 49.50 64.79"
    />
    <path stroke="#80c0d8" vector-effect="non-scaling-stroke"
      d="
  M 49.50 64.79
  Q 49.23 65.27 48.75 65.54"
    />
    <path stroke="#0199ca" vector-effect="non-scaling-stroke"
      d="
  M 48.75 65.54
  Q 46.72 64.91 46.47 66.07
  C 46.41 66.34 46.58 66.64 46.88 66.81
  Q 54.51 71.11 62.24 75.23
  Q 62.31 75.26 63.23 75.84
  Q 64.82 76.84 66.10 75.71
  Q 67.99 74.04 68.07 73.99
  Q 72.50 71.29 77.04 68.75"
    />
    <path stroke="#0199ca" vector-effect="non-scaling-stroke"
      d="
  M 82.75 70.21
  Q 82.53 70.25 82.50 70.46"
    />
    <path stroke="#6ab4d0" vector-effect="non-scaling-stroke"
      d="
  M 82.50 70.46
  Q 80.98 70.39 79.66 71.13
  Q 74.35 74.09 69.05 77.07
  Q 66.88 78.29 68.06 80.36
  L 77.54 97.00"
    />
    <path stroke="#0199ca" vector-effect="non-scaling-stroke"
      d="
  M 77.54 97.00
  Q 78.13 98.99 80.00 98.50
  Q 81.79 98.03 85.72 95.48
  Q 86.81 94.77 86.71 93.50"
    />
    <path stroke="#6ab4d0" vector-effect="non-scaling-stroke"
      d="
  M 86.71 93.50
  Q 87.57 92.14 87.21 90.50"
    />
    <path stroke="#0199ca" vector-effect="non-scaling-stroke"
      d="
  M 87.21 90.50
  L 87.77 89.95
  C 87.92 89.80 87.97 89.44 87.88 89.01
  L 85.79 78.50"
    />
    <path stroke="#0199ca" vector-effect="non-scaling-stroke"
      d="
  M 87.50 78.71
  Q 85.83 79.35 87.44 80.31
  Q 96.66 85.85 93.56 96.27
  Q 90.91 105.21 81.71 106.78
  Q 75.04 107.93 70.50 103.00
  Q 69.45 101.86 69.06 98.94
  Q 68.90 97.74 67.96 98.25"
    />
    <path stroke="#0199ca" vector-effect="non-scaling-stroke"
      d="
  M 43.46 69.00
  Q 43.44 69.60 44.25 70.00
  Q 47.89 71.79 62.30 79.51
  C 62.60 79.67 62.93 79.70 63.22 79.59
  Q 65.93 78.59 63.25 77.00
  Q 58.79 74.35 46.69 67.98
  C 46.43 67.84 46.10 67.83 45.79 67.94
  L 43.54 68.75"
    />
    <path stroke="#6acbea" vector-effect="non-scaling-stroke"
      d="
  M 87.21 90.50
  Q 84.09 87.20 85.58 91.53
  C 85.68 91.82 85.64 92.15 85.48 92.43
  Q 84.15 94.68 86.71 93.50"
    />
    <path stroke="#6acbea" vector-effect="non-scaling-stroke"
      d="
  M 77.54 97.00
  Q 78.12 97.14 78.45 96.90
  C 78.66 96.74 78.69 96.38 78.51 96.07
  L 70.20 81.33
  Q 68.81 78.87 71.30 77.57
  Q 76.84 74.66 82.20 71.46
  Q 82.99 71.00 82.50 70.46"
    />
    <path stroke="#80d8f2" vector-effect="non-scaling-stroke"
      d="
  M 48.75 65.54
  Q 50.63 65.58 52.45 65.21
  Q 54.83 64.74 56.10 64.79
  Q 63.68 65.08 70.79 67.82
  Q 71.50 68.09 71.41 67.53
  Q 71.35 67.21 70.81 66.94
  Q 65.69 64.36 59.35 60.81
  C 58.78 60.50 58.05 60.50 57.40 60.83
  L 49.50 64.79"
    />
    <path stroke="#80a2b6" vector-effect="non-scaling-stroke"
      d="
  M 107.55 72.86
  Q 111.15 74.68 114.29 76.43
  Q 115.35 77.02 115.38 76.54
  Q 115.39 76.30 115.10 75.91
  Q 111.00 70.51 110.19 63.20
  Q 110.01 61.59 109.63 63.15
  L 107.36 72.47
  C 107.32 72.63 107.40 72.79 107.55 72.86"
    />
    <path stroke="#5e879e" vector-effect="non-scaling-stroke"
      d="
  M 71.29 115.50
  Q 70.72 116.57 71.23 116.98
  C 71.42 117.14 71.75 117.01 71.89 116.72
  Q 72.96 114.58 75.50 114.68
  Q 77.66 114.77 79.75 115.29"
    />
    <path stroke="#017ba8" vector-effect="non-scaling-stroke"
      d="
  M 79.75 115.29
  Q 79.65 116.00 80.17 116.23
  Q 80.61 116.43 80.66 116.46
  Q 84.14 118.78 88.21 119.75"
    />
    <path stroke="#80a2b6" vector-effect="non-scaling-stroke"
      d="
  M 88.21 119.75
  Q 88.98 121.29 90.46 120.47
  Q 122.97 102.28 155.36 83.86
  Q 156.12 83.43 156.40 82.90
  Q 157.09 81.58 155.25 81.46"
    />
    <path stroke="#017ba8" vector-effect="non-scaling-stroke"
      d="
  M 155.25 81.46
  Q 153.98 79.82 152.20 79.51
  Q 150.90 79.28 149.10 80.49
  Q 137.77 88.10 124.93 83.61
  Q 123.09 82.97 120.47 81.26
  Q 118.41 79.91 116.12 78.64
  C 115.73 78.42 115.25 78.43 114.85 78.65
  L 103.94 84.81
  C 103.69 84.95 103.51 85.18 103.43 85.45
  Q 101.40 92.94 98.11 99.97
  Q 91.94 113.20 78.40 111.88
  Q 74.96 111.54 70.63 109.29
  Q 63.29 105.48 56.06 101.44
  Q 51.31 98.79 48.05 102.82
  C 47.45 103.57 47.66 104.68 48.50 105.13
  L 69.56 116.52
  C 69.85 116.67 70.19 116.64 70.39 116.44
  L 71.29 115.50"
    />
    <path stroke="#80d8f2" vector-effect="non-scaling-stroke" d="
  M 155.25 81.46
  L 152.50 83.04"
    />
    <path stroke="#0892c2" vector-effect="non-scaling-stroke"
      d="
  M 152.50 83.04
  Q 149.21 83.37 146.80 85.59
  Q 146.48 85.89 145.96 86.06
  Q 145.14 86.35 143.69 87.19
  Q 134.79 92.32 92.73 115.83
  Q 91.98 116.25 92.75 116.27
  L 93.25 116.29"
    />
    <path stroke="#80d8f2" vector-effect="non-scaling-stroke" d="
  M 93.25 116.29
  L 88.21 119.75"
    />
    <path stroke="#5ebcda" vector-effect="non-scaling-stroke"
      d="
  M 79.75 115.29
  L 89.27 116.87
  C 89.67 116.93 90.01 116.93 90.22 116.85
  Q 91.70 116.29 89.75 115.75
  Q 87.46 115.12 75.99 113.32
  Q 72.83 112.82 71.29 115.50"
    />
    <path stroke="#87b9cf" vector-effect="non-scaling-stroke" d="
  M 93.25 116.29
  L 152.50 83.04"
    />
    <path stroke="#80a2b6" vector-effect="non-scaling-stroke"
      d="
  M 30.50 85.04
  Q 28.92 84.34 27.50 85.21"
    />
    <path stroke="#017ba8" vector-effect="non-scaling-stroke"
      d="
  M 27.50 85.21
  Q 25.85 85.49 24.50 86.46"
    />
    <path stroke="#80a2b6" vector-effect="non-scaling-stroke"
      d="
  M 24.50 86.46
  Q 20.59 88.71 18.11 93.28
  C 17.92 93.63 18.05 94.06 18.39 94.25
  L 38.33 105.22
  C 38.64 105.39 39.03 105.28 39.21 104.98
  Q 41.71 100.88 45.00 98.21"
    />
    <path stroke="#017ba8" vector-effect="non-scaling-stroke" d="
  M 45.00 98.21
  L 48.00 96.54"
    />
    <path stroke="#80a2b6" vector-effect="non-scaling-stroke"
      d="
  M 48.00 96.54
  Q 48.85 96.49 49.54 96.00"
    />
    <path stroke="#017ba8" vector-effect="non-scaling-stroke"
      d="
  M 49.54 96.00
  L 55.00 95.75
  Q 55.94 95.71 55.19 95.31
  Q 47.42 91.25 39.74 87.02
  Q 36.23 85.09 32.30 84.40
  C 31.96 84.34 31.62 84.39 31.36 84.54
  L 30.50 85.04"
    />
    <path stroke="#80d8f2" vector-effect="non-scaling-stroke"
      d="
  M 49.54 96.00
  Q 49.44 95.52 48.50 95.00
  Q 39.51 90.00 30.50 85.04"
    />
    <path stroke="#80d8f2" vector-effect="non-scaling-stroke" d="
  M 48.00 96.54
  L 27.50 85.21"
    />
    <path stroke="#80d8f2" vector-effect="non-scaling-stroke"
      d="
  M 45.00 98.21
  Q 44.92 97.63 44.06 97.19
  Q 40.40 95.29 24.50 86.46"
    />
    <path stroke="#80a2b6" vector-effect="non-scaling-stroke"
      d="
  M 66.55 105.29
  Q 61.53 99.06 54.51 97.47
  Q 53.33 97.20 52.41 97.72
  Q 51.94 97.98 52.44 98.25
  L 66.35 105.55
  Q 67.06 105.93 66.55 105.29"
    />
    <path stroke="#017ba8" vector-effect="non-scaling-stroke"
      d="
  M 114.24 124.07
  Q 119.81 128.42 121.68 134.02
  Q 124.52 142.56 127.44 151.06
  Q 129.13 156.01 133.36 159.09
  Q 137.50 162.11 142.39 161.57
  Q 145.86 161.18 148.87 159.34
  Q 152.59 157.06 154.25 155.31
  Q 157.52 151.88 154.94 146.56
  Q 146.18 128.51 133.49 104.70
  C 133.35 104.44 133.05 104.32 132.78 104.42
  Q 124.80 107.38 118.15 112.68
  Q 113.23 116.59 113.30 122.19
  C 113.31 122.93 113.66 123.62 114.24 124.07"
    />
    <path stroke="#80a2b6" vector-effect="non-scaling-stroke"
      d="
  M 127.0733 74.2258
  C 135.87 79.00 147.53 74.55 153.1030 64.2809
  C 158.68 54.01 156.07 41.81 147.2667 37.0342
  C 138.47 32.26 126.81 36.71 121.2370 46.9791
  C 115.66 57.25 118.27 69.45 127.0733 74.2258"
    />
    <path stroke="#017ba8" vector-effect="non-scaling-stroke"
      d="
  M 141.75 38.79
  Q 138.69 36.79 135.50 37.75
  Q 126.78 40.37 122.61 48.84
  Q 118.95 56.28 121.37 63.88
  Q 122.13 66.28 123.92 67.61
  Q 125.94 69.11 128.25 69.50
  Q 135.22 70.66 140.95 65.93
  Q 149.07 59.20 147.78 48.53
  Q 147.03 42.24 141.75 38.79"
    />
    <path stroke="#017ba8" vector-effect="non-scaling-stroke"
      d="
  M 129.86 70.77
  Q 129.15 70.69 128.19 70.83
  Q 127.23 70.98 128.09 71.42
  Q 134.48 74.70 140.92 71.89
  Q 148.39 68.61 151.64 61.10
  Q 155.87 51.32 149.63 42.85
  Q 147.83 40.41 145.04 39.46
  Q 144.56 39.30 144.91 39.68
  Q 148.10 43.14 148.75 47.00
  Q 150.93 59.91 140.44 67.94
  Q 136.67 70.82 131.29 70.94
  Q 131.23 70.94 129.86 70.77"
    />
    <path stroke="#017ba8" vector-effect="non-scaling-stroke"
      d="
  M 143.5337 58.9754
  C 145.90 55.21 144.76 50.24 140.9921 47.8783
  L 138.3661 46.2310
  C 134.60 43.87 129.63 45.01 127.2690 48.7725
  L 126.5463 49.9246
  C 124.18 53.69 125.32 58.66 129.0879 61.0217
  L 131.7139 62.6690
  C 135.48 65.03 140.45 63.89 142.8110 60.1275
  L 143.5337 58.9754"
    />
    <path stroke="#017ba8" vector-effect="non-scaling-stroke"
      d="
  M 133.5005 62.1499
  C 136.50 63.85 140.60 62.31 142.6443 58.7071
  C 144.69 55.10 143.92 50.80 140.9195 49.0901
  C 137.92 47.39 133.82 48.93 131.7757 52.5329
  C 129.73 56.14 130.50 60.44 133.5005 62.1499"
    />
    <path stroke="#0892c2" vector-effect="non-scaling-stroke"
      d="
  M 140.64 57.32
  Q 138.97 59.32 136.00 59.75
  Q 135.55 59.82 135.44 60.08
  Q 135.20 60.60 135.93 60.50
  Q 144.32 59.30 140.07 51.99
  Q 139.88 51.67 139.96 52.03
  L 140.88 56.45
  C 140.94 56.74 140.85 57.06 140.64 57.32"
    />
    <path stroke="#0892c2" vector-effect="non-scaling-stroke"
      d="
  M 137.77 56.03
  C 137.76 55.97 137.70 55.93 137.64 55.95
  Q 136.93 56.12 136.97 56.76
  Q 137.01 57.37 137.45 57.41
  Q 137.89 57.46 137.77 56.03"
    />
    <path stroke="#0199ca" vector-effect="non-scaling-stroke"
      d="
  M 76.71 99.06
  Q 74.87 98.16 73.75 96.27
  Q 72.31 93.84 70.65 91.17
  Q 70.37 90.73 70.24 91.23
  Q 68.18 99.18 73.31 103.78
  Q 75.50 105.75 78.22 106.30
  Q 81.25 106.90 83.94 105.69
  Q 95.02 100.69 92.93 88.76
  Q 92.53 86.44 91.54 84.91
  Q 90.38 83.11 88.61 81.93
  Q 87.52 81.20 87.75 82.49
  Q 88.35 85.93 88.99 89.35
  Q 89.67 92.99 87.69 95.19
  Q 84.93 98.24 80.50 99.32
  Q 78.32 99.85 76.71 99.06"
    />
    <path stroke="#0892c2" vector-effect="non-scaling-stroke"
      d="
  M 81.71 89.24
  Q 79.97 89.26 79.25 91.00
  Q 77.98 94.06 80.26 95.04
  Q 81.90 95.74 83.45 94.59
  Q 85.69 92.92 83.95 90.48
  Q 83.06 89.22 81.71 89.24"
    />
    <path stroke="#0199ca" vector-effect="non-scaling-stroke"
      d="
  M 117.2444 84.2690
  C 116.87 83.28 115.30 82.95 113.7313 83.5439
  C 112.17 84.14 111.20 85.42 111.5756 86.4110
  C 111.95 87.40 113.52 87.73 115.0887 87.1361
  C 116.65 86.54 117.62 85.26 117.2444 84.2690"
    />
    <path stroke="#0199ca" vector-effect="non-scaling-stroke"
      d="
  M 127.3757 89.5237
  C 126.95 88.51 125.32 88.23 123.7456 88.8968
  C 122.17 89.56 121.24 90.92 121.6643 91.9363
  C 122.09 92.95 123.72 93.23 125.2944 92.5632
  C 126.87 91.90 127.80 90.54 127.3757 89.5237"
    />
    <path stroke="#0199ca" vector-effect="non-scaling-stroke"
      d="
  M 112.0508 98.5752
  C 111.69 97.54 110.12 97.14 108.5523 97.6918
  C 106.98 98.24 106.01 99.53 106.3692 100.5648
  C 106.73 101.60 108.30 102.00 109.8677 101.4482
  C 111.44 100.90 112.41 99.61 112.0508 98.5752"
    />
    <path stroke="#0199ca" vector-effect="non-scaling-stroke"
      d="
  M 116.0109 84.4742
  C 115.86 84.10 114.96 84.11 114.0130 84.5046
  C 113.06 84.89 112.42 85.51 112.5691 85.8858
  C 112.72 86.26 113.62 86.25 114.5670 85.8554
  C 115.52 85.47 116.16 84.85 116.0109 84.4742"
    />
    <path stroke="#0199ca" vector-effect="non-scaling-stroke"
      d="
  M 124.96 90.93
  Q 126.43 90.38 125.64 89.90
  C 125.40 89.75 125.06 89.72 124.72 89.82
  Q 121.37 90.82 124.14 91.04
  Q 124.57 91.07 124.96 90.93"
    />
    <path stroke="#0892c2" vector-effect="non-scaling-stroke"
      d="
  M 82.54 90.56
  C 81.90 90.21 81.11 90.44 80.76 91.08
  Q 79.40 93.62 81.20 94.10
  C 81.54 94.19 81.88 94.12 82.11 93.91
  Q 82.53 93.53 82.42 92.96
  C 82.36 92.67 82.45 92.38 82.66 92.21
  Q 83.81 91.27 82.54 90.56"
    />
    <path stroke="#0199ca" vector-effect="non-scaling-stroke"
      d="
  M 110.7717 98.8355
  C 110.64 98.42 109.80 98.32 108.8880 98.6053
  C 107.98 98.89 107.34 99.45 107.4683 99.8645
  C 107.60 100.28 108.44 100.38 109.3520 100.0947
  C 110.26 99.81 110.90 99.25 110.7717 98.8355"
    />
    <path stroke="#80d8f2" vector-effect="non-scaling-stroke"
      d="
  M 125.76 110.83
  Q 126.96 110.05 128.00 109.12
  Q 129.05 108.18 127.76 108.74
  Q 122.38 111.10 118.06 115.06
  Q 115.47 117.45 115.32 121.93
  C 115.31 122.24 115.46 122.55 115.72 122.74
  Q 120.37 126.23 122.50 131.00
  Q 125.30 137.27 127.65 145.96
  Q 128.58 149.37 129.67 151.30
  Q 130.93 153.52 130.54 151.00
  Q 128.36 136.83 123.17 123.76
  Q 123.14 123.68 122.09 121.43
  Q 119.75 116.42 123.53 112.52
  Q 124.10 111.92 125.76 110.83"
    />
    <path stroke="#6acbea" vector-effect="non-scaling-stroke"
      d="
  M 126.00 117.96
  Q 126.33 117.55 126.25 117.04"
    />
    <path stroke="#0892c2" vector-effect="non-scaling-stroke"
      d="
  M 126.25 117.04
  Q 126.78 116.82 126.75 116.29"
    />
    <path stroke="#6acbea" vector-effect="non-scaling-stroke"
      d="
  M 126.75 116.29
  Q 128.23 114.34 125.50 114.29"
    />
    <path stroke="#0892c2" vector-effect="non-scaling-stroke"
      d="
  M 125.50 114.29
  Q 121.94 114.38 123.19 117.56
  Q 124.27 120.34 126.43 118.31
  Q 126.73 118.04 126.35 117.99
  L 126.00 117.96"
    />
    <path stroke="#71adc8" vector-effect="non-scaling-stroke"
      d="
  M 125.50 114.29
  Q 125.09 115.86 126.75 116.29"
    />
    <path stroke="#71adc8" vector-effect="non-scaling-stroke"
      d="
  M 126.25 117.04
  Q 125.47 116.89 124.94 116.31
  Q 123.62 114.87 124.00 116.75
  Q 124.33 118.38 126.00 117.96"
    />
    <path stroke="#80d8f2" vector-effect="non-scaling-stroke"
      d="
  M 149.94 146.69
  Q 149.76 153.91 144.39 158.43
  Q 143.92 158.82 144.44 158.98
  Q 144.90 159.12 145.41 158.87
  Q 149.32 156.98 152.61 154.12
  Q 155.43 151.67 153.69 148.31
  Q 151.34 143.79 150.11 140.53
  C 150.00 140.24 149.69 140.11 149.48 140.25
  Q 149.07 140.53 149.27 141.06
  Q 149.55 141.84 149.57 142.00
  Q 149.98 144.95 149.94 146.69"
    />
    <path stroke="#0892c2" vector-effect="non-scaling-stroke"
      d="
  M 141.99 146.42
  C 141.26 146.06 140.38 146.30 139.92 146.97
  Q 137.48 150.52 141.04 151.76
  Q 142.86 152.39 143.69 150.64
  Q 145.01 147.88 141.99 146.42"
    />
    <path stroke="#659eb8" vector-effect="non-scaling-stroke"
      d="
  M 140.06 148.44
  Q 139.29 149.95 140.88 149.36
  Q 141.78 149.03 142.30 147.96
  C 142.43 147.70 142.30 147.39 142.03 147.31
  Q 140.81 146.96 140.06 148.44"
    />
    <path stroke="#659eb8" vector-effect="non-scaling-stroke"
      d="
  M 143.7463 148.8827
  C 143.51 148.61 142.78 148.85 142.1153 149.4334
  C 141.45 150.01 141.11 150.70 141.3537 150.9773
  C 141.59 151.25 142.32 151.01 142.9847 150.4266
  C 143.65 149.85 143.99 149.16 143.7463 148.8827"
    />
  </g>
  <path fill="#d3e6f0"
    d="
  M 47.31 0.00
  Q 90.31 0.00 133.31 0.00
  Q 148.44 1.44 159.44 9.56
  Q 178.08 23.33 180.00 47.56
  Q 180.00 90.19 180.00 132.81
  Q 178.65 149.68 168.56 161.81
  Q 155.02 178.10 132.94 180.00
  Q 90.19 180.00 47.44 180.00
  Q 30.51 178.78 18.31 168.69
  Q 1.70 154.94 0.00 132.44
  Q 0.00 89.69 0.00 46.94
  Q 1.28 31.75 9.56 20.56
  Q 23.28 2.02 47.31 0.00
  Z
  M 17.85 95.99
  Q 26.85 101.55 34.99 105.71
  Q 35.06 105.74 36.32 106.52
  Q 38.10 107.62 40.73 107.23
  C 41.05 107.19 41.32 106.98 41.44 106.68
  Q 43.51 101.87 48.10 99.54
  C 48.43 99.37 48.78 99.37 49.01 99.53
  Q 49.52 99.89 48.63 100.33
  Q 48.13 100.58 47.93 100.74
  Q 45.67 102.58 46.52 105.34
  C 46.62 105.65 46.83 105.91 47.11 106.06
  L 70.81 119.02
  C 71.10 119.19 71.44 119.22 71.74 119.12
  Q 73.25 118.60 73.70 117.06
  C 73.79 116.74 74.02 116.49 74.29 116.42
  Q 76.81 115.73 78.44 116.81
  Q 82.81 119.71 88.25 122.26
  C 88.90 122.56 89.62 122.55 90.19 122.24
  L 100.13 116.77
  Q 101.63 115.95 101.07 117.53
  Q 98.12 125.87 106.70 128.65
  C 107.31 128.85 107.81 129.26 108.08 129.80
  L 119.71 152.92
  Q 120.47 154.43 120.27 156.30
  Q 119.83 160.39 122.79 162.71
  Q 124.82 164.30 126.94 165.76
  Q 129.25 167.36 131.55 167.80
  Q 135.69 168.59 138.44 167.44
  Q 145.30 164.56 154.85 156.33
  Q 159.23 152.55 156.81 147.19
  Q 153.45 139.72 143.39 120.78
  Q 137.75 110.19 132.61 99.16
  C 132.49 98.89 132.59 98.58 132.85 98.43
  Q 144.92 91.68 156.75 85.00
  Q 159.08 83.68 158.14 81.67
  Q 157.68 80.68 156.02 79.71
  Q 154.71 78.94 153.49 78.10
  C 153.27 77.94 153.24 77.63 153.43 77.44
  Q 165.73 65.60 164.50 48.50
  Q 163.58 35.74 152.06 28.69
  Q 149.33 27.02 138.27 21.13
  Q 126.46 14.83 124.18 14.15
  Q 114.95 11.35 105.56 16.06
  Q 95.93 20.89 90.88 30.07
  Q 88.48 34.42 86.10 44.99
  Q 84.04 54.12 81.87 63.23
  Q 81.32 65.52 79.33 67.02
  C 78.95 67.31 78.44 67.35 78.03 67.12
  L 63.99 59.44
  C 63.73 59.29 63.53 59.02 63.45 58.69
  Q 62.55 55.06 59.54 54.35
  Q 57.46 53.85 54.19 55.40
  Q 50.96 56.94 47.88 58.79
  Q 47.82 58.83 44.88 60.34
  Q 41.30 62.18 41.00 66.00
  Q 40.82 68.30 40.11 69.42
  C 39.92 69.71 39.88 70.04 39.99 70.29
  Q 40.74 72.00 43.06 73.65
  C 43.31 73.83 43.41 74.15 43.30 74.43
  Q 41.27 80.04 41.59 85.36
  Q 41.64 86.16 40.92 85.80
  Q 24.42 77.50 16.84 92.35
  Q 15.67 94.64 17.85 95.99
  Z"
  />
  <path fill="#01456c"
    d="
  M 17.85 95.99
  Q 15.67 94.64 16.84 92.35
  Q 24.42 77.50 40.92 85.80
  Q 41.64 86.16 41.59 85.36
  Q 41.27 80.04 43.30 74.43
  C 43.41 74.15 43.31 73.83 43.06 73.65
  Q 40.74 72.00 39.99 70.29
  C 39.88 70.04 39.92 69.71 40.11 69.42
  Q 40.82 68.30 41.00 66.00
  Q 41.30 62.18 44.88 60.34
  Q 47.82 58.83 47.88 58.79
  Q 50.96 56.94 54.19 55.40
  Q 57.46 53.85 59.54 54.35
  Q 62.55 55.06 63.45 58.69
  C 63.53 59.02 63.73 59.29 63.99 59.44
  L 78.03 67.12
  C 78.44 67.35 78.95 67.31 79.33 67.02
  Q 81.32 65.52 81.87 63.23
  Q 84.04 54.12 86.10 44.99
  Q 88.48 34.42 90.88 30.07
  Q 95.93 20.89 105.56 16.06
  Q 114.95 11.35 124.18 14.15
  Q 126.46 14.83 138.27 21.13
  Q 149.33 27.02 152.06 28.69
  Q 163.58 35.74 164.50 48.50
  Q 165.73 65.60 153.43 77.44
  C 153.24 77.63 153.27 77.94 153.49 78.10
  Q 154.71 78.94 156.02 79.71
  Q 157.68 80.68 158.14 81.67
  Q 159.08 83.68 156.75 85.00
  Q 144.92 91.68 132.85 98.43
  C 132.59 98.58 132.49 98.89 132.61 99.16
  Q 137.75 110.19 143.39 120.78
  Q 153.45 139.72 156.81 147.19
  Q 159.23 152.55 154.85 156.33
  Q 145.30 164.56 138.44 167.44
  Q 135.69 168.59 131.55 167.80
  Q 129.25 167.36 126.94 165.76
  Q 124.82 164.30 122.79 162.71
  Q 119.83 160.39 120.27 156.30
  Q 120.47 154.43 119.71 152.92
  L 108.08 129.80
  C 107.81 129.26 107.31 128.85 106.70 128.65
  Q 98.12 125.87 101.07 117.53
  Q 101.63 115.95 100.13 116.77
  L 90.19 122.24
  C 89.62 122.55 88.90 122.56 88.25 122.26
  Q 82.81 119.71 78.44 116.81
  Q 76.81 115.73 74.29 116.42
  C 74.02 116.49 73.79 116.74 73.70 117.06
  Q 73.25 118.60 71.74 119.12
  C 71.44 119.22 71.10 119.19 70.81 119.02
  L 47.11 106.06
  C 46.83 105.91 46.62 105.65 46.52 105.34
  Q 45.67 102.58 47.93 100.74
  Q 48.13 100.58 48.63 100.33
  Q 49.52 99.89 49.01 99.53
  C 48.78 99.37 48.43 99.37 48.10 99.54
  Q 43.51 101.87 41.44 106.68
  C 41.32 106.98 41.05 107.19 40.73 107.23
  Q 38.10 107.62 36.32 106.52
  Q 35.06 105.74 34.99 105.71
  Q 26.85 101.55 17.85 95.99
  Z
  M 115.75 15.29
  Q 114.08 15.01 112.50 15.54
  L 109.46 16.50
  Q 108.03 16.65 106.31 17.56
  Q 92.62 24.83 89.02 39.76
  Q 86.05 52.09 83.25 64.46
  L 82.54 66.50
  Q 82.13 66.89 82.15 67.33
  Q 82.16 67.67 82.56 68.05
  Q 83.79 69.19 85.25 70.04
  Q 85.12 73.01 86.45 75.62
  C 86.59 75.90 86.84 76.12 87.15 76.24
  Q 98.66 80.93 97.00 93.72
  Q 95.83 102.77 88.22 107.67
  Q 85.76 109.26 88.10 108.76
  Q 88.43 108.69 88.73 108.51
  Q 93.69 105.50 96.31 100.68
  Q 97.34 98.77 100.07 90.76
  Q 101.91 85.36 103.25 79.79
  Q 103.83 79.01 103.75 78.04
  Q 104.50 77.05 104.46 75.75
  Q 109.11 59.90 110.44 53.44
  Q 114.00 36.07 129.79 28.25
  Q 131.53 28.23 132.04 26.75
  Q 133.51 27.32 134.79 26.50
  L 142.75 25.79
  Q 143.25 25.75 142.82 25.51
  Q 135.10 21.28 127.35 17.12
  Q 121.89 14.19 115.75 15.29
  Z
  M 123.2363 81.2000
  C 135.29 87.80 151.33 81.71 159.0622 67.5928
  C 166.79 53.48 163.28 36.68 151.2237 30.0800
  C 139.17 23.48 123.13 29.57 115.3978 43.6872
  C 107.67 57.80 111.18 74.60 123.2363 81.2000
  Z
  M 43.54 68.75
  L 43.46 69.00
  Q 42.52 69.46 42.27 70.32
  C 42.19 70.59 42.34 70.90 42.62 71.06
  Q 51.23 76.08 60.06 80.69
  Q 62.77 82.10 65.04 81.21
  C 65.35 81.09 65.67 81.17 65.81 81.40
  L 69.35 87.29
  C 69.52 87.57 69.51 87.96 69.31 88.31
  Q 66.65 92.99 67.96 98.25
  Q 69.78 107.20 76.97 108.54
  Q 82.86 109.65 88.42 105.81
  Q 94.81 101.42 95.75 93.00
  Q 96.86 83.02 87.50 78.71
  Q 86.70 78.34 85.79 78.50
  Q 85.22 75.75 84.42 73.06
  Q 84.38 72.93 84.20 71.93
  Q 83.99 70.70 82.75 70.21
  Q 81.90 67.91 79.67 68.32
  Q 79.38 68.37 78.82 68.78
  Q 78.04 69.34 77.04 68.75
  L 60.71 59.50
  Q 61.67 58.09 60.54 57.31
  Q 59.42 56.52 59.23 56.37
  Q 57.62 55.12 55.31 56.31
  Q 50.32 58.90 45.39 61.60
  Q 42.34 63.27 42.30 66.69
  C 42.30 66.95 42.47 67.22 42.76 67.40
  Q 43.47 67.83 43.54 68.75
  Z
  M 107.55 72.86
  Q 111.15 74.68 114.29 76.43
  Q 115.35 77.02 115.38 76.54
  Q 115.39 76.30 115.10 75.91
  Q 111.00 70.51 110.19 63.20
  Q 110.01 61.59 109.63 63.15
  L 107.36 72.47
  C 107.32 72.63 107.40 72.79 107.55 72.86
  Z
  M 71.29 115.50
  Q 70.72 116.57 71.23 116.98
  C 71.42 117.14 71.75 117.01 71.89 116.72
  Q 72.96 114.58 75.50 114.68
  Q 77.66 114.77 79.75 115.29
  Q 79.65 116.00 80.17 116.23
  Q 80.61 116.43 80.66 116.46
  Q 84.14 118.78 88.21 119.75
  Q 88.98 121.29 90.46 120.47
  Q 122.97 102.28 155.36 83.86
  Q 156.12 83.43 156.40 82.90
  Q 157.09 81.58 155.25 81.46
  Q 153.98 79.82 152.20 79.51
  Q 150.90 79.28 149.10 80.49
  Q 137.77 88.10 124.93 83.61
  Q 123.09 82.97 120.47 81.26
  Q 118.41 79.91 116.12 78.64
  C 115.73 78.42 115.25 78.43 114.85 78.65
  L 103.94 84.81
  C 103.69 84.95 103.51 85.18 103.43 85.45
  Q 101.40 92.94 98.11 99.97
  Q 91.94 113.20 78.40 111.88
  Q 74.96 111.54 70.63 109.29
  Q 63.29 105.48 56.06 101.44
  Q 51.31 98.79 48.05 102.82
  C 47.45 103.57 47.66 104.68 48.50 105.13
  L 69.56 116.52
  C 69.85 116.67 70.19 116.64 70.39 116.44
  L 71.29 115.50
  Z
  M 30.50 85.04
  Q 28.92 84.34 27.50 85.21
  Q 25.85 85.49 24.50 86.46
  Q 20.59 88.71 18.11 93.28
  C 17.92 93.63 18.05 94.06 18.39 94.25
  L 38.33 105.22
  C 38.64 105.39 39.03 105.28 39.21 104.98
  Q 41.71 100.88 45.00 98.21
  L 48.00 96.54
  Q 48.85 96.49 49.54 96.00
  L 55.00 95.75
  Q 55.94 95.71 55.19 95.31
  Q 47.42 91.25 39.74 87.02
  Q 36.23 85.09 32.30 84.40
  C 31.96 84.34 31.62 84.39 31.36 84.54
  L 30.50 85.04
  Z
  M 66.55 105.29
  Q 61.53 99.06 54.51 97.47
  Q 53.33 97.20 52.41 97.72
  Q 51.94 97.98 52.44 98.25
  L 66.35 105.55
  Q 67.06 105.93 66.55 105.29
  Z
  M 114.24 124.07
  Q 119.81 128.42 121.68 134.02
  Q 124.52 142.56 127.44 151.06
  Q 129.13 156.01 133.36 159.09
  Q 137.50 162.11 142.39 161.57
  Q 145.86 161.18 148.87 159.34
  Q 152.59 157.06 154.25 155.31
  Q 157.52 151.88 154.94 146.56
  Q 146.18 128.51 133.49 104.70
  C 133.35 104.44 133.05 104.32 132.78 104.42
  Q 124.80 107.38 118.15 112.68
  Q 113.23 116.59 113.30 122.19
  C 113.31 122.93 113.66 123.62 114.24 124.07
  Z"
  />
  <path fill="#00b0e4"
    d="
  M 134.79 26.50
  Q 134.85 25.82 134.06 25.44
  Q 126.50 21.81 115.75 15.29
  Q 121.89 14.19 127.35 17.12
  Q 135.10 21.28 142.82 25.51
  Q 143.25 25.75 142.75 25.79
  L 134.79 26.50
  Z"
  />
  <path fill="#ffffff"
    d="
  M 115.75 15.29
  Q 126.50 21.81 134.06 25.44
  Q 134.85 25.82 134.79 26.50
  Q 133.51 27.32 132.04 26.75
  L 112.50 15.54
  Q 114.08 15.01 115.75 15.29
  Z"
  />
  <path fill="#00b0e4"
    d="
  M 112.50 15.54
  L 132.04 26.75
  Q 131.53 28.23 129.79 28.25
  Q 129.66 27.60 129.07 27.39
  Q 128.40 27.16 128.34 27.13
  Q 118.78 22.04 109.46 16.50
  L 112.50 15.54
  Z"
  />
  <path fill="#ffffff"
    d="
  M 109.46 16.50
  Q 118.78 22.04 128.34 27.13
  Q 128.40 27.16 129.07 27.39
  Q 129.66 27.60 129.79 28.25
  Q 114.00 36.07 110.44 53.44
  Q 109.11 59.90 104.46 75.75
  Q 89.63 67.74 85.44 65.31
  Q 84.06 64.52 83.25 64.46
  Q 86.05 52.09 89.02 39.76
  Q 92.62 24.83 106.31 17.56
  Q 108.03 16.65 109.46 16.50
  Z"
  />
  <path fill="#ffffff"
    d="
  M 123.2363 81.2000
  C 111.18 74.60 107.67 57.80 115.3978 43.6872
  C 123.13 29.57 139.17 23.48 151.2237 30.0800
  C 163.28 36.68 166.79 53.48 159.0622 67.5928
  C 151.33 81.71 135.29 87.80 123.2363 81.2000
  Z
  M 127.0733 74.2258
  C 135.87 79.00 147.53 74.55 153.1030 64.2809
  C 158.68 54.01 156.07 41.81 147.2667 37.0342
  C 138.47 32.26 126.81 36.71 121.2370 46.9791
  C 115.66 57.25 118.27 69.45 127.0733 74.2258
  Z"
  />
  <path fill="#01456c"
    d="
  M 127.0733 74.2258
  C 118.27 69.45 115.66 57.25 121.2370 46.9791
  C 126.81 36.71 138.47 32.26 147.2667 37.0342
  C 156.07 41.81 158.68 54.01 153.1030 64.2809
  C 147.53 74.55 135.87 79.00 127.0733 74.2258
  Z
  M 141.75 38.79
  Q 138.69 36.79 135.50 37.75
  Q 126.78 40.37 122.61 48.84
  Q 118.95 56.28 121.37 63.88
  Q 122.13 66.28 123.92 67.61
  Q 125.94 69.11 128.25 69.50
  Q 135.22 70.66 140.95 65.93
  Q 149.07 59.20 147.78 48.53
  Q 147.03 42.24 141.75 38.79
  Z
  M 129.86 70.77
  Q 129.15 70.69 128.19 70.83
  Q 127.23 70.98 128.09 71.42
  Q 134.48 74.70 140.92 71.89
  Q 148.39 68.61 151.64 61.10
  Q 155.87 51.32 149.63 42.85
  Q 147.83 40.41 145.04 39.46
  Q 144.56 39.30 144.91 39.68
  Q 148.10 43.14 148.75 47.00
  Q 150.93 59.91 140.44 67.94
  Q 136.67 70.82 131.29 70.94
  Q 131.23 70.94 129.86 70.77
  Z"
  />
  <path fill="#00b0e4"
    d="
  M 141.75 38.79
  Q 147.03 42.24 147.78 48.53
  Q 149.07 59.20 140.95 65.93
  Q 135.22 70.66 128.25 69.50
  Q 125.94 69.11 123.92 67.61
  Q 122.13 66.28 121.37 63.88
  Q 118.95 56.28 122.61 48.84
  Q 126.78 40.37 135.50 37.75
  Q 138.69 36.79 141.75 38.79
  Z
  M 143.5337 58.9754
  C 145.90 55.21 144.76 50.24 140.9921 47.8783
  L 138.3661 46.2310
  C 134.60 43.87 129.63 45.01 127.2690 48.7725
  L 126.5463 49.9246
  C 124.18 53.69 125.32 58.66 129.0879 61.0217
  L 131.7139 62.6690
  C 135.48 65.03 140.45 63.89 142.8110 60.1275
  L 143.5337 58.9754
  Z"
  />
  <path fill="#00b0e4"
    d="
  M 131.29 70.94
  Q 136.67 70.82 140.44 67.94
  Q 150.93 59.91 148.75 47.00
  Q 148.10 43.14 144.91 39.68
  Q 144.56 39.30 145.04 39.46
  Q 147.83 40.41 149.63 42.85
  Q 155.87 51.32 151.64 61.10
  Q 148.39 68.61 140.92 71.89
  Q 134.48 74.70 128.09 71.42
  Q 127.23 70.98 128.19 70.83
  Q 129.15 70.69 129.86 70.77
  Q 131.23 70.94 131.29 70.94
  Z"
  />
  <path fill="#01456c"
    d="
  M 142.8110 60.1275
  C 140.45 63.89 135.48 65.03 131.7139 62.6690
  L 129.0879 61.0217
  C 125.32 58.66 124.18 53.69 126.5463 49.9246
  L 127.2690 48.7725
  C 129.63 45.01 134.60 43.87 138.3661 46.2310
  L 140.9921 47.8783
  C 144.76 50.24 145.90 55.21 143.5337 58.9754
  L 142.8110 60.1275
  Z
  M 133.5005 62.1499
  C 136.50 63.85 140.60 62.31 142.6443 58.7071
  C 144.69 55.10 143.92 50.80 140.9195 49.0901
  C 137.92 47.39 133.82 48.93 131.7757 52.5329
  C 129.73 56.14 130.50 60.44 133.5005 62.1499
  Z"
  />
  <path fill="#00b0e4"
    d="
  M 133.5005 62.1499
  C 130.50 60.44 129.73 56.14 131.7757 52.5329
  C 133.82 48.93 137.92 47.39 140.9195 49.0901
  C 143.92 50.80 144.69 55.10 142.6443 58.7071
  C 140.60 62.31 136.50 63.85 133.5005 62.1499
  Z
  M 140.64 57.32
  Q 138.97 59.32 136.00 59.75
  Q 135.55 59.82 135.44 60.08
  Q 135.20 60.60 135.93 60.50
  Q 144.32 59.30 140.07 51.99
  Q 139.88 51.67 139.96 52.03
  L 140.88 56.45
  C 140.94 56.74 140.85 57.06 140.64 57.32
  Z
  M 137.77 56.03
  C 137.76 55.97 137.70 55.93 137.64 55.95
  Q 136.93 56.12 136.97 56.76
  Q 137.01 57.37 137.45 57.41
  Q 137.89 57.46 137.77 56.03
  Z"
  />
  <path fill="#0f739f"
    d="
  M 140.88 56.45
  L 139.96 52.03
  Q 139.88 51.67 140.07 51.99
  Q 144.32 59.30 135.93 60.50
  Q 135.20 60.60 135.44 60.08
  Q 135.55 59.82 136.00 59.75
  Q 138.97 59.32 140.64 57.32
  C 140.85 57.06 140.94 56.74 140.88 56.45
  Z"
  />
  <path fill="#0181b0"
    d="
  M 60.71 59.50
  Q 57.81 58.92 56.75 59.50
  Q 53.13 61.48 49.45 63.36
  Q 49.01 63.59 48.75 63.86
  Q 47.68 65.00 49.50 64.79
  Q 49.23 65.27 48.75 65.54
  Q 46.72 64.91 46.47 66.07
  C 46.41 66.34 46.58 66.64 46.88 66.81
  Q 54.51 71.11 62.24 75.23
  Q 62.31 75.26 63.23 75.84
  Q 64.82 76.84 66.10 75.71
  Q 67.99 74.04 68.07 73.99
  Q 72.50 71.29 77.04 68.75
  Q 78.04 69.34 78.82 68.78
  Q 79.38 68.37 79.67 68.32
  Q 81.90 67.91 82.75 70.21
  Q 82.53 70.25 82.50 70.46
  Q 80.98 70.39 79.66 71.13
  Q 74.35 74.09 69.05 77.07
  Q 66.88 78.29 68.06 80.36
  L 77.54 97.00
  Q 78.13 98.99 80.00 98.50
  Q 81.79 98.03 85.72 95.48
  Q 86.81 94.77 86.71 93.50
  Q 87.57 92.14 87.21 90.50
  L 87.77 89.95
  C 87.92 89.80 87.97 89.44 87.88 89.01
  L 85.79 78.50
  Q 86.70 78.34 87.50 78.71
  Q 85.83 79.35 87.44 80.31
  Q 96.66 85.85 93.56 96.27
  Q 90.91 105.21 81.71 106.78
  Q 75.04 107.93 70.50 103.00
  Q 69.45 101.86 69.06 98.94
  Q 68.90 97.74 67.96 98.25
  Q 66.65 92.99 69.31 88.31
  C 69.51 87.96 69.52 87.57 69.35 87.29
  L 65.81 81.40
  C 65.67 81.17 65.35 81.09 65.04 81.21
  Q 62.77 82.10 60.06 80.69
  Q 51.23 76.08 42.62 71.06
  C 42.34 70.90 42.19 70.59 42.27 70.32
  Q 42.52 69.46 43.46 69.00
  Q 43.44 69.60 44.25 70.00
  Q 47.89 71.79 62.30 79.51
  C 62.60 79.67 62.93 79.70 63.22 79.59
  Q 65.93 78.59 63.25 77.00
  Q 58.79 74.35 46.69 67.98
  C 46.43 67.84 46.10 67.83 45.79 67.94
  L 43.54 68.75
  Q 43.47 67.83 42.76 67.40
  C 42.47 67.22 42.30 66.95 42.30 66.69
  Q 42.34 63.27 45.39 61.60
  Q 50.32 58.90 55.31 56.31
  Q 57.62 55.12 59.23 56.37
  Q 59.42 56.52 60.54 57.31
  Q 61.67 58.09 60.71 59.50
  Z
  M 76.71 99.06
  Q 74.87 98.16 73.75 96.27
  Q 72.31 93.84 70.65 91.17
  Q 70.37 90.73 70.24 91.23
  Q 68.18 99.18 73.31 103.78
  Q 75.50 105.75 78.22 106.30
  Q 81.25 106.90 83.94 105.69
  Q 95.02 100.69 92.93 88.76
  Q 92.53 86.44 91.54 84.91
  Q 90.38 83.11 88.61 81.93
  Q 87.52 81.20 87.75 82.49
  Q 88.35 85.93 88.99 89.35
  Q 89.67 92.99 87.69 95.19
  Q 84.93 98.24 80.50 99.32
  Q 78.32 99.85 76.71 99.06
  Z"
  />
  <path fill="#0f739f"
    d="
  M 137.77 56.03
  Q 137.89 57.46 137.45 57.41
  Q 137.01 57.37 136.97 56.76
  Q 136.93 56.12 137.64 55.95
  C 137.70 55.93 137.76 55.97 137.77 56.03
  Z"
  />
  <path fill="#00b0e4"
    d="
  M 60.71 59.50
  L 77.04 68.75
  Q 72.50 71.29 68.07 73.99
  Q 67.99 74.04 66.10 75.71
  Q 64.82 76.84 63.23 75.84
  Q 62.31 75.26 62.24 75.23
  Q 54.51 71.11 46.88 66.81
  C 46.58 66.64 46.41 66.34 46.47 66.07
  Q 46.72 64.91 48.75 65.54
  Q 50.63 65.58 52.45 65.21
  Q 54.83 64.74 56.10 64.79
  Q 63.68 65.08 70.79 67.82
  Q 71.50 68.09 71.41 67.53
  Q 71.35 67.21 70.81 66.94
  Q 65.69 64.36 59.35 60.81
  C 58.78 60.50 58.05 60.50 57.40 60.83
  L 49.50 64.79
  Q 47.68 65.00 48.75 63.86
  Q 49.01 63.59 49.45 63.36
  Q 53.13 61.48 56.75 59.50
  Q 57.81 58.92 60.71 59.50
  Z"
  />
  <path fill="#ffffff"
    d="
  M 48.75 65.54
  Q 49.23 65.27 49.50 64.79
  L 57.40 60.83
  C 58.05 60.50 58.78 60.50 59.35 60.81
  Q 65.69 64.36 70.81 66.94
  Q 71.35 67.21 71.41 67.53
  Q 71.50 68.09 70.79 67.82
  Q 63.68 65.08 56.10 64.79
  Q 54.83 64.74 52.45 65.21
  Q 50.63 65.58 48.75 65.54
  Z"
  />
  <path fill="#ffffff"
    d="
  M 107.55 72.86
  C 107.40 72.79 107.32 72.63 107.36 72.47
  L 109.63 63.15
  Q 110.01 61.59 110.19 63.20
  Q 111.00 70.51 115.10 75.91
  Q 115.39 76.30 115.38 76.54
  Q 115.35 77.02 114.29 76.43
  Q 111.15 74.68 107.55 72.86
  Z"
  />
  <path fill="#00b0e4"
    d="
  M 83.25 64.46
  Q 84.06 64.52 85.44 65.31
  Q 89.63 67.74 104.46 75.75
  Q 104.50 77.05 103.75 78.04
  L 82.54 66.50
  L 83.25 64.46
  Z"
  />
  <path fill="#ffffff"
    d="
  M 82.54 66.50
  L 103.75 78.04
  Q 103.83 79.01 103.25 79.79
  L 85.25 70.04
  Q 83.79 69.19 82.56 68.05
  Q 82.16 67.67 82.15 67.33
  Q 82.13 66.89 82.54 66.50
  Z"
  />
  <path fill="#00b0e4"
    d="
  M 43.46 69.00
  L 43.54 68.75
  L 45.79 67.94
  C 46.10 67.83 46.43 67.84 46.69 67.98
  Q 58.79 74.35 63.25 77.00
  Q 65.93 78.59 63.22 79.59
  C 62.93 79.70 62.60 79.67 62.30 79.51
  Q 47.89 71.79 44.25 70.00
  Q 43.44 69.60 43.46 69.00
  Z"
  />
  <path fill="#00b0e4"
    d="
  M 85.25 70.04
  L 103.25 79.79
  Q 101.91 85.36 100.07 90.76
  Q 97.34 98.77 96.31 100.68
  Q 93.69 105.50 88.73 108.51
  Q 88.43 108.69 88.10 108.76
  Q 85.76 109.26 88.22 107.67
  Q 95.83 102.77 97.00 93.72
  Q 98.66 80.93 87.15 76.24
  C 86.84 76.12 86.59 75.90 86.45 75.62
  Q 85.12 73.01 85.25 70.04
  Z"
  />
  <path fill="#00b0e4"
    d="
  M 82.75 70.21
  Q 83.99 70.70 84.20 71.93
  Q 84.38 72.93 84.42 73.06
  Q 85.22 75.75 85.79 78.50
  L 87.88 89.01
  C 87.97 89.44 87.92 89.80 87.77 89.95
  L 87.21 90.50
  Q 84.09 87.20 85.58 91.53
  C 85.68 91.82 85.64 92.15 85.48 92.43
  Q 84.15 94.68 86.71 93.50
  Q 86.81 94.77 85.72 95.48
  Q 81.79 98.03 80.00 98.50
  Q 78.13 98.99 77.54 97.00
  Q 78.12 97.14 78.45 96.90
  C 78.66 96.74 78.69 96.38 78.51 96.07
  L 70.20 81.33
  Q 68.81 78.87 71.30 77.57
  Q 76.84 74.66 82.20 71.46
  Q 82.99 71.00 82.50 70.46
  Q 82.53 70.25 82.75 70.21
  Z
  M 81.71 89.24
  Q 79.97 89.26 79.25 91.00
  Q 77.98 94.06 80.26 95.04
  Q 81.90 95.74 83.45 94.59
  Q 85.69 92.92 83.95 90.48
  Q 83.06 89.22 81.71 89.24
  Z"
  />
  <path fill="#d3e6f0"
    d="
  M 82.50 70.46
  Q 82.99 71.00 82.20 71.46
  Q 76.84 74.66 71.30 77.57
  Q 68.81 78.87 70.20 81.33
  L 78.51 96.07
  C 78.69 96.38 78.66 96.74 78.45 96.90
  Q 78.12 97.14 77.54 97.00
  L 68.06 80.36
  Q 66.88 78.29 69.05 77.07
  Q 74.35 74.09 79.66 71.13
  Q 80.98 70.39 82.50 70.46
  Z"
  />
  <path fill="#00b0e4"
    d="
  M 155.25 81.46
  L 152.50 83.04
  Q 149.21 83.37 146.80 85.59
  Q 146.48 85.89 145.96 86.06
  Q 145.14 86.35 143.69 87.19
  Q 134.79 92.32 92.73 115.83
  Q 91.98 116.25 92.75 116.27
  L 93.25 116.29
  L 88.21 119.75
  Q 84.14 118.78 80.66 116.46
  Q 80.61 116.43 80.17 116.23
  Q 79.65 116.00 79.75 115.29
  L 89.27 116.87
  C 89.67 116.93 90.01 116.93 90.22 116.85
  Q 91.70 116.29 89.75 115.75
  Q 87.46 115.12 75.99 113.32
  Q 72.83 112.82 71.29 115.50
  L 70.39 116.44
  C 70.19 116.64 69.85 116.67 69.56 116.52
  L 48.50 105.13
  C 47.66 104.68 47.45 103.57 48.05 102.82
  Q 51.31 98.79 56.06 101.44
  Q 63.29 105.48 70.63 109.29
  Q 74.96 111.54 78.40 111.88
  Q 91.94 113.20 98.11 99.97
  Q 101.40 92.94 103.43 85.45
  C 103.51 85.18 103.69 84.95 103.94 84.81
  L 114.85 78.65
  C 115.25 78.43 115.73 78.42 116.12 78.64
  Q 118.41 79.91 120.47 81.26
  Q 123.09 82.97 124.93 83.61
  Q 137.77 88.10 149.10 80.49
  Q 150.90 79.28 152.20 79.51
  Q 153.98 79.82 155.25 81.46
  Z
  M 117.2444 84.2690
  C 116.87 83.28 115.30 82.95 113.7313 83.5439
  C 112.17 84.14 111.20 85.42 111.5756 86.4110
  C 111.95 87.40 113.52 87.73 115.0887 87.1361
  C 116.65 86.54 117.62 85.26 117.2444 84.2690
  Z
  M 127.3757 89.5237
  C 126.95 88.51 125.32 88.23 123.7456 88.8968
  C 122.17 89.56 121.24 90.92 121.6643 91.9363
  C 122.09 92.95 123.72 93.23 125.2944 92.5632
  C 126.87 91.90 127.80 90.54 127.3757 89.5237
  Z
  M 112.0508 98.5752
  C 111.69 97.54 110.12 97.14 108.5523 97.6918
  C 106.98 98.24 106.01 99.53 106.3692 100.5648
  C 106.73 101.60 108.30 102.00 109.8677 101.4482
  C 111.44 100.90 112.41 99.61 112.0508 98.5752
  Z"
  />
  <path fill="#00b0e4"
    d="
  M 87.50 78.71
  Q 96.86 83.02 95.75 93.00
  Q 94.81 101.42 88.42 105.81
  Q 82.86 109.65 76.97 108.54
  Q 69.78 107.20 67.96 98.25
  Q 68.90 97.74 69.06 98.94
  Q 69.45 101.86 70.50 103.00
  Q 75.04 107.93 81.71 106.78
  Q 90.91 105.21 93.56 96.27
  Q 96.66 85.85 87.44 80.31
  Q 85.83 79.35 87.50 78.71
  Z"
  />
  <path fill="#ffffff"
    d="
  M 155.25 81.46
  Q 157.09 81.58 156.40 82.90
  Q 156.12 83.43 155.36 83.86
  Q 122.97 102.28 90.46 120.47
  Q 88.98 121.29 88.21 119.75
  L 93.25 116.29
  L 152.50 83.04
  L 155.25 81.46
  Z"
  />
  <path fill="#00b0e4"
    d="
  M 80.50 99.32
  Q 84.93 98.24 87.69 95.19
  Q 89.67 92.99 88.99 89.35
  Q 88.35 85.93 87.75 82.49
  Q 87.52 81.20 88.61 81.93
  Q 90.38 83.11 91.54 84.91
  Q 92.53 86.44 92.93 88.76
  Q 95.02 100.69 83.94 105.69
  Q 81.25 106.90 78.22 106.30
  Q 75.50 105.75 73.31 103.78
  Q 68.18 99.18 70.24 91.23
  Q 70.37 90.73 70.65 91.17
  Q 72.31 93.84 73.75 96.27
  Q 74.87 98.16 76.71 99.06
  Q 78.32 99.85 80.50 99.32
  Z"
  />
  <path fill="#0f739f"
    d="
  M 152.50 83.04
  L 93.25 116.29
  L 92.75 116.27
  Q 91.98 116.25 92.73 115.83
  Q 134.79 92.32 143.69 87.19
  Q 145.14 86.35 145.96 86.06
  Q 146.48 85.89 146.80 85.59
  Q 149.21 83.37 152.50 83.04
  Z"
  />
  <path fill="#0181b0"
    d="
  M 117.2444 84.2690
  C 117.62 85.26 116.65 86.54 115.0887 87.1361
  C 113.52 87.73 111.95 87.40 111.5756 86.4110
  C 111.20 85.42 112.17 84.14 113.7313 83.5439
  C 115.30 82.95 116.87 83.28 117.2444 84.2690
  Z
  M 116.0109 84.4742
  C 115.86 84.10 114.96 84.11 114.0130 84.5046
  C 113.06 84.89 112.42 85.51 112.5691 85.8858
  C 112.72 86.26 113.62 86.25 114.5670 85.8554
  C 115.52 85.47 116.16 84.85 116.0109 84.4742
  Z"
  />
  <path fill="#00b0e4"
    d="
  M 49.54 96.00
  Q 49.44 95.52 48.50 95.00
  Q 39.51 90.00 30.50 85.04
  L 31.36 84.54
  C 31.62 84.39 31.96 84.34 32.30 84.40
  Q 36.23 85.09 39.74 87.02
  Q 47.42 91.25 55.19 95.31
  Q 55.94 95.71 55.00 95.75
  L 49.54 96.00
  Z"
  />
  <ellipse fill="#00b0e4" cx="0.00" cy="0.00" transform="translate(114.29,85.18) rotate(-22.3)"
    rx="1.86" ry="0.73" />
  <path fill="#ffffff"
    d="
  M 30.50 85.04
  Q 39.51 90.00 48.50 95.00
  Q 49.44 95.52 49.54 96.00
  Q 48.85 96.49 48.00 96.54
  L 27.50 85.21
  Q 28.92 84.34 30.50 85.04
  Z"
  />
  <path fill="#00b0e4"
    d="
  M 27.50 85.21
  L 48.00 96.54
  L 45.00 98.21
  Q 44.92 97.63 44.06 97.19
  Q 40.40 95.29 24.50 86.46
  Q 25.85 85.49 27.50 85.21
  Z"
  />
  <path fill="#ffffff"
    d="
  M 24.50 86.46
  Q 40.40 95.29 44.06 97.19
  Q 44.92 97.63 45.00 98.21
  Q 41.71 100.88 39.21 104.98
  C 39.03 105.28 38.64 105.39 38.33 105.22
  L 18.39 94.25
  C 18.05 94.06 17.92 93.63 18.11 93.28
  Q 20.59 88.71 24.50 86.46
  Z"
  />
  <path fill="#0181b0"
    d="
  M 127.3757 89.5237
  C 127.80 90.54 126.87 91.90 125.2944 92.5632
  C 123.72 93.23 122.09 92.95 121.6643 91.9363
  C 121.24 90.92 122.17 89.56 123.7456 88.8968
  C 125.32 88.23 126.95 88.51 127.3757 89.5237
  Z
  M 124.96 90.93
  Q 126.43 90.38 125.64 89.90
  C 125.40 89.75 125.06 89.72 124.72 89.82
  Q 121.37 90.82 124.14 91.04
  Q 124.57 91.07 124.96 90.93
  Z"
  />
  <path fill="#d3e6f0"
    d="
  M 87.21 90.50
  Q 87.57 92.14 86.71 93.50
  Q 84.15 94.68 85.48 92.43
  C 85.64 92.15 85.68 91.82 85.58 91.53
  Q 84.09 87.20 87.21 90.50
  Z"
  />
  <path fill="#0f739f"
    d="
  M 83.95 90.48
  Q 85.69 92.92 83.45 94.59
  Q 81.90 95.74 80.26 95.04
  Q 77.98 94.06 79.25 91.00
  Q 79.97 89.26 81.71 89.24
  Q 83.06 89.22 83.95 90.48
  Z
  M 82.54 90.56
  C 81.90 90.21 81.11 90.44 80.76 91.08
  Q 79.40 93.62 81.20 94.10
  C 81.54 94.19 81.88 94.12 82.11 93.91
  Q 82.53 93.53 82.42 92.96
  C 82.36 92.67 82.45 92.38 82.66 92.21
  Q 83.81 91.27 82.54 90.56
  Z"
  />
  <path fill="#00b0e4"
    d="
  M 124.14 91.04
  Q 121.37 90.82 124.72 89.82
  C 125.06 89.72 125.40 89.75 125.64 89.90
  Q 126.43 90.38 124.96 90.93
  Q 124.57 91.07 124.14 91.04
  Z"
  />
  <path fill="#00b0e4"
    d="
  M 82.54 90.56
  Q 83.81 91.27 82.66 92.21
  C 82.45 92.38 82.36 92.67 82.42 92.96
  Q 82.53 93.53 82.11 93.91
  C 81.88 94.12 81.54 94.19 81.20 94.10
  Q 79.40 93.62 80.76 91.08
  C 81.11 90.44 81.90 90.21 82.54 90.56
  Z"
  />
  <path fill="#ffffff"
    d="
  M 66.55 105.29
  Q 67.06 105.93 66.35 105.55
  L 52.44 98.25
  Q 51.94 97.98 52.41 97.72
  Q 53.33 97.20 54.51 97.47
  Q 61.53 99.06 66.55 105.29
  Z"
  />
  <path fill="#0181b0"
    d="
  M 112.0508 98.5752
  C 112.41 99.61 111.44 100.90 109.8677 101.4482
  C 108.30 102.00 106.73 101.60 106.3692 100.5648
  C 106.01 99.53 106.98 98.24 108.5523 97.6918
  C 110.12 97.14 111.69 97.54 112.0508 98.5752
  Z
  M 110.7717 98.8355
  C 110.64 98.42 109.80 98.32 108.8880 98.6053
  C 107.98 98.89 107.34 99.45 107.4683 99.8645
  C 107.60 100.28 108.44 100.38 109.3520 100.0947
  C 110.26 99.81 110.90 99.25 110.7717 98.8355
  Z"
  />
  <ellipse fill="#00b0e4" cx="0.00" cy="0.00" transform="translate(109.12,99.35) rotate(-17.3)"
    rx="1.73" ry="0.78" />
  <path fill="#00b0e4"
    d="
  M 114.24 124.07
  C 113.66 123.62 113.31 122.93 113.30 122.19
  Q 113.23 116.59 118.15 112.68
  Q 124.80 107.38 132.78 104.42
  C 133.05 104.32 133.35 104.44 133.49 104.70
  Q 146.18 128.51 154.94 146.56
  Q 157.52 151.88 154.25 155.31
  Q 152.59 157.06 148.87 159.34
  Q 145.86 161.18 142.39 161.57
  Q 137.50 162.11 133.36 159.09
  Q 129.13 156.01 127.44 151.06
  Q 124.52 142.56 121.68 134.02
  Q 119.81 128.42 114.24 124.07
  Z
  M 125.76 110.83
  Q 126.96 110.05 128.00 109.12
  Q 129.05 108.18 127.76 108.74
  Q 122.38 111.10 118.06 115.06
  Q 115.47 117.45 115.32 121.93
  C 115.31 122.24 115.46 122.55 115.72 122.74
  Q 120.37 126.23 122.50 131.00
  Q 125.30 137.27 127.65 145.96
  Q 128.58 149.37 129.67 151.30
  Q 130.93 153.52 130.54 151.00
  Q 128.36 136.83 123.17 123.76
  Q 123.14 123.68 122.09 121.43
  Q 119.75 116.42 123.53 112.52
  Q 124.10 111.92 125.76 110.83
  Z
  M 126.00 117.96
  Q 126.33 117.55 126.25 117.04
  Q 126.78 116.82 126.75 116.29
  Q 128.23 114.34 125.50 114.29
  Q 121.94 114.38 123.19 117.56
  Q 124.27 120.34 126.43 118.31
  Q 126.73 118.04 126.35 117.99
  L 126.00 117.96
  Z
  M 149.94 146.69
  Q 149.76 153.91 144.39 158.43
  Q 143.92 158.82 144.44 158.98
  Q 144.90 159.12 145.41 158.87
  Q 149.32 156.98 152.61 154.12
  Q 155.43 151.67 153.69 148.31
  Q 151.34 143.79 150.11 140.53
  C 150.00 140.24 149.69 140.11 149.48 140.25
  Q 149.07 140.53 149.27 141.06
  Q 149.55 141.84 149.57 142.00
  Q 149.98 144.95 149.94 146.69
  Z
  M 141.99 146.42
  C 141.26 146.06 140.38 146.30 139.92 146.97
  Q 137.48 150.52 141.04 151.76
  Q 142.86 152.39 143.69 150.64
  Q 145.01 147.88 141.99 146.42
  Z"
  />
  <path fill="#ffffff"
    d="
  M 123.53 112.52
  Q 119.75 116.42 122.09 121.43
  Q 123.14 123.68 123.17 123.76
  Q 128.36 136.83 130.54 151.00
  Q 130.93 153.52 129.67 151.30
  Q 128.58 149.37 127.65 145.96
  Q 125.30 137.27 122.50 131.00
  Q 120.37 126.23 115.72 122.74
  C 115.46 122.55 115.31 122.24 115.32 121.93
  Q 115.47 117.45 118.06 115.06
  Q 122.38 111.10 127.76 108.74
  Q 129.05 108.18 128.00 109.12
  Q 126.96 110.05 125.76 110.83
  Q 124.10 111.92 123.53 112.52
  Z"
  />
  <path fill="#bbc8d0"
    d="
  M 79.75 115.29
  Q 77.66 114.77 75.50 114.68
  Q 72.96 114.58 71.89 116.72
  C 71.75 117.01 71.42 117.14 71.23 116.98
  Q 70.72 116.57 71.29 115.50
  Q 72.83 112.82 75.99 113.32
  Q 87.46 115.12 89.75 115.75
  Q 91.70 116.29 90.22 116.85
  C 90.01 116.93 89.67 116.93 89.27 116.87
  L 79.75 115.29
  Z"
  />
  <path fill="#0f739f"
    d="
  M 125.50 114.29
  Q 125.09 115.86 126.75 116.29
  Q 126.78 116.82 126.25 117.04
  Q 125.47 116.89 124.94 116.31
  Q 123.62 114.87 124.00 116.75
  Q 124.33 118.38 126.00 117.96
  L 126.35 117.99
  Q 126.73 118.04 126.43 118.31
  Q 124.27 120.34 123.19 117.56
  Q 121.94 114.38 125.50 114.29
  Z"
  />
  <path fill="#d3e6f0"
    d="
  M 125.50 114.29
  Q 128.23 114.34 126.75 116.29
  Q 125.09 115.86 125.50 114.29
  Z"
  />
  <path fill="#d3e6f0"
    d="
  M 126.25 117.04
  Q 126.33 117.55 126.00 117.96
  Q 124.33 118.38 124.00 116.75
  Q 123.62 114.87 124.94 116.31
  Q 125.47 116.89 126.25 117.04
  Z"
  />
  <path fill="#ffffff"
    d="
  M 149.94 146.69
  Q 149.98 144.95 149.57 142.00
  Q 149.55 141.84 149.27 141.06
  Q 149.07 140.53 149.48 140.25
  C 149.69 140.11 150.00 140.24 150.11 140.53
  Q 151.34 143.79 153.69 148.31
  Q 155.43 151.67 152.61 154.12
  Q 149.32 156.98 145.41 158.87
  Q 144.90 159.12 144.44 158.98
  Q 143.92 158.82 144.39 158.43
  Q 149.76 153.91 149.94 146.69
  Z"
  />
  <path fill="#0f739f"
    d="
  M 141.99 146.42
  Q 145.01 147.88 143.69 150.64
  Q 142.86 152.39 141.04 151.76
  Q 137.48 150.52 139.92 146.97
  C 140.38 146.30 141.26 146.06 141.99 146.42
  Z
  M 140.06 148.44
  Q 139.29 149.95 140.88 149.36
  Q 141.78 149.03 142.30 147.96
  C 142.43 147.70 142.30 147.39 142.03 147.31
  Q 140.81 146.96 140.06 148.44
  Z
  M 143.7463 148.8827
  C 143.51 148.61 142.78 148.85 142.1153 149.4334
  C 141.45 150.01 141.11 150.70 141.3537 150.9773
  C 141.59 151.25 142.32 151.01 142.9847 150.4266
  C 143.65 149.85 143.99 149.16 143.7463 148.8827
  Z"
  />
  <path fill="#bbc8d0"
    d="
  M 140.06 148.44
  Q 140.81 146.96 142.03 147.31
  C 142.30 147.39 142.43 147.70 142.30 147.96
  Q 141.78 149.03 140.88 149.36
  Q 139.29 149.95 140.06 148.44
  Z"
  />
  <ellipse fill="#bbc8d0" cx="0.00" cy="0.00" transform="translate(142.55,149.93) rotate(-41.2)"
    rx="1.59" ry="0.66" />
</svg>