<svg width="15" height="16" viewBox="0 0 15 16" fill="none"
    xmlns="http://www.w3.org/2000/svg">
    <g clip-path="url(#clip0_2714_32)">
        <path fill-rule="evenodd" clip-rule="evenodd" d="M6.82019 0.109101C7.07885 -0.0360415 7.39733 -0.0360415 7.65561 0.109101C8.93371 0.826434 12.7798 2.98567 14.0583 3.703C14.3169 3.84777 14.4762 4.11596 14.4762 4.40624C14.4762 5.84091 14.4762 10.159 14.4762 11.5937C14.4762 11.8839 14.3169 12.1521 14.0583 12.2973C12.7802 13.0146 8.93409 15.1739 7.65561 15.8912C7.39695 16.0363 7.07847 16.0363 6.82019 15.8912C5.54209 15.1739 1.696 13.0146 0.417524 12.2973C0.159238 12.1521 0 11.8843 0 11.594C0 10.1594 0 5.84129 0 4.40662C0 4.11634 0.159238 3.84815 0.417904 3.703C1.69562 2.98567 5.54247 0.826434 6.82019 0.109101V0.109101Z" fill="#004482"/>
        <path fill-rule="evenodd" clip-rule="evenodd" d="M0.115809 11.9635C0.0144762 11.8279 0 11.6991 0 11.5258C0 10.0995 0 5.8062 0 4.37953C0 4.09077 0.158857 3.8241 0.416762 3.6801C1.69028 2.96696 5.52342 0.820297 6.79695 0.106774C7.05485 -0.037607 7.40419 -0.0345593 7.66209 0.109821C8.93561 0.822964 12.7558 2.95134 14.0293 3.66449C14.1322 3.72239 14.2107 3.7921 14.2808 3.88391L0.115809 11.9635Z" fill="#659AD2"/>
        <path fill-rule="evenodd" clip-rule="evenodd" d="M7.23763 2.66675C10.1812 2.66675 12.571 5.05646 12.571 8.00008C12.571 10.9437 10.1812 13.3334 7.23763 13.3334C4.29401 13.3334 1.9043 10.9437 1.9043 8.00008C1.9043 5.05646 4.29401 2.66675 7.23763 2.66675V2.66675ZM7.23763 5.33341C8.70924 5.33341 9.90429 6.52808 9.90429 8.00008C9.90429 9.4717 8.70924 10.6667 7.23763 10.6667C5.76601 10.6667 4.57096 9.4717 4.57096 8.00008C4.57096 6.52808 5.76563 5.33341 7.23763 5.33341V5.33341Z" fill="white"/>
        <path fill-rule="evenodd" clip-rule="evenodd" d="M14.2809 3.8877C14.4775 4.0717 14.4737 4.34903 14.4737 4.56731C14.4737 6.01303 14.4615 10.125 14.4771 11.5707C14.4786 11.7216 14.4287 11.8805 14.3541 12.0001L7.08398 8.00007L14.2809 3.8877Z" fill="#00599C"/>
    </g>
    <defs>
        <clipPath id="clip0_2714_32">
            <rect width="14.4762" height="16" fill="white"/>
        </clipPath>
    </defs>
</svg>
