<svg width="60" height="43" viewBox="0 0 60 43" fill="none" xmlns="http://www.w3.org/2000/svg">
    <g clip-path="url(#clip0_3135_202)">
        <path
            d="M58.5506 18.5984C57.3546 18.5984 56.5578 17.8973 56.5578 16.4581V8.19211C56.5578 2.91522 54.3838 0 48.7679 0H46.1592V5.57213H46.9564C49.1664 5.57213 50.2172 6.78989 50.2172 8.96709V16.2736C50.2172 19.4471 51.1592 20.7387 53.2244 21.4029C51.1592 22.0303 50.2172 23.3587 50.2172 26.5322C50.2172 28.3404 50.2172 30.1485 50.2172 31.9568C50.2172 33.4697 50.2172 34.9458 49.8186 36.4587C49.4201 37.861 48.7679 39.1894 47.8621 40.3333C47.3549 40.9977 46.7752 41.5511 46.123 42.0678V42.8058H48.7316C54.3476 42.8058 56.5216 39.8906 56.5216 34.6136V26.3477C56.5216 24.8716 57.2826 24.2074 58.5146 24.2074H59.9997V18.6352H58.5506V18.5984Z"
            fill="white" />
        <path
            d="M40.7973 8.41459H32.7538C32.5726 8.41459 32.4277 8.26699 32.4277 8.08248V7.45516C32.4277 7.27065 32.5726 7.12305 32.7538 7.12305H40.8335C41.0146 7.12305 41.1596 7.27065 41.1596 7.45516V8.08248C41.1596 8.26699 40.9784 8.41459 40.7973 8.41459Z"
            fill="white" />
        <path
            d="M42.1742 16.3851H36.3047C36.1235 16.3851 35.9785 16.2374 35.9785 16.0529V15.4257C35.9785 15.2412 36.1235 15.0935 36.3047 15.0935H42.1742C42.3554 15.0935 42.5003 15.2412 42.5003 15.4257V16.0529C42.5003 16.2006 42.3554 16.3851 42.1742 16.3851Z"
            fill="white" />
        <path
            d="M44.4929 12.3999H32.7538C32.5726 12.3999 32.4277 12.2523 32.4277 12.0678V11.4405C32.4277 11.256 32.5726 11.1084 32.7538 11.1084H44.4566C44.6378 11.1084 44.7828 11.256 44.7828 11.4405V12.0678C44.7828 12.2154 44.6741 12.3999 44.4929 12.3999Z"
            fill="white" />
        <path
            d="M23.4426 10.2217C24.2396 10.2217 25.0368 10.2955 25.7976 10.4801V8.96709C25.7976 6.8268 26.8846 5.57213 29.0585 5.57213H29.8555V0H27.2469C21.6309 0 19.457 2.91522 19.457 8.19211V10.9229C20.7251 10.4801 22.0658 10.2217 23.4426 10.2217Z"
            fill="white" />
        <path
            d="M46.9565 30.2952C46.3768 25.6087 42.8261 21.6971 38.2608 20.8114C36.9927 20.5532 35.7246 20.5162 34.4927 20.7377C34.4565 20.7377 34.4565 20.7007 34.4203 20.7007C32.4275 16.4571 28.1522 13.6526 23.5145 13.6526C18.8768 13.6526 14.6377 16.3833 12.6087 20.627C12.5725 20.627 12.5725 20.6639 12.5362 20.6639C11.2319 20.5162 9.92754 20.59 8.6232 20.9222C4.13043 22.0292 0.724646 25.867 0.108698 30.5165C0.0362279 30.9962 0 31.476 0 31.9188C0 33.321 0.942029 34.6126 2.31883 34.7971C4.02173 35.0555 5.50723 33.7269 5.47101 32.0296C5.47101 31.7712 5.47101 31.476 5.50723 31.2177C5.79709 28.856 7.57246 26.8633 9.89131 26.3097C10.6159 26.1252 11.3406 26.0884 12.029 26.1992C14.2391 26.4944 16.413 25.3503 17.355 23.3577C18.0435 21.8816 19.1305 20.59 20.5797 19.8889C22.1738 19.1139 23.9855 19.0033 25.6522 19.5938C27.3913 20.221 28.6955 21.5494 29.4927 23.21C30.3261 24.8338 30.7246 25.9777 32.5 26.1992C33.2246 26.3097 35.2535 26.2729 36.0145 26.236C37.5 26.236 38.9855 26.7526 40.0362 27.8228C40.7246 28.5607 41.2318 29.4833 41.4493 30.5165C41.7753 32.1771 41.3768 33.8377 40.3985 35.0923C39.7101 35.978 38.7681 36.6422 37.7173 36.9374C37.2101 37.085 36.7028 37.1219 36.1955 37.1219C35.9058 37.1219 35.5073 37.1219 35.0362 37.1219C33.587 37.1219 30.5073 37.1219 28.1883 37.1219C26.5942 37.1219 25.3261 35.8304 25.3261 34.2066V28.7452V23.3945C25.3261 22.9517 24.9638 22.5828 24.529 22.5828H23.4058C21.1955 22.6196 19.4203 25.129 19.4203 27.7858C19.4203 30.4428 19.4203 37.491 19.4203 37.491C19.4203 40.3693 21.7028 42.6941 24.529 42.6941C24.529 42.6941 37.1015 42.6571 37.2826 42.6571C40.1811 42.3619 42.8623 40.849 44.6738 38.5242C46.4855 36.2732 47.3188 33.321 46.9565 30.2952Z"
            fill="white" />
    </g>
    <defs>
        <clipPath id="clip0_3135_202">
            <rect width="60" height="42.8571" fill="white" />
        </clipPath>
    </defs>
</svg>