<svg width="15" height="16" viewBox="0 0 15 16" fill="none"
    xmlns="http://www.w3.org/2000/svg">
    <g clip-path="url(#clip0_2713_173)">
        <path d="M14.0375 12C14.1491 11.8067 14.2184 11.589 14.2184 11.3935V4.60645C14.2184 4.41093 14.1492 4.19325 14.0376 4L7.10938 7.99998L14.0375 12Z" fill="#00599C" />
        <path d="M7.72545 15.8533L13.6032 12.4598C13.7725 12.3621 13.9264 12.1933 14.038 12L7.1098 8L0.181641 12C0.293202 12.1933 0.447138 12.3621 0.616408 12.4598L6.49415 15.8533C6.83273 16.0488 7.38687 16.0488 7.72545 15.8533Z" fill="#004482" />
        <path d="M14.0373 3.99998C13.9256 3.80669 13.7717 3.63788 13.6024 3.54012L7.7247 0.146642C7.38611 -0.0488805 6.83198 -0.0488805 6.49339 0.146642L0.615653 3.54012C0.27702 3.73559 0 4.21548 0 4.60648V11.3935C0 11.589 0.0692783 11.8067 0.180886 12L7.10905 8L14.0373 3.99998Z" fill="#659AD2" />
        <path d="M7.1085 12.7395C4.49521 12.7395 2.36914 10.6134 2.36914 8.00011C2.36914 5.38681 4.49521 3.26074 7.1085 3.26074C8.79479 3.26074 10.3675 4.16819 11.2127 5.62894L9.16167 6.81582C8.73861 6.08466 7.95183 5.63042 7.1085 5.63042C5.80183 5.63042 4.73882 6.69344 4.73882 8.00011C4.73882 9.30673 5.80183 10.3698 7.1085 10.3698C7.95193 10.3698 8.73871 9.91555 9.16181 9.18425L11.2129 10.3711C10.3676 11.832 8.79488 12.7395 7.1085 12.7395Z" fill="white" />
        <path d="M11.8493 7.73679H11.3227V7.21021H10.7962V7.73679H10.2695V8.26337H10.7962V8.78999H11.3227V8.26337H11.8493V7.73679Z" fill="white" />
        <path d="M13.8239 7.73679H13.2973V7.21021H12.7708V7.73679H12.2441V8.26337H12.7708V8.78999H13.2973V8.26337H13.8239V7.73679Z" fill="white" />
    </g>
    <defs>
        <clipPath id="clip0_2713_173">
            <rect width="14.2181" height="16" fill="white" />
        </clipPath>
    </defs>
</svg>