<svg width="16" height="16" viewBox="0 0 16 16" fill="none"
    xmlns="http://www.w3.org/2000/svg">
    <path
        d="M3.26231 12.7331L0.526483 9.9973C0.202132 9.66355 0 9.19348 0 8.73398C0 8.52127 0.119869 8.1887 0.210358 7.99714L2.73583 2.73584L3.26231 12.7331Z"
        fill="#01579B" />
    <path
        d="M12.6279 3.26231L9.89203 0.526483C9.65346 0.286745 9.15519 0 8.73447 0C8.37251 0 8.01761 0.0728615 7.78727 0.210358L2.73633 2.73583L12.6279 3.26231Z"
        fill="#40C4FF" />
    <path d="M6.52401 15.9953H13.1544V13.1537L8.20805 11.5754L3.68359 13.1537L6.52401 15.9953Z"
        fill="#40C4FF" />
    <path
        d="M2.73633 11.2607C2.73633 12.1045 2.84209 12.3125 3.26281 12.7344L3.68353 13.1551H13.1543L8.52411 7.89377L2.73633 2.73706V11.2607Z"
        fill="#29B6F6" />
    <path
        d="M11.1553 2.73584H2.73633L13.1543 13.1538H15.9959V6.62922L12.629 3.26232C12.1566 2.78755 11.7359 2.73584 11.1553 2.73584Z"
        fill="#01579B" />
    <path opacity="0.2"
        d="M3.36858 12.8389C2.94786 12.4158 2.84209 11.9998 2.84209 11.2606V2.84161L2.73633 2.73584V11.2595C2.7375 11.9998 2.7375 12.2043 3.36858 12.8389L3.6847 13.155L3.36858 12.8389Z"
        fill="white" />
    <path opacity="0.2"
        d="M15.8904 6.52466V13.0493H13.0488L13.1546 13.1539H15.9962V6.63042L15.8904 6.52466Z"
        fill="#263238" />
    <path opacity="0.2"
        d="M12.6279 3.26232C12.1061 2.74054 11.6783 2.73584 11.0496 2.73584H2.73633L2.84209 2.84161H11.0508C11.3634 2.84161 12.1566 2.78872 12.6279 3.26232Z"
        fill="white" />
    <path opacity="0.2"
        d="M15.8916 6.52462L12.6293 3.26231L9.89348 0.526483C9.65492 0.286745 9.15664 0 8.73592 0C8.37397 0 8.01906 0.0728615 7.78872 0.210358L2.73778 2.73583L0.212311 7.99713C0.121822 8.18868 0.00195312 8.52126 0.00195312 8.73397C0.00195312 9.19347 0.204085 9.66354 0.528436 9.99729L3.05038 12.5004C3.11032 12.5745 3.18083 12.6497 3.26544 12.7331L3.37121 12.8389L3.68733 13.155L6.42316 15.8908L6.52893 15.9966H13.0535H13.1593V13.155H16.0009V13.148V6.63039L15.8916 6.52462Z"
        fill="url(#paint0_radial_2713_146)" />
    <defs>
        <radialGradient id="paint0_radial_2713_146" cx="0" cy="0" r="1"
            gradientUnits="userSpaceOnUse"
            gradientTransform="translate(8.00084 7.99788) scale(7.99889)">
            <stop stop-color="white" stop-opacity="0.1" />
            <stop offset="1" stop-color="white" stop-opacity="0" />
        </radialGradient>
    </defs>
</svg>