<svg width="16" height="17" viewBox="0 0 16 17" fill="none"
    xmlns="http://www.w3.org/2000/svg">
    <path d="M7.37035 0.00588468C7.33296 0.00982 7.21294 0.0235936 7.10472 0.0334319C5.56601 0.19478 4.05091 0.846074 2.81522 1.88106C2.58698 2.06996 2.06752 2.58942 1.87862 2.81767C0.855439 4.03958 0.257271 5.41104 0.0368936 7.03435C-0.0122979 7.39444 -0.0122979 8.61045 0.0368936 8.97053C0.257271 10.5938 0.855439 11.9653 1.87862 13.1872C2.06752 13.4155 2.58698 13.9349 2.81522 14.1238C4.03714 15.147 5.4086 15.7452 7.03191 15.9655C7.39199 16.0147 8.60801 16.0147 8.96809 15.9655C10.5914 15.7452 11.9629 15.147 13.1848 14.1238C13.413 13.9349 13.9325 13.4155 14.1214 13.1872C15.1446 11.9653 15.7427 10.5938 15.9631 8.97053C16.0123 8.61045 16.0123 7.39444 15.9631 7.03435C15.7427 5.41104 15.1446 4.03958 14.1214 2.81767C13.9325 2.58942 13.413 2.06996 13.1848 1.88106C11.9668 0.861815 10.5816 0.255777 8.97989 0.0413025C8.80674 0.0176906 8.55488 0.00785234 8.08854 0.00391703C7.7324 -1.82869e-05 7.40774 0.00194937 7.37035 0.00588468ZM7.46873 0.855912C7.46873 1.08613 7.48447 1.58591 7.50612 2.06012C7.51792 2.2923 7.5317 2.62484 7.5376 2.79799C7.55924 3.4119 7.62418 5.02341 7.63402 5.16705L7.64385 5.31069L7.55531 5.30085C7.50612 5.29691 7.46086 5.28511 7.45299 5.2792C7.44709 5.27133 7.43331 5.13557 7.42544 4.97619C7.39003 4.2757 7.27393 1.55837 7.26213 1.1609L7.25032 0.724079L7.30542 0.716209C7.33493 0.712273 7.38412 0.70637 7.41561 0.704403L7.46873 0.702435V0.855912ZM9.35178 0.808689C9.35375 0.810656 9.35965 1.40489 9.36555 2.12899C9.37342 2.85505 9.38326 3.50635 9.38917 3.57718C9.39507 3.64998 9.3931 3.71295 9.38326 3.71689C9.37539 3.72279 9.3262 3.72279 9.27701 3.71689L9.1865 3.70901L9.17272 3.13643C9.16485 2.81963 9.15501 2.46939 9.15108 2.35527C9.13534 2.00699 9.12156 0.82443 9.13337 0.794915C9.14124 0.773271 9.16289 0.771303 9.24553 0.785077C9.30259 0.796883 9.34981 0.806721 9.35178 0.808689ZM4.80059 1.46785C4.8124 1.48556 4.90488 2.56974 5.019 3.98842C5.05639 4.4705 5.09377 4.91125 5.09967 4.96635C5.10951 5.0667 5.10754 5.07063 5.04458 5.10999C5.00916 5.13163 4.97374 5.14934 4.96587 5.14934C4.95997 5.14934 4.94816 5.09818 4.94226 5.03522C4.91471 4.77942 4.80846 3.54373 4.73369 2.65042C4.6904 2.12505 4.65105 1.65478 4.64515 1.60362C4.63531 1.51704 4.63727 1.50917 4.68843 1.48163C4.7514 1.44818 4.78682 1.44227 4.80059 1.46785ZM10.2175 1.86335C10.2726 1.88303 10.2785 1.89287 10.2904 2.00502C10.31 2.20179 10.3041 3.14233 10.2825 3.14233C10.2254 3.14233 10.1074 3.07543 10.0975 3.03804C10.0916 3.01443 10.0857 2.73502 10.0857 2.41823C10.0857 1.77874 10.0778 1.81613 10.2175 1.86335ZM6.58329 1.95583C6.58329 2.00896 6.59706 2.30214 6.6128 2.61106C6.62854 2.91998 6.64625 3.31155 6.65412 3.48077C6.6679 3.82314 6.67183 3.81133 6.54 3.8192C6.47507 3.82117 6.47507 3.82117 6.47113 3.72279C6.4672 3.66769 6.45736 3.49651 6.44555 3.3391C6.43571 3.18168 6.4121 2.84128 6.39636 2.58155C6.38062 2.32182 6.36094 2.06405 6.35504 2.00896C6.34323 1.91058 6.3452 1.90664 6.39833 1.88696C6.42981 1.87516 6.4849 1.86532 6.52032 1.86532C6.58329 1.86335 6.58329 1.86335 6.58329 1.95583ZM12.0416 2.2254L12.1085 2.25295L12.1222 2.51661C12.1281 2.66025 12.1321 2.97114 12.1281 3.20529L12.1222 3.63424L12.0396 3.59292L11.957 3.55357L11.9511 2.90031C11.9471 2.54023 11.9491 2.23524 11.953 2.22147C11.9609 2.19195 11.9609 2.19195 12.0416 2.2254ZM8.44863 2.48316C8.46043 2.49497 8.48798 3.44928 8.48995 3.93333L8.49191 4.22454L8.39943 4.21077C8.34631 4.20486 8.30302 4.19896 8.30105 4.19699C8.29515 4.19306 8.23612 2.73502 8.23612 2.59335V2.44775L8.33647 2.45955C8.39353 2.46742 8.44272 2.47726 8.44863 2.48316ZM12.9801 2.62287C13.0038 2.65042 13.0077 3.08133 13.0136 5.45826C13.0195 8.1874 13.0195 8.25824 12.9841 8.25824C12.9624 8.25824 12.9329 8.24643 12.9152 8.23266C12.8857 8.21101 12.8818 7.97293 12.8719 5.64125C12.864 4.22848 12.8542 2.94556 12.8483 2.79012L12.8365 2.50678L12.8936 2.5481C12.927 2.57171 12.9644 2.60516 12.9801 2.62287ZM11.2152 3.02624C11.225 3.03411 11.2348 3.14626 11.2368 3.27416C11.2466 3.70901 11.2486 6.37519 11.2388 6.38306C11.2348 6.387 11.1994 6.37716 11.1601 6.36142L11.0892 6.3319V4.65743V2.98492L11.1443 2.99672C11.1738 3.00459 11.2053 3.0164 11.2152 3.02624ZM5.78442 3.13643C5.79032 3.18955 5.80016 3.30958 5.80606 3.40796C5.81197 3.50438 5.82574 3.72476 5.83755 3.89594C5.86116 4.24225 5.85722 4.26389 5.74507 4.26389C5.68604 4.26389 5.67817 4.25799 5.67029 4.19896C5.65062 4.08287 5.58175 3.11478 5.59159 3.09904C5.60143 3.08527 5.70374 3.04985 5.75097 3.04591C5.76277 3.04395 5.77852 3.08527 5.78442 3.13643ZM2.52991 3.63818C2.55156 3.84675 2.59485 4.28357 2.62633 4.60823C2.65978 4.9329 2.68733 5.20837 2.68733 5.22017C2.68733 5.24379 2.53582 5.31856 2.52008 5.30282C2.51024 5.29298 2.31347 3.5516 2.31347 3.4729C2.31347 3.42567 2.46498 3.22694 2.48466 3.24858C2.49056 3.25252 2.51024 3.42764 2.52991 3.63818ZM10.2451 3.84478L10.3022 3.87823L10.3041 4.30325C10.3061 4.53543 10.31 4.79516 10.31 4.87977C10.314 5.05686 10.2923 5.08637 10.1861 5.04899L10.1251 5.02734V4.85813C10.1251 4.76368 10.1192 4.49017 10.1113 4.24815L10.0995 3.81133H10.1447C10.1684 3.81133 10.2136 3.82707 10.2451 3.84478ZM3.39372 4.60823C3.42913 4.98602 3.4862 5.62354 3.52358 6.02495L3.59048 6.75298L3.51374 6.82972L3.43897 6.90646L3.4252 6.75101C3.41733 6.66443 3.37797 6.26303 3.33665 5.8577C3.29533 5.45236 3.2363 4.86403 3.20679 4.55117L3.15169 3.98449L3.22843 3.91365C3.2973 3.84872 3.30517 3.84675 3.31894 3.88217C3.32682 3.90184 3.36027 4.22848 3.39372 4.60823ZM1.91994 4.84632C1.96323 5.23395 2.07735 6.265 2.17574 7.13667C2.27412 8.00834 2.3666 8.84853 2.38431 9.00595C2.40005 9.16336 2.4276 9.40145 2.44334 9.53721C2.47088 9.76743 2.47088 9.78317 2.4394 9.80678C2.39218 9.8422 2.3725 9.83827 2.3725 9.79694C2.3725 9.77924 2.35479 9.62969 2.33315 9.46835C2.29773 9.19878 2.2387 8.74228 2.10687 7.71713C2.07932 7.51053 2.02619 7.09929 1.98881 6.80217C1.94946 6.50505 1.89239 6.06233 1.86091 5.81834C1.82943 5.57435 1.7763 5.15721 1.74285 4.88764C1.70743 4.62004 1.68579 4.38195 1.69169 4.35637C1.70547 4.30325 1.82156 4.11829 1.83336 4.13009C1.8373 4.136 1.87665 4.45672 1.91994 4.84632ZM1.31784 5.69438C1.34735 5.9305 1.40245 6.36142 1.43983 6.6546C1.47722 6.94581 1.52444 7.30983 1.54609 7.46134L1.58347 7.73681L1.54215 7.77223C1.51854 7.7919 1.49493 7.79977 1.48706 7.7919C1.47919 7.78403 1.46344 7.70533 1.45164 7.61875C1.43983 7.53217 1.36703 7.02648 1.28832 6.49718L1.14862 5.53303L1.19388 5.39923C1.21749 5.32643 1.24307 5.2674 1.24897 5.2674C1.25684 5.2674 1.28636 5.46023 1.31784 5.69438ZM12.1203 5.43662C12.1478 5.46416 12.1518 5.58616 12.1518 6.48931V7.51053H12.0967C11.9766 7.51053 11.9786 7.54004 11.9707 6.42241L11.9648 5.40513H12.0278C12.0612 5.40513 12.1045 5.41891 12.1203 5.43662ZM7.81307 5.78883C8.25776 5.85573 8.64539 5.97969 9.02908 6.17646C9.27701 6.30435 9.39507 6.3929 9.67054 6.65656C10.0798 7.04813 10.3317 7.3905 10.5678 7.87454C10.9121 8.57896 11.0459 9.20271 11.2152 10.8752C11.2919 11.6249 11.3922 12.9845 11.4139 13.5414C11.4198 13.7027 11.4336 13.9684 11.4454 14.1317C11.467 14.478 11.4926 14.4308 11.1876 14.5783C10.7646 14.783 10.3573 14.9247 9.82008 15.0565C9.16289 15.2178 8.73787 15.269 8.08854 15.271L7.61631 15.2729L7.62024 15.0467C7.62024 14.9227 7.63205 14.6334 7.64385 14.4072C7.70288 13.3112 7.69108 11.9279 7.61434 11.1605C7.57105 10.7198 7.48644 10.1846 7.43922 10.0665C7.42938 10.0409 7.47464 10.0193 7.66943 9.95239C8.02558 9.82843 8.3345 9.67298 8.38173 9.59624C8.46633 9.45064 8.31483 9.24207 8.12199 9.24207C8.08854 9.24207 7.98819 9.27748 7.89571 9.3188C7.45496 9.52147 6.57148 9.75956 6.06186 9.81269C5.70965 9.85007 5.16264 9.82843 4.78288 9.75956C4.57628 9.72217 4.20636 9.58247 3.89744 9.42309C3.54129 9.23813 3.32288 8.99217 3.25795 8.70096C3.22253 8.54355 3.23237 8.22872 3.27762 8.05163C3.32682 7.85683 3.46455 7.57349 3.59048 7.40821C4.15126 6.67034 5.30825 6.03085 6.49474 5.80654C6.87253 5.7357 7.40774 5.72783 7.81307 5.78883ZM13.8833 5.84982C13.9541 5.87934 13.962 5.88721 13.962 5.95411C13.9659 6.49128 13.9541 7.7191 13.9443 7.77026C13.9423 7.78797 13.84 7.78993 13.7967 7.77419C13.7692 7.76435 13.7652 7.6581 13.7652 6.79036C13.7652 6.16859 13.7731 5.81834 13.7849 5.81834C13.7947 5.81834 13.84 5.83212 13.8833 5.84982ZM14.7432 6.93007L14.814 6.95958L14.8002 8.5888C14.7845 10.6647 14.7825 10.7257 14.7077 10.9047C14.5857 11.1979 14.5916 11.2569 14.6035 9.9701C14.6074 9.32667 14.6172 8.67538 14.6212 8.52387C14.6251 8.37236 14.629 7.94538 14.631 7.57349C14.631 7.12487 14.6369 6.90055 14.6507 6.90055C14.6625 6.90055 14.7038 6.91433 14.7432 6.93007ZM2.90967 7.42001C2.92148 7.5794 2.91754 7.59514 2.86048 7.72107L2.79752 7.85487L2.7739 7.6581C2.73652 7.34328 2.73652 7.3295 2.81129 7.28228C2.84474 7.25867 2.88016 7.24293 2.88606 7.24686C2.89196 7.2508 2.90377 7.3295 2.90967 7.42001ZM1.69366 8.60651C1.71137 8.76786 1.84911 9.83827 1.91994 10.3636C2.02619 11.1763 2.03407 11.2924 1.98684 11.2432C1.98094 11.2373 1.93568 10.9638 1.88846 10.6352C1.5815 8.51403 1.58347 8.52781 1.60905 8.51206C1.66218 8.47665 1.67989 8.49632 1.69366 8.60651ZM3.11037 9.5077C3.12218 9.55689 3.17924 10.0901 3.17924 10.1551C3.17924 10.2102 3.10841 10.2613 3.07692 10.2298C3.06708 10.22 3.04151 10.0527 3.02183 9.85991C3.00018 9.66511 2.97854 9.46244 2.97264 9.40932L2.96083 9.31093L3.0297 9.38964C3.06905 9.43293 3.10447 9.48605 3.11037 9.5077ZM4.69827 10.2495C4.71992 10.2692 4.73369 10.3479 4.7514 10.5604C4.78091 10.9441 4.78485 10.9146 4.70418 10.9146C4.62153 10.9146 4.6235 10.9205 4.59595 10.5742C4.56841 10.222 4.56841 10.2259 4.62153 10.2259C4.64711 10.2259 4.68056 10.2377 4.69827 10.2495ZM6.25666 10.279C6.26059 10.2987 6.27043 10.4168 6.2783 10.5407C6.2842 10.6647 6.30191 10.9441 6.31765 11.1605C6.37275 11.9555 6.37472 12.0558 6.34127 12.0558C6.30388 12.0558 6.29994 12.0263 6.25666 11.4655C6.24092 11.2333 6.2114 10.8673 6.19172 10.6529C6.17401 10.4384 6.16221 10.2593 6.16811 10.2554C6.18976 10.2318 6.24682 10.2495 6.25666 10.279ZM2.55746 10.6568C2.56927 10.6745 2.64404 11.3042 2.73652 12.164C2.76407 12.4238 2.79161 12.6737 2.79752 12.7209L2.80735 12.8055L2.75816 12.774C2.72078 12.7484 2.707 12.7228 2.707 12.6776C2.707 12.5536 2.62239 11.7371 2.55746 11.2373C2.52008 10.9539 2.49056 10.704 2.49056 10.6804C2.49056 10.6391 2.53779 10.6234 2.55746 10.6568ZM13.9128 11.4793L13.899 12.3018L13.8498 12.3746C13.7377 12.5399 13.7436 12.5713 13.7495 11.6505L13.7534 10.8064L13.8262 10.7316C13.8656 10.6922 13.9049 10.6588 13.9128 10.6588C13.9187 10.6588 13.9187 11.0287 13.9128 11.4793ZM12.0927 12.7838C12.1026 13.9271 12.1006 14.0156 12.0691 14.051C12.0494 14.0727 12.0317 14.0864 12.0258 14.0805C12.0121 14.0648 11.9924 11.5718 12.0081 11.558C12.016 11.5501 12.0357 11.5462 12.0534 11.5482C12.079 11.5541 12.0849 11.6938 12.0927 12.7838ZM5.66636 12.0007C5.68013 12.1227 5.72932 12.7071 5.749 12.9826C5.76081 13.1675 5.76081 13.1734 5.71752 13.1872C5.69391 13.1951 5.66636 13.1931 5.65849 13.1833C5.64472 13.1695 5.60143 12.7327 5.5483 12.0597L5.53453 11.8984H5.59552C5.65259 11.8984 5.65652 11.9023 5.66636 12.0007ZM4.11978 12.6894C4.13355 12.7032 4.14339 12.7524 4.14339 12.8016C4.14339 12.8527 4.167 13.1183 4.19258 13.3938C4.26736 14.1474 4.27326 14.2498 4.23981 14.2301C4.18865 14.2006 4.14339 14.1553 4.15323 14.1435C4.15717 14.1356 4.1493 14.0372 4.13355 13.9251C4.11978 13.811 4.10207 13.626 4.0942 13.5119C4.08633 13.3978 4.06862 13.1892 4.05288 13.0495C4.0155 12.7051 4.01746 12.6658 4.06075 12.6658C4.08043 12.6658 4.10601 12.6756 4.11978 12.6894ZM5.05048 14.0136C5.05639 14.0569 5.06819 14.2183 5.07606 14.3717C5.08984 14.6669 5.08393 14.6885 5.00326 14.6275C4.97965 14.6098 4.96391 14.5351 4.94029 14.3107C4.89897 13.9054 4.89701 13.9212 4.97374 13.929C5.03081 13.9349 5.03868 13.9428 5.05048 14.0136Z" fill="#ffffff" />
    <path d="M4.34881 6.73133C4.14418 6.81987 4.12843 7.09731 4.32126 7.19569C4.46097 7.26653 4.60264 7.23308 4.67544 7.11108C4.81318 6.88677 4.58887 6.62704 4.34881 6.73133Z" fill="#ffffff" />
    <path d="M5.68269 6.92021C5.49379 7.0363 5.49379 7.31571 5.68269 7.4318C5.86961 7.54396 6.11164 7.39638 6.11164 7.17207C6.11164 6.95563 5.86371 6.81002 5.68269 6.92021Z" fill="#ffffff" />
</svg>
    