<svg width="60" height="60" viewBox="0 0 60 60" fill="none" xmlns="http://www.w3.org/2000/svg">
    <g clip-path="url(#clip0_3135_220)">
        <mask id="mask0_3135_220" style="mask-type:luminance" maskUnits="userSpaceOnUse" x="0" y="0"
            width="60" height="60">
            <path d="M60 0H0V60H60V0Z" fill="white" />
        </mask>
        <g mask="url(#mask0_3135_220)">
            <path
                d="M30 0C46.5686 0 60 13.4314 60 30C60 46.5686 46.5686 60 30 60C13.4314 60 0 46.5686 0 30C0 13.4314 13.4314 0 30 0Z"
                fill="black" />
            <path
                d="M29.328 44.6789C28.5586 44.4715 27.7672 44.9169 27.542 45.6763L27.532 45.7117L25.5398 53.0945L25.5308 53.1301C25.3432 53.8997 25.8032 54.6829 26.5726 54.8903C27.3418 55.0981 28.1332 54.6527 28.3584 53.8931L28.3684 53.8579L30.3604 46.4751L30.3696 46.4393C30.3832 46.3839 30.3934 46.3281 30.4004 46.2725L30.4062 46.2169L30.359 45.9777L30.29 45.6333L30.2464 45.4183C30.153 45.2381 30.0232 45.0793 29.865 44.9519C29.707 44.8247 29.524 44.7317 29.328 44.6789ZM15.4458 37.0759C15.4095 37.1483 15.3786 37.2247 15.3541 37.3045L15.3403 37.3527L13.3481 44.7355L13.339 44.7713C13.1515 45.5409 13.6115 46.3239 14.3808 46.5315C15.15 46.7391 15.9415 46.2939 16.1667 45.5343L16.1766 45.4989L17.9829 38.8047C17.0368 38.3037 16.1877 37.7257 15.4458 37.0759ZM10.6951 28.5859C9.92578 28.3783 9.1343 28.8235 8.90918 29.5831L8.89922 29.6185L6.90704 37.0013L6.8979 37.0369C6.7104 37.8065 7.17036 38.5895 7.9397 38.7971C8.70892 39.0047 9.5004 38.5595 9.72562 37.7999L9.73548 37.7645L11.7277 30.3817L11.7368 30.3461C11.9243 29.5765 11.4645 28.7935 10.6951 28.5859ZM55.365 26.9093C54.5956 26.7017 53.804 27.1469 53.579 27.9065L53.569 27.9419L51.5768 35.3247L51.5676 35.3603C51.3802 36.1299 51.8402 36.9129 52.6094 37.1205C53.3788 37.3281 54.1702 36.8829 54.3954 36.1233L54.4052 36.0879L56.3974 28.7051L56.4066 28.6695C56.594 27.8999 56.1342 27.1169 55.365 26.9093ZM6.3566 17.0507C4.6882 20.0889 3.62584 23.4225 3.22852 26.8659C3.41858 27.0825 3.6686 27.2381 3.947 27.3127C4.71634 27.5205 5.50782 27.0751 5.73294 26.3155L5.7429 26.2803L7.73508 18.8974L7.74422 18.8618C7.93172 18.0921 7.47176 17.3091 6.70242 17.1015C6.58958 17.0711 6.47344 17.054 6.3566 17.0507ZM50.319 17.1015C49.5498 16.8939 48.7582 17.3392 48.533 18.0988L48.5232 18.1341L46.531 25.5169L46.5218 25.5525C46.3344 26.3221 46.7942 27.1053 47.5636 27.3127C48.3328 27.5205 49.1244 27.0751 49.3496 26.3155L49.3594 26.2803L51.3516 18.8974L51.3608 18.8618C51.5482 18.0921 51.0882 17.3091 50.319 17.1015Z"
                fill="white" />
            <path
                d="M15.0264 10.0813C14.2572 9.87363 13.4657 10.319 13.2405 11.0786L13.2306 11.1138L11.2385 18.4967L11.2293 18.5323C11.0418 19.302 11.5018 20.085 12.2711 20.2926C13.0403 20.5002 13.8318 20.0548 14.0571 19.2953L14.0669 19.26L16.0591 11.8772L16.0682 11.8416C16.2557 11.0719 15.7958 10.2888 15.0264 10.0813ZM40.6239 11.4769C39.8545 11.2692 39.0631 11.7145 38.8379 12.4742L38.8279 12.5094L37.4893 17.47C38.3565 17.8983 39.1841 18.4025 39.9625 18.9768L40.0913 19.0729L41.6565 13.2728L41.6655 13.2372C41.8531 12.4675 41.3933 11.6844 40.6239 11.4769ZM27.5943 3.15283C26.6599 3.23541 25.7301 3.36675 24.8093 3.54633L24.6139 3.58525L22.7571 10.4684L22.7479 10.504C22.5605 11.2737 23.0205 12.0567 23.7897 12.2643C24.5591 12.4719 25.3505 12.0266 25.5757 11.267L25.5855 11.2317L27.5777 3.84891L27.5869 3.81329C27.6399 3.59661 27.6425 3.37065 27.5943 3.15283ZM45.9259 8.25259L45.5345 9.70337L45.5253 9.73887C45.3379 10.5086 45.7979 11.2916 46.5671 11.4992C47.3363 11.7068 48.1279 11.2615 48.3531 10.5019L48.3629 10.4666L48.4057 10.3092C47.6731 9.62409 46.9029 8.98017 46.0989 8.38043L45.9259 8.25259ZM34.3351 3.39353L33.6285 6.01185L33.6195 6.04747C33.4319 6.81715 33.8919 7.60021 34.6613 7.80775C35.4305 8.01539 36.2219 7.57009 36.4473 6.81047L36.4571 6.77521L37.2007 4.01931C36.3255 3.77733 35.4387 3.58001 34.5435 3.42809L34.3351 3.39353Z"
                fill="white" />
            <path
                d="M19.3822 49.2507C19.6073 48.4911 20.3989 48.0459 21.1681 48.2533C21.9375 48.4607 22.3973 49.2439 22.2099 50.0137L22.2007 50.0493L20.7749 55.3329L20.5757 55.2595C19.7172 54.9389 18.8758 54.5747 18.0547 54.1679L19.3722 49.2859L19.3822 49.2507Z"
                fill="white" />
            <path
                d="M28.8282 16.9817C20.1044 16.9817 13.3184 22.4736 13.3184 29.3034C13.3184 35.7538 19.5625 39.8724 29.2422 39.6662C30.0654 39.6486 30.3034 40.2016 30.5712 40.9468C30.8392 41.692 31.5592 45.6195 32.133 48.6235C32.6466 51.3121 33.1684 54.0104 33.5668 56.7192C39.8878 55.8836 45.7326 52.7614 50.0152 48.0522L45.4474 31.0176C44.3088 26.9036 42.978 23.1129 39.4566 20.3589C36.6236 18.1434 33.0244 16.9817 28.8282 16.9817Z"
                fill="white" />
            <path
                d="M30.7031 21.9141C31.7387 21.9141 32.5781 22.7535 32.5781 23.7891C32.5781 24.8247 31.7387 25.6641 30.7031 25.6641C29.6675 25.6641 28.8281 24.8247 28.8281 23.7891C28.8281 22.7535 29.6675 21.9141 30.7031 21.9141Z"
                fill="black" />
        </g>
    </g>
    <defs>
        <clipPath id="clip0_3135_220">
            <rect width="60" height="60" fill="white" />
        </clipPath>
    </defs>
</svg>