<svg width="16" height="12" viewBox="0 0 16 12" fill="none"
    xmlns="http://www.w3.org/2000/svg">
    <path
        d="M9.322 5.126H10.7347C10.7674 5.126 10.7989 5.11302 10.8221 5.08991C10.8454 5.0668 10.8585 5.03543 10.8587 5.00266V3.74466C10.8587 3.71178 10.8456 3.68024 10.8224 3.65698C10.7991 3.63373 10.7676 3.62066 10.7347 3.62066H9.322C9.28929 3.62066 9.25792 3.63366 9.2348 3.65679C9.21167 3.67992 9.19867 3.71129 9.19867 3.744V5.00266C9.19867 5.07066 9.25401 5.126 9.322 5.126V5.126ZM7.35267 1.506H8.76467C8.79756 1.506 8.8291 1.49293 8.85235 1.46968C8.87561 1.44643 8.88867 1.41489 8.88867 1.382V0.123333C8.8885 0.090562 8.87535 0.0591932 8.85212 0.0360827C8.82888 0.0129722 8.79744 -4.73624e-07 8.76467 0H7.35267C7.31996 0 7.28859 0.0129941 7.26546 0.0361236C7.24233 0.059253 7.22934 0.0906232 7.22934 0.123333V1.382C7.22934 1.45 7.28401 1.50533 7.35267 1.50533V1.506ZM7.35267 3.316H8.76467C8.7975 3.31582 8.82894 3.3027 8.85216 3.27949C8.87538 3.25627 8.8885 3.22483 8.88867 3.192V1.934C8.8885 1.90123 8.87535 1.86986 8.85212 1.84675C8.82888 1.82364 8.79744 1.81066 8.76467 1.81067H7.35267C7.31996 1.81067 7.28859 1.82366 7.26546 1.84679C7.24233 1.86992 7.22934 1.90129 7.22934 1.934V3.192C7.22934 3.26 7.28401 3.31533 7.35267 3.316ZM5.39934 3.316H6.81267C6.84533 3.31565 6.87653 3.30243 6.89949 3.27921C6.92246 3.25599 6.93534 3.22465 6.93534 3.192V1.934C6.93534 1.90129 6.92235 1.86992 6.89922 1.84679C6.87609 1.82366 6.84472 1.81067 6.81201 1.81067H5.40001C5.3673 1.81067 5.33593 1.82366 5.3128 1.84679C5.28967 1.86992 5.27667 1.90129 5.27667 1.934V3.192C5.27667 3.26 5.33201 3.31533 5.40001 3.316H5.39934ZM3.42401 3.316H4.83667C4.86945 3.31582 4.90081 3.30268 4.92392 3.27944C4.94704 3.25621 4.96001 3.22477 4.96001 3.192V1.934C4.96001 1.90129 4.94701 1.86992 4.92388 1.84679C4.90075 1.82366 4.86938 1.81067 4.83667 1.81067H3.42401C3.39124 1.81066 3.3598 1.82364 3.33656 1.84675C3.31333 1.86986 3.30019 1.90123 3.30001 1.934V3.192C3.30001 3.26 3.35601 3.31533 3.42401 3.316V3.316ZM7.35267 5.126H8.76467C8.79744 5.126 8.82888 5.11302 8.85212 5.08991C8.87535 5.0668 8.8885 5.03543 8.88867 5.00266V3.74466C8.88867 3.71178 8.87561 3.68024 8.85235 3.65698C8.8291 3.63373 8.79756 3.62066 8.76467 3.62066H7.35267C7.31996 3.62066 7.28859 3.63366 7.26546 3.65679C7.24233 3.67992 7.22934 3.71129 7.22934 3.744V5.00266C7.22934 5.07066 7.28401 5.126 7.35267 5.126V5.126ZM5.39934 5.126H6.81267C6.84527 5.12582 6.87647 5.11275 6.89945 5.08964C6.92244 5.06653 6.93534 5.03526 6.93534 5.00266V3.74466C6.93543 3.72847 6.93232 3.71241 6.92621 3.69742C6.92009 3.68242 6.91108 3.66877 6.89969 3.65726C6.8883 3.64574 6.87475 3.63659 6.85982 3.63031C6.84489 3.62403 6.82887 3.62075 6.81267 3.62066H5.39934C5.36675 3.62084 5.33555 3.63391 5.31256 3.65702C5.28958 3.68013 5.27667 3.7114 5.27667 3.744V5.00266C5.27667 5.07066 5.33201 5.126 5.40001 5.126H5.39934ZM3.42401 5.126H4.83667C4.86938 5.126 4.90075 5.113 4.92388 5.08987C4.94701 5.06674 4.96001 5.03537 4.96001 5.00266V3.74466C4.9601 3.72847 4.95699 3.71241 4.95088 3.69742C4.94476 3.68242 4.93575 3.66877 4.92436 3.65726C4.91297 3.64574 4.89942 3.63659 4.88449 3.63031C4.86956 3.62403 4.85354 3.62075 4.83734 3.62066H3.42401C3.39112 3.62066 3.35958 3.63373 3.33633 3.65698C3.31307 3.68024 3.30001 3.71178 3.30001 3.74466V5.00266C3.30001 5.07066 3.35601 5.126 3.42401 5.126V5.126ZM1.47734 5.126H2.89068C2.92327 5.12582 2.95447 5.11275 2.97746 5.08964C3.00044 5.06653 3.01334 5.03526 3.01334 5.00266V3.74466C3.01343 3.72847 3.01033 3.71241 3.00421 3.69742C2.99809 3.68242 2.98908 3.66877 2.97769 3.65726C2.9663 3.64574 2.95275 3.63659 2.93782 3.63031C2.92289 3.62403 2.90687 3.62075 2.89068 3.62066H1.47734C1.44475 3.62084 1.41355 3.63391 1.39056 3.65702C1.36758 3.68013 1.35468 3.7114 1.35468 3.744V5.00266C1.35468 5.07066 1.40934 5.126 1.47801 5.126H1.47734ZM15.842 4.334C15.7987 4.3 15.394 3.994 14.5393 3.994C14.314 3.99466 14.0887 4.014 13.866 4.052C13.7007 2.91866 12.764 2.36533 12.722 2.34133L12.4927 2.20867L12.342 2.42666C12.1527 2.71866 12.0153 3.04133 11.934 3.38C11.7807 4.02666 11.874 4.63466 12.2027 5.154C11.806 5.37533 11.1693 5.42933 11.04 5.434H0.500678C0.368354 5.43417 0.241481 5.48672 0.147789 5.58016C0.0540969 5.67361 0.00120649 5.80034 0.000678016 5.93266C-0.0116675 6.85589 0.144674 7.7736 0.462011 8.64066C0.825344 9.59266 1.36534 10.294 2.06868 10.7233C2.85534 11.2053 4.13534 11.4813 5.58534 11.4813C6.24067 11.4833 6.89401 11.424 7.53867 11.304C8.4339 11.1395 9.29533 10.8266 10.0873 10.378C10.7407 9.99999 11.3273 9.51933 11.8273 8.95399C12.662 8.00866 13.1593 6.956 13.5293 6.02066H13.6767C14.5913 6.02066 15.1533 5.65466 15.4633 5.348C15.6693 5.15266 15.83 4.91466 15.9347 4.65066L16 4.45866L15.842 4.334Z"
        fill="#2496ED" />
</svg>