<svg width="16" height="6" viewBox="0 0 16 6" fill="none"
    xmlns="http://www.w3.org/2000/svg">
    <path d="M16 0.846621H14.3547V5.88995H13.4047V0.846621H11.7633V0.019954H16V0.846621ZM11.432 5.88995H8.218V0.019954H11.3047V0.846621H9.168V2.50929H11.1367V3.33195H9.168V5.06795H11.432V5.88995ZM6.96 5.88995H5.92133L3.18667 1.57529C3.11826 1.4679 3.06065 1.35401 3.01467 1.23529H2.99067C3.012 1.36129 3.02267 1.62995 3.02267 2.04195V5.88995H2.10467V0.019954H3.21067L5.854 4.23329C5.96533 4.40729 6.03733 4.52795 6.06933 4.59329H6.08533C6.05867 4.43795 6.04533 4.17395 6.04533 3.80329V0.0192871H6.96V5.88995ZM1.158 5.42795C1.158 5.50059 1.14301 5.5725 1.11389 5.6396C1.08477 5.70669 1.04208 5.76765 0.988277 5.81897C0.934472 5.8703 0.870602 5.911 0.800318 5.93873C0.730034 5.96647 0.654715 5.98071 0.578667 5.98062C0.502617 5.98062 0.427312 5.9663 0.35706 5.93849C0.286807 5.91067 0.222984 5.8699 0.169241 5.81851C0.115498 5.76712 0.0728879 5.70612 0.0438483 5.63899C0.0148087 5.57186 -9.13164e-05 5.49992 4.21045e-07 5.42729C0.000185404 5.28083 0.0612336 5.14043 0.169735 5.03692C0.278236 4.93342 0.425316 4.87529 0.578667 4.87529C0.654715 4.8752 0.730034 4.88944 0.800318 4.91717C0.870602 4.94491 0.934472 4.98561 0.988277 5.03693C1.04208 5.08826 1.08477 5.14922 1.11389 5.21631C1.14301 5.2834 1.158 5.35532 1.158 5.42795V5.42795Z" fill="white"/>
</svg>
