<svg width="36" height="32" viewBox="0 0 36 32" fill="none" xmlns="http://www.w3.org/2000/svg">
<path d="M26.9336 7.57751C25.9616 5.85613 26.6632 3.61957 28.5007 2.58201C30.3381 1.54446 32.6157 2.0988 33.5877 3.82018C34.5597 5.54155 33.8581 7.77812 32.0206 8.81568C30.1832 9.85323 27.9056 9.29889 26.9336 7.57751Z" fill="#384E54"/>
<path d="M9.16013 7.57775C10.1321 5.85638 9.43054 3.61981 7.59307 2.58226C5.75561 1.5447 3.47807 2.09905 2.50607 3.82042C1.53406 5.5418 2.23566 7.77836 4.07312 8.81592C5.91059 9.85348 8.18812 9.29913 9.16013 7.57775Z" fill="#384E54"/>
<path d="M18.0917 1.00194C16.9859 1.01194 15.8814 1.05097 14.7756 1.09197C8.84226 1.31157 4 6.03193 4 11.9999V31.9999H32V11.9999C32 6.03163 27.3327 1.50877 21.4098 1.09197C20.304 1.01397 19.1974 0.992941 18.0917 1.00194V1.00194Z" fill="#384E54"/>
<path d="M6.60706 4.68395C7.06663 4.94345 8.42532 5.88532 8.58804 6.33202C8.77145 6.83552 8.74743 7.39775 8.47343 7.88305C8.1268 8.49685 7.46809 8.83165 6.77701 8.81945C6.43712 8.80945 5.05673 8.18236 4.73445 8.00036C3.75691 7.44846 3.38365 6.25857 3.90076 5.34277C4.41787 4.42697 5.62951 4.13195 6.60706 4.68395Z" fill="#76E1FE"/>
<path d="M18.8687 15.322H17.0305C16.6857 15.322 16.4062 15.6015 16.4062 15.9463V18.2291C16.4062 18.5739 16.6857 18.8534 17.0305 18.8534H18.8687C19.2134 18.8534 19.4929 18.5739 19.4929 18.2291V15.9463C19.4929 15.6015 19.2134 15.322 18.8687 15.322Z" fill="black" fill-opacity="0.328502"/>
<path d="M18 3C9 3 6 6.7153 6 12V32H30C29.9511 24.6438 30 14 30 12C30 6.7152 27 3 18 3Z" fill="#76E1FE"/>
<path d="M29.0738 4.68395C28.6142 4.94345 27.2555 5.88532 27.0928 6.33202C26.9094 6.83552 26.9334 7.39775 27.2074 7.88305C27.554 8.49685 28.2127 8.83165 28.9038 8.81945C29.2437 8.80945 30.6241 8.18236 30.9464 8.00036C31.9239 7.44846 32.2972 6.25857 31.7801 5.34277C31.263 4.42697 30.0513 4.13195 29.0738 4.68395V4.68395Z" fill="#76E1FE"/>
<path d="M23.1752 14.6456C25.7454 14.6456 27.829 12.5621 27.829 9.99194C27.829 7.42175 25.7454 5.33813 23.1752 5.33813C20.605 5.33813 18.5215 7.42175 18.5215 9.99194C18.5215 12.5621 20.605 14.6456 23.1752 14.6456Z" fill="white"/>
<path d="M12.3394 14.8236C15.0079 14.8236 17.1711 12.6605 17.1711 9.99207C17.1711 7.32363 15.0079 5.1604 12.3394 5.1604C9.67101 5.1604 7.50781 7.32363 7.50781 9.99207C7.50781 12.6605 9.67101 14.8236 12.3394 14.8236Z" fill="white"/>
<path d="M19.0567 15.5552H16.8411C16.4402 15.5552 16.1152 15.8802 16.1152 16.2811V18.9357C16.1152 19.3366 16.4402 19.6615 16.8411 19.6615H19.0567C19.4576 19.6615 19.7826 19.3366 19.7826 18.9357V16.2811C19.7826 15.8802 19.4576 15.5552 19.0567 15.5552Z" fill="black" fill-opacity="0.329412"/>
<path d="M19.0567 14.863H16.8411C16.4402 14.863 16.1152 15.188 16.1152 15.5889V18.2434C16.1152 18.6443 16.4402 18.9694 16.8411 18.9694H19.0567C19.4576 18.9694 19.7826 18.6443 19.7826 18.2434V15.5889C19.7826 15.188 19.4576 14.863 19.0567 14.863Z" fill="#FFFCFB"/>
<path d="M21.9994 16.1667C21.9994 17.0047 21.1281 17.4349 19.8546 17.3326C19.8309 17.3326 19.8067 16.7322 19.6005 16.7494C19.0968 16.7914 18.5046 16.7294 17.9145 16.7294C17.3016 16.7294 16.7082 16.9121 16.229 16.7465C16.1188 16.7085 16.0507 17.3302 15.9675 17.328C14.7238 17.295 13.8887 16.9898 13.8887 16.1663C13.8887 14.9545 15.7043 13.9722 17.944 13.9722C20.1837 13.9722 21.9994 14.9545 21.9994 16.1663V16.1667Z" fill="black" fill-opacity="0.329412"/>
<path d="M21.9782 15.3381C21.9782 15.9066 21.5445 16.1934 20.8401 16.3381C20.5481 16.3981 20.2097 16.4342 19.8364 16.4548C19.2723 16.4868 18.6286 16.4858 17.9451 16.4858C17.2723 16.4858 16.638 16.4858 16.0802 16.4568C15.774 16.4398 15.4908 16.4138 15.2371 16.3728C14.4232 16.241 13.9121 15.9558 13.9121 15.3384C13.9121 14.1783 15.7178 13.2378 17.9451 13.2378C20.1725 13.2378 21.9782 14.1783 21.9782 15.3384V15.3381Z" fill="#C38C74"/>
<path d="M17.9454 14.8315C19.0943 14.8315 20.0256 14.2299 20.0256 13.4878C20.0256 12.7457 19.0943 12.144 17.9454 12.144C16.7966 12.144 15.8652 12.7457 15.8652 13.4878C15.8652 14.2299 16.7966 14.8315 17.9454 14.8315Z" fill="#23201F"/>
<path d="M14.4142 11.955C15.4984 11.955 16.3773 11.0761 16.3773 9.99194C16.3773 8.90777 15.4984 8.02881 14.4142 8.02881C13.3301 8.02881 12.4512 8.90777 12.4512 9.99194C12.4512 11.0761 13.3301 11.955 14.4142 11.955Z" fill="#171311"/>
<path d="M25.1095 11.955C26.1937 11.955 27.0726 11.0761 27.0726 9.99194C27.0726 8.90777 26.1937 8.02881 25.1095 8.02881C24.0254 8.02881 23.1465 8.90777 23.1465 9.99194C23.1465 11.0761 24.0254 11.955 25.1095 11.955Z" fill="#171311"/>
<path d="M7.00511 6.91052C5.83467 5.82702 4.97814 6.13838 4.96094 6.16418" stroke="#384E54" stroke-width="0.397309" stroke-linecap="round"/>
<path d="M6.38592 6.55289C5.22736 6.58889 5.03921 7.18324 5.04711 7.20524M28.6312 6.81009C29.8016 5.72659 30.6582 6.03808 30.6754 6.06388" stroke="#384E54" stroke-width="0.397309" stroke-linecap="round"/>
<path d="M29.3223 6.31079C30.4808 6.34679 30.669 6.94101 30.6611 6.96301" stroke="#384E54" stroke-width="0.397309" stroke-linecap="round"/>
</svg>
