<svg width="58" height="60" viewBox="0 0 58 60" fill="none" xmlns="http://www.w3.org/2000/svg">
    <g clip-path="url(#clip0_3102_42)">
        <mask id="mask0_3102_42" style="mask-type:luminance" maskUnits="userSpaceOnUse" x="0" y="0"
            width="58" height="60">
            <path d="M57.8571 0H0V60H57.8571V0Z" fill="white" />
        </mask>
        <g mask="url(#mask0_3102_42)">
            <path
                d="M56.9419 20.4298C58.6584 15.052 57.627 4.31128 54.297 0.348316C53.8624 -0.170202 53.0446 -0.096128 52.6836 0.474243L48.5801 6.94832C47.5634 8.24463 45.7363 8.54091 44.366 7.6372C39.9162 4.71128 34.5971 3.00757 28.8801 3.00757C23.1632 3.00757 17.8441 4.71128 13.3943 7.6372C12.024 8.54091 10.1969 8.2372 9.18021 6.94832L5.0767 0.474243C4.71571 -0.096128 3.89794 -0.170202 3.46328 0.348316C0.133301 4.31128 -0.898107 15.052 0.81845 20.4298C1.38573 22.215 1.54781 24.1038 1.20891 25.9483C0.877386 27.7706 0.538498 29.9779 0.538498 31.5038C0.538498 47.2372 13.2322 60.0001 28.8801 60.0001C44.5355 60.0001 57.2218 47.2446 57.2218 31.5038C57.2218 29.9706 56.8903 27.7706 56.5514 25.9483C56.2125 24.1038 56.3746 22.215 56.9419 20.4298ZM28.8801 53.6298C16.7832 53.6298 6.9406 43.7335 6.9406 31.5706C6.9406 31.1706 6.95534 30.7779 6.97007 30.3853C7.41207 22.0965 12.4144 15.0076 19.5017 11.6298C22.3454 10.2668 25.5281 9.51127 28.8801 9.51127C32.2322 9.51127 35.4149 10.2743 38.266 11.6372C45.3532 15.015 50.3556 22.1038 50.7976 30.3853C50.8197 30.7779 50.8271 31.1706 50.8271 31.5706C50.8197 43.7335 40.9771 53.6298 28.8801 53.6298Z"
                fill="#1EB4D4" />
            <path
                d="M38.3833 40.0592L32.7768 30.2888L27.9661 22.1407C27.8556 21.9481 27.6493 21.8296 27.4209 21.8296H22.8238C22.5953 21.8296 22.3891 21.9555 22.2786 22.1481C22.1681 22.3481 22.1681 22.5925 22.2859 22.7852L26.8831 30.5629L20.7093 40.0296C20.5841 40.2222 20.5694 40.474 20.6799 40.6814C20.7904 40.8888 21.0041 41.0147 21.2324 41.0147H25.8591C26.0727 41.0147 26.2716 40.9037 26.3895 40.7259L29.7268 35.4814L32.7179 40.6962C32.8284 40.8962 33.0421 41.0147 33.2631 41.0147H37.8234C38.0518 41.0147 38.2581 40.8962 38.3686 40.6962C38.5012 40.4962 38.5012 40.2592 38.3833 40.0592Z"
                fill="#1EB4D4" />
        </g>
    </g>
    <defs>
        <clipPath id="clip0_3102_42">
            <rect width="57.8571" height="60" fill="white" />
        </clipPath>
    </defs>
</svg>