<svg width="12" height="16" viewBox="0 0 12 16" fill="none"
    xmlns="http://www.w3.org/2000/svg">
    <path
        d="M3.80038 12.3738C3.80038 12.3738 3.18895 12.7293 4.23551 12.8497C5.50339 12.9943 6.15138 12.9736 7.54859 12.7091C7.54859 12.7091 7.91593 12.9395 8.42895 13.1389C5.29677 14.4813 1.34022 13.0612 3.80038 12.3738Z"
        fill="#5382A1" />
    <path
        d="M3.41778 10.6218C3.41778 10.6218 2.732 11.1295 3.77934 11.2378C5.13373 11.3775 6.20331 11.3889 8.05411 11.0325C8.05411 11.0325 8.31011 11.2921 8.71264 11.434C4.92565 12.5414 0.707623 11.5213 3.41778 10.6218Z"
        fill="#5382A1" />
    <path
        d="M6.64342 7.65053C7.41519 8.53908 6.44065 9.33866 6.44065 9.33866C6.44065 9.33866 8.4003 8.32703 7.50032 7.06023C6.65977 5.87886 6.01518 5.29188 9.50473 3.26807C9.50473 3.26807 4.02728 4.63608 6.64342 7.65053Z"
        fill="#E76F00" />
    <path
        d="M10.7868 13.6693C10.7868 13.6693 11.2393 14.0421 10.2885 14.3305C8.48059 14.8782 2.76371 15.0436 1.17558 14.3523C0.60469 14.104 1.67527 13.7593 2.01203 13.687C2.36325 13.6108 2.56395 13.625 2.56395 13.625C1.92906 13.1778 -1.53971 14.5032 0.801987 14.8828C7.18813 15.9185 12.4433 14.4164 10.7868 13.6693Z"
        fill="#5382A1" />
    <path
        d="M4.09468 8.8068C4.09468 8.8068 1.18671 9.4975 3.06489 9.74831C3.85792 9.85449 5.4388 9.83046 6.91135 9.70708C8.1148 9.60557 9.32321 9.38973 9.32321 9.38973C9.32321 9.38973 8.89886 9.57145 8.59185 9.78109C5.63886 10.5577 -0.0657731 10.1964 1.57652 9.40202C2.9654 8.73064 4.09468 8.8068 4.09468 8.8068Z"
        fill="#5382A1" />
    <path
        d="M9.31033 11.7228C12.3122 10.1629 10.9242 8.66388 9.95548 8.86583C9.71804 8.91525 9.61216 8.95808 9.61216 8.95808C9.61216 8.95808 9.70031 8.81999 9.86867 8.76022C11.7852 8.08643 13.2591 10.7475 9.25 11.8014C9.25 11.8014 9.29645 11.7599 9.31033 11.7228Z"
        fill="#5382A1" />
    <path
        d="M7.50128 0C7.50128 0 9.16375 1.66303 5.9245 4.22031C3.32694 6.27168 5.33217 7.44132 5.92342 8.77768C4.40718 7.40967 3.29447 6.2054 4.04097 5.08458C5.13664 3.43931 8.17205 2.64163 7.50128 0Z"
        fill="#E76F00" />
    <path
        d="M4.38899 15.9496C7.2704 16.1341 11.6951 15.8473 11.7999 14.4839C11.7999 14.4839 11.5985 15.0007 9.41859 15.4112C6.95925 15.874 3.926 15.82 2.12695 15.5234C2.127 15.5233 2.49524 15.8282 4.38899 15.9496Z"
        fill="#5382A1" />
</svg>