<svg width="8" height="16" viewBox="0 0 8 16" fill="none"
    xmlns="http://www.w3.org/2000/svg">
    <path fill-rule="evenodd" clip-rule="evenodd"
        d="M7.16046 7.0959C7.11066 6.45127 6.95913 5.82966 6.74838 5.22069C6.31181 3.86091 5.61119 2.65752 4.62433 1.62207C4.37482 1.36018 4.09732 1.12023 3.92331 0.79428C3.81323 0.588107 3.70839 0.379107 3.60113 0.171318L3.53317 0C3.52173 0.0392968 3.51447 0.053293 3.51406 0.0674237C3.50531 0.406157 3.31341 0.635882 3.0744 0.850265C2.80564 1.09156 2.55546 1.35345 2.29721 1.60633L1.50306 2.65106C1.28881 3.0447 1.07483 3.43834 0.860853 3.83198L0.431549 4.99164L0.418629 5.00967C0.18231 5.78592 0.0657653 6.58397 0.00843501 7.39009C-0.0130975 7.69303 0.0113955 8.0004 0.0284869 8.30495C0.0528456 8.74031 0.128479 9.16827 0.241928 9.5895C0.654007 11.1199 1.49028 12.3894 2.63352 13.4679C2.84602 13.6683 3.06403 13.8505 3.28582 14.0412C3.32377 13.9113 3.35405 13.7815 3.3885 13.6516C3.42295 13.5223 3.45781 13.3936 3.48109 13.2639C3.45767 13.3936 3.43143 13.5223 3.40546 13.6516L3.2943 14.0412L3.39361 14.3778L3.48567 14.9005L3.52954 15.4459C3.52914 15.5567 3.52469 15.6677 3.53142 15.7783C3.53304 15.8066 3.57018 15.8327 3.59091 15.8599L3.77609 15.9249L3.96907 16L3.93596 15.5151L3.93448 15.0376L4.0011 14.3102L4.04941 14.1518L4.18763 13.9069C4.35827 13.7696 4.54143 13.645 4.69687 13.4923C4.97814 13.2158 5.25873 12.9359 5.5104 12.6333C5.83796 12.241 6.11765 11.811 6.34357 11.3526C6.49456 11.0452 6.63668 10.7317 6.7543 10.4104C6.85793 10.1273 6.92212 9.82973 7.00381 9.5385C7.01108 9.5175 7.02077 9.49691 7.02534 9.47552C7.1941 8.68944 7.2225 7.89543 7.16046 7.0959V7.0959ZM3.98455 13.7407L3.87621 13.5034L3.98455 13.7407L4.14375 13.8766L3.98455 13.7407Z"
        fill="#4FAA41" />
</svg>