<svg width="15" height="16" viewBox="0 0 15 16" fill="none"
    xmlns="http://www.w3.org/2000/svg">
    <mask id="mask0_2804_32" style="mask-type:alpha" maskUnits="userSpaceOnUse" x="0" y="0" width="15" height="16">
        <path d="M7.40076 0.1005C7.28505 0.034634 7.1542 0 7.02106 0C6.88792 0 6.75707 0.034634 6.64137 0.1005L0.372351 3.71874C0.133995 3.85274 0 4.10591 0 4.3739V11.6258C0 11.8938 0.14894 12.147 0.372351 12.281L6.64137 15.8995C6.75707 15.9654 6.88792 16 7.02106 16C7.1542 16 7.28505 15.9654 7.40076 15.8995L13.6699 12.281C13.9081 12.147 14.0423 11.8938 14.0423 11.6258V4.37403C14.0423 4.10604 13.8932 3.85287 13.6699 3.71887L7.40076 0.1005Z" fill="white"/>
    </mask>
    <g mask="url(#mask0_2804_32)">
        <path d="M7.40076 0.1005C7.28505 0.034634 7.1542 0 7.02106 0C6.88792 0 6.75707 0.034634 6.64137 0.1005L0.372351 3.71874C0.133995 3.85274 0 4.10591 0 4.3739V11.6258C0 11.8938 0.14894 12.147 0.372351 12.281L6.64137 15.8995C6.75707 15.9654 6.88792 16 7.02106 16C7.1542 16 7.28505 15.9654 7.40076 15.8995L13.6699 12.281C13.9081 12.147 14.0423 11.8938 14.0423 11.6258V4.37403C14.0423 4.10604 13.8932 3.85287 13.6699 3.71887L7.40076 0.1005Z" fill="url(#paint0_linear_2804_32)"/>
        <path d="M13.6855 3.71896L7.38671 0.100593C7.32482 0.0693399 7.25995 0.044391 7.19306 0.026123L0.134766 12.1176C0.193233 12.189 0.263849 12.2495 0.343359 12.2963L6.64214 15.9148C6.82084 16.019 7.02931 16.0488 7.22283 15.9891L13.8494 3.86803C13.8047 3.80851 13.745 3.76367 13.6855 3.71909V3.71896Z" fill="url(#paint1_linear_2804_32)"/>
        <path fill-rule="evenodd" clip-rule="evenodd" d="M13.7005 12.2809C13.8792 12.1767 14.0132 11.998 14.0728 11.8045L7.16323 0.0108671C6.98452 -0.0188952 6.79088 -0.0040785 6.62725 0.100154L0.373047 3.70384L7.11852 16.0036C7.21662 15.9876 7.3119 15.9575 7.40145 15.9144L13.7004 12.281L13.7005 12.2809Z" fill="url(#paint2_linear_2804_32)"/>
        <path fill-rule="evenodd" clip-rule="evenodd" d="M13.6997 12.281L7.41575 15.8995C7.32704 15.9447 7.23142 15.9749 7.13281 15.9887L7.25199 16.2121L14.2209 12.1768V12.0874L14.0422 11.7896C14.0124 11.998 13.8784 12.1767 13.6997 12.281V12.281Z" fill="url(#paint3_linear_2804_32)"/>
        <path fill-rule="evenodd" clip-rule="evenodd" d="M13.6997 12.281L7.41575 15.8995C7.32704 15.9447 7.23142 15.9749 7.13281 15.9887L7.25199 16.2121L14.2209 12.1768V12.0874L14.0422 11.7896C14.0124 11.998 13.8784 12.1767 13.6997 12.281V12.281Z" fill="url(#paint4_linear_2804_32)"/>
    </g>
    <defs>
        <linearGradient id="paint0_linear_2804_32" x1="9.57513" y1="2.79792" x2="2.70368" y2="13.595" gradientUnits="userSpaceOnUse">
            <stop stop-color="#41873F"/>
            <stop offset="0.3288" stop-color="#418B3D"/>
            <stop offset="0.6352" stop-color="#419637"/>
            <stop offset="0.9319" stop-color="#3FA92D"/>
            <stop offset="1" stop-color="#3FAE2A"/>
        </linearGradient>
        <linearGradient id="paint1_linear_2804_32" x1="6.07004" y1="8.84955" x2="23.2793" y2="-0.500293" gradientUnits="userSpaceOnUse">
            <stop offset="0.1376" stop-color="#41873F"/>
            <stop offset="0.4032" stop-color="#54A044"/>
            <stop offset="0.7136" stop-color="#66B848"/>
            <stop offset="0.9081" stop-color="#6CC04A"/>
        </linearGradient>
        <linearGradient id="paint2_linear_2804_32" x1="-0.228237" y1="8" x2="14.2782" y2="8" gradientUnits="userSpaceOnUse">
            <stop offset="0.09192" stop-color="#6CC04A"/>
            <stop offset="0.2864" stop-color="#66B848"/>
            <stop offset="0.5968" stop-color="#54A044"/>
            <stop offset="0.8624" stop-color="#41873F"/>
        </linearGradient>
        <linearGradient id="paint3_linear_2804_32" x1="-0.228917" y1="14.013" x2="14.2774" y2="14.013" gradientUnits="userSpaceOnUse">
            <stop offset="0.09192" stop-color="#6CC04A"/>
            <stop offset="0.2864" stop-color="#66B848"/>
            <stop offset="0.5968" stop-color="#54A044"/>
            <stop offset="0.8624" stop-color="#41873F"/>
        </linearGradient>
        <linearGradient id="paint4_linear_2804_32" x1="16.3907" y1="2.45482" x2="12.7157" y2="21.7118" gradientUnits="userSpaceOnUse">
            <stop stop-color="#41873F"/>
            <stop offset="0.3288" stop-color="#418B3D"/>
            <stop offset="0.6352" stop-color="#419637"/>
            <stop offset="0.9319" stop-color="#3FA92D"/>
            <stop offset="1" stop-color="#3FAE2A"/>
        </linearGradient>
    </defs>
</svg>
