<svg width="16" height="9" viewBox="0 0 16 9" fill="none"
    xmlns="http://www.w3.org/2000/svg">
    <g clip-path="url(#clip0_2713_169)">
        <path
            d="M1.25446 1.84106H3.60546C4.2955 1.84686 4.79553 2.04581 5.10554 2.43759C5.41556 2.82937 5.51785 3.36449 5.41258 4.04294C5.3717 4.35295 5.28099 4.65701 5.14063 4.95527C5.00607 5.25353 4.81903 5.5225 4.5792 5.76233C4.28673 6.06639 3.9739 6.25938 3.64055 6.34131C3.3072 6.42324 2.9621 6.46413 2.60541 6.46413H1.55272L1.21937 8.13089H0L1.25446 1.84106V1.84106ZM2.28083 2.84112L1.75448 5.47284C1.78957 5.47864 1.82466 5.48162 1.85975 5.48162C1.90063 5.48162 1.94168 5.48162 1.98257 5.48162C2.544 5.48741 3.01192 5.43196 3.38615 5.31494C3.76039 5.19213 4.01197 4.76526 4.14058 4.03417C4.24585 3.4201 4.14058 3.06622 3.82477 2.97271C3.51476 2.87919 3.12596 2.83533 2.65804 2.84112C2.58786 2.84691 2.52066 2.84989 2.45628 2.84989C2.39785 2.84989 2.33644 2.84989 2.27206 2.84989L2.28083 2.84112"
            fill="#6B7280" />
        <path
            d="M6.80229 0.165527H8.01288L7.67076 1.84106H8.75854C9.35506 1.85281 9.79948 1.97562 10.0919 2.2095C10.3902 2.44338 10.4779 2.88796 10.3551 3.54291L9.76737 6.46412H8.53923L9.10066 3.67449C9.15909 3.38202 9.14155 3.17447 9.04803 3.05165C8.95451 2.92884 8.75275 2.86743 8.44273 2.86743L7.46899 2.85866L6.74966 6.46412H5.53906L6.80229 0.165527Z"
            fill="#6B7280" />
        <path
            d="M11.6548 1.84106H14.0059C14.6959 1.84686 15.1959 2.04581 15.5059 2.43759C15.8159 2.82937 15.9182 3.36449 15.813 4.04294C15.7721 4.35295 15.6814 4.65701 15.541 4.95527C15.4065 5.25353 15.2194 5.5225 14.9796 5.76233C14.6871 6.06639 14.3743 6.25938 14.0409 6.34131C13.7076 6.42324 13.3625 6.46413 13.0058 6.46413H11.9531L11.6198 8.13089H10.4004L11.6548 1.84106V1.84106ZM12.6812 2.84112L12.1549 5.47284C12.19 5.47864 12.2251 5.48162 12.2601 5.48162C12.301 5.48162 12.3421 5.48162 12.383 5.48162C12.9444 5.48741 13.4123 5.43196 13.7865 5.31494C14.1608 5.19213 14.4124 4.76526 14.541 4.03417C14.6462 3.4201 14.541 3.06622 14.2252 2.97271C13.9151 2.87919 13.5263 2.83533 13.0584 2.84112C12.9883 2.84691 12.9211 2.84989 12.8567 2.84989C12.7982 2.84989 12.7368 2.84989 12.6724 2.84989L12.6812 2.84112"
            fill="#6B7280" />
    </g>
    <defs>
        <clipPath id="clip0_2713_169">
            <rect width="16" height="8.27586" fill="white" />
        </clipPath>
    </defs>
</svg>