<svg width="60" height="60" viewBox="0 0 60 60" fill="none" xmlns="http://www.w3.org/2000/svg">
    <path d="M40.0921 22.0787L38.3047 20.2292L20.2557 37.6728L22.0431 39.5223L40.0921 22.0787Z"
        fill="white" />
    <path
        d="M39 21H55.2C56.1942 21 57 21.8059 57 22.8V55.2C57 56.1942 56.1942 57 55.2 57H22.8C21.8059 57 21 56.1942 21 55.2V39"
        fill="white" />
    <path
        d="M39 21H55.2C56.1942 21 57 21.8059 57 22.8V55.2C57 56.1942 56.1942 57 55.2 57H22.8C21.8059 57 21 56.1942 21 55.2V39"
        stroke="#16161A" stroke-width="2" stroke-linecap="round" stroke-linejoin="round" />
    <path
        d="M39 21V4.8C39 3.80589 38.1942 3 37.2 3H4.8C3.80589 3 3 3.80589 3 4.8V37.2C3 38.1942 3.80589 39 4.8 39H21"
        fill="white" />
    <path
        d="M39 21V4.8C39 3.80589 38.1942 3 37.2 3H4.8C3.80589 3 3 3.80589 3 4.8V37.2C3 38.1942 3.80589 39 4.8 39H21"
        stroke="#16161A" stroke-width="2" stroke-linecap="round" stroke-linejoin="round" />
    <path
        d="M15 30C14.1716 30 13.5 29.3284 13.5 28.5V12C13.5 11.1716 14.1716 10.5 15 10.5H20.6297C21.7202 10.5 22.7387 10.6097 23.6852 10.829C24.6522 11.0284 25.4856 11.3773 26.1852 11.8758C26.9054 12.3543 27.4711 13.0023 27.8827 13.8198C28.2942 14.6173 28.5 15.6044 28.5 16.7807C28.5 17.9172 28.284 18.9042 27.8518 19.7415C27.4404 20.579 26.8744 21.2669 26.1543 21.8052C25.4341 22.3436 24.6007 22.7424 23.6542 23.0016C22.7077 23.2608 21.6996 23.3904 20.6297 23.3904H19.5371C18.7086 23.3904 18.0371 24.0619 18.0371 24.8904V28.5C18.0371 29.3284 17.3655 30 16.5371 30H15ZM18.0371 18.3911C18.0371 19.2195 18.7086 19.8911 19.5371 19.8911H20.3518C22.821 19.8911 24.0555 18.8543 24.0555 16.7807C24.0555 15.7638 23.7366 15.046 23.0988 14.6273C22.4816 14.2086 21.5658 13.9992 20.3518 13.9992H19.5371C18.7086 13.9992 18.0371 14.6708 18.0371 15.4992V18.3911Z"
        fill="#16161A" />
    <path
        d="M33 49.5C32.1716 49.5 31.5 48.8284 31.5 48V31.5C31.5 30.6716 32.1716 30 33 30H38.2315C39.2766 30 40.2398 30.0798 41.1209 30.2393C42.0225 30.3789 42.8013 30.6381 43.457 31.0169C44.1128 31.3958 44.625 31.8942 44.9938 32.5122C45.3832 33.1304 45.5778 33.908 45.5778 34.8452C45.5778 35.2838 45.5061 35.7224 45.3627 36.1611C45.2397 36.5997 45.0348 37.0085 44.748 37.3872C44.4611 37.7661 44.1024 38.1051 43.6722 38.4042C43.2555 38.6937 42.7621 38.9085 42.1918 39.0485C42.1587 39.0567 42.1353 39.0863 42.1353 39.1203C42.1353 39.1559 42.1609 39.1863 42.1959 39.1929C43.6004 39.4551 44.6661 39.9498 45.3935 40.6771C46.1312 41.4148 46.5 42.4418 46.5 43.7577C46.5 44.7546 46.3053 45.612 45.9161 46.3298C45.5267 47.0475 44.9836 47.6457 44.2869 48.1242C43.5901 48.5828 42.7706 48.9318 41.8278 49.1711C40.9058 49.3904 39.9016 49.5 38.8156 49.5H33ZM36.0185 36.3358C36.0185 37.1643 36.69 37.8358 37.5185 37.8358H38.0164C39.123 37.8358 39.9222 37.6266 40.4139 37.2078C40.9058 36.7892 41.1516 36.2008 41.1516 35.4432C41.1516 34.7254 40.8955 34.2169 40.3832 33.918C39.8914 33.5989 39.1126 33.4394 38.0472 33.4394H37.5185C36.69 33.4394 36.0185 34.1111 36.0185 34.9394V36.3358ZM36.0185 44.5606C36.0185 45.389 36.69 46.0606 37.5185 46.0606H38.4466C40.8648 46.0606 42.0738 45.1833 42.0738 43.4287C42.0738 42.5713 41.7767 41.9532 41.1824 41.5744C40.6086 41.1955 39.6967 41.0061 38.4466 41.0061H37.5185C36.69 41.0061 36.0185 41.6777 36.0185 42.5061V44.5606Z"
        fill="#16161A" />
</svg>