<svg width="58" height="60" viewBox="0 0 58 60" fill="none" xmlns="http://www.w3.org/2000/svg">
    <g clip-path="url(#clip0_3130_49)">
        <path
            d="M16.5809 4.0437C15.7971 4.51818 15.1413 5.10953 14.6134 5.81774C14.3277 6.20121 14.0595 6.63931 13.8086 7.13205"
            stroke="#923710" stroke-width="2" />
        <path
            d="M13.8083 7.13208C13.4701 7.78383 13.2345 8.47125 13.1016 9.19435C12.8769 10.4175 12.7609 11.6509 12.7536 12.8946C12.7491 13.6432 12.7852 14.2507 12.8619 14.7171C12.9383 15.1811 13.0138 15.6454 13.0886 16.1097C13.0891 16.1137 13.115 16.2665 13.1661 16.5682C13.2445 17.0303 13.2981 17.4951 13.3271 17.9626C13.3459 18.268 13.346 18.5485 13.3275 18.8041C13.2573 19.7576 13.0063 20.6654 12.5745 21.5275C12.332 22.0121 12.0372 22.5082 11.69 23.0159C10.7761 24.3511 9.86242 25.5936 8.94885 26.7435C8.19204 27.6955 7.49197 28.6876 6.84866 29.7197C6.57138 30.1642 6.31139 30.6181 6.06867 31.0817C5.90517 31.3943 5.77833 31.6448 5.68815 31.833C5.48195 32.2631 5.30455 32.7054 5.15594 33.1599C4.81462 34.2039 4.56488 35.2691 4.40671 36.3557C4.2876 37.1741 4.21597 37.7042 4.19181 37.9461C4.14124 38.454 4.10992 38.9631 4.09784 39.4736C4.08688 39.9475 4.07789 40.4216 4.07087 40.8958C4.06637 41.209 4.06792 41.4898 4.0755 41.7381C4.10444 42.6716 4.17397 43.6025 4.28409 44.5307C4.44028 45.8451 4.73638 47.1254 5.17238 48.3716C5.2648 48.6357 5.36228 48.8992 5.46482 49.1621C5.92301 50.3367 6.47924 51.4045 7.13351 52.3655C7.68104 53.169 8.33377 53.8748 9.0917 54.483C9.59119 54.8833 10.1098 55.2569 10.6475 55.6039C11.2093 55.9657 11.8012 56.2688 12.4232 56.5132C13.0836 56.7725 13.7551 56.9985 14.4374 57.1913C15.4822 57.4862 16.5477 57.6353 17.6341 57.6383C18.0883 57.6395 18.738 57.6525 19.583 57.6775C19.9125 57.6874 20.154 57.6999 20.3074 57.715C20.3211 57.7162 20.322 57.7136 20.3099 57.7075C19.7626 57.4333 19.2859 57.1275 18.8797 56.7901C17.7363 55.8406 16.5927 54.765 15.4488 53.5635C15.0498 53.1441 14.6866 52.6959 14.359 52.2189C13.6124 51.13 12.9987 49.9708 12.518 48.7412C12.277 48.124 12.0685 47.535 11.8927 46.9743C11.3547 45.259 11.0738 43.4926 11.0499 41.6753C11.0437 41.1947 11.0572 40.6293 11.0903 39.9793"
            stroke="#762300" stroke-width="2" />
        <path
            d="M11.0898 39.9794C11.1446 39.013 11.2649 38.055 11.4506 37.1055C11.5975 36.3529 11.8052 35.6718 12.0738 35.0622C12.3454 34.4461 12.6295 33.8358 12.9258 33.2312C13.2379 32.5947 13.5817 32.0348 13.957 31.5516C14.3483 31.0476 14.7653 30.5657 15.2081 30.1058C15.6278 29.6698 16.0403 29.2958 16.4457 28.9837C17.073 28.5007 17.7745 28.0358 18.5501 27.5889"
            stroke="#923710" stroke-width="2" />
        <path
            d="M18.5501 27.5888C18.7481 27.4691 18.9983 27.3265 19.3006 27.1611C20.1641 26.6888 21.1253 26.1525 22.1841 25.5522C22.3959 25.432 22.6382 25.2898 22.911 25.1258C23.5108 24.7645 24.1155 24.4117 24.7251 24.0672C25.0178 23.9018 25.2607 23.761 25.4537 23.645C26.2936 23.1391 27.001 22.6906 27.5758 22.2995C28.2638 21.8312 28.9322 21.2764 29.5812 20.635C29.7888 20.43 29.985 20.2288 30.1698 20.0316C30.9368 19.2136 31.6037 18.3187 32.1706 17.3469C32.5347 16.7233 32.7808 16.0749 32.9089 15.4018C33.0488 14.6669 33.118 13.9049 33.1166 13.1158C33.116 12.8197 33.1027 12.5392 33.0766 12.2743C32.9521 11.0037 32.5894 9.80115 31.9885 8.66678C31.6835 8.09116 31.3337 7.5442 30.9393 7.02589C30.6005 6.58007 30.1887 6.14927 29.7038 5.7335C28.9332 5.07304 28.117 4.52496 27.2551 4.08924C27.0292 3.97519 26.7751 3.85481 26.4928 3.72811C25.0258 3.06991 23.4882 2.65653 21.8799 2.48797C21.1028 2.4065 20.3651 2.46213 19.6667 2.65484C19.1032 2.81047 18.537 3.02384 17.9681 3.29493C17.4594 3.53709 16.9967 3.78669 16.5801 4.04373"
            stroke="#A0705B" stroke-width="2" />
        <path
            d="M18.5501 27.5888C18.5515 27.5503 18.5655 27.5087 18.5922 27.464C18.915 26.9233 19.2765 26.4316 19.6769 25.9892C20.2662 25.3377 20.8597 24.6901 21.4572 24.0462C21.5626 23.933 21.756 23.7293 22.0375 23.4352C22.6622 22.7826 23.3618 22.0054 24.136 21.1036C24.8897 20.226 25.5469 19.404 26.1077 18.6377C26.3091 18.3624 26.4727 18.1342 26.5986 17.9533C27.479 16.6897 28.1489 15.3643 28.6082 13.9771C28.8335 13.2967 28.9567 12.5671 28.9777 11.7884C28.9859 11.4937 28.9735 11.2135 28.9406 10.9478C28.839 10.1187 28.5858 9.29901 28.1813 8.48854C27.6439 7.41147 26.9898 6.46981 26.2189 5.66355C26.0124 5.44752 25.8079 5.25509 25.6054 5.08625C25.0783 4.64716 24.5061 4.29053 23.8886 4.01635C22.9464 3.59833 21.9561 3.31151 20.9178 3.15587C20.6493 3.1157 20.4684 3.09056 20.3751 3.08044C20.1616 3.05769 19.9781 3.05629 19.8248 3.07623C19.2609 3.14955 18.6244 3.30631 17.915 3.5465C17.7389 3.60606 17.581 3.6732 17.4414 3.74792C17.1773 3.88895 16.9082 3.99275 16.634 4.05933C16.6277 4.06101 16.6163 4.05638 16.6045 4.04711C16.5986 4.04261 16.5905 4.04149 16.5801 4.04374"
            stroke="#ECA46A" stroke-width="2" />
        <path
            d="M11.0898 39.9793C11.0322 39.9413 10.9845 39.8843 10.9465 39.8082C10.6479 39.2084 10.4375 38.5894 10.3153 37.9511C10.2746 37.7373 10.2326 37.4596 10.1893 37.118C10.0486 36.0056 10.0543 34.9156 10.2066 33.8481C10.4055 32.4536 10.7746 31.0631 11.314 29.6767C11.725 28.6202 12.1403 27.5652 12.56 26.5117C12.6755 26.2221 12.8277 25.9242 13.0168 25.6179C13.3817 25.0263 13.7437 24.4897 14.1027 24.0082C14.6803 23.2329 15.254 22.4546 15.8237 21.6733C16.0268 21.3947 16.2008 21.1293 16.3458 20.8773C16.8781 19.9508 17.0037 18.9822 16.7225 17.9714C16.6694 17.7801 16.5924 17.5736 16.4916 17.352C16.3947 17.1379 16.2934 16.9417 16.1878 16.7633C15.9922 16.433 15.4831 15.5803 14.6602 14.2055C14.4757 13.8976 14.3193 13.6178 14.1912 13.3661C14.035 13.059 13.919 12.7283 13.8432 12.3737C13.6569 11.5037 13.5542 10.6237 13.5351 9.73373C13.5194 9.00332 13.5906 8.32306 13.7488 7.69295C13.8027 7.47832 13.8224 7.29136 13.8078 7.13208"
            stroke="#C15710" stroke-width="2" />
        <path
            d="M51.9129 14.6748C51.616 15.6592 51.1867 16.5814 50.6251 17.4416C50.5223 17.5992 50.3996 17.7474 50.2568 17.8862C50.2484 17.8942 50.2514 17.9081 50.2619 17.9123C50.4302 17.9783 50.5906 18.0515 50.7431 18.1319C51.5393 18.5499 52.2825 19.047 52.9727 19.6232C52.9836 19.6322 52.988 19.6296 52.9858 19.6156C52.8621 18.8619 52.8001 18.1174 52.7995 17.3822C52.7995 17.351 52.7954 17.3265 52.7873 17.3085"
            stroke="#923710" stroke-width="2" />
        <path
            d="M52.7865 17.3087C52.7789 17.0171 52.7687 16.7256 52.7557 16.4343C52.7425 16.132 52.7341 15.8513 52.7304 15.592C52.7265 15.2897 52.7212 14.9875 52.7144 14.6856C52.708 14.4088 52.6922 14.1286 52.6672 13.8449C52.6282 13.405 52.5877 12.9653 52.5459 12.5259C52.5408 12.4731 52.5303 12.4731 52.5143 12.5259C52.2985 13.2381 52.0978 13.9544 51.9121 14.675"
            stroke="#A0705B" stroke-width="2" />
        <path
            d="M52.7865 17.3085L52.7726 17.3089C52.7654 17.3089 52.7583 17.3026 52.7549 17.2929C52.5953 16.7889 52.4331 16.2859 52.2682 15.7839C52.244 15.71 52.1871 15.5245 52.0975 15.2272C52.0416 15.0413 51.9798 14.8571 51.9121 14.6748"
            stroke="#ECA46A" stroke-width="2" />
        <path
            d="M35.3851 25.1059C35.3093 25.1092 35.0915 25.1298 34.732 25.1674C34.1178 25.232 33.4588 25.2288 32.7548 25.1577C32.223 25.1043 31.7627 25.0014 31.3739 24.8488C30.7882 24.619 30.2192 24.2719 29.6669 23.8076C29.4652 23.6382 29.2827 23.4389 29.1195 23.2096C29.1073 23.1924 29.0837 23.1881 29.0668 23.2004C27.9808 23.9684 26.8731 24.6748 25.7437 25.3195C25.0805 25.6982 24.6554 25.9451 24.4686 26.0603C23.9093 26.4042 23.3434 26.7368 22.7709 27.0582C21.65 27.6869 20.5296 28.3167 19.4099 28.9477C19.0447 29.1536 18.6275 29.4132 18.1583 29.7264C17.608 30.0938 17.1141 30.4885 16.6767 30.9105C16.245 31.3268 15.8387 31.7669 15.4581 32.2307C15.0994 32.6675 14.7895 33.1367 14.5285 33.6381C14.2172 34.2362 13.9227 34.8423 13.6449 35.4564C13.4159 35.9618 13.2427 36.4616 13.1253 36.9557C13.0073 37.4516 12.9063 38.0037 12.8223 38.6122C12.7187 39.3637 12.6611 40.2442 12.6495 41.2539C12.6304 42.9355 12.8587 44.5816 13.3343 46.1921C13.5107 46.7894 13.7091 47.3792 13.9293 47.9615C14.3532 49.0813 14.8953 50.1383 15.5554 51.1325C15.7178 51.3769 15.8827 51.6043 16.0501 51.8147C16.3398 52.1785 16.6491 52.5254 16.978 52.8555C17.7433 53.6227 18.5317 54.3654 19.3433 55.0834C19.7717 55.4624 20.1928 55.7837 20.6066 56.0475C20.7111 56.1141 20.9045 56.2244 21.1869 56.3783C21.4523 56.523 21.6438 56.6373 21.7612 56.7213C21.9197 56.8348 22.0302 56.9244 22.0928 56.9902C22.1412 57.0405 22.1877 57.0816 22.2323 57.1136C22.2764 57.1451 22.3336 57.1629 22.4038 57.1672C22.8117 57.1916 23.2199 57.2026 23.6284 57.2C24.0324 57.1978 24.3131 57.1979 24.4707 57.2005C25.2163 57.2123 25.9619 57.217 26.7075 57.2148C26.8457 57.2142 26.9771 57.2191 27.1019 57.2295C27.2331 57.2402 27.364 57.2519 27.4946 57.2645C27.507 57.2656 27.5203 57.2632 27.5346 57.2573C27.5588 57.2472 27.5841 57.2427 27.6105 57.2439"
            stroke="#762300" stroke-width="2" />
        <path
            d="M27.6113 57.244C28.2855 57.2555 28.9598 57.2674 29.634 57.2798C29.6876 57.2809 29.9686 57.2886 30.4768 57.3029C31.1097 57.3206 31.7944 57.3191 32.531 57.2983C32.874 57.2888 33.32 57.2845 33.8689 57.2857C34.1358 57.2865 34.4165 57.2798 34.7109 57.2654C36.3652 57.1848 38.0193 57.198 39.6731 57.3051C40.4148 57.3531 41.1172 57.3017 41.7805 57.1508C42.2679 57.0399 42.6542 56.7665 42.9393 56.3308"
            stroke="#923710" stroke-width="2" />
        <path
            d="M42.939 56.3307C43.0508 56.19 43.1377 56.0551 43.1998 55.9262C43.3523 55.6087 43.3383 55.2952 43.1577 54.9856C42.8405 54.4423 42.3931 54.1872 41.8155 54.2204C41.6697 54.2288 41.4319 54.2815 41.1021 54.3784C40.8676 54.4472 40.6328 54.5158 40.398 54.584C39.9457 54.7155 39.4861 54.8012 39.0192 54.8411C38.7133 54.8672 38.4326 54.8811 38.1773 54.8828C37.8031 54.8853 37.4309 54.8512 37.0606 54.7804C37.0036 54.7695 36.9052 54.7584 36.7656 54.7471"
            stroke="#A0705B" stroke-width="2" />
        <path
            d="M36.7658 54.7471C36.7259 54.7283 36.7013 54.7183 36.692 54.7172C36.029 54.6284 35.3675 54.5298 34.7073 54.4214C34.6379 54.4099 34.556 54.4013 34.4616 54.3957C34.3386 54.3881 34.2568 54.3759 34.2164 54.359C34.0981 54.3101 33.926 54.2575 33.7002 54.201C33.2698 54.0934 32.8098 53.9319 32.3201 53.7164C32.2754 53.6967 32.2674 53.6671 32.2961 53.6275C32.3037 53.617 32.3167 53.6111 32.3302 53.6115C32.3951 53.6135 32.4927 53.6247 32.6231 53.6452C33.0155 53.707 33.4153 53.7559 33.8224 53.7918C33.8392 53.7931 33.8544 53.7821 33.8582 53.7657C33.9009 53.591 34.0062 53.4622 34.1742 53.3793C34.3773 53.279 34.5339 53.1796 34.6441 53.081C34.7781 52.9613 34.9065 52.836 35.0292 52.7051"
            stroke="#923710" stroke-width="2" />
        <path
            d="M35.0286 52.7051C35.2775 52.4489 35.4798 52.1987 35.6354 51.9546C36.3344 50.8581 36.7896 49.6601 37.0012 48.3606C37.0486 48.069 37.076 47.7896 37.0833 47.5224C37.1089 46.6091 36.9704 45.7179 36.6678 44.8487C36.3602 43.9644 35.8891 43.1785 35.2545 42.491C34.9222 42.1315 34.5452 41.792 34.1235 41.4726C33.3237 40.8666 32.479 40.3678 31.5893 39.9762C31.3036 39.8503 30.9676 39.7354 30.5813 39.6315C29.8357 39.4306 29.1791 39.2721 28.6113 39.1558"
            stroke="#A0705B" stroke-width="2" />
        <path
            d="M28.6112 39.1558C28.2539 39.0521 27.8895 39.0059 27.5181 39.0171C27.5034 39.0175 27.4899 39.0129 27.4806 39.0041C27.4506 38.9754 27.4587 38.9528 27.5051 38.9362C27.659 38.8812 27.8102 38.8569 27.9585 38.8633C28.4338 38.8838 28.9045 38.9418 29.3706 39.0374C29.8782 39.1413 30.384 39.2535 30.888 39.374C31.2245 39.4541 31.4958 39.5269 31.7017 39.5923C32.9007 39.973 33.9832 40.5708 34.9493 41.3857C34.9928 41.4226 35.0662 41.472 35.1693 41.5341C35.2465 41.5807 35.3168 41.6368 35.38 41.7022C35.392 41.7149 35.4147 41.7518 35.4478 41.813C35.4661 41.8465 35.4935 41.8821 35.53 41.9201C36.1798 42.594 36.7038 43.3868 37.1022 44.2984C37.198 44.5178 37.2863 44.7636 37.3672 45.0358"
            stroke="#923710" stroke-width="2" />
        <path
            d="M37.3673 45.036C37.6707 45.9566 37.7921 46.9014 37.7314 47.8703C37.6904 48.5296 37.5544 49.2318 37.3235 49.9768C37.0923 50.7229 36.8369 51.3963 36.5574 51.9969C36.4079 52.318 36.2811 52.5688 36.1769 52.7491C35.9274 53.1806 35.6184 53.571 35.2498 53.9202C35.2347 53.9345 35.2375 53.9428 35.2583 53.945C35.6513 53.9872 36.0342 54.0204 36.407 54.0449C36.5854 54.0567 36.8171 54.0561 37.1023 54.0432C38.0248 54.0013 38.9462 53.8836 39.8666 53.6901C39.9028 53.6825 39.9323 53.6559 39.9437 53.6201C40.0206 53.3754 40.1167 53.1414 40.2319 52.9181C40.2962 52.7934 40.3943 52.6476 40.526 52.4807C40.7763 52.1635 41.013 51.8364 41.2361 51.4993C41.3911 51.2653 41.5048 51.0554 41.577 50.8697C41.7087 50.5307 41.8426 50.1246 41.9786 49.6515C42.0182 49.5136 42.0475 49.3848 42.0666 49.2651C42.0874 49.1342 42.1044 49.0027 42.1176 48.8707C42.1536 48.5066 42.2084 48.1323 42.282 47.7477C42.2857 47.7274 42.2752 47.7072 42.2567 47.6988C41.1501 47.2013 40.235 46.4662 39.5113 45.4937C39.3577 45.2872 39.243 45.0609 39.1675 44.8148C39.1222 44.6673 39.104 44.5163 39.1127 44.3618"
            stroke="#762300" stroke-width="2" />
        <path
            d="M39.1133 44.3618C39.1161 44.1707 39.1772 44.023 39.2966 43.9185C39.3584 43.8642 39.4261 43.8554 39.4997 43.8919C39.8188 44.0501 40.1071 44.2363 40.3644 44.4507C40.6074 44.6529 40.8476 44.8586 41.085 45.0676C41.976 45.8505 42.9917 46.408 44.132 46.7401C44.5079 46.8494 44.9697 46.9494 45.5175 47.0401C45.6973 47.0699 46.2666 47.1803 47.2254 47.3713C47.5681 47.4396 47.8741 47.5145 48.1432 47.5959C48.3589 47.6614 48.5729 47.7455 48.785 47.8483C48.9861 47.9461 49.1816 48.0651 49.3715 48.2052C49.6249 48.3926 49.8616 48.6004 50.0816 48.8285C50.4777 49.24 50.8706 49.6548 51.2602 50.0728C51.4403 50.2661 51.6584 50.3951 51.9146 50.4597"
            stroke="#923710" stroke-width="2" />
        <path
            d="M51.9149 50.4595C52.2643 50.5635 52.6017 50.5621 52.927 50.4553C53.1456 50.3837 53.3305 50.2759 53.4816 50.1321C53.6384 49.9829 53.7596 49.7985 53.8453 49.5788C54.0023 49.176 54.0956 48.7783 54.1251 48.3859C54.1489 48.0715 54.1286 47.8082 54.064 47.5958C53.8566 46.914 53.5097 46.2865 53.0231 45.7134C52.8456 45.5044 52.6456 45.3078 52.4231 45.1235C52.1475 44.8948 51.849 44.6822 51.5276 44.4855C51.0107 44.1689 50.5122 43.8849 50.0321 43.6335C49.7481 43.4846 49.6043 43.4092 49.6006 43.4072C48.8688 43.0189 48.1336 42.6376 47.3951 42.2631C47.0667 42.0965 46.8181 41.9659 46.6492 41.8712C46.0565 41.5386 45.4703 41.167 44.8908 40.7562C44.6185 40.5632 44.3789 40.3528 44.1719 40.125"
            stroke="#A0705B" stroke-width="2" />
        <path d="M44.1714 40.1251C44.0591 39.9919 43.9362 39.869 43.8027 39.7563" stroke="#923710"
            stroke-width="2" />
        <path d="M43.8024 39.7564C43.6342 39.6053 43.5464 39.4168 43.5391 39.1909" stroke="#762300"
            stroke-width="2" />
        <path d="M43.5391 39.1909L43.5618 39.1155" stroke="#A0705B" stroke-width="2" />
        <path
            d="M43.5614 39.1154C43.6094 38.9628 43.7212 38.8961 43.8968 38.9152C44.135 38.9414 44.3366 39.01 44.5015 39.1213C44.5922 39.1825 44.6827 39.2442 44.7729 39.3063C44.8664 39.3706 44.9595 39.4282 45.0522 39.479C45.6776 39.8221 46.3088 40.1535 46.946 40.4735C47.1609 40.5817 47.4147 40.7023 47.7074 40.8355C48.6553 41.2673 49.5969 41.7123 50.5324 42.1704C51.0139 42.4061 51.6016 42.7213 52.2955 43.116C52.9444 43.4849 53.5425 43.9462 54.0897 44.4999C54.1001 44.5103 54.1045 44.5082 54.1028 44.4936C54.073 44.2466 54.0376 44.0105 53.9966 43.7852C53.9491 43.5265 53.89 43.2958 53.8192 43.0933C53.6849 42.7095 53.5074 42.3471 53.2866 42.0061C53.1694 41.8255 53.0045 41.5981 52.7919 41.3239C52.5542 41.0182 52.308 40.7377 52.0532 40.4824C51.4908 39.9185 51.0199 39.3042 50.6407 38.6392C50.4884 38.3726 50.4036 38.0855 50.3862 37.7779C50.3857 37.7695 50.3786 37.7631 50.3702 37.7636C49.2894 37.8125 48.2538 37.6404 47.2633 37.2474C46.6278 36.9954 45.9876 36.6761 45.3426 36.2896C44.5661 35.8238 43.8448 35.3275 43.1788 34.8008C42.9102 34.5884 42.6911 34.4126 42.5214 34.2732C42.2792 34.0749 42.0441 33.8683 41.816 33.6534C41.5174 33.3727 41.2458 33.0678 41.0014 32.7385C40.8152 32.4879 40.6487 32.1949 40.5021 31.8595C40.3869 31.5963 40.3525 31.3332 40.3989 31.0703C40.407 31.0239 40.4223 30.9902 40.4448 30.9691C40.4875 30.9289 40.5329 30.9396 40.5809 31.0011C40.6868 31.1368 40.7521 31.2184 40.7768 31.246"
            stroke="#762300" stroke-width="2" />
        <path
            d="M40.7773 31.2461C40.9487 31.4641 41.1784 31.681 41.4663 31.8967C42.3908 32.5886 43.0571 33.085 43.465 33.3859C43.7001 33.5592 43.9314 33.7187 44.159 33.8642C44.8655 34.3159 45.5885 34.74 46.3279 35.1363C46.5728 35.2675 46.8785 35.4149 47.2448 35.5784C47.746 35.8023 48.2424 35.9683 48.734 36.0765C49.2329 36.186 49.7352 36.228 50.2409 36.2025C50.5249 36.1881 50.8019 36.1461 51.0718 36.0765C51.598 35.9405 52.0781 35.7306 52.5121 35.4469C52.9262 35.1761 53.3375 34.8519 53.746 34.4743C54.0154 34.2252 54.2186 34.0313 54.3557 33.8928C54.6917 33.5535 54.9881 33.1804 55.2449 32.7736"
            stroke="#923710" stroke-width="2" />
        <path
            d="M55.2453 32.7736C56.1803 31.1147 56.3938 29.3574 55.8858 27.5016C55.7066 26.8476 55.4998 26.2025 55.2656 25.5662C54.9189 24.6251 54.4457 23.7532 53.8459 22.9506C53.5186 22.5126 53.1748 22.088 52.8143 21.6767C52.4997 21.3183 52.153 20.9941 51.7744 20.7042C51.5168 20.5067 51.2541 20.3161 50.9864 20.1324C50.4363 19.7542 49.8488 19.4476 49.2237 19.2125C48.8784 19.0824 48.4832 18.9956 48.0379 18.9521C46.9912 18.8495 45.9898 18.9519 45.0338 19.2592C44.6029 19.398 44.3689 19.474 44.3318 19.4872C44.0989 19.5712 43.877 19.6802 43.666 19.8142"
            stroke="#A0705B" stroke-width="2" />
        <path
            d="M43.665 19.8141C43.5431 19.8936 43.4475 19.9705 43.3781 20.045C43.2042 20.2309 43.0127 20.4023 42.8037 20.5591C42.7742 20.5814 42.7312 20.5675 42.7203 20.5317C42.5776 20.0628 42.3892 19.615 42.1552 19.1883C42.0642 19.0223 41.9491 18.839 41.8101 18.6384C41.6974 18.476 41.5713 18.2996 41.4317 18.1091C41.1541 17.7304 40.8663 17.3211 40.5683 16.8812C40.3761 16.5975 40.217 16.366 40.0908 16.1868C39.7753 15.7378 39.46 15.2874 39.1448 14.8354C39.1302 14.8146 39.1236 14.8168 39.125 14.8421C39.1747 15.6217 39.1957 16.4052 39.1878 17.1926C39.183 17.6575 39.1891 18.0792 39.2059 18.4576C39.2194 18.7649 39.2521 19.0433 39.3041 19.2928C39.4019 19.7622 39.543 20.2061 39.7276 20.6244C40.3566 22.0492 40.8315 23.1434 41.1523 23.907C41.2891 24.2326 41.3682 24.579 41.3895 24.9461C41.4061 25.2332 41.3415 25.4914 41.1957 25.7206C41.1496 25.7926 41.1057 25.8407 41.0638 25.8652C40.9801 25.9143 40.9069 25.8811 40.8443 25.7653C40.7872 25.6597 40.7131 25.551 40.6218 25.4392C40.5296 25.3265 40.4826 25.2689 40.4806 25.2664C40.2104 24.9175 39.9693 24.5498 39.7575 24.1632C39.68 24.0213 39.5683 23.8167 39.4225 23.5492C39.3107 23.3444 39.2072 23.1352 39.1119 22.9214C39.1063 22.9087 39.0997 22.9084 39.0921 22.9205C38.9486 23.1464 38.7803 23.3495 38.5873 23.5299C38.444 23.6639 38.2398 23.8275 37.9746 24.0208C37.4493 24.4042 36.8751 24.6948 36.252 24.8926C36.1503 24.9252 36.0062 24.962 35.8196 25.003C35.6741 25.035 35.5292 25.0693 35.3848 25.1058"
            stroke="#923710" stroke-width="2" />
        <path
            d="M43.666 19.8142C43.9197 19.7864 44.1831 19.794 44.4561 19.837C45.57 20.0129 46.636 20.3148 47.654 20.743C48.2639 20.9997 48.8321 21.3284 49.3585 21.729C49.4476 21.797 49.7053 22.0029 50.1318 22.3468C50.6582 22.7718 51.1076 23.1862 51.4798 23.5899C51.6832 23.8104 51.8723 24.0426 52.047 24.2864C52.7406 25.2534 53.3541 26.2686 53.8876 27.3322C54.184 27.923 54.4455 28.5542 54.6722 29.2259C55.0492 30.3443 55.2362 31.4847 55.2331 32.6472C55.2328 32.7076 55.2369 32.7497 55.2453 32.7736"
            stroke="#ECA46A" stroke-width="2" />
        <path
            d="M40.7776 31.2461C40.7751 31.1812 40.7686 31.1285 40.7582 31.0881C40.5736 30.3658 40.4578 29.8672 40.4106 29.5922C40.3603 29.2992 40.3357 28.9234 40.3368 28.4649C40.3371 28.32 40.2825 28.2138 40.1729 28.1464C40.0743 28.086 39.9691 28.0707 39.8573 28.1004C39.7362 28.1327 39.6466 28.2151 39.5884 28.3474C39.5365 28.4662 39.4839 28.6353 39.4308 28.8547C39.3682 29.1146 39.1352 29.8984 38.7318 31.2061C38.6126 31.5921 38.4902 31.9206 38.3643 32.1917C38.1359 32.6825 37.9074 33.1731 37.6787 33.6636C37.4559 34.1409 37.3377 34.3957 37.3239 34.428C37.0177 35.1441 36.8281 35.8989 36.755 36.6925C36.6626 37.6968 36.9528 38.5187 37.6256 39.1581C37.8301 39.3525 38.0578 39.5151 38.3087 39.646C38.6784 39.8388 39.0725 39.9573 39.4911 40.0017C39.6212 40.0157 39.8411 40.026 40.151 40.0325C40.4108 40.0378 40.6308 40.0341 40.8109 40.0215C41.5011 39.9732 42.4984 39.8848 43.8027 39.7565"
            stroke="#C15710" stroke-width="2" />
        <path
            d="M44.1716 40.125C44.1463 40.1272 44.1401 40.1375 44.153 40.1558C44.223 40.2535 44.3147 40.3479 44.4282 40.4389C44.7232 40.6763 45.0003 40.9331 45.2596 41.2092C45.5692 41.539 45.8908 41.8565 46.2246 42.1616C46.3906 42.3133 46.499 42.4259 46.5499 42.4995C46.7471 42.7863 46.9704 43.0511 47.2199 43.2938C47.5593 43.6242 47.9167 43.9328 48.2923 44.2196C48.6609 44.5014 48.8458 44.6427 48.8469 44.6435C49.4275 45.1093 49.98 45.6064 50.5042 46.1348C50.7438 46.3761 50.9326 46.5837 51.0705 46.7576C51.406 47.1802 51.6662 47.6246 51.8514 48.0909C52.064 48.6261 52.1237 49.202 52.0305 49.8186C52.0097 49.956 51.971 50.1696 51.9146 50.4595"
            stroke="#ECA46A" stroke-width="2" />
        <path
            d="M39.1126 44.3618C39.1005 44.3809 39.0862 44.3878 39.0696 44.3825C39.0468 44.3754 39.0338 44.3719 39.0304 44.3719C38.7158 44.3641 38.4028 44.3833 38.0916 44.4297C37.9904 44.4448 37.8921 44.4705 37.7966 44.5068C37.6255 44.5711 37.5103 44.6902 37.451 44.8641C37.4407 44.8947 37.4297 44.9252 37.4182 44.9556C37.4145 44.9648 37.4126 44.9783 37.4123 44.996C37.4117 45.0227 37.3967 45.036 37.3672 45.036"
            stroke="#C15710" stroke-width="2" />
        <path
            d="M28.6117 39.1558C28.6019 39.1723 28.6089 39.1869 28.6328 39.1996C28.787 39.2819 28.949 39.3856 29.1187 39.5106C29.2886 39.6361 29.3749 39.6998 29.3774 39.7015C29.8589 40.0459 30.3377 40.3944 30.8139 40.7469C31.2884 41.0981 31.6982 41.4681 32.0435 41.8569C32.3761 42.2319 32.6934 42.6561 32.9954 43.1294C33.1952 43.4427 33.2963 43.6011 33.2988 43.6048C33.4272 43.8023 33.5542 44.0007 33.6798 44.2002C34.2759 45.1475 34.7088 46.1647 34.9785 47.2519C35.124 47.8385 35.1966 48.4342 35.1963 49.039C35.196 49.4851 35.1977 49.9311 35.2014 50.3769C35.2048 50.7598 35.1889 51.0934 35.1538 51.3777C35.0765 52.0036 35.0274 52.4355 35.0063 52.6735C35.0052 52.6867 35.0127 52.6972 35.029 52.7051"
            stroke="#ECA46A" stroke-width="2" />
        <path
            d="M36.7645 54.7473C36.7277 54.7653 36.7131 54.7914 36.7207 54.8257C36.7252 54.8465 36.7405 54.8667 36.7666 54.8864C36.9113 54.9954 37.0651 55.069 37.228 55.1072C37.6205 55.199 38.0349 55.2403 38.4711 55.2311C38.6046 55.2283 38.7356 55.245 38.8643 55.2812C39.2006 55.3759 39.5436 55.4234 39.8933 55.4236C40.1214 55.4239 40.3494 55.4262 40.5772 55.4304C40.5803 55.4304 40.6861 55.4309 40.8945 55.4321C41.1923 55.4338 41.4881 55.4607 41.782 55.513C41.9567 55.5442 42.1239 55.5985 42.2834 55.6761C42.4497 55.7567 42.5792 55.8664 42.672 56.0052C42.7602 56.1375 42.8488 56.2461 42.9378 56.3309"
            stroke="#ECA46A" stroke-width="2" />
        <path
            d="M27.6097 57.2439C27.5148 57.2234 27.4191 57.2059 27.3228 57.1913C27.2152 57.1752 27.1202 57.155 27.0379 57.1306C25.8625 56.7817 25.0532 56.5277 24.6099 56.3687C24.2447 56.2375 23.8891 56.0839 23.5433 55.9077C22.864 55.5619 22.2144 55.1682 21.5944 54.7266C21.3851 54.5777 21.1636 54.4053 20.9299 54.2095C20.5576 53.8983 20.2498 53.6242 20.0062 53.3874C19.6342 53.0258 19.2358 52.5781 18.8107 52.044C18.2688 51.3633 17.8396 50.6208 17.523 49.8166C17.4696 49.6811 17.3724 49.4178 17.2314 49.0265C16.7063 47.5699 16.3443 46.0735 16.1454 44.5374C16.1098 44.2621 16.077 43.9831 16.0473 43.7005C15.9905 43.1603 15.9536 42.6187 15.9364 42.0757C15.9204 41.5692 15.9329 41.0633 15.9739 40.5582C16.0119 40.088 16.0909 39.6421 16.2112 39.2208C16.3497 38.7348 16.5296 38.2385 16.751 37.732C16.8881 37.4176 17.0225 37.102 17.1542 36.7851C17.3329 36.3556 17.4794 36.0516 17.5937 35.8733C17.8407 35.4881 18.0181 35.216 18.126 35.057C18.6639 34.2631 19.3231 33.5875 20.1035 33.0302C20.6168 32.6635 21.1796 32.3665 21.792 32.1389C22.4531 31.8931 23.0459 31.6806 23.5707 31.5014C23.812 31.419 23.9414 31.3756 23.9588 31.3711C24.0779 31.3405 24.2133 31.3199 24.365 31.3092C25.6769 31.2171 27.0157 30.9739 28.3813 30.5798C28.497 30.5464 28.6709 30.4972 28.903 30.4323C29.4322 30.284 29.9279 30.0745 30.39 29.804C30.585 29.69 30.8163 29.5307 31.0841 29.3262C31.7819 28.7935 32.3998 28.2527 32.9377 27.7038C33.5665 27.0622 34.0581 26.5354 34.4126 26.1236C34.7598 25.7202 35.0837 25.381 35.3843 25.106"
            stroke="#C15710" stroke-width="2" />
        <path
            d="M43.5623 39.1154C43.5367 39.0898 43.5107 39.0862 43.4843 39.1044C43.4738 39.1116 43.4696 39.1259 43.4751 39.1377C43.4871 39.1641 43.5086 39.1818 43.5395 39.1908"
            stroke="#D0905B" stroke-width="2" />
        <path
            d="M11.7285 24.2385C11.7388 24.2472 11.7662 24.232 11.7898 24.2045C11.8134 24.1768 11.8244 24.1473 11.8141 24.1387C11.8037 24.13 11.7763 24.1452 11.7527 24.1727C11.7291 24.2004 11.7182 24.2299 11.7285 24.2385Z"
            stroke="#C15710" stroke-width="2" />
        <path
            d="M41.5869 23.1685C41.7516 23.2387 41.8689 23.2118 41.9388 23.0876C41.9683 23.0353 41.9854 22.9658 41.9902 22.879C41.9947 22.8018 41.9911 22.7289 41.9793 22.6603C41.9175 22.3027 41.8396 21.9298 41.7458 21.5415C41.6798 21.2693 41.5992 21.0005 41.5039 20.735C41.4171 20.4928 41.3258 20.2525 41.23 20.014C41.1348 19.7763 41.0269 19.5436 40.9064 19.3158C40.7342 18.9907 40.5538 18.67 40.3653 18.3537C40.2631 18.1826 40.1459 18.0225 40.0139 17.8733C39.931 17.7798 39.8336 17.7118 39.7215 17.6694C39.6958 17.6597 39.6688 17.6808 39.6722 17.7082C39.6775 17.7517 39.6887 17.7933 39.7059 17.8329C39.8511 18.1711 40.0025 18.5064 40.1601 18.8387C40.3056 19.1449 40.4184 19.402 40.4985 19.6099C40.6508 20.0049 40.7928 20.4034 40.9245 20.8054C41.0119 21.0725 41.0883 21.3426 41.1538 21.6157C41.2417 21.9823 41.3211 22.3507 41.3918 22.721C41.4098 22.8145 41.4322 22.9071 41.4588 22.9987C41.4841 23.0863 41.5268 23.1429 41.5869 23.1685Z"
            stroke="#923710" stroke-width="2" />
        <path
            d="M46.5701 25.6735C46.8752 25.6867 47.1648 25.7595 47.439 25.8918C47.5289 25.9351 47.6562 25.9786 47.8208 26.0224C47.9582 26.0589 48.068 26.064 48.1503 26.0376C48.2818 25.9955 48.3321 25.9022 48.3012 25.7578C48.2857 25.6859 48.2456 25.6006 48.1807 25.502C47.979 25.1969 47.7215 24.9586 47.4083 24.7869C47.1947 24.6695 46.9532 24.587 46.6835 24.5396C46.4211 24.4932 46.1629 24.4848 45.909 24.5143C45.2979 24.5851 44.8395 24.8668 44.5335 25.3596C44.4406 25.5093 44.3546 25.7051 44.2757 25.947C44.2091 26.1509 44.1542 26.3584 44.1109 26.5694C44.0932 26.6553 44.0665 26.7384 44.0308 26.8184C43.9648 26.967 43.9298 27.1225 43.9259 27.2849C43.9245 27.3355 43.9352 27.3924 43.9579 27.4556C43.9751 27.5036 44.0086 27.5231 44.0586 27.5141C44.1325 27.5009 44.2022 27.4675 44.2677 27.4138C44.3952 27.3085 44.5057 27.1871 44.5993 27.0498C44.7198 26.8731 44.8405 26.6964 44.9613 26.5197C45.1301 26.273 45.2641 26.1074 45.3633 26.0228C45.5824 25.8363 45.8449 25.7251 46.1508 25.6891C46.2902 25.6728 46.4299 25.6676 46.5701 25.6735Z"
            stroke="#923710" stroke-width="2" />
        <path
            d="M31.2155 5.01188C31.5459 5.32595 31.8274 5.63104 32.06 5.92713C32.6671 6.70024 33.1807 7.53121 33.601 8.42006C34.3969 10.1034 34.7526 11.8792 34.6684 13.7477C34.6591 13.9502 34.6404 14.1915 34.6123 14.4716C34.5789 14.8068 34.5522 15.0474 34.5323 15.1934C34.396 16.1919 34.0836 17.1296 33.5951 18.0066C33.49 18.1951 33.3451 18.4357 33.1602 18.7285C32.3419 20.0258 31.3539 21.1951 30.1962 22.2365C30.1819 22.2496 30.1831 22.2728 30.1991 22.2833C30.3612 22.394 30.5197 22.5099 30.6745 22.6309C30.929 22.8298 31.1936 23.0143 31.4683 23.1842C31.7465 23.3564 32.0723 23.4793 32.446 23.5529C32.898 23.642 33.3543 23.6857 33.8151 23.684C34.6348 23.6812 35.3792 23.5927 36.0484 23.4185C36.322 23.3474 36.6261 23.2088 36.9607 23.0026C37.3284 22.7759 37.6848 22.5328 38.0298 22.2732C38.1562 22.1782 38.2552 22.1194 38.3269 22.0966C38.4347 22.0621 38.5526 22.0506 38.6804 22.0621C38.7262 22.0663 38.739 22.0477 38.7187 22.0064C38.3774 21.3134 38.1138 20.5961 37.9278 19.8544C37.8764 19.6493 37.8403 19.4245 37.8195 19.1798C37.7953 18.8932 37.7739 18.6065 37.755 18.3197C37.7267 17.8893 37.7335 17.4598 37.7757 17.0311C37.7852 16.9339 37.7865 16.8185 37.7795 16.6847C37.7744 16.5842 37.7754 16.4837 37.7824 16.3834C37.7903 16.2669 37.7914 16.1669 37.7858 16.0834C37.7692 15.8385 37.7607 15.5933 37.7601 15.3481C37.7595 15.0203 37.7543 14.7752 37.7445 14.6128C37.7094 14.0403 37.665 13.4684 37.6113 12.8973C37.588 12.6515 37.5889 12.4813 37.6139 12.3866C37.6456 12.2655 37.7047 12.1586 37.7913 12.0659C37.8739 11.9777 37.9736 11.9149 38.0905 11.8775C38.3042 11.8087 38.5041 11.843 38.6901 11.9804C38.8848 12.1245 39.0716 12.3252 39.2505 12.5825C39.3393 12.7104 39.3844 12.7752 39.3858 12.7772C40.4606 14.2729 41.5272 15.7744 42.5854 17.2818C42.5862 17.283 42.6627 17.3896 42.8146 17.6017C43.0062 17.8691 43.1834 18.143 43.346 18.4234C43.3553 18.4394 43.3763 18.444 43.3915 18.4335C43.9961 18.0132 44.6477 17.7195 45.3463 17.5524C46.2248 17.3425 47.1146 17.2747 48.0158 17.3488C48.3836 17.3795 48.7398 17.4275 49.0845 17.493C49.1169 17.4993 49.1489 17.4786 49.1565 17.4466C49.2237 17.1702 49.3224 16.9308 49.4528 16.7286C49.5039 16.6496 49.53 16.609 49.5311 16.6068C49.8727 16.0483 50.1686 15.4673 50.4186 14.8639C50.495 14.6791 50.5905 14.4149 50.7051 14.0713C50.8439 13.6552 50.9873 13.2407 51.1354 12.8278C51.3003 12.3685 51.5382 11.9512 51.8492 11.5758C51.9132 11.4986 51.9711 11.4171 52.0228 11.3314C52.1023 11.2 52.1576 11.1178 52.1888 11.0849C52.3029 10.9636 52.4404 10.8855 52.6014 10.8506C52.7483 10.8189 52.8984 10.8322 53.0518 10.8907C53.308 10.9881 53.5124 11.1706 53.665 11.438C53.8335 11.7333 53.9459 12.0669 54.0021 12.4388C54.0484 12.7456 54.0782 12.9427 54.0914 13.03C54.1886 13.6728 54.2445 14.3185 54.2591 14.9672C54.2703 15.4737 54.2761 15.7282 54.2764 15.7307C54.3269 17.1528 54.3716 18.0965 54.4104 18.562C54.4292 18.7901 54.4882 19.1556 54.5874 19.6585C54.6657 20.0571 54.709 20.3342 54.7172 20.4899C54.7323 20.7874 54.7094 21.0794 54.6485 21.3659C54.64 21.4051 54.6502 21.446 54.6759 21.4768C55.218 22.1271 55.683 22.8282 56.0707 23.5799C56.4819 24.378 56.8123 25.2074 57.0618 26.0682C57.1525 26.3806 57.1983 26.5381 57.1991 26.5406C57.3171 26.9372 57.3954 27.2134 57.4338 27.369C57.6021 28.0503 57.6863 28.742 57.6863 29.4444C57.6865 30.0902 57.6086 30.7241 57.4524 31.3461C57.383 31.6222 57.3039 31.8918 57.2151 32.1547C56.8895 33.1194 56.3808 33.9764 55.6889 34.7256C55.5931 34.8296 55.4519 34.9693 55.2654 35.1449C55.1204 35.2811 54.9757 35.4175 54.8313 35.5541C54.4793 35.8867 54.1098 36.1982 53.7227 36.4887C53.0586 36.9868 52.3282 37.3465 51.5315 37.5679C51.5243 37.57 51.5214 37.5788 51.526 37.5847C51.7521 37.8575 51.9786 38.1296 52.2053 38.401C52.4272 38.6667 52.6639 38.9186 52.9153 39.1565C53.5038 39.7139 54.0345 40.3214 54.5073 40.979C55.0686 41.76 55.4331 42.6557 55.6008 43.6662C55.7118 44.3348 55.7526 44.9637 55.7234 45.5528C55.7128 45.7634 55.6892 45.9296 55.6526 46.0513C55.6032 46.2164 55.5276 46.369 55.4259 46.5089C55.4053 46.5375 55.4011 46.5746 55.4145 46.6075C55.7255 47.3559 55.8122 48.1277 55.6745 48.923C55.5863 49.4326 55.4582 49.8814 55.2902 50.2693C54.9332 51.0936 54.323 51.6623 53.4597 51.9755C53.3937 51.9994 53.3368 52.0171 53.2891 52.0286C53.2705 52.0331 53.2129 52.0469 53.1163 52.0699C53.0607 52.0834 53.0042 52.0899 52.9469 52.0893C52.8609 52.0885 52.8045 52.0893 52.7775 52.0918C52.437 52.1253 52.2193 52.1365 52.1244 52.1256C51.86 52.0949 51.5999 52.0431 51.3439 51.9701C51.1001 51.9004 50.8777 51.7883 50.6769 51.6338C50.2901 51.3366 49.9448 50.9971 49.6411 50.6153C49.3141 50.2043 48.9401 49.8237 48.519 49.4733C48.4358 49.4042 48.3514 49.3443 48.2657 49.2934C48.1952 49.2516 48.1014 49.2087 47.9842 49.1649C47.6165 49.0275 47.2715 48.9267 46.9493 48.8623C46.3203 48.737 45.6903 48.6177 45.0594 48.5042C44.6357 48.428 44.1986 48.3435 43.748 48.2505C43.7269 48.2463 43.7076 48.2619 43.7071 48.2833C43.7063 48.6474 43.6887 48.9906 43.6545 49.3128C43.6196 49.6367 43.549 49.9526 43.4425 50.2605C43.3358 50.5695 43.2209 50.8754 43.0978 51.1783C42.8158 51.8722 42.4385 52.5045 41.966 53.0754C41.9446 53.1009 41.9505 53.1119 41.9837 53.1082C42.414 53.0622 42.8217 53.1146 43.2065 53.2654C43.7394 53.4741 44.1705 53.8273 44.4998 54.3248C44.6419 54.5394 44.7435 54.7619 44.8044 54.9923C44.8648 55.2204 44.8915 55.4601 44.8845 55.7116C44.8763 56.0051 44.8096 56.2838 44.6843 56.5476C44.6009 56.7229 44.497 56.9003 44.3725 57.0798C44.2382 57.2737 44.1156 57.4381 44.0046 57.5733C43.5984 58.0688 43.0811 58.417 42.4527 58.6179C42.0858 58.735 41.7209 58.8113 41.3579 58.8467C41.1264 58.8692 40.864 58.8877 40.5707 58.9023C40.5 58.906 40.3928 58.9039 40.2492 58.896C40.1773 58.8921 40.1053 58.8912 40.0331 58.8935C39.9395 58.8966 39.8676 58.8971 39.8173 58.8952C39.4319 58.88 39.0464 58.8634 38.661 58.8454C38.3927 58.8331 38.1118 58.8263 37.8182 58.8252C37.6098 58.8244 37.4013 58.8225 37.1929 58.8197C37.0047 58.8175 36.7964 58.8187 36.568 58.8235C36.3177 58.8286 36.0672 58.8304 35.8166 58.829C35.6576 58.8282 35.4543 58.8349 35.2065 58.8492C35.0028 58.861 34.7989 58.865 34.5946 58.861C34.514 58.8596 34.4228 58.8617 34.3211 58.8673C34.2475 58.8713 34.1561 58.8749 34.0468 58.8783C34.019 58.8791 33.9961 58.8732 33.9781 58.8606C33.9655 58.8518 33.9524 58.8475 33.9415 58.8484C33.7732 58.8619 33.6046 58.8718 33.4358 58.8783C33.3897 58.88 33.3524 58.8775 33.3237 58.8707C33.276 58.8589 33.2514 58.853 33.25 58.853C33.1328 58.8423 33.0195 58.8579 32.9099 58.8998C32.8981 58.9044 32.8846 58.9036 32.8724 58.8973C32.8443 58.8824 32.8214 58.8761 32.8037 58.8783C32.5928 58.9039 32.4031 58.9109 32.2349 58.8994C32.1146 58.8912 32.0021 58.8897 31.8973 58.8947C31.7574 58.9018 31.6453 58.9033 31.5611 58.8994C31.4116 58.8921 31.2623 58.8908 31.1131 58.8956C30.9184 58.9018 30.7693 58.9033 30.6656 58.9002C30.0335 58.8814 29.4013 58.8683 28.7689 58.861C28.4877 58.8579 28.2068 58.851 27.9262 58.8404C27.0893 58.8081 26.4045 58.7926 25.8719 58.794C25.5699 58.7949 25.3733 58.7942 25.282 58.7919C24.7305 58.7796 24.1792 58.7706 23.628 58.7649C23.1951 58.7605 22.7632 58.7384 22.3322 58.6988C22.0654 58.6741 21.8132 58.6314 21.5758 58.5707C21.5421 58.5623 21.5063 58.5698 21.4789 58.5913C21.1649 58.8411 20.8346 58.9773 20.4882 59.0001C19.8435 59.0428 19.1987 59.0849 18.5537 59.1265C18.4492 59.1332 18.2924 59.1356 18.0834 59.1337C17.9264 59.132 17.7695 59.1382 17.6127 59.1522C17.5863 59.1544 17.5555 59.1516 17.5204 59.1438C17.4856 59.1356 17.4552 59.132 17.4294 59.1328C16.6164 59.1623 15.8488 59.1021 15.1265 58.952C13.9107 58.6998 12.7448 58.3416 11.629 57.8775C11.1542 57.68 10.674 57.4404 10.1883 57.1586C9.79694 56.9313 9.35518 56.6323 8.863 56.2615C8.58404 56.0514 8.36197 55.8796 8.19679 55.7461C7.0523 54.8224 6.11485 53.7166 5.38445 52.4285C5.2423 52.1777 5.05675 51.8289 4.82779 51.3822C4.68115 51.096 4.55824 50.8434 4.45908 50.6246C3.5663 48.6525 2.99953 46.5859 2.75878 44.4247C2.72816 44.1497 2.66495 43.2472 2.56915 41.7173C2.56719 41.6881 2.56887 41.6247 2.57421 41.5272C2.57758 41.4646 2.57885 41.4014 2.578 41.3376C2.57379 41.0115 2.58137 40.4919 2.60076 39.7789C2.61452 39.2746 2.62618 38.8849 2.63573 38.6095C2.64528 38.3376 2.66649 38.0575 2.69936 37.7693C2.80106 36.881 2.9293 35.9967 3.08409 35.1162C3.13494 34.8263 3.19182 34.5512 3.25475 34.2907C3.41095 33.6435 3.58273 33.0358 3.77011 32.4678C3.9145 32.0307 4.10329 31.5734 4.33645 31.0958C4.96039 29.8181 5.73111 28.5381 6.64861 27.2557C6.99443 26.7722 7.29726 26.3667 7.55712 26.0391C7.82709 25.6986 8.00042 25.4776 8.07711 25.3759C8.43473 24.9025 8.79446 24.4307 9.15629 23.9604C9.1782 23.9315 9.20348 23.8934 9.23214 23.8462C9.25602 23.8069 9.28158 23.7688 9.30883 23.732C9.93276 22.8912 10.4209 22.1959 10.7732 21.6462C10.9468 21.3751 11.1368 21.0127 11.3433 20.559C11.5694 20.0617 11.7227 19.5455 11.803 19.0104C11.8398 18.7634 11.8508 18.4846 11.8359 18.1739C11.8157 17.7489 11.7783 17.3726 11.7238 17.045C11.637 16.5217 11.5492 15.9984 11.4604 15.4754C11.447 15.3964 11.4347 15.3328 11.4238 15.2845C11.4016 15.1867 11.3888 15.1234 11.3854 15.0944C11.2961 14.3601 11.2403 13.6232 11.2181 12.8838C11.2139 12.7386 11.2245 12.4015 11.2497 11.8725C11.2829 11.1851 11.3783 10.299 11.5359 9.21438C11.7072 8.0373 12.1008 6.93312 12.7166 5.90185C12.879 5.62991 13.0398 5.37511 13.1991 5.13745C13.3674 4.88574 13.5362 4.6617 13.7056 4.46534C14.1955 3.89759 14.7429 3.41341 15.3477 3.01281C16.1919 2.45349 17.085 1.98786 18.0269 1.61591C18.5233 1.41983 19.0314 1.2604 19.5511 1.13764C20.0775 1.01319 20.6429 0.953491 21.2472 0.958548C21.8177 0.963324 22.4467 1.02386 23.1341 1.14017C24.6464 1.39665 26.0937 1.84978 27.4761 2.49956C27.7556 2.63104 28.0075 2.75521 28.2317 2.87207C29.3124 3.43448 30.307 4.14775 31.2155 5.01188ZM16.5803 4.04353C15.7965 4.51801 15.1407 5.10936 14.6128 5.81757C14.3271 6.20103 14.0589 6.63914 13.808 7.13188C13.4698 7.78363 13.2342 8.47105 13.1013 9.19415C12.8766 10.4173 12.7606 11.6507 12.7533 12.8944C12.7488 13.643 12.7849 14.2505 12.8615 14.7169C12.938 15.1809 13.0135 15.6452 13.0883 16.1095C13.0888 16.1135 13.1147 16.2663 13.1658 16.568C13.2442 17.0301 13.2978 17.4949 13.3268 17.9624C13.3456 18.2678 13.3457 18.5483 13.3272 18.8039C13.257 19.7574 13.0059 20.6652 12.5742 21.5273C12.3317 22.0119 12.0369 22.508 11.6897 23.0157C10.7758 24.3509 9.86211 25.5934 8.94854 26.7433C8.19173 27.6953 7.49167 28.6874 6.84835 29.7195C6.57107 30.164 6.31108 30.6179 6.06836 31.0815C5.90486 31.3941 5.77802 31.6446 5.68784 31.8328C5.48165 32.2629 5.30424 32.7052 5.15563 33.1597C4.81431 34.2037 4.56457 35.2689 4.4064 36.3555C4.28729 37.1739 4.21566 37.704 4.1915 37.9459C4.14093 38.4538 4.10961 38.9629 4.09753 39.4734C4.08657 39.9473 4.07758 40.4214 4.07056 40.8956C4.06606 41.2088 4.06761 41.4896 4.07519 41.7379C4.10413 42.6714 4.17366 43.6023 4.28378 44.5305C4.43997 45.8449 4.73607 47.1252 5.17207 48.3714C5.26449 48.6355 5.36197 48.899 5.46451 49.1619C5.9227 50.3365 6.47893 51.4043 7.1332 52.3653C7.68073 53.1688 8.33346 53.8746 9.09139 54.4828C9.59088 54.8831 10.1095 55.2568 10.6472 55.6037C11.209 55.9655 11.8009 56.2686 12.4229 56.5131C13.0833 56.7723 13.7548 56.9983 14.4371 57.1911C15.4819 57.486 16.5474 57.6351 17.6338 57.6382C18.088 57.6393 18.7377 57.6523 19.5827 57.6773C19.9122 57.6872 20.1537 57.6997 20.3071 57.7148C20.3208 57.716 20.3217 57.7134 20.3096 57.7073C19.7623 57.4331 19.2856 57.1273 18.8794 56.7899C17.736 55.8404 16.5924 54.7649 15.4485 53.5633C15.0495 53.1439 14.6863 52.6957 14.3587 52.2187C13.612 51.1298 12.9984 49.9706 12.5177 48.741C12.2767 48.1238 12.0682 47.5348 11.8924 46.9741C11.3544 45.2588 11.0735 43.4924 11.0496 41.6751C11.0434 41.1945 11.0569 40.6291 11.09 39.9791C11.1448 39.0127 11.2651 38.0547 11.4507 37.1052C11.5977 36.3526 11.8054 35.6715 12.074 35.0619C12.3456 34.4458 12.6296 33.8355 12.926 33.231C13.2381 32.5944 13.5818 32.0345 13.9572 31.5513C14.3485 31.0473 14.7655 30.5654 15.2083 30.1055C15.628 29.6695 16.0405 29.2955 16.4459 28.9834C17.0732 28.5005 17.7747 28.0355 18.5503 27.5886C18.7483 27.4689 18.9985 27.3263 19.3008 27.1609C20.1643 26.6886 21.1255 26.1523 22.1843 25.552C22.3962 25.4318 22.6384 25.2896 22.9112 25.1256C23.511 24.7643 24.1157 24.4114 24.7253 24.067C25.018 23.9016 25.2609 23.7608 25.4539 23.6448C26.2938 23.1389 27.0012 22.6904 27.576 22.2993C28.264 21.831 28.9324 21.2762 29.5814 20.6348C29.789 20.4298 29.9852 20.2286 30.1701 20.0314C30.937 19.2133 31.6039 18.3185 32.1708 17.3467C32.5349 16.7231 32.781 16.0747 32.9091 15.4016C33.049 14.6667 33.1182 13.9047 33.1168 13.1156C33.1163 12.8195 33.1029 12.539 33.0768 12.2741C32.9523 11.0034 32.5897 9.80095 31.9888 8.66657C31.6837 8.09096 31.3339 7.544 30.9395 7.02569C30.6007 6.57986 30.1889 6.14906 29.704 5.73329C28.9334 5.07284 28.1172 4.52475 27.2553 4.08904C27.0295 3.97498 26.7754 3.85461 26.493 3.72791C25.026 3.0697 23.4884 2.65632 21.8801 2.48776C21.1031 2.4063 20.3653 2.46192 19.667 2.65463C19.1034 2.81027 18.5372 3.02363 17.9683 3.29472C17.4596 3.53688 16.9969 3.78648 16.5803 4.04353ZM51.912 14.6747C51.615 15.6591 51.1858 16.5814 50.6242 17.4416C50.5214 17.5992 50.3986 17.7473 50.2559 17.8861C50.2475 17.8941 50.2504 17.908 50.261 17.9122C50.4293 17.9783 50.5897 18.0514 50.7422 18.1318C51.5383 18.5498 52.2815 19.0469 52.9718 19.6231C52.9827 19.6321 52.9871 19.6295 52.9848 19.6155C52.8612 18.8618 52.7991 18.1173 52.7986 17.3821C52.7986 17.351 52.7945 17.3264 52.7864 17.3084C52.7788 17.0168 52.7685 16.7253 52.7556 16.434C52.7424 16.1317 52.734 15.851 52.7303 15.5917C52.7264 15.2894 52.721 14.9872 52.7143 14.6853C52.7078 14.4085 52.6921 14.1283 52.6671 13.8446C52.6281 13.4047 52.5876 12.965 52.5457 12.5256C52.5407 12.4728 52.5302 12.4728 52.5141 12.5256C52.2984 13.2378 52.0977 13.9541 51.912 14.6747ZM35.3847 25.1058C35.3089 25.1091 35.0912 25.1296 34.7316 25.1673C34.1175 25.2319 33.4584 25.2287 32.7544 25.1576C32.2226 25.1042 31.7623 25.0012 31.3735 24.8487C30.7878 24.6189 30.2188 24.2718 29.6665 23.8075C29.4648 23.6381 29.2823 23.4387 29.1191 23.2095C29.1069 23.1922 29.0833 23.188 29.0664 23.2002C27.9804 23.9683 26.8727 24.6747 25.7434 25.3194C25.0801 25.6981 24.6551 25.945 24.4683 26.0602C23.9089 26.404 23.343 26.7367 22.7705 27.058C21.6496 27.6868 20.5293 28.3166 19.4095 28.9475C19.0443 29.1535 18.6271 29.413 18.158 29.7263C17.6076 30.0937 17.1138 30.4884 16.6764 30.9104C16.2446 31.3267 15.8384 31.7668 15.4577 32.2306C15.099 32.6674 14.7891 33.1366 14.5281 33.638C14.2169 34.2361 13.9223 34.8422 13.6445 35.4563C13.4155 35.9617 13.2423 36.4615 13.1249 36.9556C13.0069 37.4514 12.9059 38.0036 12.8219 38.6121C12.7183 39.3635 12.6607 40.2441 12.6492 41.2538C12.6301 42.9354 12.8583 44.5815 13.3339 46.192C13.5103 46.7892 13.7087 47.3791 13.9289 47.9614C14.3528 49.0812 14.8949 50.1382 15.5551 51.1324C15.7174 51.3768 15.8823 51.6042 16.0498 51.8146C16.3394 52.1784 16.6487 52.5253 16.9777 52.8554C17.7429 53.6226 18.5313 54.3652 19.3429 55.0833C19.7713 55.4622 20.1924 55.7836 20.6062 56.0474C20.7107 56.114 20.9042 56.2243 21.1865 56.3782C21.452 56.5229 21.6434 56.6372 21.7608 56.7212C21.9193 56.8347 22.0298 56.9243 22.0925 56.9901C22.1408 57.0403 22.1873 57.0815 22.232 57.1135C22.2761 57.145 22.3332 57.1628 22.4035 57.167C22.8114 57.1915 23.2195 57.2024 23.628 57.1999C24.032 57.1977 24.3128 57.1978 24.4704 57.2003C25.2159 57.2121 25.9615 57.2169 26.7071 57.2147C26.8453 57.2141 26.9768 57.219 27.1015 57.2294C27.2327 57.2401 27.3636 57.2517 27.4942 57.2644C27.5066 57.2655 27.5199 57.2631 27.5343 57.2572C27.5584 57.2471 27.5837 57.2426 27.6101 57.2437C28.2843 57.2553 28.9586 57.2672 29.6328 57.2796C29.6864 57.2807 29.9674 57.2884 30.4756 57.3027C31.1085 57.3204 31.7932 57.3189 32.5298 57.2981C32.8728 57.2885 33.3188 57.2843 33.8677 57.2855C34.1346 57.2863 34.4153 57.2796 34.7097 57.2652C36.364 57.1846 38.0181 57.1978 39.6719 57.3048C40.4136 57.3529 41.116 57.3015 41.7793 57.1506C42.2667 57.0396 42.653 56.7663 42.9381 56.3306C43.0499 56.1898 43.1369 56.055 43.1989 55.9261C43.3515 55.6086 43.3374 55.2951 43.1568 54.9855C42.8396 54.4422 42.3923 54.1871 41.8147 54.2203C41.6689 54.2287 41.4311 54.2814 41.1013 54.3783C40.8667 54.4471 40.632 54.5157 40.3971 54.5839C39.9448 54.7154 39.4853 54.8011 39.0184 54.841C38.7124 54.8671 38.4318 54.881 38.1764 54.8827C37.8022 54.8852 37.43 54.8511 37.0597 54.7803C37.0027 54.7693 36.9044 54.7582 36.7648 54.747C36.7249 54.7282 36.7003 54.7182 36.691 54.7171C36.028 54.6283 35.3665 54.5297 34.7063 54.4213C34.6369 54.4098 34.555 54.4012 34.4606 54.3956C34.3376 54.388 34.2558 54.3758 34.2154 54.3589C34.0971 54.31 33.925 54.2574 33.6992 54.2009C33.2688 54.0933 32.8088 53.9318 32.3191 53.7163C32.2745 53.6966 32.2665 53.667 32.2951 53.6274C32.3027 53.6169 32.3158 53.611 32.3292 53.6114C32.3941 53.6133 32.4918 53.6246 32.6221 53.6451C33.0146 53.7069 33.4143 53.7558 33.8214 53.7917C33.8382 53.793 33.8534 53.782 33.8572 53.7656C33.8999 53.5909 34.0052 53.4621 34.1732 53.3792C34.3763 53.2789 34.533 53.1795 34.6431 53.0808C34.7771 52.9612 34.9055 52.8359 35.0282 52.705C35.2771 52.4488 35.4794 52.1986 35.635 51.9545C36.334 50.858 36.7892 49.66 37.0007 48.3605C37.0482 48.0689 37.0756 47.7895 37.0829 47.5223C37.1085 46.609 36.97 45.7178 36.6674 44.8486C36.3598 43.9643 35.8887 43.1784 35.2541 42.4909C34.9218 42.1314 34.5448 41.7919 34.1231 41.4725C33.3233 40.8665 32.4786 40.3677 31.5889 39.9761C31.3032 39.8503 30.9672 39.7354 30.5809 39.6314C29.8353 39.4305 29.1787 39.272 28.6109 39.1557C28.2536 39.052 27.8892 39.0058 27.5178 39.017C27.5031 39.0174 27.4896 39.0128 27.4803 39.004C27.4503 38.9753 27.4584 38.9527 27.5048 38.9361C27.6587 38.8811 27.8099 38.8568 27.9582 38.8632C28.4335 38.8837 28.9042 38.9417 29.3703 39.0373C29.8779 39.1412 30.3837 39.2534 30.8877 39.3739C31.2242 39.454 31.4955 39.5268 31.7014 39.5922C32.9004 39.9729 33.9829 40.5707 34.949 41.3856C34.9926 41.4224 35.0659 41.4719 35.169 41.534C35.2462 41.5806 35.3165 41.6367 35.3797 41.7021C35.3918 41.7148 35.4144 41.7517 35.4475 41.8129C35.4658 41.8464 35.4932 41.882 35.5297 41.92C36.1795 42.5939 36.7035 43.3867 37.1019 44.2983C37.1977 44.5177 37.286 44.7635 37.3669 45.0357C37.6703 45.9563 37.7917 46.9011 37.731 47.87C37.69 48.5293 37.554 49.2315 37.3231 49.9765C37.0919 50.7226 36.8365 51.396 36.557 51.9966C36.4076 52.3177 36.2807 52.5684 36.1765 52.7488C35.9271 53.1803 35.618 53.5706 35.2495 53.9198C35.2343 53.9342 35.2371 53.9424 35.2579 53.9447C35.6509 53.9868 36.0338 54.0201 36.4066 54.0446C36.585 54.0564 36.8167 54.0558 37.1019 54.0429C38.0244 54.001 38.9459 53.8833 39.8662 53.6898C39.9024 53.6822 39.9319 53.6556 39.9433 53.6198C40.0203 53.3751 40.1164 53.1411 40.2315 52.9178C40.2959 52.793 40.3939 52.6472 40.5257 52.4804C40.776 52.1632 41.0126 51.8361 41.2357 51.499C41.3908 51.2649 41.5044 51.0551 41.5766 50.8694C41.7084 50.5303 41.8422 50.1243 41.9782 49.6512C42.0178 49.5132 42.0472 49.3844 42.0663 49.2648C42.087 49.1338 42.104 49.0024 42.1172 48.8703C42.1532 48.5063 42.208 48.1319 42.2816 47.7473C42.2854 47.7271 42.2748 47.7069 42.2563 47.6985C41.1497 47.2009 40.2346 46.4659 39.511 45.4933C39.3573 45.2869 39.2427 45.0606 39.1671 44.8145C39.1219 44.667 39.1036 44.516 39.1123 44.3615C39.1151 44.1705 39.1762 44.0227 39.2956 43.9182C39.3574 43.864 39.4251 43.8551 39.4987 43.8916C39.8179 44.0498 40.1061 44.2361 40.3634 44.4504C40.6064 44.6527 40.8466 44.8583 41.084 45.0673C41.9751 45.8503 42.9908 46.4077 44.1311 46.7398C44.5069 46.8491 44.9688 46.9491 45.5166 47.0398C45.6964 47.0696 46.2657 47.18 47.2245 47.371C47.5672 47.4393 47.8731 47.5142 48.1422 47.5956C48.358 47.6611 48.5719 47.7452 48.784 47.8481C48.9852 47.9458 49.1807 48.0648 49.3706 48.205C49.624 48.3923 49.8607 48.6001 50.0806 48.8282C50.4767 49.2398 50.8696 49.6545 51.2592 50.0726C51.4393 50.2658 51.6575 50.3948 51.9137 50.4594C52.2631 50.5633 52.6005 50.5619 52.9258 50.4552C53.1444 50.3835 53.3292 50.2758 53.4804 50.132C53.6371 49.9828 53.7584 49.7984 53.844 49.5787C54.0011 49.1758 54.0943 48.7782 54.1238 48.3857C54.1477 48.0714 54.1274 47.808 54.0627 47.5956C53.8554 46.9138 53.5085 46.2864 53.0219 45.7133C52.8444 45.5043 52.6443 45.3076 52.4219 45.1234C52.1463 44.8947 51.8478 44.682 51.5264 44.4854C51.0095 44.1688 50.511 43.8848 50.0309 43.6333C49.7469 43.4844 49.603 43.409 49.5994 43.407C48.8676 43.0188 48.1324 42.6375 47.3939 42.263C47.0655 42.0964 46.8168 41.9658 46.648 41.8711C46.0552 41.5385 45.4691 41.1668 44.8896 40.7561C44.6173 40.5631 44.3777 40.3527 44.1707 40.1249C44.0583 39.9917 43.9354 39.8688 43.8019 39.7561C43.6337 39.605 43.5459 39.4165 43.5386 39.1906L43.5613 39.1152C43.6094 38.9627 43.7212 38.8959 43.8968 38.9151C44.135 38.9412 44.3365 39.0099 44.5015 39.1211C44.5922 39.1824 44.6827 39.244 44.7728 39.3061C44.8664 39.3704 44.9595 39.428 45.0522 39.4789C45.6775 39.8219 46.3088 40.1534 46.9459 40.4733C47.1608 40.5815 47.4146 40.7022 47.7074 40.8353C48.6552 41.2671 49.5969 41.7121 50.5323 42.1703C51.0139 42.406 51.6016 42.7212 52.2954 43.1159C52.9444 43.4847 53.5425 43.946 54.0897 44.4997C54.1001 44.5101 54.1045 44.508 54.1028 44.4934C54.073 44.2465 54.0376 44.0103 53.9966 43.785C53.9491 43.5263 53.89 43.2957 53.8192 43.0931C53.6849 42.7094 53.5073 42.347 53.2865 42.0059C53.1694 41.8253 53.0045 41.5979 52.7918 41.3237C52.5542 41.0181 52.3079 40.7376 52.0531 40.4822C51.4907 39.9184 51.0199 39.304 50.6406 38.639C50.4884 38.3724 50.4035 38.0853 50.3861 37.7777C50.3857 37.7693 50.3785 37.763 50.3701 37.7634C49.2894 37.8123 48.2538 37.6402 47.2632 37.2472C46.6278 36.9952 45.9875 36.6759 45.3425 36.2894C44.5661 35.8236 43.8448 35.3274 43.1787 34.8006C42.9101 34.5882 42.691 34.4124 42.5213 34.273C42.2792 34.0747 42.0441 33.8681 41.8159 33.6532C41.5173 33.3725 41.2458 33.0676 41.0014 32.7383C40.8152 32.4878 40.6487 32.1948 40.5021 31.8593C40.3869 31.5961 40.3525 31.333 40.3988 31.0701C40.407 31.0237 40.4223 30.99 40.4448 30.9689C40.4875 30.9288 40.5328 30.9394 40.5809 31.001C40.6868 31.1367 40.7521 31.2183 40.7768 31.2458C40.9482 31.4638 41.1778 31.6807 41.4658 31.8964C42.3903 32.5883 43.0565 33.0847 43.4644 33.3856C43.6996 33.5589 43.9309 33.7184 44.1584 33.8639C44.865 34.3156 45.5879 34.7397 46.3273 35.136C46.5723 35.2672 46.8779 35.4146 47.2443 35.5781C47.7454 35.802 48.2418 35.968 48.7334 36.0762C49.2324 36.1857 49.7347 36.2277 50.2403 36.2022C50.5243 36.1878 50.8013 36.1458 51.0713 36.0762C51.5975 35.9402 52.0776 35.7303 52.5116 35.4466C52.9257 35.1758 53.337 34.8516 53.7454 34.474C54.0148 34.2249 54.2181 34.031 54.3552 33.8925C54.6912 33.5532 54.9875 33.1801 55.2443 32.7733C56.1792 31.1145 56.3927 29.3571 55.8848 27.5013C55.7056 26.8473 55.4988 26.2022 55.2645 25.5659C54.9179 24.6248 54.4447 23.753 53.8449 22.9504C53.5176 22.5124 53.1737 22.0878 52.8133 21.6765C52.4987 21.318 52.152 20.9939 51.7733 20.7039C51.5157 20.5064 51.2531 20.3158 50.9853 20.1321C50.4353 19.754 49.8477 19.4474 49.2227 19.2122C48.8774 19.0822 48.4822 18.9953 48.0369 18.9518C46.9902 18.8493 45.9888 18.9517 45.0328 19.259C44.6019 19.3978 44.3679 19.4738 44.3308 19.487C44.0979 19.571 43.876 19.68 43.665 19.814C43.5431 19.8935 43.4474 19.9704 43.378 20.0449C43.2041 20.2309 43.0127 20.4022 42.8037 20.559C42.7742 20.5813 42.7312 20.5674 42.7202 20.5316C42.5775 20.0627 42.3892 19.6149 42.1552 19.1882C42.0641 19.0222 41.9491 18.8389 41.81 18.6383C41.6974 18.4759 41.5713 18.2995 41.4316 18.109C41.1541 17.7303 40.8663 17.321 40.5682 16.8811C40.3761 16.5974 40.2169 16.3659 40.0908 16.1867C39.7753 15.7377 39.46 15.2873 39.1448 14.8353C39.1302 14.8145 39.1236 14.8167 39.125 14.842C39.1747 15.6216 39.1956 16.4051 39.1878 17.1925C39.183 17.6574 39.189 18.0791 39.2059 18.4575C39.2194 18.7648 39.2521 19.0432 39.3041 19.2927C39.4018 19.7621 39.543 20.206 39.7275 20.6243C40.3565 22.0491 40.8314 23.1434 41.1523 23.9069C41.2891 24.2325 41.3682 24.5789 41.3895 24.946C41.4061 25.2332 41.3415 25.4913 41.1957 25.7206C41.1496 25.7925 41.1056 25.8407 41.0638 25.8651C40.9801 25.9143 40.9069 25.881 40.8442 25.7652C40.7872 25.6596 40.713 25.5509 40.6217 25.4391C40.5296 25.3264 40.4825 25.2688 40.4806 25.2663C40.2103 24.9174 39.9693 24.5497 39.7575 24.1631C39.6799 24.0212 39.5683 23.8166 39.4225 23.5491C39.3107 23.3444 39.2071 23.1351 39.1119 22.9213C39.1063 22.9086 39.0997 22.9084 39.0921 22.9204C38.9485 23.1463 38.7803 23.3494 38.5873 23.5298C38.444 23.6638 38.2398 23.8274 37.9746 24.0207C37.4492 24.4041 36.875 24.6948 36.2519 24.8925C36.1502 24.9251 36.0061 24.9619 35.8196 25.0029C35.6741 25.035 35.5291 25.0692 35.3847 25.1058Z"
            fill="#460300" />
        <path
            d="M18.5501 27.5888C18.5515 27.5503 18.5655 27.5087 18.5922 27.464C18.915 26.9233 19.2765 26.4316 19.6769 25.9892C20.2662 25.3377 20.8597 24.69 21.4572 24.0462C21.5626 23.933 21.756 23.7293 22.0375 23.4352C22.6622 22.7826 23.3618 22.0054 24.136 21.1036C24.8897 20.226 25.5469 19.404 26.1077 18.6377C26.3091 18.3623 26.4727 18.1342 26.5986 17.9533C27.479 16.6897 28.1489 15.3643 28.6082 13.9771C28.8335 13.2967 28.9567 12.5671 28.9777 11.7884C28.9859 11.4937 28.9735 11.2135 28.9406 10.9478C28.839 10.1187 28.5858 9.299 28.1813 8.48853C27.6439 7.41147 26.9898 6.4698 26.2189 5.66355C26.0124 5.44752 25.8079 5.25508 25.6054 5.08625C25.0783 4.64716 24.5061 4.29053 23.8886 4.01634C22.9464 3.59833 21.9561 3.3115 20.9178 3.15587C20.6493 3.1157 20.4684 3.09055 20.3751 3.08044C20.1616 3.05769 19.9781 3.05628 19.8248 3.07623C19.2609 3.14955 18.6244 3.30631 17.915 3.5465C17.7389 3.60605 17.581 3.67319 17.4414 3.74792C17.1773 3.88894 16.9082 3.99275 16.634 4.05933C16.6277 4.06101 16.6163 4.05638 16.6045 4.0471C16.5986 4.04261 16.5905 4.04149 16.5801 4.04373C16.9967 3.78669 17.4594 3.53709 17.9681 3.29493C18.537 3.02384 19.1032 2.81047 19.6667 2.65484C20.3651 2.46213 21.1028 2.4065 21.8799 2.48797C23.4882 2.65653 25.0258 3.06991 26.4928 3.72811C26.7751 3.85481 27.0292 3.97519 27.2551 4.08924C28.117 4.52496 28.9332 5.07304 29.7038 5.7335C30.1887 6.14927 30.6005 6.58007 30.9393 7.02589C31.3337 7.5442 31.6835 8.09116 31.9885 8.66678C32.5894 9.80115 32.9521 11.0037 33.0766 12.2743C33.1027 12.5392 33.116 12.8197 33.1166 13.1158C33.118 13.9049 33.0488 14.6669 32.9089 15.4018C32.7808 16.0749 32.5347 16.7233 32.1706 17.3469C31.6037 18.3187 30.9368 19.2136 30.1698 20.0316C29.985 20.2288 29.7888 20.43 29.5812 20.635C28.9322 21.2764 28.2638 21.8312 27.5758 22.2995C27.001 22.6906 26.2936 23.1391 25.4537 23.645C25.2607 23.761 25.0178 23.9018 24.7251 24.0672C24.1155 24.4117 23.5108 24.7645 22.911 25.1258C22.6382 25.2898 22.3959 25.432 22.1841 25.5522C21.1253 26.1525 20.1641 26.6888 19.3006 27.1611C18.9983 27.3265 18.7481 27.4691 18.5501 27.5888Z"
            fill="#FADDB5" />
        <path
            d="M18.5501 27.5888C17.7744 28.0357 17.0729 28.5007 16.4456 28.9836C16.0403 29.2957 15.6277 29.6697 15.208 30.1057C14.7653 30.5656 14.3483 31.0475 13.9569 31.5515C13.5816 32.0347 13.2379 32.5946 12.9258 33.2312C12.6294 33.8357 12.3454 34.446 12.0737 35.0621C11.8052 35.6717 11.5974 36.3528 11.4505 37.1054C11.2648 38.0549 11.1446 39.0129 11.0898 39.9793C11.0322 39.9413 10.9845 39.8843 10.9465 39.8082C10.6479 39.2084 10.4375 38.5894 10.3153 37.9511C10.2746 37.7373 10.2326 37.4596 10.1893 37.118C10.0486 36.0056 10.0543 34.9156 10.2066 33.8481C10.4055 32.4536 10.7746 31.0631 11.314 29.6768C11.725 28.6202 12.1403 27.5652 12.56 26.5117C12.6755 26.2221 12.8277 25.9242 13.0168 25.6179C13.3817 25.0263 13.7437 24.4898 14.1027 24.0082C14.6803 23.2329 15.254 22.4546 15.8237 21.6733C16.0268 21.3947 16.2008 21.1293 16.3458 20.8773C16.8781 19.9508 17.0037 18.9822 16.7225 17.9714C16.6694 17.7801 16.5924 17.5737 16.4916 17.352C16.3947 17.1379 16.2934 16.9417 16.1878 16.7633C15.9922 16.433 15.4831 15.5804 14.6602 14.2055C14.4757 13.8976 14.3193 13.6178 14.1912 13.3661C14.035 13.059 13.919 12.7283 13.8432 12.3737C13.6569 11.5037 13.5542 10.6237 13.5351 9.73374C13.5194 9.00333 13.5906 8.32307 13.7488 7.69296C13.8027 7.47833 13.8224 7.29137 13.8078 7.13209C14.0586 6.63935 14.3269 6.20124 14.6126 5.81778C15.1405 5.10957 15.7963 4.51822 16.5801 4.04374C16.5905 4.04149 16.5986 4.04261 16.6045 4.04711C16.6163 4.05638 16.6277 4.06101 16.634 4.05933C16.9082 3.99275 17.1773 3.88895 17.4414 3.74792C17.581 3.6732 17.7389 3.60606 17.915 3.5465C18.6244 3.30631 19.2609 3.14955 19.8248 3.07623C19.9781 3.05629 20.1616 3.05769 20.3751 3.08044C20.4684 3.09056 20.6493 3.1157 20.9178 3.15587C21.9561 3.31151 22.9464 3.59833 23.8886 4.01635C24.5061 4.29053 25.0783 4.64716 25.6053 5.08625C25.8079 5.25509 26.0124 5.44752 26.2189 5.66355C26.9897 6.46981 27.6439 7.41147 28.1813 8.48854C28.5858 9.29901 28.8389 10.1187 28.9406 10.9478C28.9735 11.2135 28.9859 11.4937 28.9777 11.7884C28.9566 12.5671 28.8335 13.2967 28.6082 13.9771C28.1488 15.3643 27.479 16.6897 26.5986 17.9533C26.4727 18.1342 26.3091 18.3624 26.1076 18.6377C25.5469 19.404 24.8897 20.226 24.136 21.1036C23.3617 22.0054 22.6622 22.7826 22.0375 23.4352C21.756 23.7293 21.5626 23.933 21.4572 24.0462C20.8597 24.6901 20.2662 25.3377 19.6768 25.9892C19.2765 26.4316 18.915 26.9233 18.5922 27.464C18.5655 27.5087 18.5515 27.5503 18.5501 27.5888Z"
            fill="#DD6B1F" />
        <path
            d="M12.699 5.3605L12.6945 5.3566C12.6863 5.34937 12.6738 5.35016 12.6666 5.35836L12.3567 5.70985C12.3495 5.71806 12.3503 5.73057 12.3585 5.7378L12.3629 5.74171C12.3711 5.74894 12.3836 5.74815 12.3908 5.73995L12.7007 5.38846C12.708 5.38025 12.7072 5.36774 12.699 5.3605Z"
            fill="#010101" fill-opacity="0.106" />
        <path
            d="M13.8083 7.13208C13.8229 7.29136 13.8032 7.47832 13.7493 7.69295C13.5911 8.32306 13.5199 9.00332 13.5357 9.73373C13.5548 10.6237 13.6574 11.5037 13.8437 12.3737C13.9195 12.7283 14.0356 13.059 14.1918 13.3661C14.3199 13.6178 14.4762 13.8976 14.6608 14.2055C15.4836 15.5803 15.9928 16.433 16.1883 16.7633C16.2939 16.9417 16.3952 17.1379 16.4921 17.352C16.593 17.5736 16.6699 17.7801 16.723 17.9714C17.0042 18.9822 16.8787 19.9508 16.3463 20.8773C16.2014 21.1293 16.0273 21.3947 15.8242 21.6733C15.2545 22.4546 14.6808 23.2329 14.1033 24.0082C13.7442 24.4897 13.3823 25.0263 13.0174 25.6179C12.8283 25.9241 12.676 26.2221 12.5606 26.5117C12.1409 27.5652 11.7255 28.6202 11.3145 29.6767C10.7751 31.0631 10.406 32.4536 10.2071 33.8481C10.0549 34.9156 10.0491 36.0056 10.1898 37.118C10.2331 37.4596 10.2751 37.7373 10.3158 37.9511C10.438 38.5894 10.6484 39.2084 10.9471 39.8082C10.985 39.8843 11.0328 39.9413 11.0903 39.9793C11.0572 40.6293 11.0437 41.1947 11.0499 41.6753C11.0738 43.4926 11.3547 45.259 11.8927 46.9743C12.0685 47.535 12.277 48.124 12.518 48.7412C12.9987 49.9708 13.6124 51.13 14.359 52.2189C14.6866 52.6959 15.0498 53.1441 15.4488 53.5635C16.5927 54.765 17.7363 55.8406 18.8797 56.7901C19.2859 57.1275 19.7626 57.4333 20.3099 57.7075C20.322 57.7136 20.3211 57.7162 20.3074 57.715C20.154 57.6999 19.9125 57.6874 19.583 57.6775C18.738 57.6525 18.0883 57.6395 17.6341 57.6383C16.5477 57.6353 15.4822 57.4862 14.4374 57.1913C13.7551 56.9985 13.0836 56.7725 12.4232 56.5132C11.8012 56.2688 11.2093 55.9657 10.6475 55.6039C10.1098 55.2569 9.59119 54.8833 9.0917 54.483C8.33377 53.8748 7.68104 53.169 7.13351 52.3655C6.47924 51.4045 5.92301 50.3367 5.46482 49.1621C5.36228 48.8992 5.2648 48.6357 5.17238 48.3716C4.73638 47.1254 4.44028 45.8451 4.28409 44.5307C4.17397 43.6025 4.10444 42.6716 4.0755 41.7381C4.06792 41.4898 4.06637 41.209 4.07087 40.8958C4.07789 40.4216 4.08688 39.9475 4.09784 39.4736C4.10992 38.9631 4.14124 38.454 4.19181 37.9461C4.21597 37.7042 4.2876 37.1741 4.40671 36.3557C4.56488 35.2691 4.81462 34.2039 5.15594 33.1599C5.30455 32.7054 5.48195 32.2631 5.68815 31.833C5.77833 31.6448 5.90517 31.3943 6.06867 31.0817C6.31139 30.6181 6.57138 30.1642 6.84866 29.7197C7.49197 28.6876 8.19204 27.6955 8.94885 26.7435C9.86242 25.5936 10.7761 24.3511 11.69 23.0159C12.0372 22.5082 12.332 22.0121 12.5745 21.5275C13.0063 20.6654 13.2573 19.7576 13.3275 18.8041C13.346 18.5485 13.3459 18.268 13.3271 17.9626C13.2981 17.4951 13.2445 17.0303 13.1661 16.5682C13.115 16.2665 13.0891 16.1137 13.0886 16.1097C13.0138 15.6454 12.9383 15.1811 12.8619 14.7171C12.7852 14.2507 12.7491 13.6432 12.7536 12.8946C12.7609 11.6509 12.8769 10.4175 13.1016 9.19435C13.2345 8.47125 13.4701 7.78383 13.8083 7.13208ZM11.7281 24.2385C11.7384 24.2472 11.7658 24.232 11.7894 24.2045C11.813 24.1768 11.824 24.1473 11.8137 24.1387C11.8033 24.13 11.7759 24.1452 11.7523 24.1727C11.7287 24.2004 11.7178 24.2299 11.7281 24.2385Z"
            fill="#A54200" />
        <path
            d="M51.5405 11.4054C51.635 11.3939 51.7098 11.3697 51.7076 11.3512C51.7053 11.3327 51.6269 11.327 51.5324 11.3384C51.4379 11.3499 51.3631 11.3741 51.3654 11.3926C51.3676 11.4111 51.446 11.4168 51.5405 11.4054Z"
            fill="#010101" fill-opacity="0.106" />
        <path
            d="M52.7865 17.3084L52.7726 17.3089C52.7654 17.3089 52.7583 17.3025 52.7549 17.2929C52.5953 16.7889 52.4331 16.2859 52.2682 15.7839C52.244 15.71 52.1871 15.5244 52.0975 15.2272C52.0416 15.0412 51.9798 14.8571 51.9121 14.6748C52.0978 13.9542 52.2985 13.2378 52.5143 12.5257C52.5303 12.4729 52.5408 12.4729 52.5459 12.5257C52.5877 12.9651 52.6282 13.4047 52.6672 13.8446C52.6922 14.1284 52.708 14.4086 52.7144 14.6853C52.7212 14.9873 52.7265 15.2894 52.7304 15.5917C52.7341 15.851 52.7425 16.1318 52.7557 16.4341C52.7687 16.7254 52.7789 17.0168 52.7865 17.3084Z"
            fill="#FADDB5" />
        <path
            d="M37.083 12.6653C37.0743 12.6858 37.0455 12.689 36.9966 12.675C36.9728 12.6682 36.9725 12.6608 36.9958 12.6526C37.095 12.6175 37.1933 12.5919 37.2908 12.5759C37.3804 12.5616 37.4097 12.5747 37.3788 12.6151C37.3713 12.6248 37.3582 12.6311 37.3434 12.6316C37.2552 12.6338 37.1684 12.645 37.083 12.6653Z"
            fill="#010101" fill-opacity="0.106" />
        <path
            d="M51.9129 14.6748C51.9806 14.8571 52.0424 15.0413 52.0983 15.2272C52.1879 15.5245 52.2448 15.71 52.269 15.7839C52.4339 16.2859 52.5961 16.7889 52.7557 17.2929C52.759 17.3026 52.7662 17.3089 52.7734 17.3089L52.7873 17.3085C52.7954 17.3265 52.7995 17.351 52.7995 17.3822C52.8001 18.1174 52.8621 18.8619 52.9858 19.6156C52.988 19.6296 52.9836 19.6322 52.9727 19.6232C52.2825 19.047 51.5393 18.5499 50.7431 18.1319C50.5906 18.0515 50.4302 17.9783 50.2619 17.9123C50.2514 17.9081 50.2484 17.8942 50.2568 17.8862C50.3996 17.7474 50.5223 17.5992 50.6251 17.4416C51.1867 16.5814 51.616 15.6592 51.9129 14.6748Z"
            fill="#DD6B1F" />
        <path
            d="M43.6665 19.8141C43.9202 19.7862 44.1836 19.7938 44.4566 19.8368C45.5705 20.0127 46.6365 20.3147 47.6546 20.7428C48.2644 20.9996 48.8326 21.3282 49.3591 21.7288C49.4481 21.7968 49.7059 22.0027 50.1323 22.3466C50.6588 22.7716 51.1081 23.186 51.4803 23.5897C51.6837 23.8102 51.8728 24.0424 52.0475 24.2862C52.7411 25.2532 53.3547 26.2685 53.8881 27.332C54.1845 27.9228 54.4461 28.5541 54.6728 29.2258C55.0498 30.3441 55.2367 31.4845 55.2336 32.647C55.2334 32.7074 55.2374 32.7495 55.2459 32.7734C54.9891 33.1802 54.6927 33.5533 54.3567 33.8926C54.2196 34.0311 54.0164 34.225 53.747 34.4741C53.3385 34.8517 52.9272 35.1759 52.5132 35.4467C52.0791 35.7304 51.599 35.9403 51.0729 36.0763C50.8029 36.1459 50.5259 36.1879 50.2419 36.2022C49.7362 36.2278 49.2339 36.1858 48.735 36.0763C48.2434 35.9681 47.747 35.8021 47.2458 35.5782C46.8795 35.4147 46.5738 35.2673 46.3289 35.1361C45.5895 34.7398 44.8665 34.3157 44.16 33.864C43.9324 33.7184 43.7011 33.559 43.466 33.3857C43.0581 33.0848 42.3918 32.5884 41.4673 31.8965C41.1794 31.6808 40.9497 31.4639 40.7784 31.2459C40.7758 31.181 40.7694 31.1283 40.759 31.0879C40.5744 30.3656 40.4585 29.867 40.4113 29.5919C40.361 29.2989 40.3365 28.9232 40.3376 28.4647C40.3379 28.3198 40.2832 28.2136 40.1737 28.1462C40.0751 28.0858 39.9698 28.0704 39.858 28.1002C39.737 28.1325 39.6473 28.2148 39.5892 28.3472C39.5372 28.466 39.4847 28.6351 39.4316 28.8545C39.369 29.1144 39.1359 29.8981 38.7325 31.2059C38.6134 31.5918 38.4909 31.9204 38.3651 32.1915C38.1367 32.6823 37.9081 33.1729 37.6795 33.6634C37.4567 34.1407 37.3384 34.3955 37.3247 34.4278C37.0184 35.1439 36.8288 35.8987 36.7558 36.6923C36.6634 37.6966 36.9536 38.5185 37.6264 39.1579C37.8309 39.3523 38.0586 39.5149 38.3094 39.6458C38.6791 39.8385 39.0733 39.9571 39.4919 40.0015C39.6219 40.0155 39.8419 40.0258 40.1517 40.0322C40.4116 40.0376 40.6316 40.0339 40.8116 40.0213C41.5019 39.973 42.4992 39.8846 43.8035 39.7562C43.9369 39.8689 44.0598 39.9918 44.1722 40.1249C44.1469 40.1272 44.1407 40.1374 44.1537 40.1557C44.2236 40.2535 44.3153 40.3479 44.4288 40.4389C44.7238 40.6763 45.0009 40.933 45.2602 41.2092C45.5698 41.539 45.8915 41.8564 46.2252 42.1615C46.3912 42.3132 46.4997 42.4259 46.5505 42.4995C46.7477 42.7863 46.9711 43.0511 47.2205 43.2938C47.5599 43.6242 47.9174 43.9327 48.293 44.2196C48.6615 44.5013 48.8464 44.6426 48.8475 44.6435C49.4282 45.1093 49.9806 45.6064 50.5048 46.1348C50.7445 46.3761 50.9332 46.5837 51.0712 46.7576C51.4066 47.1801 51.6669 47.6245 51.852 48.0909C52.0647 48.626 52.1244 49.2019 52.0311 49.8186C52.0103 49.9559 51.9717 50.1696 51.9152 50.4595C51.659 50.3949 51.4409 50.2659 51.2608 50.0727C50.8711 49.6546 50.4783 49.2398 50.0822 48.8283C49.8622 48.6002 49.6255 48.3924 49.3721 48.2051C49.1822 48.0649 48.9867 47.9459 48.7856 47.8481C48.5735 47.7453 48.3595 47.6612 48.1438 47.5957C47.8747 47.5143 47.5687 47.4394 47.226 47.3711C46.2672 47.1801 45.6979 47.0697 45.5181 47.0399C44.9703 46.9492 44.5085 46.8492 44.1326 46.7399C42.9923 46.4078 41.9766 45.8503 41.0855 45.0674C40.8482 44.8584 40.608 44.6528 40.365 44.4505C40.1076 44.2361 39.8194 44.0499 39.5003 43.8917C39.4267 43.8552 39.359 43.8641 39.2972 43.9183C39.1778 44.0228 39.1167 44.1706 39.1139 44.3616C39.1018 44.3807 39.0875 44.3876 39.0709 44.3822C39.0481 44.3752 39.0351 44.3717 39.0317 44.3717C38.7171 44.3638 38.4041 44.3831 38.0928 44.4294C37.9917 44.4446 37.8934 44.4703 37.7979 44.5065C37.6268 44.5709 37.5116 44.69 37.4523 44.8639C37.4419 44.8945 37.431 44.925 37.4195 44.9553C37.4158 44.9646 37.4139 44.9781 37.4136 44.9958C37.413 45.0225 37.398 45.0358 37.3685 45.0358C37.2876 44.7636 37.1992 44.5178 37.1034 44.2984C36.7051 43.3868 36.181 42.594 35.5312 41.9201C35.4947 41.8821 35.4673 41.8465 35.4491 41.813C35.4159 41.7518 35.3933 41.7148 35.3812 41.7022C35.318 41.6367 35.2478 41.5807 35.1705 41.5341C35.0674 41.472 34.9941 41.4225 34.9506 41.3857C33.9845 40.5708 32.9019 39.973 31.7029 39.5923C31.497 39.5269 31.2258 39.4541 30.8892 39.374C30.3852 39.2535 29.8794 39.1413 29.3718 39.0373C28.9058 38.9418 28.4351 38.8838 27.9597 38.8633C27.8114 38.8569 27.6603 38.8812 27.5063 38.9362C27.46 38.9528 27.4518 38.9754 27.4819 39.0041C27.4912 39.0129 27.5046 39.0175 27.5194 39.0171C27.8908 39.0059 28.2551 39.0521 28.6125 39.1558C28.6026 39.1723 28.6097 39.1869 28.6335 39.1996C28.7878 39.2819 28.9497 39.3856 29.1194 39.5106C29.2894 39.6361 29.3756 39.6998 29.3781 39.7015C29.8596 40.0459 30.3385 40.3944 30.8146 40.7469C31.2891 41.0981 31.699 41.4681 32.0442 41.8569C32.3769 42.2319 32.6942 42.6561 32.9962 43.1294C33.1959 43.4427 33.297 43.6011 33.2996 43.6048C33.4279 43.8023 33.5549 44.0007 33.6805 44.2002C34.2766 45.1475 34.7095 46.1647 34.9792 47.2519C35.1247 47.8384 35.1974 48.4342 35.1971 49.039C35.1968 49.4851 35.1985 49.9311 35.2021 50.3769C35.2055 50.7598 35.1896 51.0934 35.1545 51.3777C35.0773 52.0036 35.0281 52.4355 35.007 52.6735C35.0059 52.6867 35.0135 52.6972 35.0298 52.7051C34.907 52.836 34.7786 52.9613 34.6446 53.0809C34.5345 53.1795 34.3779 53.279 34.1748 53.3793C34.0068 53.4622 33.9014 53.591 33.8587 53.7657C33.855 53.7821 33.8398 53.7931 33.8229 53.7918C33.4159 53.7559 33.0161 53.707 32.6237 53.6452C32.4933 53.6247 32.3957 53.6134 32.3308 53.6115C32.3173 53.611 32.3042 53.6169 32.2967 53.6275C32.268 53.6671 32.276 53.6967 32.3207 53.7164C32.8103 53.9319 33.2703 54.0934 33.7007 54.201C33.9266 54.2575 34.0987 54.3101 34.2169 54.359C34.2574 54.3759 34.3391 54.3881 34.4622 54.3957C34.5566 54.4013 34.6385 54.4099 34.7078 54.4214C35.368 54.5298 36.0296 54.6284 36.6926 54.7172C36.7018 54.7183 36.7264 54.7283 36.7663 54.7471C36.7295 54.7651 36.7149 54.7912 36.7225 54.8255C36.727 54.8463 36.7423 54.8665 36.7684 54.8862C36.9131 54.9952 37.0669 55.0688 37.2298 55.107C37.6223 55.1988 38.0367 55.2401 38.4729 55.2309C38.6064 55.228 38.7374 55.2448 38.8661 55.281C39.2024 55.3757 39.5454 55.4232 39.8951 55.4234C40.1232 55.4237 40.3512 55.426 40.579 55.4302C40.5821 55.4302 40.6879 55.4307 40.8963 55.4319C41.1941 55.4335 41.4899 55.4605 41.7838 55.5128C41.9585 55.5439 42.1257 55.5983 42.2852 55.6758C42.4515 55.7565 42.581 55.8662 42.6738 56.0049C42.762 56.1373 42.8506 56.2458 42.9396 56.3307C42.6545 56.7664 42.2682 57.0397 41.7808 57.1507C41.1176 57.3016 40.4151 57.353 39.6735 57.3049C38.0197 57.1979 36.3656 57.1847 34.7112 57.2653C34.4168 57.2796 34.1362 57.2864 33.8693 57.2855C33.3203 57.2844 32.8744 57.2886 32.5314 57.2982C31.7948 57.319 31.11 57.3205 30.4771 57.3028C29.9689 57.2885 29.688 57.2808 29.6343 57.2796C28.9601 57.2673 28.2859 57.2553 27.6117 57.2438C27.5167 57.2233 27.4211 57.2058 27.3247 57.1912C27.2171 57.1751 27.1222 57.1549 27.0398 57.1305C25.8645 56.7816 25.0551 56.5276 24.6118 56.3686C24.2466 56.2374 23.8911 56.0837 23.5453 55.9076C22.866 55.5618 22.2164 55.1681 21.5964 54.7265C21.3871 54.5776 21.1656 54.4052 20.9318 54.2094C20.5596 53.8981 20.2517 53.6241 20.0081 53.3873C19.6362 53.0257 19.2377 52.5779 18.8127 52.0439C18.2708 51.3632 17.8415 50.6207 17.5249 49.8164C17.4715 49.681 17.3743 49.4177 17.2333 49.0263C16.7083 47.5697 16.3463 46.0734 16.1474 44.5373C16.1117 44.262 16.079 43.983 16.0492 43.7004C15.9925 43.1602 15.9555 42.6186 15.9384 42.0756C15.9224 41.569 15.9349 41.0632 15.9759 40.5581C16.0138 40.0879 16.0929 39.642 16.2131 39.2206C16.3516 38.7346 16.5316 38.2384 16.7529 37.7319C16.89 37.4175 17.0244 37.1019 17.1562 36.785C17.3349 36.3555 17.4814 36.0515 17.5957 35.8731C17.8426 35.488 18.02 35.2159 18.1279 35.0569C18.6659 34.263 19.3251 33.5874 20.1055 33.03C20.6187 32.6634 21.1816 32.3664 21.794 32.1388C22.455 31.893 23.0479 31.6805 23.5727 31.5012C23.814 31.4189 23.9433 31.3755 23.9608 31.371C24.0799 31.3404 24.2153 31.3198 24.367 31.3091C25.6789 31.2169 27.0177 30.9738 28.3832 30.5797C28.499 30.5462 28.6729 30.4971 28.9049 30.4322C29.4342 30.2839 29.9299 30.0744 30.392 29.8039C30.5869 29.6898 30.8183 29.5306 31.086 29.326C31.7838 28.7934 32.4017 28.2526 32.9397 27.7037C33.5684 27.0621 34.06 26.5353 34.4146 26.1235C34.7618 25.7201 35.0857 25.3809 35.3863 25.1058C35.5307 25.0693 35.6756 25.035 35.8211 25.003C36.0077 24.962 36.1518 24.9252 36.2535 24.8926C36.8766 24.6948 37.4508 24.4042 37.9761 24.0208C38.2413 23.8275 38.4455 23.6639 38.5888 23.5299C38.7818 23.3495 38.9501 23.1464 39.0936 22.9205C39.1012 22.9084 39.1078 22.9087 39.1134 22.9214C39.2087 23.1352 39.3122 23.3444 39.424 23.5492C39.5698 23.8167 39.6815 24.0213 39.759 24.1632C39.9708 24.5498 40.2119 24.9175 40.4821 25.2664C40.4841 25.2689 40.5311 25.3265 40.6233 25.4392C40.7146 25.551 40.7887 25.6597 40.8458 25.7653C40.9084 25.8811 40.9816 25.9143 41.0653 25.8652C41.1072 25.8407 41.1511 25.7926 41.1972 25.7206C41.343 25.4914 41.4076 25.2332 41.391 24.9461C41.3697 24.579 41.2906 24.2326 41.1538 23.907C40.833 23.1434 40.3581 22.0492 39.7291 20.6244C39.5445 20.2061 39.4034 19.7622 39.3056 19.2928C39.2536 19.0433 39.2209 18.7649 39.2074 18.4576C39.1906 18.0792 39.1845 17.6575 39.1893 17.1926C39.1972 16.4052 39.1762 15.6217 39.1265 14.8421C39.1251 14.8168 39.1317 14.8146 39.1463 14.8354C39.4615 15.2874 39.7769 15.7378 40.0923 16.1868C40.2185 16.366 40.3776 16.5975 40.5698 16.8812C40.8678 17.3211 41.1556 17.7304 41.4332 18.1091C41.5728 18.2996 41.6989 18.476 41.8116 18.6384C41.9507 18.839 42.0657 19.0223 42.1567 19.1883C42.3907 19.615 42.5791 20.0628 42.7218 20.5317C42.7327 20.5675 42.7757 20.5814 42.8052 20.5591C43.0142 20.4023 43.2057 20.2309 43.3796 20.045C43.449 19.9705 43.5446 19.8936 43.6665 19.8141ZM41.5887 23.1683C41.7533 23.2385 41.8706 23.2116 41.9405 23.0874C41.97 23.0351 41.9872 22.9656 41.9919 22.8788C41.9964 22.8016 41.9928 22.7287 41.981 22.6601C41.9192 22.3025 41.8414 21.9296 41.7475 21.5413C41.6815 21.2691 41.6009 21.0003 41.5057 20.7348C41.4189 20.4926 41.3276 20.2523 41.2318 20.0138C41.1365 19.7761 41.0287 19.5434 40.9081 19.3156C40.7359 18.9905 40.5556 18.6698 40.3671 18.3535C40.2648 18.1824 40.1477 18.0223 40.0156 17.8731C39.9328 17.7796 39.8353 17.7116 39.7232 17.6692C39.6975 17.6595 39.6705 17.6806 39.6739 17.708C39.6792 17.7515 39.6905 17.7931 39.7076 17.8327C39.8528 18.1709 40.0043 18.5062 40.1619 18.8385C40.3074 19.1448 40.4202 19.4018 40.5002 19.6097C40.6525 20.0047 40.7945 20.4032 40.9263 20.8052C41.0136 21.0723 41.09 21.3424 41.1555 21.6155C41.2434 21.9821 41.3228 22.3505 41.3936 22.7208C41.4116 22.8143 41.4339 22.9069 41.4606 22.9985C41.4859 23.0861 41.5286 23.1427 41.5887 23.1683ZM46.5716 25.6735C46.8767 25.6867 47.1663 25.7594 47.4405 25.8917C47.5304 25.935 47.6576 25.9785 47.8223 26.0224C47.9596 26.0589 48.0695 26.0639 48.1518 26.0375C48.2833 25.9954 48.3336 25.9021 48.3027 25.7577C48.2872 25.6858 48.247 25.6006 48.1821 25.5019C47.9804 25.1969 47.723 24.9585 47.4097 24.7869C47.1962 24.6694 46.9546 24.587 46.6849 24.5395C46.4226 24.4931 46.1644 24.4847 45.9104 24.5142C45.2994 24.585 44.841 24.8668 44.535 25.3595C44.442 25.5093 44.3561 25.7051 44.2771 25.9469C44.2106 26.1509 44.1556 26.3583 44.1124 26.5693C44.0947 26.6553 44.068 26.7383 44.0323 26.8184C43.9663 26.967 43.9313 27.1225 43.9274 27.2848C43.926 27.3354 43.9367 27.3923 43.9594 27.4555C43.9765 27.5035 44.0101 27.5231 44.0601 27.5141C44.134 27.5009 44.2037 27.4674 44.2691 27.4138C44.3967 27.3084 44.5072 27.1871 44.6008 27.0497C44.7213 26.873 44.8419 26.6963 44.9627 26.5196C45.1316 26.2729 45.2656 26.1073 45.3647 26.0228C45.5839 25.8362 45.8464 25.725 46.1523 25.689C46.2916 25.6728 46.4314 25.6676 46.5716 25.6735Z"
            fill="#DD6B1F" />
        <path
            d="M41.5869 23.1683C41.5268 23.1427 41.4841 23.0861 41.4588 22.9984C41.4322 22.9069 41.4098 22.8143 41.3918 22.7207C41.3211 22.3505 41.2417 21.982 41.1538 21.6154C41.0883 21.3424 41.0119 21.0723 40.9245 20.8051C40.7928 20.4031 40.6508 20.0046 40.4985 19.6096C40.4184 19.4017 40.3056 19.1447 40.1601 18.8385C40.0025 18.5062 39.8511 18.1709 39.7059 17.8326C39.6887 17.793 39.6775 17.7515 39.6722 17.7079C39.6688 17.6805 39.6958 17.6595 39.7215 17.6691C39.8336 17.7116 39.931 17.7795 40.0139 17.8731C40.1459 18.0223 40.2631 18.1824 40.3653 18.3535C40.5538 18.6698 40.7342 18.9905 40.9064 19.3155C41.0269 19.5433 41.1348 19.7761 41.23 20.0137C41.3258 20.2523 41.4171 20.4926 41.5039 20.7347C41.5992 21.0002 41.6798 21.2691 41.7458 21.5413C41.8396 21.9295 41.9175 22.3024 41.9793 22.6601C41.9911 22.7286 41.9947 22.8015 41.9902 22.8788C41.9854 22.9656 41.9683 23.0351 41.9388 23.0873C41.8689 23.2115 41.7516 23.2385 41.5869 23.1683Z"
            fill="#460300" />
        <path
            d="M55.2453 32.7733C55.2369 32.7494 55.2328 32.7073 55.2331 32.6469C55.2362 31.4844 55.0492 30.344 54.6722 29.2257C54.4455 28.554 54.184 27.9227 53.8876 27.3319C53.3541 26.2684 52.7406 25.2531 52.047 24.2862C51.8723 24.0423 51.6832 23.8101 51.4798 23.5896C51.1076 23.1859 50.6582 22.7715 50.1318 22.3465C49.7053 22.0027 49.4476 21.7967 49.3585 21.7288C48.8321 21.3282 48.2639 20.9995 47.654 20.7427C46.636 20.3146 45.57 20.0126 44.4561 19.8367C44.1831 19.7937 43.9197 19.7862 43.666 19.814C43.877 19.68 44.0989 19.571 44.3318 19.487C44.3689 19.4738 44.6029 19.3978 45.0338 19.259C45.9898 18.9517 46.9912 18.8493 48.0379 18.9518C48.4832 18.9954 48.8784 19.0822 49.2237 19.2122C49.8488 19.4474 50.4363 19.754 50.9864 20.1321C51.2541 20.3158 51.5168 20.5064 51.7744 20.7039C52.153 20.9939 52.4997 21.318 52.8143 21.6765C53.1748 22.0878 53.5186 22.5124 53.8459 22.9504C54.4457 23.753 54.9189 24.6248 55.2656 25.5659C55.4998 26.2022 55.7066 26.8474 55.8858 27.5013C56.3938 29.3571 56.1803 31.1145 55.2453 32.7733Z"
            fill="#FADDB5" />
        <path
            d="M35.3851 25.1059C35.0845 25.3809 34.7606 25.7201 34.4134 26.1235C34.0589 26.5354 33.5672 27.0621 32.9385 27.7037C32.4006 28.2527 31.7827 28.7934 31.0848 29.3261C30.8171 29.5306 30.5858 29.6899 30.3908 29.8039C29.9287 30.0745 29.433 30.2839 28.9037 30.4322C28.6717 30.4971 28.4978 30.5463 28.3821 30.5797C27.0165 30.9738 25.6777 31.217 24.3658 31.3091C24.2141 31.3198 24.0787 31.3404 23.9596 31.3711C23.9422 31.3756 23.8128 31.419 23.5715 31.5013C23.0467 31.6805 22.4538 31.893 21.7928 32.1388C21.1804 32.3664 20.6176 32.6635 20.1043 33.0301C19.3239 33.5874 18.6647 34.2631 18.1267 35.0569C18.0189 35.216 17.8415 35.488 17.5945 35.8732C17.4802 36.0516 17.3337 36.3555 17.155 36.7851C17.0233 37.1019 16.8888 37.4176 16.7518 37.7319C16.5304 38.2384 16.3505 38.7347 16.212 39.2207C16.0917 39.6421 16.0126 40.0879 15.9747 40.5582C15.9337 41.0633 15.9212 41.5691 15.9372 42.0756C15.9543 42.6186 15.9913 43.1602 16.048 43.7005C16.0778 43.9831 16.1105 44.262 16.1462 44.5373C16.3451 46.0734 16.7071 47.5698 17.2321 49.0264C17.3732 49.4177 17.4704 49.6811 17.5237 49.8165C17.8403 50.6208 18.2696 51.3632 18.8115 52.0439C19.2365 52.578 19.635 53.0258 20.007 53.3873C20.2505 53.6241 20.5584 53.8982 20.9307 54.2094C21.1644 54.4052 21.3859 54.5776 21.5952 54.7265C22.2152 55.1681 22.8648 55.5618 23.5441 55.9076C23.8899 56.0838 24.2454 56.2374 24.6106 56.3686C25.0539 56.5276 25.8633 56.7816 27.0387 57.1305C27.121 57.1549 27.2159 57.1752 27.3235 57.1912C27.4199 57.2058 27.5155 57.2233 27.6105 57.2439C27.5841 57.2427 27.5588 57.2472 27.5346 57.2573C27.5203 57.2632 27.507 57.2656 27.4946 57.2645C27.364 57.2519 27.2331 57.2402 27.1019 57.2295C26.9771 57.2191 26.8457 57.2142 26.7075 57.2148C25.9619 57.217 25.2163 57.2123 24.4707 57.2005C24.3131 57.1979 24.0324 57.1978 23.6284 57.2C23.2199 57.2026 22.8117 57.1916 22.4038 57.1672C22.3336 57.1629 22.2764 57.1451 22.2323 57.1136C22.1877 57.0816 22.1412 57.0405 22.0928 56.9902C22.0302 56.9244 21.9197 56.8348 21.7612 56.7213C21.6438 56.6373 21.4523 56.523 21.1869 56.3783C20.9045 56.2244 20.7111 56.1141 20.6066 56.0475C20.1928 55.7837 19.7717 55.4624 19.3433 55.0834C18.5317 54.3654 17.7433 53.6227 16.978 52.8555C16.6491 52.5254 16.3398 52.1785 16.0501 51.8147C15.8827 51.6043 15.7178 51.3769 15.5554 51.1325C14.8953 50.1383 14.3532 49.0813 13.9293 47.9615C13.7091 47.3792 13.5107 46.7894 13.3343 46.1921C12.8587 44.5816 12.6304 42.9355 12.6495 41.2539C12.6611 40.2442 12.7187 39.3637 12.8223 38.6122C12.9063 38.0037 13.0073 37.4516 13.1253 36.9557C13.2427 36.4616 13.4159 35.9618 13.6449 35.4564C13.9227 34.8423 14.2172 34.2362 14.5285 33.6381C14.7895 33.1367 15.0994 32.6675 15.4581 32.2307C15.8387 31.7669 16.245 31.3268 16.6767 30.9105C17.1141 30.4885 17.608 30.0938 18.1583 29.7264C18.6275 29.4132 19.0447 29.1536 19.4099 28.9477C20.5296 28.3167 21.65 27.6869 22.7709 27.0582C23.3434 26.7368 23.9093 26.4042 24.4686 26.0603C24.6554 25.9451 25.0805 25.6982 25.7437 25.3195C26.8731 24.6748 27.9808 23.9684 29.0668 23.2004C29.0837 23.1881 29.1073 23.1924 29.1195 23.2096C29.2827 23.4389 29.4652 23.6382 29.6669 23.8076C30.2192 24.2719 30.7882 24.619 31.3739 24.8488C31.7627 25.0014 32.223 25.1043 32.7548 25.1577C33.4588 25.2288 34.1178 25.232 34.732 25.1674C35.0915 25.1298 35.3093 25.1092 35.3851 25.1059Z"
            fill="#A54200" />
        <path
            d="M11.7521 24.1726C11.7285 24.2002 11.7177 24.2297 11.7279 24.2385C11.7382 24.2472 11.7656 24.232 11.7893 24.2045C11.8129 24.1769 11.8237 24.1474 11.8135 24.1386C11.8032 24.1299 11.7758 24.1451 11.7521 24.1726Z"
            fill="#DD6B1F" />
        <path
            d="M46.5701 25.6735C46.4299 25.6676 46.2902 25.6728 46.1508 25.6891C45.8449 25.7251 45.5824 25.8363 45.3633 26.0228C45.2641 26.1074 45.1301 26.273 44.9613 26.5197C44.8405 26.6964 44.7198 26.8731 44.5993 27.0498C44.5057 27.1871 44.3952 27.3085 44.2677 27.4138C44.2022 27.4675 44.1325 27.5009 44.0586 27.5141C44.0086 27.5231 43.9751 27.5036 43.9579 27.4556C43.9352 27.3924 43.9245 27.3355 43.9259 27.2849C43.9298 27.1225 43.9648 26.967 44.0308 26.8184C44.0665 26.7384 44.0932 26.6553 44.1109 26.5694C44.1542 26.3584 44.2091 26.1509 44.2757 25.947C44.3546 25.7051 44.4406 25.5093 44.5335 25.3596C44.8395 24.8668 45.2979 24.5851 45.909 24.5143C46.1629 24.4848 46.4211 24.4932 46.6835 24.5396C46.9532 24.587 47.1947 24.6695 47.4083 24.7869C47.7215 24.9586 47.979 25.1969 48.1807 25.502C48.2456 25.6006 48.2857 25.6859 48.3012 25.7578C48.3321 25.9022 48.2818 25.9955 48.1503 26.0376C48.068 26.064 47.9582 26.0589 47.8208 26.0224C47.6562 25.9786 47.5289 25.9351 47.439 25.8918C47.1648 25.7595 46.8752 25.6867 46.5701 25.6735Z"
            fill="#460300" />
        <path
            d="M40.7776 31.2459C40.7529 31.2183 40.6876 31.1367 40.5816 31.001C40.5336 30.9395 40.4882 30.9288 40.4455 30.969C40.4231 30.9901 40.4078 31.0238 40.3996 31.0701C40.3533 31.3331 40.3877 31.5962 40.5028 31.8594C40.6495 32.1948 40.8159 32.4878 41.0022 32.7384C41.2466 33.0677 41.5181 33.3726 41.8167 33.6532C42.0448 33.8682 42.28 34.0748 42.5221 34.2731C42.6918 34.4124 42.9109 34.5883 43.1795 34.8007C43.8456 35.3274 44.5669 35.8237 45.3433 36.2894C45.9883 36.676 46.6286 36.9953 47.264 37.2473C48.2546 37.6403 49.2902 37.8123 50.3709 37.7635C50.3793 37.763 50.3865 37.7694 50.3869 37.7778C50.4043 38.0854 50.4892 38.3725 50.6414 38.6391C51.0207 39.3041 51.4915 39.9184 52.0539 40.4823C52.3087 40.7376 52.555 41.0181 52.7926 41.3238C53.0053 41.598 53.1702 41.8254 53.2873 42.006C53.5081 42.347 53.6857 42.7094 53.82 43.0932C53.8908 43.2957 53.9499 43.5264 53.9974 43.7851C54.0384 44.0104 54.0738 44.2465 54.1036 44.4934C54.1052 44.5081 54.1009 44.5102 54.0905 44.4998C53.5433 43.9461 52.9452 43.4848 52.2962 43.1159C51.6023 42.7212 51.0146 42.406 50.5331 42.1703C49.5977 41.7121 48.656 41.2672 47.7082 40.8354C47.4154 40.7022 47.1616 40.5816 46.9467 40.4734C46.3096 40.1534 45.6783 39.8219 45.053 39.4789C44.9603 39.4281 44.8672 39.3705 44.7736 39.3062C44.6834 39.2441 44.593 39.1824 44.5022 39.1212C44.3373 39.0099 44.1358 38.9412 43.8975 38.9151C43.722 38.896 43.6102 38.9627 43.5621 39.1153C43.5366 39.0897 43.5106 39.0861 43.4842 39.1043C43.4736 39.1115 43.4694 39.1258 43.4749 39.1376C43.487 39.164 43.5085 39.1817 43.5394 39.1907C43.5467 39.4166 43.6345 39.6051 43.8027 39.7562C42.4984 39.8846 41.5011 39.9729 40.8109 40.0213C40.6308 40.0339 40.4108 40.0376 40.151 40.0322C39.8411 40.0258 39.6212 40.0155 39.4911 40.0015C39.0725 39.9571 38.6784 39.8385 38.3087 39.6458C38.0578 39.5149 37.8301 39.3522 37.6256 39.1578C36.9528 38.5185 36.6626 37.6966 36.755 36.6923C36.8281 35.8987 37.0177 35.1438 37.3239 34.4278C37.3377 34.3955 37.4559 34.1407 37.6787 33.6634C37.9074 33.1729 38.1359 32.6822 38.3643 32.1915C38.4902 31.9204 38.6126 31.5918 38.7318 31.2058C39.1352 29.8981 39.3682 29.1143 39.4308 28.8545C39.4839 28.6351 39.5365 28.466 39.5884 28.3471C39.6466 28.2148 39.7362 28.1325 39.8573 28.1002C39.9691 28.0704 40.0743 28.0857 40.1729 28.1461C40.2825 28.2136 40.3371 28.3197 40.3368 28.4647C40.3357 28.9232 40.3603 29.2989 40.4106 29.5919C40.4578 29.8669 40.5736 30.3656 40.7582 31.0878C40.7686 31.1283 40.7751 31.181 40.7776 31.2459Z"
            fill="#A54200" />
        <path
            d="M43.5623 39.1154L43.5395 39.1908C43.5086 39.1818 43.4871 39.1641 43.4751 39.1377C43.4696 39.1259 43.4738 39.1116 43.4843 39.1044C43.5107 39.0862 43.5367 39.0898 43.5623 39.1154Z"
            fill="#FADDB5" />
        <path
            d="M28.6117 39.1558C29.1795 39.2721 29.8361 39.4306 30.5817 39.6315C30.968 39.7354 31.304 39.8503 31.5897 39.9762C32.4794 40.3678 33.3241 40.8666 34.1239 41.4726C34.5456 41.792 34.9226 42.1315 35.2549 42.491C35.8895 43.1785 36.3606 43.9644 36.6682 44.8487C36.9708 45.7179 37.1093 46.6091 37.0837 47.5224C37.0764 47.7896 37.049 48.069 37.0016 48.3606C36.79 49.6601 36.3348 50.8581 35.6358 51.9546C35.4802 52.1987 35.2779 52.4489 35.029 52.7051C35.0127 52.6972 35.0052 52.6867 35.0063 52.6735C35.0274 52.4355 35.0765 52.0036 35.1538 51.3777C35.1889 51.0934 35.2048 50.7598 35.2014 50.3769C35.1977 49.9311 35.196 49.4851 35.1963 49.039C35.1966 48.4342 35.124 47.8385 34.9785 47.2519C34.7088 46.1647 34.2759 45.1475 33.6798 44.2002C33.5542 44.0007 33.4272 43.8023 33.2988 43.6048C33.2963 43.6011 33.1952 43.4427 32.9954 43.1294C32.6934 42.6561 32.3761 42.2319 32.0435 41.8569C31.6982 41.4681 31.2884 41.0981 30.8139 40.7469C30.3377 40.3944 29.8589 40.0459 29.3774 39.7015C29.3749 39.6998 29.2886 39.6361 29.1187 39.5106C28.949 39.3856 28.787 39.2819 28.6328 39.1996C28.6089 39.1869 28.6019 39.1723 28.6117 39.1558Z"
            fill="#FADDB5" />
        <path
            d="M44.1716 40.125C44.3786 40.3528 44.6183 40.5632 44.8905 40.7562C45.47 41.167 46.0562 41.5386 46.6489 41.8712C46.8178 41.9659 47.0664 42.0965 47.3948 42.2631C48.1333 42.6376 48.8685 43.0189 49.6003 43.4072C49.604 43.4092 49.7478 43.4846 50.0318 43.6335C50.5119 43.8849 51.0104 44.1689 51.5273 44.4855C51.8487 44.6822 52.1472 44.8948 52.4228 45.1235C52.6453 45.3078 52.8453 45.5044 53.0228 45.7134C53.5094 46.2865 53.8563 46.914 54.0637 47.5958C54.1283 47.8082 54.1486 48.0715 54.1248 48.3859C54.0953 48.7783 54.002 49.176 53.845 49.5788C53.7593 49.7985 53.6381 49.9829 53.4813 50.1321C53.3302 50.2759 53.1453 50.3837 52.9268 50.4553C52.6014 50.5621 52.2641 50.5635 51.9146 50.4595C51.971 50.1696 52.0097 49.956 52.0305 49.8186C52.1237 49.202 52.064 48.6261 51.8514 48.0909C51.6662 47.6246 51.406 47.1802 51.0705 46.7576C50.9326 46.5837 50.7438 46.3761 50.5042 46.1348C49.98 45.6064 49.4275 45.1093 48.8469 44.6435C48.8458 44.6427 48.6609 44.5014 48.2923 44.2196C47.9167 43.9328 47.5593 43.6242 47.2199 43.2938C46.9704 43.0511 46.7471 42.7863 46.5499 42.4995C46.499 42.4259 46.3906 42.3133 46.2246 42.1616C45.8908 41.8565 45.5692 41.539 45.2596 41.2092C45.0003 40.9331 44.7232 40.6763 44.4282 40.4389C44.3147 40.3479 44.223 40.2535 44.153 40.1558C44.1401 40.1375 44.1463 40.1272 44.1716 40.125Z"
            fill="#FADDB5" />
        <path
            d="M0.0455492 42.6538C0.0413354 42.6765 0.0438635 42.7001 0.0531341 42.7212C0.0668994 42.7532 0.0650735 42.7649 0.0476562 42.7562C0.0396498 42.7515 0.0341717 42.7423 0.0337503 42.7313L0.02153 42.4347C0.0211086 42.4254 0.023637 42.4178 0.0278509 42.414C0.0340312 42.4087 0.038807 42.4146 0.0421781 42.4317C0.0570671 42.507 0.0581909 42.581 0.0455492 42.6538Z"
            fill="#010101" fill-opacity="0.106" />
        <path
            d="M39.1127 44.3616C39.104 44.5161 39.1222 44.6671 39.1675 44.8146C39.243 45.0607 39.3577 45.2869 39.5113 45.4934C40.235 46.466 41.1501 47.201 42.2567 47.6985C42.2752 47.707 42.2857 47.7272 42.282 47.7474C42.2084 48.132 42.1536 48.5063 42.1176 48.8704C42.1044 49.0025 42.0874 49.1339 42.0666 49.2648C42.0475 49.3845 42.0182 49.5133 41.9786 49.6513C41.8426 50.1243 41.7087 50.5304 41.577 50.8695C41.5048 51.0552 41.3911 51.265 41.2361 51.499C41.013 51.8361 40.7763 52.1633 40.526 52.4805C40.3943 52.6473 40.2962 52.7931 40.2319 52.9179C40.1167 53.1412 40.0206 53.3752 39.9437 53.6199C39.9323 53.6557 39.9028 53.6822 39.8666 53.6898C38.9462 53.8834 38.0248 54.0011 37.1023 54.043C36.8171 54.0559 36.5854 54.0564 36.407 54.0446C36.0342 54.0202 35.6513 53.9869 35.2583 53.9448C35.2375 53.9425 35.2347 53.9342 35.2498 53.9199C35.6184 53.5707 35.9274 53.1804 36.1769 52.7489C36.2811 52.5685 36.4079 52.3178 36.5574 51.9967C36.8369 51.3961 37.0923 50.7227 37.3235 49.9766C37.5544 49.2316 37.6904 48.5294 37.7314 47.87C37.7921 46.9011 37.6707 45.9564 37.3673 45.0358C37.3968 45.0358 37.4118 45.0225 37.4124 44.9958C37.4127 44.9781 37.4146 44.9646 37.4183 44.9553C37.4298 44.925 37.4408 44.8945 37.4512 44.8639C37.5104 44.69 37.6256 44.5709 37.7967 44.5065C37.8922 44.4703 37.9905 44.4446 38.0917 44.4294C38.4029 44.3831 38.7159 44.3638 39.0305 44.3717C39.0339 44.3717 39.047 44.3752 39.0697 44.3822C39.0863 44.3876 39.1006 44.3807 39.1127 44.3616Z"
            fill="#A54200" />
        <path
            d="M42.9378 56.3307C42.8488 56.2459 42.7602 56.1373 42.672 56.005C42.5792 55.8662 42.4497 55.7565 42.2834 55.6759C42.1239 55.5983 41.9567 55.544 41.782 55.5128C41.4881 55.4605 41.1923 55.4336 40.8945 55.4319C40.6861 55.4308 40.5803 55.4302 40.5772 55.4302C40.3494 55.426 40.1214 55.4237 39.8933 55.4235C39.5436 55.4232 39.2006 55.3757 38.8643 55.281C38.7356 55.2448 38.6046 55.2281 38.4711 55.2309C38.0349 55.2401 37.6205 55.1989 37.228 55.107C37.0651 55.0688 36.9113 54.9952 36.7666 54.8862C36.7405 54.8665 36.7252 54.8463 36.7207 54.8255C36.7131 54.7912 36.7277 54.7651 36.7645 54.7471C36.9041 54.7584 37.0025 54.7695 37.0595 54.7804C37.4297 54.8512 37.802 54.8853 38.1762 54.8828C38.4315 54.8811 38.7122 54.8672 39.0181 54.8411C39.485 54.8012 39.9446 54.7155 40.3969 54.584C40.6317 54.5158 40.8664 54.4472 41.101 54.3784C41.4308 54.2815 41.6686 54.2288 41.8144 54.2204C42.392 54.1872 42.8394 54.4423 43.1565 54.9856C43.3372 55.2952 43.3512 55.6087 43.1987 55.9262C43.1366 56.0551 43.0497 56.19 42.9378 56.3307Z"
            fill="#FADDB5" />
    </g>
    <defs>
        <clipPath id="clip0_3130_49">
            <rect width="57.9661" height="60" fill="white" />
        </clipPath>
    </defs>
</svg>