<svg width="16" height="14" viewBox="0 0 16 14" fill="none"
    xmlns="http://www.w3.org/2000/svg">
    <path d="M15.3731 10.6594C14.5192 11.1044 10.096 12.9231 9.15431 13.4141C8.21263 13.9051 7.68951 13.9003 6.94557 13.5447C6.20169 13.1891 1.49456 11.2877 0.646625 10.8824C0.222875 10.6799 0 10.5089 0 10.3474V8.73013C0 8.73013 6.12813 7.39607 7.11745 7.04112C8.10669 6.68619 8.44993 6.67339 9.29181 6.98174C10.1338 7.29026 15.1679 8.1985 16 8.50325L15.9996 10.0976C15.9997 10.2575 15.8077 10.4329 15.3731 10.6594Z" fill="#912626"/>
    <path d="M15.3728 9.05174C14.519 9.49663 10.0959 11.3154 9.15418 11.8062C8.21255 12.2973 7.68943 12.2925 6.94555 11.9369C6.20161 11.5815 1.49467 9.67982 0.646798 9.27475C-0.201076 8.86944 -0.218826 8.5905 0.614048 8.26438C1.44692 7.93813 6.12805 6.10157 7.11747 5.74662C8.10674 5.39182 8.44993 5.37889 9.29181 5.68738C10.1337 5.99576 14.5305 7.74582 15.3624 8.0505C16.1947 8.35557 16.2266 8.60674 15.3728 9.05174Z" fill="#C6302B"/>
    <path d="M15.3731 8.04265C14.5192 8.48778 10.096 10.3064 9.15431 10.7975C8.21263 11.2883 7.68951 11.2836 6.94557 10.928C6.20163 10.5725 1.49456 8.67097 0.646625 8.26566C0.222875 8.06313 0 7.89241 0 7.73083V6.11341C0 6.11341 6.12813 4.7794 7.11745 4.42445C8.10669 4.06952 8.44993 4.05664 9.29181 4.36508C10.1339 4.67351 15.168 5.58159 16 5.8864L15.9996 7.48096C15.9997 7.64078 15.8077 7.81615 15.3731 8.04265Z" fill="#912626"/>
    <path d="M15.3728 6.43479C14.519 6.87979 10.0959 8.6984 9.15418 9.18948C8.21255 9.68036 7.68943 9.67553 6.94555 9.31991C6.20161 8.96453 1.49467 7.06292 0.646798 6.6578C-0.201076 6.25259 -0.218826 5.9736 0.614048 5.64735C1.44692 5.32128 6.1281 3.48459 7.11747 3.12972C8.10674 2.77485 8.44993 2.76197 9.29181 3.0704C10.1337 3.37878 14.5305 5.12871 15.3624 5.43355C16.1947 5.73854 16.2266 5.98979 15.3728 6.43479Z" fill="#C6302B"/>
    <path d="M15.3731 5.32865C14.5192 5.77365 10.096 7.59239 9.15431 8.08353C8.21263 8.5744 7.68951 8.56957 6.94557 8.21396C6.20163 7.85852 1.49456 5.95691 0.646625 5.55176C0.222875 5.34908 0 5.17827 0 5.01691V3.3994C0 3.3994 6.12813 2.06546 7.11745 1.71059C8.10669 1.35558 8.44993 1.34284 9.29181 1.65121C10.1339 1.95965 15.168 2.86772 16 3.17253L15.9996 4.76701C15.9997 4.9267 15.8077 5.1021 15.3731 5.32865Z" fill="#912626"/>
    <path d="M15.3728 3.72109C14.519 4.16609 10.0958 5.98483 9.15413 6.4757C8.21252 6.96657 7.68938 6.96177 6.94552 6.60634C6.20163 6.25072 1.49464 4.34922 0.64683 3.94401C-0.201108 3.53889 -0.218795 3.25985 0.614018 2.93365C1.44689 2.60752 6.12807 0.771086 7.11745 0.416086C8.10671 0.0611492 8.44988 0.0483992 9.29176 0.356837C10.1337 0.665275 14.5304 2.41521 15.3624 2.72002C16.1946 3.02476 16.2266 3.27609 15.3728 3.72109Z" fill="#C6302B"/>
    <path d="M9.95536 2.14765L8.57975 2.29046L8.27182 3.03146L7.77444 2.20458L6.18601 2.06184L7.37124 1.6344L7.01562 0.978271L8.12531 1.41227L9.17144 1.06977L8.88869 1.74821L9.95536 2.14765ZM8.1897 5.74252L5.62238 4.67772L9.30112 4.11302L8.1897 5.74252ZM4.63031 2.55952C5.71626 2.55952 6.59657 2.90077 6.59657 3.32165C6.59657 3.74265 5.71626 4.08384 4.63031 4.08384C3.54438 4.08384 2.66406 3.74259 2.66406 3.32165C2.66406 2.90077 3.54438 2.55952 4.63031 2.55952Z" fill="white"/>
    <path d="M11.5801 2.3504L13.7573 3.21077L11.582 4.07033L11.5801 2.35034" fill="#621B1C"/>
    <path d="M9.17188 3.30315L11.5806 2.35034L11.5825 4.07029L11.3463 4.16266L9.17188 3.30315Z" fill="#9A2928"/>
</svg>
