<svg width="16" height="16" viewBox="0 0 16 16" fill="none"
    xmlns="http://www.w3.org/2000/svg">
    <path d="M5.8445 0.0107422C4.96514 0.0107422 4.24665 0.72924 4.24665 1.6086C4.24665 2.48795 4.96514 3.20645 5.8445 3.20645H7.44235V1.6086C7.44235 0.72924 6.73458 0.0107422 5.8445 0.0107422ZM5.8445 4.26811H1.59785C0.718498 4.26811 0 4.98661 0 5.86597C0 6.74532 0.718498 7.46382 1.59785 7.46382H5.85522C6.73458 7.46382 7.45308 6.74532 7.45308 5.86597C7.44235 4.98661 6.73458 4.26811 5.8445 4.26811Z" fill="#36C5F0"/>
    <path d="M15.957 5.86595C15.957 4.98659 15.2385 4.2681 14.3591 4.2681C13.4798 4.2681 12.7613 4.98659 12.7613 5.86595V7.4638H14.3591C15.2385 7.47453 15.957 6.75603 15.957 5.86595ZM11.6996 5.86595V1.59785C11.6996 0.718498 10.9811 0 10.1018 0C9.2224 0 8.50391 0.718498 8.50391 1.59785V5.86595C8.50391 6.7453 9.2224 7.4638 10.1018 7.4638C10.9918 7.47453 11.6996 6.75603 11.6996 5.86595Z" fill="#2EB67D"/>
    <path d="M10.1018 15.9999C10.9811 15.9999 11.6996 15.2814 11.6996 14.4021C11.6996 13.5227 10.9811 12.8042 10.1018 12.8042H8.50391V14.4021C8.50391 15.2814 9.2224 15.9999 10.1018 15.9999ZM10.1018 11.7318H14.3591C15.2385 11.7318 15.957 11.0133 15.957 10.134C15.957 9.25463 15.2385 8.53613 14.3591 8.53613H10.1018C9.2224 8.53613 8.50391 9.25463 8.50391 10.134C8.50391 11.0133 9.2224 11.7318 10.1018 11.7318Z" fill="#ECB22E"/>
    <path d="M0 10.134C0 11.0133 0.718498 11.7318 1.59785 11.7318C2.47721 11.7318 3.19571 11.0133 3.19571 10.134V8.53613H1.59785C0.707774 8.53613 0 9.25463 0 10.134ZM4.25737 10.134V14.4021C4.25737 15.2814 4.97587 15.9999 5.85522 15.9999C6.73458 15.9999 7.45308 15.2814 7.45308 14.4021V10.134C7.45308 9.25463 6.73458 8.53613 5.85522 8.53613C4.96514 8.53613 4.25737 9.25463 4.25737 10.134Z" fill="#E01E5A"/>
</svg>
