<svg width="38" height="60" viewBox="0 0 38 60" fill="none" xmlns="http://www.w3.org/2000/svg">
    <g clip-path="url(#clip0_3125_32)">
        <path
            d="M22.7828 26.2257C22.6731 26.307 22.5789 26.307 22.5002 26.2257C22.2176 25.9367 21.9408 25.7277 21.6699 25.5986C20.2015 24.898 18.7918 24.7767 17.4408 25.2348C16.175 25.6631 15.1782 26.4438 14.4505 27.5767C13.6402 28.8373 13.435 30.3025 13.835 31.9722C13.8415 32.0006 13.8995 32.1264 14.0092 32.3496C14.075 32.4851 14.0828 32.6348 14.0324 32.7986"
            stroke="#7535F5" stroke-width="2" />
        <path
            d="M22.7828 26.2257C22.6731 26.307 22.5789 26.307 22.5002 26.2257C22.2176 25.9367 21.9409 25.7276 21.6699 25.5986C20.2015 24.898 18.7918 24.7767 17.4409 25.2347C16.175 25.6631 15.1783 26.4438 14.4505 27.5767C13.6402 28.8373 13.435 30.3025 13.835 31.9722C13.8415 32.0005 13.8996 32.1264 14.0092 32.3496C14.075 32.4851 14.0828 32.6347 14.0325 32.7986C10.9821 29.0605 9.44279 24.8206 9.4144 20.0786C9.40666 18.7857 9.53118 17.5038 9.78795 16.2328C10.6357 12.0496 12.5963 8.49797 15.6699 5.57797C16.6247 4.67087 17.6428 3.88248 18.7241 3.21281C21.9757 1.20119 25.6538 0.178614 29.7583 0.145066C31.3092 0.132163 32.6041 0.548937 33.6428 1.39539C34.8402 2.36958 35.5131 3.6141 35.6615 5.12894C35.7957 6.49797 35.4421 7.74248 34.6009 8.86248C33.4705 10.3683 31.9841 11.1167 30.1415 11.1076C29.3776 11.1038 28.9931 11.1018 28.9879 11.1018C26.2099 11.2722 23.9705 12.4302 22.2699 14.576C21.1421 15.9993 20.5254 17.6889 20.4196 19.6451C20.2867 22.098 21.0744 24.2915 22.7828 26.2257Z"
            fill="#5E17EB" />
        <path
            d="M29.6931 27.7026C33.8513 27.7026 37.2221 24.3317 37.2221 20.1736C37.2221 16.0154 33.8513 12.6445 29.6931 12.6445C25.5349 12.6445 22.1641 16.0154 22.1641 20.1736C22.1641 24.3317 25.5349 27.7026 29.6931 27.7026Z"
            fill="#5E17EB" />
        <path
            d="M22.7828 26.2257C22.9867 26.5212 23.2028 26.8077 23.4312 27.0851C26.2996 30.569 27.8532 34.5244 28.0919 38.9515C28.1615 40.2367 28.0977 41.5231 27.9003 42.8109C27.2241 47.2457 25.3022 51.0225 22.1344 54.1412C21.1964 55.0651 20.1925 55.8728 19.1228 56.5644C16.2222 58.4406 12.9609 59.5212 9.33897 59.8064C8.48606 59.8735 7.68606 59.8702 6.93897 59.7967C6.0551 59.7102 5.29574 59.4935 4.6609 59.1464C3.80284 58.678 3.12413 58.0231 2.62477 57.1819C2.008 56.1406 1.7538 55.0431 1.86219 53.8896C1.96542 52.7825 2.36606 51.7896 3.06413 50.9109C3.88477 49.8786 4.9809 49.2348 6.35252 48.9793C6.59639 48.9341 7.20155 48.9102 8.168 48.9077C10.2777 48.8999 12.148 48.2386 13.779 46.9238C15.3828 45.6296 16.4132 44.0141 16.8699 42.0773C17.1757 40.778 17.2074 39.498 16.9648 38.2373C16.7119 36.9238 16.1693 35.7077 15.337 34.589C14.897 33.9967 14.4622 33.3999 14.0325 32.7986C14.0828 32.6348 14.0751 32.4851 14.0093 32.3496C13.8996 32.1264 13.8415 32.0006 13.8351 31.9722C13.4351 30.3025 13.6403 28.8373 14.4506 27.5767C15.1783 26.4438 16.1751 25.6631 17.4409 25.2348C18.7919 24.7767 20.2015 24.898 21.6699 25.5986C21.9409 25.7277 22.2177 25.9367 22.5003 26.2257C22.579 26.307 22.6732 26.307 22.7828 26.2257Z"
            fill="#8C52FF" />
        <path
            d="M7.61107 47.2026C11.7692 47.2026 15.1401 43.8317 15.1401 39.6736C15.1401 35.5154 11.7692 32.1445 7.61107 32.1445C3.4529 32.1445 0.0820312 35.5154 0.0820312 39.6736C0.0820312 43.8317 3.4529 47.2026 7.61107 47.2026Z"
            fill="#8C52FF" />
    </g>
    <defs>
        <clipPath id="clip0_3125_32">
            <rect width="37.3548" height="60" fill="white" />
        </clipPath>
    </defs>
</svg>