<svg width="52" height="60" viewBox="0 0 52 60" fill="none" xmlns="http://www.w3.org/2000/svg">
    <g clip-path="url(#clip0_2515_51)">
        <path
            d="M25.7169 15.7853L40.002 23.6963V20.5245L25.7169 12.6319C23.5922 13.8075 13.3238 19.4836 11.4318 20.5245C13.1891 21.4981 31.644 31.693 42.8615 37.8896V41.0491C41.3369 41.8941 25.7169 50.5215 25.7169 50.5215C21.443 48.1641 12.8401 43.4126 8.5723 41.0491V31.5767L25.7169 41.0491L28.5764 39.4693L5.71283 26.8436V42.635L25.7169 53.681C27.6885 52.5911 44.2576 43.4371 45.7149 42.6288V36.3159L17.1446 20.5245L25.7169 15.7853ZM5.71283 17.365V23.684L34.2831 39.4755L25.7108 44.2147L11.4257 36.3037V39.4755L25.7108 47.3681C27.8355 46.1925 38.1039 40.5164 39.9959 39.4755C38.2386 38.5019 19.7898 28.307 8.5723 22.1043V18.9448C10.0969 18.0998 25.7169 9.47239 25.7169 9.47239C29.9847 11.8359 38.5876 16.5874 42.8615 18.9448V28.4172L25.7169 18.9448L22.8574 20.5245L45.7149 33.1564V17.365L25.7169 6.31289C23.7392 7.40892 7.17624 16.5629 5.71283 17.365ZM25.7169 0L0 14.2117V45.7883L25.7169 60L51.4338 45.7945V14.2117L25.7169 0ZM48.5682 44.2086L25.7169 56.8405L2.85948 44.2086V15.7914L25.7169 3.15951L48.5743 15.7914L48.5682 44.2086Z"
            fill="url(#paint0_linear_2515_51)" />
    </g>
    <defs>
        <linearGradient id="paint0_linear_2515_51" x1="12.4511" y1="7.02299" x2="38.9853"
            y2="52.9816" gradientUnits="userSpaceOnUse">
            <stop stop-color="#FF00A0" />
            <stop offset="1" stop-color="#9600FF" />
        </linearGradient>
        <clipPath id="clip0_2515_51">
            <rect width="51.4338" height="60" fill="white" />
        </clipPath>
    </defs>
</svg>