<svg width="16" height="15" viewBox="0 0 16 15" fill="none"
    xmlns="http://www.w3.org/2000/svg">
    <path d="M14.7349 9.85544C15.6249 6.32624 13.4811 2.19205 9.8379 0C11.4556 2.18766 12.1045 4.78304 11.5389 7.09784C11.4995 7.29951 11.4162 7.50557 11.3373 7.70723C10.6402 7.22498 7.40911 5.23461 3.52481 1.30208C3.40206 1.17932 5.62917 4.46739 8.09742 7.05839C6.92248 6.37009 3.64318 4.01583 1.57827 2.11313C1.8194 2.52085 2.14382 2.92419 2.46824 3.37137C4.20873 5.60287 6.43585 8.27716 9.1496 10.3465C7.2469 11.5214 4.57699 11.6047 1.86324 10.3465C1.17494 10.0615 0.609389 9.65815 0 9.21098C1.13548 10.9953 2.87596 12.578 4.98033 13.4679C7.49241 14.564 10.0615 14.5727 12.1439 13.3057C13.0339 12.8585 14.8138 12.3719 15.7871 14.2395C15.9888 14.7656 16.4754 12.3324 14.6516 10.1053C14.6955 10.0176 14.6955 9.93874 14.7349 9.85544Z" fill="url(#paint0_linear_2713_145)" />
    <defs>
        <linearGradient id="paint0_linear_2713_145" x1="8.00094" y1="0.00161708" x2="8.00094" y2="14.308" gradientUnits="userSpaceOnUse">
            <stop stop-color="#F88A36" />
            <stop offset="1" stop-color="#FD2020" />
        </linearGradient>
    </defs>
</svg>