<svg width="16" height="16" viewBox="0 0 16 16" fill="none"
    xmlns="http://www.w3.org/2000/svg">
    <g clip-path="url(#clip0_2715_38)">
        <path
            d="M8 16C12.4183 16 16 12.4183 16 8C16 3.58173 12.4183 0 8 0C3.58173 0 0 3.58173 0 8C0 12.4183 3.58173 16 8 16Z"
            fill="#34AADF" />
        <path
            d="M3.32987 7.93059C3.32987 7.93059 7.32987 6.28899 8.71713 5.71094C9.24894 5.47975 11.0524 4.73984 11.0524 4.73984C11.0524 4.73984 11.8848 4.41616 11.8154 5.20227C11.7923 5.52599 11.6073 6.65891 11.4224 7.88435C11.1449 9.61846 10.8443 11.5144 10.8443 11.5144C10.8443 11.5144 10.7981 12.0462 10.405 12.1387C10.012 12.2312 9.36453 11.815 9.24894 11.7225C9.15643 11.6532 7.51483 10.6127 6.91368 10.104C6.75182 9.96528 6.56686 9.68784 6.93678 9.36413C7.76917 8.60112 8.76337 7.65315 9.36453 7.052C9.642 6.77453 9.91944 6.12714 8.76337 6.91325C7.12177 8.04621 5.50328 9.10979 5.50328 9.10979C5.50328 9.10979 5.13333 9.34099 4.43969 9.1329C3.74603 8.92483 2.93678 8.64736 2.93678 8.64736C2.93678 8.64736 2.3819 8.30054 3.32987 7.93059V7.93059Z"
            fill="white" />
    </g>
    <defs>
        <clipPath id="clip0_2715_38">
            <rect width="16" height="16" fill="white" />
        </clipPath>
    </defs>
</svg>