<svg width="16" height="16" viewBox="0 0 16 16" fill="none"
    xmlns="http://www.w3.org/2000/svg">
    <g clip-path="url(#clip0_2719_37)">
        <path d="M8 0C3.58301 0 0 3.58301 0 8C0 12.417 3.58301 16 8 16C12.417 16 16 12.417 16 8C16 3.58301 12.417 0 8 0Z" fill="#368FB9"/>
        <path d="M12.7077 10.8788C12.2135 10.9961 11.9633 11.1042 11.3517 11.5027C10.3973 12.1205 9.35326 12.4077 9.35326 12.4077C9.35326 12.4077 9.26678 12.5375 9.01658 12.5961C8.58415 12.7012 6.95635 12.7907 6.80809 12.7938C6.40963 12.7969 6.16562 12.6919 6.09766 12.5282C5.89071 12.034 6.39419 11.8178 6.39419 11.8178C6.39419 11.8178 6.28299 11.7498 6.21813 11.688C6.15944 11.6293 6.09766 11.512 6.07913 11.5552C6.00191 11.7436 5.96176 12.2039 5.75481 12.4108C5.47064 12.6981 4.93318 12.6023 4.61504 12.4355C4.266 12.2502 4.63975 11.8147 4.63975 11.8147C4.63975 11.8147 4.45133 11.9259 4.29998 11.6973C4.16407 11.4873 4.03743 11.129 4.07141 10.6873C4.10847 10.1838 4.67064 9.69575 4.67064 9.69575C4.67064 9.69575 4.5718 8.95135 4.89612 8.18842C5.18956 7.49344 5.98029 6.93436 5.98029 6.93436C5.98029 6.93436 5.3162 6.19923 5.5633 5.53822C5.72392 5.10579 5.78878 5.10888 5.84129 5.09035C6.02662 5.01931 6.20577 4.94209 6.33859 4.79691C7.00268 4.08031 7.84902 4.21622 7.84902 4.21622C7.84902 4.21622 8.25056 2.99614 8.62122 3.23398C8.7355 3.30811 9.14631 4.22239 9.14631 4.22239C9.14631 4.22239 9.58492 3.96602 9.63434 4.06178C9.89998 4.57761 9.93087 5.56293 9.81349 6.16216C9.61581 7.15058 9.1216 7.68185 8.92392 8.01544C8.87759 8.09266 9.45519 8.33668 9.81967 9.34672C10.1564 10.2703 9.85674 11.0456 9.90925 11.132C9.91851 11.1475 9.9216 11.1537 9.9216 11.1537C9.9216 11.1537 10.3077 11.1846 11.083 10.7058C11.4969 10.4494 11.988 10.1622 12.5471 10.156C13.0876 10.1467 13.1154 10.7799 12.7077 10.8788ZM13.4428 10.4247C13.3872 9.9861 13.0166 9.6834 12.5409 9.68958C11.8305 9.69884 11.2343 10.0664 10.839 10.3104C10.6845 10.4062 10.5517 10.4772 10.4374 10.5297C10.4621 10.1714 10.4405 9.70193 10.2552 9.1861C10.0297 8.56834 9.72701 8.18842 9.51079 7.96911C9.76098 7.60463 10.1038 7.07336 10.2645 6.25174C10.4035 5.55058 10.3602 4.46023 10.0421 3.84865C9.9772 3.7251 9.86909 3.63552 9.73319 3.59846C9.67759 3.58301 9.57257 3.55212 9.36562 3.61081C9.05365 2.96525 8.94554 2.8973 8.86214 2.8417C8.68917 2.7305 8.48531 2.70579 8.2938 2.77683C8.03743 2.8695 7.81813 3.1166 7.61118 3.55521C7.58029 3.62008 7.55249 3.68185 7.52778 3.74363C7.1355 3.77143 6.51774 3.91351 5.99573 4.47876C5.93087 4.54981 5.80423 4.60232 5.67141 4.65174H5.6745C5.40268 4.74749 5.27913 4.96988 5.12778 5.37143C4.91774 5.93359 5.13396 6.48649 5.34708 6.84479C5.05674 7.10425 4.67064 7.51815 4.46678 8.00309C4.21349 8.60232 4.18569 9.18919 4.19496 9.50734C3.97874 9.73591 3.64515 10.1653 3.60809 10.6471C3.55867 11.3205 3.80268 11.7776 3.91079 11.9444C3.94168 11.9938 3.97566 12.034 4.01272 12.0741C4.00037 12.1575 3.99728 12.2471 4.01581 12.3398C4.05596 12.556 4.19187 12.732 4.39882 12.8432C4.80654 13.0595 5.37488 13.1521 5.81349 12.9328C5.97102 13.0996 6.25828 13.2602 6.78029 13.2602H6.81118C6.944 13.2602 8.63048 13.1707 9.1216 13.0502C9.34091 12.9977 9.49226 12.905 9.5911 12.8216C9.90616 12.7228 10.7772 12.4263 11.5988 11.895C12.1795 11.5181 12.3803 11.4378 12.8127 11.3328C13.2328 11.2309 13.4953 10.8479 13.4428 10.4247Z" fill="white"/>
    </g>
    <defs>
        <clipPath id="clip0_2719_37">
            <rect width="16" height="16" fill="white"/>
        </clipPath>
    </defs>
</svg>
