<svg width="501" height="274" viewBox="0 0 501 274" fill="none"
    xmlns="http://www.w3.org/2000/svg">
    <mask id="mask0_2809_5280" style="mask-type:alpha" maskUnits="userSpaceOnUse" x="0" y="0" width="501" height="274">
        <path d="M501 1H1V274H501V1Z" fill="white"/>
        <path d="M1 0H0V1H1V0Z" fill="white"/>
    </mask>
    <g mask="url(#mask0_2809_5280)">
        <path d="M493 1H9C4.58172 1 1 4.58172 1 9V266C1 270.418 4.58172 274 9 274H493C497.418 274 501 270.418 501 266V9C501 4.58172 497.418 1 493 1Z" fill="#181622"/>
        <path d="M493 1H9C4.58172 1 1 4.58172 1 9V49C1 53.4183 4.58172 57 9 57H493C497.418 57 501 53.4183 501 49V9C501 4.58172 497.418 1 493 1Z" fill="#181622"/>
        <mask id="mask1_2809_5280" style="mask-type:alpha" maskUnits="userSpaceOnUse" x="1" y="57" width="500" height="1">
            <path d="M501 57H1V58H501V57Z" fill="white"/>
        </mask>
        <g mask="url(#mask1_2809_5280)">
            <path d="M1 57H501" stroke="#211F2D" stroke-linecap="square"/>
        </g>
        <mask id="mask2_2809_5280" style="mask-type:alpha" maskUnits="userSpaceOnUse" x="1" y="58" width="500" height="216">
            <path d="M501 58H1V274H501V58Z" fill="white"/>
        </mask>
        <g mask="url(#mask2_2809_5280)">
            <mask id="mask3_2809_5280" style="mask-type:alpha" maskUnits="userSpaceOnUse" x="25" y="84" width="20" height="20">
                <path d="M45 84H25V104H45V84Z" fill="white"/>
            </mask>
            <g mask="url(#mask3_2809_5280)">
                <path fill-rule="evenodd" clip-rule="evenodd" d="M35 84C29.475 84 25 88.475 25 94C25 98.425 27.8625 102.163 31.8375 103.488C32.3375 103.575 32.525 103.275 32.525 103.013C32.525 102.775 32.5125 101.988 32.5125 101.15C30 101.613 29.35 100.538 29.15 99.975C29.0375 99.6875 28.55 98.8 28.125 98.5625C27.775 98.375 27.275 97.9125 28.1125 97.9C28.9 97.8875 29.4625 98.625 29.65 98.925C30.55 100.438 31.9875 100.013 32.5625 99.75C32.65 99.1 32.9125 98.6625 33.2 98.4125C30.975 98.1625 28.65 97.3 28.65 93.475C28.65 92.3875 29.0375 91.4875 29.675 90.7875C29.575 90.5375 29.225 89.5125 29.775 88.1375C29.775 88.1375 30.6125 87.875 32.525 89.1625C33.325 88.9375 34.175 88.825 35.025 88.825C35.875 88.825 36.725 88.9375 37.525 89.1625C39.4375 87.8625 40.275 88.1375 40.275 88.1375C40.825 89.5125 40.475 90.5375 40.375 90.7875C41.0125 91.4875 41.4 92.375 41.4 93.475C41.4 97.3125 39.0625 98.1625 36.8375 98.4125C37.2 98.725 37.5125 99.325 37.5125 100.263C37.5125 101.6 37.5 102.675 37.5 103.013C37.5 103.275 37.6875 103.588 38.1875 103.488C42.1375 102.163 45 98.4125 45 94C45 88.475 40.525 84 35 84Z" fill="#6C6B7B"/>
            </g>
            <path d="M66.3636 91.5996C66.2386 91.217 66.0739 90.8742 65.8693 90.5712C65.6686 90.2644 65.428 90.003 65.1477 89.7871C64.8712 89.5712 64.5568 89.4064 64.2045 89.2928C63.8523 89.1792 63.4659 89.1223 63.0455 89.1223C62.3561 89.1223 61.7292 89.3004 61.1648 89.6564C60.6004 90.0125 60.1515 90.5371 59.8182 91.2303C59.4848 91.9235 59.3182 92.7739 59.3182 93.7814C59.3182 94.789 59.4867 95.6394 59.8239 96.3326C60.161 97.0257 60.6174 97.5504 61.1932 97.9064C61.7689 98.2625 62.4167 98.4405 63.1364 98.4405C63.803 98.4405 64.3902 98.2985 64.8977 98.0144C65.4091 97.7265 65.8068 97.3212 66.0909 96.7985C66.3788 96.272 66.5227 95.6526 66.5227 94.9405L66.9545 95.0314H63.4545V93.7814H67.8864V95.0314C67.8864 95.9898 67.6818 96.8231 67.2727 97.5314C66.8674 98.2398 66.3068 98.789 65.5909 99.1792C64.8788 99.5655 64.0606 99.7587 63.1364 99.7587C62.1061 99.7587 61.2008 99.5163 60.4205 99.0314C59.6439 98.5466 59.0379 97.8572 58.6023 96.9632C58.1705 96.0693 57.9545 95.0087 57.9545 93.7814C57.9545 92.861 58.0777 92.0333 58.3239 91.2985C58.5739 90.5598 58.9261 89.931 59.3807 89.4121C59.8352 88.8932 60.3731 88.4954 60.9943 88.2189C61.6155 87.9424 62.2992 87.8042 63.0455 87.8042C63.6591 87.8042 64.2311 87.897 64.7614 88.0826C65.2955 88.2644 65.7708 88.5239 66.1875 88.861C66.608 89.1943 66.9583 89.5939 67.2386 90.0598C67.5189 90.522 67.7121 91.0352 67.8182 91.5996H66.3636ZM70.6648 99.5996V90.8723H72.0057V99.5996H70.6648ZM71.3466 89.4178C71.0852 89.4178 70.8598 89.3288 70.6705 89.1507C70.4848 88.9727 70.392 88.7587 70.392 88.5087C70.392 88.2587 70.4848 88.0447 70.6705 87.8667C70.8598 87.6886 71.0852 87.5996 71.3466 87.5996C71.608 87.5996 71.8314 87.6886 72.017 87.8667C72.2064 88.0447 72.3011 88.2587 72.3011 88.5087C72.3011 88.7587 72.2064 88.9727 72.017 89.1507C71.8314 89.3288 71.608 89.4178 71.3466 89.4178ZM78.2571 90.8723V92.0087H73.7344V90.8723H78.2571ZM75.0526 88.7814H76.3935V97.0996C76.3935 97.4784 76.4484 97.7625 76.5582 97.9519C76.6719 98.1375 76.8158 98.2625 76.9901 98.3269C77.1681 98.3875 77.3556 98.4178 77.5526 98.4178C77.7003 98.4178 77.8215 98.4102 77.9162 98.3951C78.0109 98.3761 78.0866 98.361 78.1435 98.3496L78.4162 99.5542C78.3253 99.5882 78.1984 99.6223 78.0355 99.6564C77.8726 99.6943 77.6662 99.7132 77.4162 99.7132C77.0374 99.7132 76.6662 99.6318 76.3026 99.4689C75.9427 99.306 75.6435 99.0579 75.4048 98.7246C75.17 98.3913 75.0526 97.9708 75.0526 97.4632V88.7814ZM80.6435 99.5996V87.9632H82.0526V93.1451H88.2571V87.9632H89.6662V99.5996H88.2571V94.3951H82.0526V99.5996H80.6435ZM97.8054 96.0314V90.8723H99.1463V99.5996H97.8054V98.1223H97.7145C97.5099 98.5655 97.1918 98.9424 96.7599 99.253C96.3281 99.5598 95.7827 99.7132 95.1236 99.7132C94.5781 99.7132 94.0933 99.5939 93.669 99.3553C93.2448 99.1129 92.9115 98.7492 92.669 98.2644C92.4266 97.7757 92.3054 97.1602 92.3054 96.4178V90.8723H93.6463V96.3269C93.6463 96.9632 93.8243 97.4708 94.1804 97.8496C94.5402 98.2284 94.9986 98.4178 95.5554 98.4178C95.8887 98.4178 96.2277 98.3326 96.5724 98.1621C96.9209 97.9917 97.2126 97.7303 97.4474 97.378C97.6861 97.0257 97.8054 96.5769 97.8054 96.0314ZM101.784 99.5996V87.9632H103.125V92.2587H103.239C103.337 92.1072 103.473 91.914 103.648 91.6792C103.826 91.4405 104.08 91.2284 104.409 91.0428C104.742 90.8534 105.193 90.7587 105.761 90.7587C106.496 90.7587 107.144 90.9424 107.705 91.3098C108.265 91.6773 108.703 92.1981 109.017 92.8723C109.331 93.5466 109.489 94.342 109.489 95.2587C109.489 96.1829 109.331 96.9841 109.017 97.6621C108.703 98.3364 108.267 98.8591 107.71 99.2303C107.153 99.5977 106.511 99.7814 105.784 99.7814C105.223 99.7814 104.775 99.6886 104.438 99.503C104.1 99.3136 103.841 99.0996 103.659 98.861C103.477 98.6185 103.337 98.4178 103.239 98.2587H103.08V99.5996H101.784ZM103.102 95.236C103.102 95.8951 103.199 96.4765 103.392 96.9803C103.585 97.4803 103.867 97.8723 104.239 98.1564C104.61 98.4367 105.064 98.5769 105.602 98.5769C106.163 98.5769 106.631 98.4292 107.006 98.1337C107.384 97.8345 107.669 97.4329 107.858 96.9292C108.051 96.4216 108.148 95.8572 108.148 95.236C108.148 94.6223 108.053 94.0693 107.864 93.5769C107.678 93.0807 107.396 92.6886 107.017 92.4007C106.642 92.1091 106.17 91.9632 105.602 91.9632C105.057 91.9632 104.598 92.1015 104.227 92.378C103.856 92.6507 103.576 93.0333 103.386 93.5257C103.197 94.0144 103.102 94.5845 103.102 95.236ZM116.222 99.5996V87.9632H120.153C121.063 87.9632 121.809 88.1185 122.392 88.4292C122.975 88.736 123.407 89.1583 123.688 89.6962C123.968 90.2341 124.108 90.8458 124.108 91.5314C124.108 92.217 123.968 92.825 123.688 93.3553C123.407 93.8856 122.977 94.3023 122.398 94.6053C121.818 94.9045 121.078 95.0542 120.176 95.0542H116.994V93.7814H120.131C120.752 93.7814 121.252 93.6905 121.631 93.5087C122.013 93.3269 122.29 93.0693 122.46 92.736C122.634 92.3989 122.722 91.9973 122.722 91.5314C122.722 91.0655 122.634 90.6583 122.46 90.3098C122.286 89.9614 122.008 89.6924 121.625 89.503C121.242 89.3098 120.737 89.2132 120.108 89.2132H117.631V99.5996H116.222ZM121.699 94.3723L124.562 99.5996H122.926L120.108 94.3723H121.699ZM129.839 99.7814C128.999 99.7814 128.273 99.5958 127.663 99.2246C127.057 98.8496 126.589 98.3269 126.26 97.6564C125.934 96.9822 125.771 96.1981 125.771 95.3042C125.771 94.4102 125.934 93.6223 126.26 92.9405C126.589 92.2549 127.048 91.7208 127.635 91.3382C128.226 90.9519 128.915 90.7587 129.703 90.7587C130.158 90.7587 130.607 90.8345 131.05 90.986C131.493 91.1375 131.896 91.3837 132.26 91.7246C132.624 92.0617 132.913 92.5087 133.129 93.0655C133.345 93.6223 133.453 94.3079 133.453 95.1223V95.6905H126.726V94.5314H132.089C132.089 94.039 131.991 93.5996 131.794 93.2132C131.601 92.8269 131.324 92.522 130.964 92.2985C130.608 92.075 130.188 91.9632 129.703 91.9632C129.169 91.9632 128.707 92.0958 128.317 92.361C127.93 92.6223 127.633 92.9632 127.425 93.3837C127.216 93.8042 127.112 94.2549 127.112 94.736V95.5087C127.112 96.1678 127.226 96.7265 127.453 97.1848C127.684 97.6394 128.004 97.986 128.413 98.2246C128.822 98.4595 129.298 98.5769 129.839 98.5769C130.192 98.5769 130.51 98.5276 130.794 98.4292C131.082 98.3269 131.33 98.1754 131.538 97.9746C131.747 97.7701 131.908 97.5163 132.021 97.2132L133.317 97.5769C133.18 98.0163 132.951 98.4026 132.629 98.736C132.307 99.0655 131.91 99.3231 131.436 99.5087C130.963 99.6905 130.43 99.7814 129.839 99.7814ZM135.493 102.872V90.8723H136.788V92.2587H136.947C137.046 92.1072 137.182 91.914 137.357 91.6792C137.535 91.4405 137.788 91.2284 138.118 91.0428C138.451 90.8534 138.902 90.7587 139.47 90.7587C140.205 90.7587 140.853 90.9424 141.413 91.3098C141.974 91.6773 142.411 92.1981 142.726 92.8723C143.04 93.5466 143.197 94.342 143.197 95.2587C143.197 96.1829 143.04 96.9841 142.726 97.6621C142.411 98.3364 141.976 98.8591 141.419 99.2303C140.862 99.5977 140.22 99.7814 139.493 99.7814C138.932 99.7814 138.483 99.6886 138.146 99.503C137.809 99.3136 137.55 99.0996 137.368 98.861C137.186 98.6185 137.046 98.4178 136.947 98.2587H136.834V102.872H135.493ZM136.811 95.236C136.811 95.8951 136.908 96.4765 137.101 96.9803C137.294 97.4803 137.576 97.8723 137.947 98.1564C138.319 98.4367 138.773 98.5769 139.311 98.5769C139.872 98.5769 140.339 98.4292 140.714 98.1337C141.093 97.8345 141.377 97.4329 141.567 96.9292C141.76 96.4216 141.857 95.8572 141.857 95.236C141.857 94.6223 141.762 94.0693 141.572 93.5769C141.387 93.0807 141.105 92.6886 140.726 92.4007C140.351 92.1091 139.879 91.9632 139.311 91.9632C138.766 91.9632 138.307 92.1015 137.936 92.378C137.565 92.6507 137.285 93.0333 137.095 93.5257C136.906 94.0144 136.811 94.5845 136.811 95.236ZM148.788 99.7814C148 99.7814 147.309 99.5939 146.714 99.2189C146.124 98.8439 145.661 98.3193 145.328 97.6451C144.999 96.9708 144.834 96.1829 144.834 95.2814C144.834 94.3723 144.999 93.5788 145.328 92.9007C145.661 92.2227 146.124 91.6962 146.714 91.3212C147.309 90.9462 148 90.7587 148.788 90.7587C149.576 90.7587 150.266 90.9462 150.857 91.3212C151.451 91.6962 151.913 92.2227 152.243 92.9007C152.576 93.5788 152.743 94.3723 152.743 95.2814C152.743 96.1829 152.576 96.9708 152.243 97.6451C151.913 98.3193 151.451 98.8439 150.857 99.2189C150.266 99.5939 149.576 99.7814 148.788 99.7814ZM148.788 98.5769C149.387 98.5769 149.879 98.4235 150.266 98.1167C150.652 97.8098 150.938 97.4064 151.124 96.9064C151.309 96.4064 151.402 95.8648 151.402 95.2814C151.402 94.6981 151.309 94.1545 151.124 93.6507C150.938 93.147 150.652 92.7398 150.266 92.4292C149.879 92.1185 149.387 91.9632 148.788 91.9632C148.19 91.9632 147.697 92.1185 147.311 92.4292C146.925 92.7398 146.639 93.147 146.453 93.6507C146.268 94.1545 146.175 94.6981 146.175 95.2814C146.175 95.8648 146.268 96.4064 146.453 96.9064C146.639 97.4064 146.925 97.8098 147.311 98.1167C147.697 98.4235 148.19 98.5769 148.788 98.5769Z" fill="#878593"/>
            <mask id="mask4_2809_5280" style="mask-type:alpha" maskUnits="userSpaceOnUse" x="457" y="84" width="20" height="20">
                <path d="M477 84H457V104H477V84Z" fill="white"/>
            </mask>
            <g mask="url(#mask4_2809_5280)">
                <path d="M464.5 99L469.5 94L464.5 89" stroke="#6C6B7B" stroke-width="1.66667" stroke-linecap="round" stroke-linejoin="round"/>
            </g>
            <mask id="mask5_2809_5280" style="mask-type:alpha" maskUnits="userSpaceOnUse" x="25" y="132" width="20" height="20">
                <path d="M45 132H25V152H45V132Z" fill="white"/>
            </mask>
            <g mask="url(#mask5_2809_5280)">
                <path d="M26.666 146.166L34.9993 150.333L43.3327 146.166M26.666 141.999L34.9993 146.166L43.3327 141.999M34.9993 133.666L26.666 137.833L34.9993 141.999L43.3327 137.833L34.9993 133.666Z" stroke="#6C6B7B" stroke-width="1.66667" stroke-linecap="round" stroke-linejoin="round"/>
            </g>
            <path d="M57.7727 137.213V135.963H66.5V137.213H62.8409V147.6H61.4318V137.213H57.7727ZM70.8864 147.781C70.0455 147.781 69.3201 147.596 68.7102 147.225C68.1042 146.85 67.6364 146.327 67.3068 145.656C66.9811 144.982 66.8182 144.198 66.8182 143.304C66.8182 142.41 66.9811 141.622 67.3068 140.941C67.6364 140.255 68.0947 139.721 68.6818 139.338C69.2727 138.952 69.9621 138.759 70.75 138.759C71.2045 138.759 71.6534 138.834 72.0966 138.986C72.5398 139.137 72.9432 139.384 73.3068 139.725C73.6705 140.062 73.9602 140.509 74.1761 141.066C74.392 141.622 74.5 142.308 74.5 143.122V143.691H67.7727V142.531H73.1364C73.1364 142.039 73.0379 141.6 72.8409 141.213C72.6477 140.827 72.3712 140.522 72.0114 140.298C71.6553 140.075 71.2348 139.963 70.75 139.963C70.2159 139.963 69.7538 140.096 69.3636 140.361C68.9773 140.622 68.6799 140.963 68.4716 141.384C68.2633 141.804 68.1591 142.255 68.1591 142.736V143.509C68.1591 144.168 68.2727 144.727 68.5 145.185C68.7311 145.639 69.0511 145.986 69.4602 146.225C69.8693 146.459 70.3447 146.577 70.8864 146.577C71.2386 146.577 71.5568 146.528 71.8409 146.429C72.1288 146.327 72.3769 146.175 72.5852 145.975C72.7936 145.77 72.9545 145.516 73.0682 145.213L74.3636 145.577C74.2273 146.016 73.9981 146.403 73.6761 146.736C73.3542 147.066 72.9564 147.323 72.483 147.509C72.0095 147.691 71.4773 147.781 70.8864 147.781ZM76.5398 147.6V138.872H77.8352V140.236H77.9489C78.1307 139.77 78.4242 139.408 78.8295 139.151C79.2348 138.889 79.7216 138.759 80.2898 138.759C80.8655 138.759 81.3447 138.889 81.7273 139.151C82.1136 139.408 82.4148 139.77 82.6307 140.236H82.7216C82.9451 139.785 83.2803 139.427 83.7273 139.162C84.1742 138.893 84.7102 138.759 85.3352 138.759C86.1155 138.759 86.7538 139.003 87.25 139.492C87.7462 139.977 87.9943 140.732 87.9943 141.759V147.6H86.6534V141.759C86.6534 141.115 86.4773 140.655 86.125 140.378C85.7727 140.102 85.358 139.963 84.8807 139.963C84.267 139.963 83.7917 140.149 83.4545 140.52C83.1174 140.887 82.9489 141.353 82.9489 141.918V147.6H81.5852V141.622C81.5852 141.126 81.4242 140.727 81.1023 140.423C80.7803 140.117 80.3655 139.963 79.858 139.963C79.5095 139.963 79.1837 140.056 78.8807 140.242C78.5814 140.427 78.339 140.685 78.1534 141.014C77.9716 141.34 77.8807 141.717 77.8807 142.145V147.6H76.5398ZM90.446 150.872V138.872H91.7415V140.259H91.9006C91.9991 140.107 92.1354 139.914 92.3097 139.679C92.4877 139.441 92.7415 139.228 93.071 139.043C93.4044 138.853 93.8551 138.759 94.4233 138.759C95.1581 138.759 95.8059 138.942 96.3665 139.31C96.9271 139.677 97.3646 140.198 97.679 140.872C97.9934 141.547 98.1506 142.342 98.1506 143.259C98.1506 144.183 97.9934 144.984 97.679 145.662C97.3646 146.336 96.929 146.859 96.3722 147.23C95.8153 147.598 95.1733 147.781 94.446 147.781C93.8854 147.781 93.4366 147.689 93.0994 147.503C92.7623 147.314 92.5028 147.1 92.321 146.861C92.1392 146.619 91.9991 146.418 91.9006 146.259H91.7869V150.872H90.446ZM91.7642 143.236C91.7642 143.895 91.8608 144.477 92.054 144.98C92.2472 145.48 92.5294 145.872 92.9006 146.156C93.2718 146.437 93.7263 146.577 94.2642 146.577C94.8248 146.577 95.2926 146.429 95.6676 146.134C96.0464 145.834 96.3305 145.433 96.5199 144.929C96.7131 144.422 96.8097 143.857 96.8097 143.236C96.8097 142.622 96.715 142.069 96.5256 141.577C96.34 141.081 96.0578 140.689 95.679 140.401C95.304 140.109 94.8324 139.963 94.2642 139.963C93.7188 139.963 93.2604 140.102 92.8892 140.378C92.518 140.651 92.2377 141.033 92.0483 141.526C91.8589 142.014 91.7642 142.584 91.7642 143.236ZM101.537 135.963V147.6H100.196V135.963H101.537ZM106.561 147.804C106.008 147.804 105.506 147.7 105.055 147.492C104.605 147.28 104.247 146.975 103.982 146.577C103.716 146.175 103.584 145.691 103.584 145.122C103.584 144.622 103.682 144.217 103.879 143.906C104.076 143.592 104.339 143.346 104.669 143.168C104.999 142.99 105.362 142.857 105.76 142.77C106.161 142.679 106.565 142.607 106.97 142.554C107.5 142.486 107.93 142.435 108.26 142.401C108.593 142.363 108.836 142.3 108.987 142.213C109.143 142.126 109.22 141.975 109.22 141.759V141.713C109.22 141.153 109.067 140.717 108.76 140.406C108.457 140.096 107.997 139.941 107.379 139.941C106.739 139.941 106.237 140.081 105.874 140.361C105.51 140.641 105.254 140.941 105.107 141.259L103.834 140.804C104.061 140.274 104.364 139.861 104.743 139.566C105.125 139.266 105.542 139.058 105.993 138.941C106.447 138.819 106.894 138.759 107.334 138.759C107.614 138.759 107.936 138.793 108.3 138.861C108.667 138.925 109.021 139.06 109.362 139.264C109.707 139.469 109.993 139.778 110.22 140.191C110.447 140.603 110.561 141.156 110.561 141.85V147.6H109.22V146.418H109.152C109.061 146.607 108.91 146.81 108.697 147.026C108.485 147.242 108.203 147.425 107.851 147.577C107.499 147.728 107.069 147.804 106.561 147.804ZM106.766 146.6C107.296 146.6 107.743 146.495 108.107 146.287C108.474 146.079 108.75 145.81 108.936 145.48C109.125 145.151 109.22 144.804 109.22 144.441V143.213C109.163 143.281 109.038 143.344 108.845 143.401C108.656 143.454 108.436 143.501 108.186 143.543C107.94 143.581 107.699 143.615 107.464 143.645C107.233 143.672 107.046 143.694 106.902 143.713C106.554 143.759 106.228 143.833 105.925 143.935C105.625 144.033 105.383 144.183 105.197 144.384C105.016 144.581 104.925 144.85 104.925 145.191C104.925 145.656 105.097 146.009 105.442 146.247C105.79 146.482 106.232 146.6 106.766 146.6ZM116.804 138.872V140.009H112.281V138.872H116.804ZM113.599 136.781H114.94V145.1C114.94 145.478 114.995 145.762 115.105 145.952C115.219 146.137 115.363 146.262 115.537 146.327C115.715 146.387 115.902 146.418 116.099 146.418C116.247 146.418 116.368 146.41 116.463 146.395C116.558 146.376 116.634 146.361 116.69 146.35L116.963 147.554C116.872 147.588 116.745 147.622 116.582 147.656C116.42 147.694 116.213 147.713 115.963 147.713C115.584 147.713 115.213 147.632 114.849 147.469C114.49 147.306 114.19 147.058 113.952 146.725C113.717 146.391 113.599 145.971 113.599 145.463V136.781ZM122.386 147.781C121.545 147.781 120.82 147.596 120.21 147.225C119.604 146.85 119.136 146.327 118.807 145.656C118.481 144.982 118.318 144.198 118.318 143.304C118.318 142.41 118.481 141.622 118.807 140.941C119.136 140.255 119.595 139.721 120.182 139.338C120.773 138.952 121.462 138.759 122.25 138.759C122.705 138.759 123.153 138.834 123.597 138.986C124.04 139.137 124.443 139.384 124.807 139.725C125.17 140.062 125.46 140.509 125.676 141.066C125.892 141.622 126 142.308 126 143.122V143.691H119.273V142.531H124.636C124.636 142.039 124.538 141.6 124.341 141.213C124.148 140.827 123.871 140.522 123.511 140.298C123.155 140.075 122.735 139.963 122.25 139.963C121.716 139.963 121.254 140.096 120.864 140.361C120.477 140.622 120.18 140.963 119.972 141.384C119.763 141.804 119.659 142.255 119.659 142.736V143.509C119.659 144.168 119.773 144.727 120 145.185C120.231 145.639 120.551 145.986 120.96 146.225C121.369 146.459 121.845 146.577 122.386 146.577C122.739 146.577 123.057 146.528 123.341 146.429C123.629 146.327 123.877 146.175 124.085 145.975C124.294 145.77 124.455 145.516 124.568 145.213L125.864 145.577C125.727 146.016 125.498 146.403 125.176 146.736C124.854 147.066 124.456 147.323 123.983 147.509C123.509 147.691 122.977 147.781 122.386 147.781Z" fill="#878593"/>
            <mask id="mask6_2809_5280" style="mask-type:alpha" maskUnits="userSpaceOnUse" x="457" y="132" width="20" height="20">
                <path d="M477 132H457V152H477V132Z" fill="white"/>
            </mask>
            <g mask="url(#mask6_2809_5280)">
                <path d="M464.5 147L469.5 142L464.5 137" stroke="#6C6B7B" stroke-width="1.66667" stroke-linecap="round" stroke-linejoin="round"/>
            </g>
            <path d="M481 166H21C16.5817 166 13 169.582 13 174V206C13 210.418 16.5817 214 21 214H481C485.418 214 489 210.418 489 206V174C489 169.582 485.418 166 481 166Z" fill="#211F2D"/>
            <mask id="mask7_2809_5280" style="mask-type:alpha" maskUnits="userSpaceOnUse" x="25" y="180" width="20" height="20">
                <path d="M45 180H25V200H45V180Z" fill="white"/>
            </mask>
            <g mask="url(#mask7_2809_5280)">
                <path d="M35 186.666C39.1421 186.666 42.5 185.547 42.5 184.166C42.5 182.785 39.1421 181.666 35 181.666C30.8579 181.666 27.5 182.785 27.5 184.166C27.5 185.547 30.8579 186.666 35 186.666Z" stroke="#A1A0AB" stroke-width="1.66667" stroke-linecap="round" stroke-linejoin="round"/>
                <path d="M42.5 190C42.5 191.383 39.1667 192.5 35 192.5C30.8333 192.5 27.5 191.383 27.5 190" stroke="#A1A0AB" stroke-width="1.66667" stroke-linecap="round" stroke-linejoin="round"/>
                <path d="M27.5 184.166V195.833C27.5 197.216 30.8333 198.333 35 198.333C39.1667 198.333 42.5 197.216 42.5 195.833V184.166" stroke="#A1A0AB" stroke-width="1.66667" stroke-linecap="round" stroke-linejoin="round"/>
            </g>
            <path d="M62 195.6H58.4091V183.963H62.1591C63.2879 183.963 64.2538 184.196 65.0568 184.662C65.8598 185.124 66.4754 185.789 66.9034 186.656C67.3314 187.52 67.5455 188.554 67.5455 189.759C67.5455 190.971 67.3295 192.014 66.8977 192.889C66.4659 193.761 65.8371 194.431 65.0114 194.901C64.1856 195.367 63.1818 195.6 62 195.6ZM59.8182 194.35H61.9091C62.8712 194.35 63.6686 194.164 64.3011 193.793C64.9337 193.422 65.4053 192.893 65.7159 192.208C66.0265 191.522 66.1818 190.706 66.1818 189.759C66.1818 188.819 66.0284 188.011 65.7216 187.333C65.4148 186.651 64.9564 186.128 64.3466 185.764C63.7367 185.397 62.9773 185.213 62.0682 185.213H59.8182V194.35ZM72.2955 195.804C71.7424 195.804 71.2405 195.7 70.7898 195.492C70.339 195.28 69.9811 194.975 69.7159 194.577C69.4508 194.175 69.3182 193.691 69.3182 193.122C69.3182 192.622 69.4167 192.217 69.6136 191.906C69.8106 191.592 70.0739 191.346 70.4034 191.168C70.733 190.99 71.0966 190.857 71.4943 190.77C71.8958 190.679 72.2992 190.607 72.7045 190.554C73.2348 190.486 73.6648 190.435 73.9943 190.401C74.3277 190.363 74.5701 190.3 74.7216 190.213C74.8769 190.126 74.9545 189.975 74.9545 189.759V189.713C74.9545 189.153 74.8011 188.717 74.4943 188.406C74.1913 188.096 73.7311 187.941 73.1136 187.941C72.4735 187.941 71.9716 188.081 71.608 188.361C71.2443 188.641 70.9886 188.941 70.8409 189.259L69.5682 188.804C69.7955 188.274 70.0985 187.861 70.4773 187.566C70.8598 187.266 71.2765 187.058 71.7273 186.941C72.1818 186.819 72.6288 186.759 73.0682 186.759C73.3485 186.759 73.6705 186.793 74.0341 186.861C74.4015 186.925 74.7557 187.06 75.0966 187.264C75.4413 187.469 75.7273 187.778 75.9545 188.191C76.1818 188.603 76.2955 189.156 76.2955 189.85V195.6H74.9545V194.418H74.8864C74.7955 194.607 74.6439 194.81 74.4318 195.026C74.2197 195.242 73.9375 195.425 73.5852 195.577C73.233 195.728 72.803 195.804 72.2955 195.804ZM72.5 194.6C73.0303 194.6 73.4773 194.495 73.8409 194.287C74.2083 194.079 74.4848 193.81 74.6705 193.48C74.8598 193.151 74.9545 192.804 74.9545 192.441V191.213C74.8977 191.281 74.7727 191.344 74.5795 191.401C74.3902 191.454 74.1705 191.501 73.9205 191.543C73.6742 191.581 73.4337 191.615 73.1989 191.645C72.9678 191.672 72.7803 191.694 72.6364 191.713C72.2879 191.759 71.9621 191.833 71.6591 191.935C71.3598 192.033 71.1174 192.183 70.9318 192.384C70.75 192.581 70.6591 192.85 70.6591 193.191C70.6591 193.656 70.8314 194.009 71.1761 194.247C71.5246 194.482 71.9659 194.6 72.5 194.6ZM82.5384 186.872V188.009H78.0156V186.872H82.5384ZM79.3338 184.781H80.6747V193.1C80.6747 193.478 80.7296 193.762 80.8395 193.952C80.9531 194.137 81.0971 194.262 81.2713 194.327C81.4493 194.387 81.6368 194.418 81.8338 194.418C81.9815 194.418 82.1027 194.41 82.1974 194.395C82.2921 194.376 82.3679 194.361 82.4247 194.35L82.6974 195.554C82.6065 195.588 82.4796 195.622 82.3168 195.656C82.1539 195.694 81.9474 195.713 81.6974 195.713C81.3187 195.713 80.9474 195.632 80.5838 195.469C80.224 195.306 79.9247 195.058 79.6861 194.725C79.4512 194.391 79.3338 193.971 79.3338 193.463V184.781ZM87.1236 195.804C86.5705 195.804 86.0687 195.7 85.6179 195.492C85.1671 195.28 84.8092 194.975 84.544 194.577C84.2789 194.175 84.1463 193.691 84.1463 193.122C84.1463 192.622 84.2448 192.217 84.4418 191.906C84.6387 191.592 84.902 191.346 85.2315 191.168C85.5611 190.99 85.9247 190.857 86.3224 190.77C86.724 190.679 87.1274 190.607 87.5327 190.554C88.063 190.486 88.4929 190.435 88.8224 190.401C89.1558 190.363 89.3982 190.3 89.5497 190.213C89.705 190.126 89.7827 189.975 89.7827 189.759V189.713C89.7827 189.153 89.6293 188.717 89.3224 188.406C89.0194 188.096 88.5592 187.941 87.9418 187.941C87.3016 187.941 86.7997 188.081 86.4361 188.361C86.0724 188.641 85.8168 188.941 85.669 189.259L84.3963 188.804C84.6236 188.274 84.9266 187.861 85.3054 187.566C85.688 187.266 86.1046 187.058 86.5554 186.941C87.0099 186.819 87.4569 186.759 87.8963 186.759C88.1766 186.759 88.4986 186.793 88.8622 186.861C89.2296 186.925 89.5838 187.06 89.9247 187.264C90.2694 187.469 90.5554 187.778 90.7827 188.191C91.0099 188.603 91.1236 189.156 91.1236 189.85V195.6H89.7827V194.418H89.7145C89.6236 194.607 89.4721 194.81 89.2599 195.026C89.0478 195.242 88.7656 195.425 88.4134 195.577C88.0611 195.728 87.6312 195.804 87.1236 195.804ZM87.3281 194.6C87.8584 194.6 88.3054 194.495 88.669 194.287C89.0365 194.079 89.313 193.81 89.4986 193.48C89.688 193.151 89.7827 192.804 89.7827 192.441V191.213C89.7259 191.281 89.6009 191.344 89.4077 191.401C89.2183 191.454 88.9986 191.501 88.7486 191.543C88.5024 191.581 88.2618 191.615 88.027 191.645C87.7959 191.672 87.6084 191.694 87.4645 191.713C87.116 191.759 86.7902 191.833 86.4872 191.935C86.188 192.033 85.9455 192.183 85.7599 192.384C85.5781 192.581 85.4872 192.85 85.4872 193.191C85.4872 193.656 85.6596 194.009 86.0043 194.247C86.3527 194.482 86.794 194.6 87.3281 194.6ZM93.7528 195.6V183.963H95.0938V188.259H95.2074C95.3059 188.107 95.4422 187.914 95.6165 187.679C95.7945 187.441 96.0483 187.228 96.3778 187.043C96.7112 186.853 97.1619 186.759 97.7301 186.759C98.465 186.759 99.1127 186.942 99.6733 187.31C100.234 187.677 100.671 188.198 100.986 188.872C101.3 189.547 101.457 190.342 101.457 191.259C101.457 192.183 101.3 192.984 100.986 193.662C100.671 194.336 100.236 194.859 99.679 195.23C99.1222 195.598 98.4801 195.781 97.7528 195.781C97.1922 195.781 96.7434 195.689 96.4062 195.503C96.0691 195.314 95.8097 195.1 95.6278 194.861C95.446 194.619 95.3059 194.418 95.2074 194.259H95.0483V195.6H93.7528ZM95.071 191.236C95.071 191.895 95.1676 192.477 95.3608 192.98C95.554 193.48 95.8362 193.872 96.2074 194.156C96.5786 194.437 97.0331 194.577 97.571 194.577C98.1316 194.577 98.5994 194.429 98.9744 194.134C99.3532 193.834 99.6373 193.433 99.8267 192.929C100.02 192.422 100.116 191.857 100.116 191.236C100.116 190.622 100.022 190.069 99.8324 189.577C99.6468 189.081 99.3646 188.689 98.9858 188.401C98.6108 188.109 98.1392 187.963 97.571 187.963C97.0256 187.963 96.5672 188.102 96.196 188.378C95.8248 188.651 95.5445 189.033 95.3551 189.526C95.1657 190.014 95.071 190.584 95.071 191.236ZM106.077 195.804C105.524 195.804 105.022 195.7 104.571 195.492C104.12 195.28 103.762 194.975 103.497 194.577C103.232 194.175 103.099 193.691 103.099 193.122C103.099 192.622 103.198 192.217 103.395 191.906C103.592 191.592 103.855 191.346 104.185 191.168C104.514 190.99 104.878 190.857 105.276 190.77C105.677 190.679 106.08 190.607 106.486 190.554C107.016 190.486 107.446 190.435 107.776 190.401C108.109 190.363 108.351 190.3 108.503 190.213C108.658 190.126 108.736 189.975 108.736 189.759V189.713C108.736 189.153 108.582 188.717 108.276 188.406C107.973 188.096 107.512 187.941 106.895 187.941C106.255 187.941 105.753 188.081 105.389 188.361C105.026 188.641 104.77 188.941 104.622 189.259L103.349 188.804C103.577 188.274 103.88 187.861 104.259 187.566C104.641 187.266 105.058 187.058 105.509 186.941C105.963 186.819 106.41 186.759 106.849 186.759C107.13 186.759 107.452 186.793 107.815 186.861C108.183 186.925 108.537 187.06 108.878 187.264C109.223 187.469 109.509 187.778 109.736 188.191C109.963 188.603 110.077 189.156 110.077 189.85V195.6H108.736V194.418H108.668C108.577 194.607 108.425 194.81 108.213 195.026C108.001 195.242 107.719 195.425 107.366 195.577C107.014 195.728 106.584 195.804 106.077 195.804ZM106.281 194.6C106.812 194.6 107.259 194.495 107.622 194.287C107.99 194.079 108.266 193.81 108.452 193.48C108.641 193.151 108.736 192.804 108.736 192.441V191.213C108.679 191.281 108.554 191.344 108.361 191.401C108.171 191.454 107.952 191.501 107.702 191.543C107.455 191.581 107.215 191.615 106.98 191.645C106.749 191.672 106.562 191.694 106.418 191.713C106.069 191.759 105.743 191.833 105.44 191.935C105.141 192.033 104.899 192.183 104.713 192.384C104.531 192.581 104.44 192.85 104.44 193.191C104.44 193.656 104.613 194.009 104.957 194.247C105.306 194.482 105.747 194.6 106.281 194.6ZM118.706 188.827L117.501 189.168C117.426 188.967 117.314 188.772 117.166 188.583C117.022 188.389 116.825 188.23 116.575 188.105C116.325 187.98 116.005 187.918 115.615 187.918C115.081 187.918 114.636 188.041 114.28 188.287C113.928 188.53 113.751 188.838 113.751 189.213C113.751 189.547 113.873 189.81 114.115 190.003C114.357 190.196 114.736 190.357 115.251 190.486L116.547 190.804C117.327 190.994 117.909 191.283 118.291 191.673C118.674 192.06 118.865 192.558 118.865 193.168C118.865 193.668 118.721 194.115 118.433 194.509C118.149 194.903 117.751 195.213 117.24 195.441C116.729 195.668 116.134 195.781 115.456 195.781C114.566 195.781 113.829 195.588 113.246 195.202C112.662 194.816 112.293 194.251 112.138 193.509L113.411 193.191C113.532 193.66 113.761 194.012 114.098 194.247C114.439 194.482 114.884 194.6 115.433 194.6C116.058 194.6 116.554 194.467 116.922 194.202C117.293 193.933 117.479 193.611 117.479 193.236C117.479 192.933 117.373 192.679 117.161 192.475C116.948 192.266 116.623 192.111 116.183 192.009L114.729 191.668C113.929 191.478 113.342 191.185 112.967 190.787C112.596 190.386 112.411 189.884 112.411 189.281C112.411 188.789 112.549 188.353 112.825 187.975C113.106 187.596 113.486 187.298 113.967 187.083C114.452 186.867 115.001 186.759 115.615 186.759C116.479 186.759 117.157 186.948 117.649 187.327C118.145 187.706 118.498 188.206 118.706 188.827ZM124.543 195.781C123.702 195.781 122.976 195.596 122.366 195.225C121.76 194.85 121.293 194.327 120.963 193.656C120.637 192.982 120.474 192.198 120.474 191.304C120.474 190.41 120.637 189.622 120.963 188.941C121.293 188.255 121.751 187.721 122.338 187.338C122.929 186.952 123.618 186.759 124.406 186.759C124.861 186.759 125.31 186.834 125.753 186.986C126.196 187.137 126.599 187.384 126.963 187.725C127.327 188.062 127.616 188.509 127.832 189.066C128.048 189.622 128.156 190.308 128.156 191.122V191.691H121.429V190.531H126.793C126.793 190.039 126.694 189.6 126.497 189.213C126.304 188.827 126.027 188.522 125.668 188.298C125.312 188.075 124.891 187.963 124.406 187.963C123.872 187.963 123.41 188.096 123.02 188.361C122.634 188.622 122.336 188.963 122.128 189.384C121.92 189.804 121.815 190.255 121.815 190.736V191.509C121.815 192.168 121.929 192.727 122.156 193.185C122.387 193.639 122.707 193.986 123.116 194.225C123.526 194.459 124.001 194.577 124.543 194.577C124.895 194.577 125.213 194.528 125.497 194.429C125.785 194.327 126.033 194.175 126.241 193.975C126.45 193.77 126.611 193.516 126.724 193.213L128.02 193.577C127.884 194.016 127.654 194.403 127.332 194.736C127.01 195.066 126.613 195.323 126.139 195.509C125.666 195.691 125.134 195.781 124.543 195.781Z" fill="white"/>
            <mask id="mask8_2809_5280" style="mask-type:alpha" maskUnits="userSpaceOnUse" x="457" y="180" width="20" height="20">
                <path d="M477 180H457V200H477V180Z" fill="white"/>
            </mask>
            <g mask="url(#mask8_2809_5280)">
                <path d="M464.5 195L469.5 190L464.5 185" stroke="#A1A0AB" stroke-width="1.66667" stroke-linecap="round" stroke-linejoin="round"/>
            </g>
            <mask id="mask9_2809_5280" style="mask-type:alpha" maskUnits="userSpaceOnUse" x="25" y="228" width="20" height="20">
                <path d="M45 228H25V248H45V228Z" fill="white"/>
            </mask>
            <g mask="url(#mask9_2809_5280)">
                <path d="M28.334 242.166L33.334 237.166L28.334 232.166M35.0006 243.833H41.6673" stroke="#6C6B7B" stroke-width="1.66667" stroke-linecap="round" stroke-linejoin="round"/>
            </g>
            <path d="M58.4091 243.6V231.963H65.4318V233.213H59.8182V237.145H65.0682V238.395H59.8182V242.35H65.5227V243.6H58.4091ZM67.7898 243.6V234.872H69.0852V236.236H69.1989C69.3807 235.77 69.6742 235.408 70.0795 235.151C70.4848 234.889 70.9716 234.759 71.5398 234.759C72.1155 234.759 72.5947 234.889 72.9773 235.151C73.3636 235.408 73.6648 235.77 73.8807 236.236H73.9716C74.1951 235.785 74.5303 235.427 74.9773 235.162C75.4242 234.893 75.9602 234.759 76.5852 234.759C77.3655 234.759 78.0038 235.003 78.5 235.492C78.9962 235.977 79.2443 236.732 79.2443 237.759V243.6H77.9034V237.759C77.9034 237.115 77.7273 236.655 77.375 236.378C77.0227 236.102 76.608 235.963 76.1307 235.963C75.517 235.963 75.0417 236.149 74.7045 236.52C74.3674 236.887 74.1989 237.353 74.1989 237.918V243.6H72.8352V237.622C72.8352 237.126 72.6742 236.727 72.3523 236.423C72.0303 236.117 71.6155 235.963 71.108 235.963C70.7595 235.963 70.4337 236.056 70.1307 236.242C69.8314 236.427 69.589 236.685 69.4034 237.014C69.2216 237.34 69.1307 237.717 69.1307 238.145V243.6H67.7898ZM81.696 246.872V234.872H82.9915V236.259H83.1506C83.2491 236.107 83.3854 235.914 83.5597 235.679C83.7377 235.441 83.9915 235.228 84.321 235.043C84.6544 234.853 85.1051 234.759 85.6733 234.759C86.4081 234.759 87.0559 234.942 87.6165 235.31C88.1771 235.677 88.6146 236.198 88.929 236.872C89.2434 237.547 89.4006 238.342 89.4006 239.259C89.4006 240.183 89.2434 240.984 88.929 241.662C88.6146 242.336 88.179 242.859 87.6222 243.23C87.0653 243.598 86.4233 243.781 85.696 243.781C85.1354 243.781 84.6866 243.689 84.3494 243.503C84.0123 243.314 83.7528 243.1 83.571 242.861C83.3892 242.619 83.2491 242.418 83.1506 242.259H83.0369V246.872H81.696ZM83.0142 239.236C83.0142 239.895 83.1108 240.477 83.304 240.98C83.4972 241.48 83.7794 241.872 84.1506 242.156C84.5218 242.437 84.9763 242.577 85.5142 242.577C86.0748 242.577 86.5426 242.429 86.9176 242.134C87.2964 241.834 87.5805 241.433 87.7699 240.929C87.9631 240.422 88.0597 239.857 88.0597 239.236C88.0597 238.622 87.965 238.069 87.7756 237.577C87.59 237.081 87.3078 236.689 86.929 236.401C86.554 236.109 86.0824 235.963 85.5142 235.963C84.9688 235.963 84.5104 236.102 84.1392 236.378C83.768 236.651 83.4877 237.033 83.2983 237.526C83.1089 238.014 83.0142 238.584 83.0142 239.236ZM95.2415 234.872V236.009H90.7188V234.872H95.2415ZM92.0369 232.781H93.3778V241.1C93.3778 241.478 93.4328 241.762 93.5426 241.952C93.6563 242.137 93.8002 242.262 93.9744 242.327C94.1525 242.387 94.34 242.418 94.5369 242.418C94.6847 242.418 94.8059 242.41 94.9006 242.395C94.9953 242.376 95.071 242.361 95.1278 242.35L95.4006 243.554C95.3097 243.588 95.1828 243.622 95.0199 243.656C94.857 243.694 94.6506 243.713 94.4006 243.713C94.0218 243.713 93.6506 243.632 93.2869 243.469C92.9271 243.306 92.6278 243.058 92.3892 242.725C92.1544 242.391 92.0369 241.971 92.0369 241.463V232.781ZM98.1222 246.872C97.8949 246.872 97.6922 246.853 97.5142 246.816C97.3362 246.781 97.2131 246.747 97.1449 246.713L97.4858 245.531C97.8116 245.615 98.0994 245.645 98.3494 245.622C98.5994 245.6 98.821 245.488 99.0142 245.287C99.2112 245.09 99.3911 244.77 99.554 244.327L99.804 243.645L96.5767 234.872H98.0312L100.44 241.827H100.531L102.94 234.872H104.395L100.69 244.872C100.524 245.323 100.317 245.696 100.071 245.992C99.8248 246.291 99.5388 246.512 99.2131 246.656C98.8911 246.8 98.5275 246.872 98.1222 246.872ZM117.21 234.872C117.142 234.297 116.866 233.85 116.381 233.531C115.896 233.213 115.301 233.054 114.597 233.054C114.081 233.054 113.631 233.137 113.244 233.304C112.862 233.471 112.563 233.7 112.347 233.992C112.134 234.283 112.028 234.615 112.028 234.986C112.028 235.297 112.102 235.564 112.25 235.787C112.402 236.007 112.595 236.191 112.83 236.338C113.064 236.482 113.311 236.602 113.568 236.696C113.826 236.787 114.062 236.861 114.278 236.918L115.46 237.236C115.763 237.316 116.1 237.425 116.472 237.566C116.847 237.706 117.205 237.897 117.545 238.139C117.89 238.378 118.174 238.685 118.398 239.06C118.621 239.435 118.733 239.895 118.733 240.441C118.733 241.069 118.568 241.637 118.239 242.145C117.913 242.653 117.436 243.056 116.807 243.355C116.182 243.655 115.422 243.804 114.528 243.804C113.695 243.804 112.973 243.67 112.364 243.401C111.758 243.132 111.28 242.757 110.932 242.276C110.587 241.795 110.392 241.236 110.347 240.6H111.801C111.839 241.039 111.987 241.403 112.244 241.691C112.506 241.975 112.835 242.187 113.233 242.327C113.634 242.463 114.066 242.531 114.528 242.531C115.066 242.531 115.549 242.444 115.977 242.27C116.405 242.092 116.744 241.846 116.994 241.531C117.244 241.213 117.369 240.842 117.369 240.418C117.369 240.031 117.261 239.717 117.045 239.475C116.83 239.232 116.545 239.035 116.193 238.884C115.841 238.732 115.46 238.6 115.051 238.486L113.619 238.077C112.71 237.816 111.991 237.442 111.46 236.958C110.93 236.473 110.665 235.838 110.665 235.054C110.665 234.403 110.841 233.834 111.193 233.35C111.549 232.861 112.027 232.482 112.625 232.213C113.227 231.941 113.9 231.804 114.642 231.804C115.392 231.804 116.059 231.939 116.642 232.208C117.225 232.473 117.688 232.836 118.028 233.298C118.373 233.761 118.555 234.285 118.574 234.872H117.21ZM124.527 243.781C123.686 243.781 122.961 243.596 122.351 243.225C121.745 242.85 121.277 242.327 120.947 241.656C120.622 240.982 120.459 240.198 120.459 239.304C120.459 238.41 120.622 237.622 120.947 236.941C121.277 236.255 121.735 235.721 122.322 235.338C122.913 234.952 123.603 234.759 124.391 234.759C124.845 234.759 125.294 234.834 125.737 234.986C126.18 235.137 126.584 235.384 126.947 235.725C127.311 236.062 127.601 236.509 127.817 237.066C128.033 237.622 128.141 238.308 128.141 239.122V239.691H121.413V238.531H126.777C126.777 238.039 126.679 237.6 126.482 237.213C126.288 236.827 126.012 236.522 125.652 236.298C125.296 236.075 124.875 235.963 124.391 235.963C123.857 235.963 123.394 236.096 123.004 236.361C122.618 236.622 122.321 236.963 122.112 237.384C121.904 237.804 121.8 238.255 121.8 238.736V239.509C121.8 240.168 121.913 240.727 122.141 241.185C122.372 241.639 122.692 241.986 123.101 242.225C123.51 242.459 123.985 242.577 124.527 242.577C124.879 242.577 125.197 242.528 125.482 242.429C125.769 242.327 126.018 242.175 126.226 241.975C126.434 241.77 126.595 241.516 126.709 241.213L128.004 241.577C127.868 242.016 127.639 242.403 127.317 242.736C126.995 243.066 126.597 243.323 126.124 243.509C125.65 243.691 125.118 243.781 124.527 243.781ZM130.18 243.6V234.872H131.476V236.191H131.567C131.726 235.759 132.014 235.408 132.43 235.139C132.847 234.87 133.317 234.736 133.839 234.736C133.938 234.736 134.061 234.738 134.209 234.742C134.357 234.745 134.468 234.751 134.544 234.759V236.122C134.499 236.111 134.394 236.094 134.232 236.071C134.072 236.045 133.904 236.031 133.726 236.031C133.302 236.031 132.923 236.12 132.589 236.298C132.26 236.473 131.999 236.715 131.805 237.026C131.616 237.333 131.521 237.683 131.521 238.077V243.6H130.18ZM143.536 234.872L140.308 243.6H138.945L135.717 234.872H137.172L139.581 241.827H139.672L142.081 234.872H143.536ZM145.305 243.6V234.872H146.646V243.6H145.305ZM145.987 233.418C145.726 233.418 145.5 233.329 145.311 233.151C145.125 232.973 145.033 232.759 145.033 232.509C145.033 232.259 145.125 232.045 145.311 231.867C145.5 231.689 145.726 231.6 145.987 231.6C146.249 231.6 146.472 231.689 146.658 231.867C146.847 232.045 146.942 232.259 146.942 232.509C146.942 232.759 146.847 232.973 146.658 233.151C146.472 233.329 146.249 233.418 145.987 233.418ZM152.648 243.781C151.83 243.781 151.125 243.588 150.534 243.202C149.943 242.816 149.489 242.283 149.17 241.605C148.852 240.927 148.693 240.153 148.693 239.281C148.693 238.395 148.856 237.613 149.182 236.935C149.511 236.253 149.97 235.721 150.557 235.338C151.148 234.952 151.837 234.759 152.625 234.759C153.239 234.759 153.792 234.872 154.284 235.1C154.777 235.327 155.18 235.645 155.494 236.054C155.809 236.463 156.004 236.941 156.08 237.486H154.739C154.636 237.088 154.409 236.736 154.057 236.429C153.708 236.119 153.239 235.963 152.648 235.963C152.125 235.963 151.667 236.1 151.273 236.372C150.883 236.641 150.578 237.022 150.358 237.514C150.142 238.003 150.034 238.577 150.034 239.236C150.034 239.91 150.14 240.497 150.352 240.997C150.568 241.497 150.871 241.886 151.261 242.162C151.655 242.439 152.117 242.577 152.648 242.577C152.996 242.577 153.312 242.516 153.597 242.395C153.881 242.274 154.121 242.1 154.318 241.872C154.515 241.645 154.655 241.372 154.739 241.054H156.08C156.004 241.569 155.816 242.033 155.517 242.446C155.222 242.855 154.83 243.181 154.341 243.423C153.856 243.662 153.292 243.781 152.648 243.781ZM161.699 243.781C160.858 243.781 160.133 243.596 159.523 243.225C158.917 242.85 158.449 242.327 158.119 241.656C157.794 240.982 157.631 240.198 157.631 239.304C157.631 238.41 157.794 237.622 158.119 236.941C158.449 236.255 158.907 235.721 159.494 235.338C160.085 234.952 160.775 234.759 161.562 234.759C162.017 234.759 162.466 234.834 162.909 234.986C163.352 235.137 163.756 235.384 164.119 235.725C164.483 236.062 164.773 236.509 164.989 237.066C165.205 237.622 165.312 238.308 165.312 239.122V239.691H158.585V238.531H163.949C163.949 238.039 163.85 237.6 163.653 237.213C163.46 236.827 163.184 236.522 162.824 236.298C162.468 236.075 162.047 235.963 161.562 235.963C161.028 235.963 160.566 236.096 160.176 236.361C159.79 236.622 159.492 236.963 159.284 237.384C159.076 237.804 158.972 238.255 158.972 238.736V239.509C158.972 240.168 159.085 240.727 159.312 241.185C159.544 241.639 159.864 241.986 160.273 242.225C160.682 242.459 161.157 242.577 161.699 242.577C162.051 242.577 162.369 242.528 162.653 242.429C162.941 242.327 163.189 242.175 163.398 241.975C163.606 241.77 163.767 241.516 163.881 241.213L165.176 241.577C165.04 242.016 164.811 242.403 164.489 242.736C164.167 243.066 163.769 243.323 163.295 243.509C162.822 243.691 162.29 243.781 161.699 243.781Z" fill="#878593"/>
        </g>
        <path d="M21.9631 38L18.3835 24.9091H19.9943L22.7301 35.571H22.858L25.6449 24.9091H27.4347L30.2216 35.571H30.3494L33.0852 24.9091H34.696L31.1165 38H29.4801L26.5909 27.5682H26.4886L23.5994 38H21.9631ZM37.9751 32.0938V38H36.4666V24.9091H37.9751V29.7159H38.103C38.3331 29.2088 38.6783 28.8061 39.1385 28.5078C39.603 28.2053 40.2209 28.054 40.9922 28.054C41.6612 28.054 42.2472 28.1882 42.75 28.4567C43.2528 28.7209 43.6428 29.1278 43.9197 29.6776C44.201 30.223 44.3416 30.9176 44.3416 31.7614V38H42.8331V31.8636C42.8331 31.0838 42.6307 30.4808 42.2259 30.0547C41.8253 29.6243 41.2692 29.4091 40.5575 29.4091C40.0632 29.4091 39.62 29.5135 39.228 29.7223C38.8402 29.9311 38.5334 30.2358 38.3075 30.6364C38.0859 31.0369 37.9751 31.5227 37.9751 32.0938ZM49.9906 38.2301C49.3684 38.2301 48.8038 38.1129 48.2967 37.8786C47.7896 37.6399 47.3869 37.2969 47.0886 36.8494C46.7903 36.3977 46.6412 35.8523 46.6412 35.2131C46.6412 34.6506 46.752 34.1946 46.9735 33.8452C47.1951 33.4915 47.4913 33.2145 47.862 33.0142C48.2328 32.8139 48.6419 32.6648 49.0893 32.5668C49.541 32.4645 49.9949 32.3835 50.4508 32.3239C51.0474 32.2472 51.5311 32.1896 51.9018 32.1513C52.2768 32.1087 52.5495 32.0384 52.72 31.9403C52.8947 31.8423 52.9821 31.6719 52.9821 31.429V31.3778C52.9821 30.7472 52.8095 30.2571 52.4643 29.9077C52.1234 29.5582 51.6056 29.3835 50.911 29.3835C50.1909 29.3835 49.6262 29.5412 49.2172 29.8565C48.8081 30.1719 48.5204 30.5085 48.3542 30.8665L46.9224 30.3551C47.1781 29.7585 47.519 29.294 47.9451 28.9616C48.3755 28.625 48.8443 28.3906 49.3514 28.2585C49.8627 28.1222 50.3656 28.054 50.8599 28.054C51.1752 28.054 51.5375 28.0923 51.9466 28.169C52.3599 28.2415 52.7583 28.3928 53.1419 28.6229C53.5297 28.853 53.8514 29.2003 54.1071 29.6648C54.3627 30.1293 54.4906 30.7514 54.4906 31.5312V38H52.9821V36.6705H52.9054C52.8031 36.8835 52.6326 37.1115 52.394 37.3544C52.1554 37.5973 51.8379 37.804 51.4416 37.9744C51.0453 38.1449 50.5616 38.2301 49.9906 38.2301ZM50.2207 36.875C50.8173 36.875 51.3201 36.7578 51.7292 36.5234C52.1426 36.2891 52.4537 35.9865 52.6625 35.6158C52.8755 35.245 52.9821 34.8551 52.9821 34.446V33.0653C52.9181 33.142 52.7775 33.2124 52.5602 33.2763C52.3471 33.3359 52.1 33.3892 51.8187 33.4361C51.5417 33.4787 51.2711 33.517 51.0069 33.5511C50.747 33.581 50.536 33.6065 50.3741 33.6278C49.9821 33.679 49.6156 33.7621 49.2747 33.8771C48.938 33.9879 48.6653 34.1562 48.4565 34.3821C48.252 34.6037 48.1497 34.9062 48.1497 35.2898C48.1497 35.8139 48.3436 36.2102 48.7314 36.4787C49.1234 36.7429 49.6199 36.875 50.2207 36.875ZM61.5138 28.1818V29.4602H56.4258V28.1818H61.5138ZM57.9087 25.8295H59.4173V35.1875C59.4173 35.6136 59.479 35.9332 59.6026 36.1463C59.7305 36.3551 59.8924 36.4957 60.0884 36.5682C60.2887 36.6364 60.4996 36.6705 60.7212 36.6705C60.8874 36.6705 61.0238 36.6619 61.1303 36.6449C61.2369 36.6236 61.3221 36.6065 61.386 36.5938L61.6928 37.9489C61.5906 37.9872 61.4478 38.0256 61.2646 38.0639C61.0813 38.1065 60.8491 38.1278 60.5678 38.1278C60.1417 38.1278 59.7241 38.0362 59.315 37.853C58.9102 37.6697 58.5735 37.3906 58.305 37.0156C58.0408 36.6406 57.9087 36.1676 57.9087 35.5966V25.8295ZM72.5529 38.2045C71.7347 38.2045 71.0124 37.9979 70.386 37.5845C69.7596 37.1669 69.2695 36.5788 68.9158 35.8203C68.5621 35.0575 68.3853 34.1562 68.3853 33.1165C68.3853 32.0852 68.5621 31.1903 68.9158 30.4318C69.2695 29.6733 69.7617 29.0874 70.3924 28.674C71.0231 28.2607 71.7518 28.054 72.5785 28.054C73.2177 28.054 73.7227 28.1605 74.0934 28.3736C74.4684 28.5824 74.7539 28.821 74.9499 29.0895C75.1502 29.3537 75.3058 29.571 75.4165 29.7415H75.5444V24.9091H77.0529V38H75.5955V36.4915H75.4165C75.3058 36.6705 75.1481 36.8963 74.9435 37.169C74.739 37.4375 74.4471 37.6783 74.0678 37.8913C73.6886 38.1001 73.1836 38.2045 72.5529 38.2045ZM72.7575 36.8494C73.3626 36.8494 73.8739 36.6918 74.2915 36.3764C74.7092 36.0568 75.0266 35.6158 75.244 35.0533C75.4613 34.4865 75.57 33.8324 75.57 33.0909C75.57 32.358 75.4634 31.7166 75.2504 31.1669C75.0373 30.6129 74.7219 30.1825 74.3043 29.8757C73.8867 29.5646 73.3711 29.4091 72.7575 29.4091C72.1183 29.4091 71.5856 29.5732 71.1594 29.9013C70.7376 30.2251 70.4201 30.6662 70.207 31.2244C69.9982 31.7784 69.8938 32.4006 69.8938 33.0909C69.8938 33.7898 70.0004 34.4247 70.2134 34.9957C70.4308 35.5625 70.7504 36.0142 71.1722 36.3509C71.5984 36.6832 72.1268 36.8494 72.7575 36.8494ZM84.0138 38.2045C83.1275 38.2045 82.3498 37.9936 81.6808 37.5717C81.016 37.1499 80.4961 36.5597 80.1211 35.8011C79.7504 35.0426 79.565 34.1562 79.565 33.142C79.565 32.1193 79.7504 31.2266 80.1211 30.4638C80.4961 29.701 81.016 29.1087 81.6808 28.6868C82.3498 28.2649 83.1275 28.054 84.0138 28.054C84.9002 28.054 85.6758 28.2649 86.3406 28.6868C87.0096 29.1087 87.5295 29.701 87.9002 30.4638C88.2752 31.2266 88.4627 32.1193 88.4627 33.142C88.4627 34.1562 88.2752 35.0426 87.9002 35.8011C87.5295 36.5597 87.0096 37.1499 86.3406 37.5717C85.6758 37.9936 84.9002 38.2045 84.0138 38.2045ZM84.0138 36.8494C84.6871 36.8494 85.2411 36.6768 85.6758 36.3317C86.1104 35.9865 86.4322 35.5327 86.641 34.9702C86.8498 34.4077 86.9542 33.7983 86.9542 33.142C86.9542 32.4858 86.8498 31.8743 86.641 31.3075C86.4322 30.7408 86.1104 30.2827 85.6758 29.9332C85.2411 29.5838 84.6871 29.4091 84.0138 29.4091C83.3406 29.4091 82.7866 29.5838 82.3519 29.9332C81.9173 30.2827 81.5955 30.7408 81.3867 31.3075C81.1779 31.8743 81.0735 32.4858 81.0735 33.142C81.0735 33.7983 81.1779 34.4077 81.3867 34.9702C81.5955 35.5327 81.9173 35.9865 82.3519 36.3317C82.7866 36.6768 83.3406 36.8494 84.0138 36.8494ZM96.7995 41.6818C96.5439 41.6818 96.3159 41.6605 96.1156 41.6179C95.9153 41.5795 95.7768 41.5412 95.7001 41.5028L96.0836 40.1733C96.4501 40.267 96.774 40.3011 97.0552 40.2756C97.3365 40.25 97.5858 40.1243 97.8031 39.8984C98.0247 39.6768 98.2271 39.3168 98.4103 38.8182L98.6916 38.0511L95.0609 28.1818H96.6973L99.4075 36.0057H99.5098L102.22 28.1818H103.856L99.6887 39.4318C99.5012 39.9389 99.269 40.3587 98.992 40.6911C98.715 41.0277 98.3933 41.277 98.0268 41.4389C97.6646 41.6009 97.2555 41.6818 96.7995 41.6818ZM109.485 38.2045C108.598 38.2045 107.82 37.9936 107.151 37.5717C106.487 37.1499 105.967 36.5597 105.592 35.8011C105.221 35.0426 105.036 34.1562 105.036 33.142C105.036 32.1193 105.221 31.2266 105.592 30.4638C105.967 29.701 106.487 29.1087 107.151 28.6868C107.82 28.2649 108.598 28.054 109.485 28.054C110.371 28.054 111.146 28.2649 111.811 28.6868C112.48 29.1087 113 29.701 113.371 30.4638C113.746 31.2266 113.933 32.1193 113.933 33.142C113.933 34.1562 113.746 35.0426 113.371 35.8011C113 36.5597 112.48 37.1499 111.811 37.5717C111.146 37.9936 110.371 38.2045 109.485 38.2045ZM109.485 36.8494C110.158 36.8494 110.712 36.6768 111.146 36.3317C111.581 35.9865 111.903 35.5327 112.112 34.9702C112.32 34.4077 112.425 33.7983 112.425 33.142C112.425 32.4858 112.32 31.8743 112.112 31.3075C111.903 30.7408 111.581 30.2827 111.146 29.9332C110.712 29.5838 110.158 29.4091 109.485 29.4091C108.811 29.4091 108.257 29.5838 107.823 29.9332C107.388 30.2827 107.066 30.7408 106.857 31.3075C106.649 31.8743 106.544 32.4858 106.544 33.142C106.544 33.7983 106.649 34.4077 106.857 34.9702C107.066 35.5327 107.388 35.9865 107.823 36.3317C108.257 36.6768 108.811 36.8494 109.485 36.8494ZM122.424 33.9858V28.1818H123.932V38H122.424V36.3381H122.321C122.091 36.8366 121.733 37.2607 121.248 37.6101C120.762 37.9553 120.148 38.1278 119.407 38.1278C118.793 38.1278 118.248 37.9936 117.77 37.7251C117.293 37.4524 116.918 37.0433 116.645 36.4979C116.373 35.9482 116.236 35.2557 116.236 34.4205V28.1818H117.745V34.3182C117.745 35.0341 117.945 35.6051 118.346 36.0312C118.75 36.4574 119.266 36.6705 119.892 36.6705C120.267 36.6705 120.649 36.5746 121.037 36.3828C121.429 36.1911 121.757 35.897 122.021 35.5007C122.289 35.1044 122.424 34.5994 122.424 33.9858ZM133.266 32.0938V38H131.758V28.1818H133.215V29.7159H133.343C133.573 29.2173 133.922 28.8168 134.391 28.5142C134.86 28.2074 135.465 28.054 136.206 28.054C136.871 28.054 137.453 28.1903 137.952 28.4631C138.45 28.7315 138.838 29.1406 139.115 29.6903C139.392 30.2358 139.53 30.9261 139.53 31.7614V38H138.022V31.8636C138.022 31.0923 137.822 30.4915 137.421 30.0611C137.02 29.6264 136.471 29.4091 135.772 29.4091C135.29 29.4091 134.86 29.5135 134.481 29.7223C134.106 29.9311 133.809 30.2358 133.592 30.6364C133.375 31.0369 133.266 31.5227 133.266 32.0938ZM146.403 38.2045C145.457 38.2045 144.641 37.9957 143.955 37.5781C143.273 37.1562 142.747 36.5682 142.376 35.8139C142.01 35.0554 141.827 34.1733 141.827 33.1676C141.827 32.1619 142.01 31.2756 142.376 30.5085C142.747 29.7372 143.263 29.1364 143.923 28.706C144.588 28.2713 145.364 28.054 146.25 28.054C146.761 28.054 147.266 28.1392 147.765 28.3097C148.263 28.4801 148.717 28.7571 149.126 29.1406C149.536 29.5199 149.862 30.0227 150.104 30.6491C150.347 31.2756 150.469 32.0469 150.469 32.9631V33.6023H142.901V32.2983H148.935C148.935 31.7443 148.824 31.25 148.602 30.8153C148.385 30.3807 148.074 30.0376 147.669 29.7862C147.268 29.5348 146.795 29.4091 146.25 29.4091C145.649 29.4091 145.129 29.5582 144.69 29.8565C144.256 30.1506 143.921 30.5341 143.687 31.0071C143.452 31.4801 143.335 31.9872 143.335 32.5284V33.3977C143.335 34.1392 143.463 34.7678 143.719 35.2834C143.979 35.7947 144.339 36.1847 144.799 36.4531C145.259 36.7173 145.794 36.8494 146.403 36.8494C146.8 36.8494 147.158 36.794 147.477 36.6832C147.801 36.5682 148.08 36.3977 148.315 36.1719C148.549 35.9418 148.73 35.6562 148.858 35.3153L150.315 35.7244C150.162 36.2188 149.904 36.6534 149.542 37.0284C149.18 37.3991 148.732 37.6889 148.2 37.8977C147.667 38.1023 147.068 38.2045 146.403 38.2045ZM156.88 38.2045C155.934 38.2045 155.118 37.9957 154.432 37.5781C153.75 37.1562 153.224 36.5682 152.853 35.8139C152.487 35.0554 152.303 34.1733 152.303 33.1676C152.303 32.1619 152.487 31.2756 152.853 30.5085C153.224 29.7372 153.739 29.1364 154.4 28.706C155.065 28.2713 155.84 28.054 156.727 28.054C157.238 28.054 157.743 28.1392 158.241 28.3097C158.74 28.4801 159.194 28.7571 159.603 29.1406C160.012 29.5199 160.338 30.0227 160.581 30.6491C160.824 31.2756 160.945 32.0469 160.945 32.9631V33.6023H153.377V32.2983H159.411C159.411 31.7443 159.3 31.25 159.079 30.8153C158.862 30.3807 158.55 30.0376 158.146 29.7862C157.745 29.5348 157.272 29.4091 156.727 29.4091C156.126 29.4091 155.606 29.5582 155.167 29.8565C154.732 30.1506 154.398 30.5341 154.163 31.0071C153.929 31.4801 153.812 31.9872 153.812 32.5284V33.3977C153.812 34.1392 153.94 34.7678 154.195 35.2834C154.455 35.7947 154.815 36.1847 155.276 36.4531C155.736 36.7173 156.271 36.8494 156.88 36.8494C157.276 36.8494 157.634 36.794 157.954 36.6832C158.278 36.5682 158.557 36.3977 158.791 36.1719C159.026 35.9418 159.207 35.6562 159.335 35.3153L160.792 35.7244C160.638 36.2188 160.381 36.6534 160.018 37.0284C159.656 37.3991 159.209 37.6889 158.676 37.8977C158.143 38.1023 157.545 38.2045 156.88 38.2045ZM166.947 38.2045C166.129 38.2045 165.407 37.9979 164.781 37.5845C164.154 37.1669 163.664 36.5788 163.31 35.8203C162.957 35.0575 162.78 34.1562 162.78 33.1165C162.78 32.0852 162.957 31.1903 163.31 30.4318C163.664 29.6733 164.156 29.0874 164.787 28.674C165.418 28.2607 166.146 28.054 166.973 28.054C167.612 28.054 168.117 28.1605 168.488 28.3736C168.863 28.5824 169.148 28.821 169.344 29.0895C169.545 29.3537 169.7 29.571 169.811 29.7415H169.939V24.9091H171.447V38H169.99V36.4915H169.811C169.7 36.6705 169.543 36.8963 169.338 37.169C169.134 37.4375 168.842 37.6783 168.462 37.8913C168.083 38.1001 167.578 38.2045 166.947 38.2045ZM167.152 36.8494C167.757 36.8494 168.268 36.6918 168.686 36.3764C169.104 36.0568 169.421 35.6158 169.638 35.0533C169.856 34.4865 169.964 33.8324 169.964 33.0909C169.964 32.358 169.858 31.7166 169.645 31.1669C169.432 30.6129 169.116 30.1825 168.699 29.8757C168.281 29.5646 167.766 29.4091 167.152 29.4091C166.513 29.4091 165.98 29.5732 165.554 29.9013C165.132 30.2251 164.815 30.6662 164.602 31.2244C164.393 31.7784 164.288 32.4006 164.288 33.0909C164.288 33.7898 164.395 34.4247 164.608 34.9957C164.825 35.5625 165.145 36.0142 165.567 36.3509C165.993 36.6832 166.521 36.8494 167.152 36.8494ZM176.388 34.3182V34.2415C176.397 33.4276 176.482 32.7798 176.644 32.2983C176.806 31.8168 177.036 31.4268 177.335 31.1286C177.633 30.8303 177.991 30.5554 178.408 30.304C178.66 30.1506 178.886 29.9695 179.086 29.7607C179.286 29.5476 179.444 29.3026 179.559 29.0256C179.678 28.7486 179.738 28.4418 179.738 28.1051C179.738 27.6875 179.64 27.3253 179.444 27.0185C179.248 26.7116 178.986 26.4751 178.658 26.3089C178.33 26.1428 177.965 26.0597 177.565 26.0597C177.215 26.0597 176.879 26.1321 176.555 26.277C176.231 26.4219 175.96 26.6499 175.743 26.9609C175.526 27.272 175.4 27.679 175.366 28.1818H173.755C173.789 27.4574 173.977 26.8374 174.317 26.3217C174.663 25.8061 175.116 25.4119 175.679 25.1392C176.246 24.8665 176.874 24.7301 177.565 24.7301C178.315 24.7301 178.967 24.8793 179.521 25.1776C180.079 25.4759 180.509 25.8849 180.812 26.4048C181.119 26.9247 181.272 27.517 181.272 28.1818C181.272 28.6506 181.2 29.0746 181.055 29.4538C180.914 29.8331 180.71 30.1719 180.441 30.4702C180.177 30.7685 179.857 31.0327 179.482 31.2628C179.107 31.4972 178.807 31.7443 178.581 32.0043C178.355 32.2599 178.191 32.5646 178.089 32.9183C177.987 33.272 177.931 33.7131 177.923 34.2415V34.3182H176.388ZM177.207 38.1023C176.891 38.1023 176.621 37.9893 176.395 37.7635C176.169 37.5376 176.056 37.267 176.056 36.9517C176.056 36.6364 176.169 36.3658 176.395 36.1399C176.621 35.9141 176.891 35.8011 177.207 35.8011C177.522 35.8011 177.793 35.9141 178.018 36.1399C178.244 36.3658 178.357 36.6364 178.357 36.9517C178.357 37.1605 178.304 37.3523 178.197 37.527C178.095 37.7017 177.957 37.8423 177.782 37.9489C177.612 38.0511 177.42 38.1023 177.207 38.1023Z" fill="#A1A0AB"/>
    </g>
</svg>
