<svg width="15" height="16" viewBox="0 0 15 16" fill="none"
    xmlns="http://www.w3.org/2000/svg">
    <g clip-path="url(#clip0_2712_122)">
        <path d="M14.2425 4.73004C14.2425 4.46534 14.1861 4.22666 14.069 4.02703C13.9561 3.82741 13.7869 3.66251 13.5612 3.53233C11.6865 2.45176 9.8075 1.37122 7.93279 0.290652C7.42506 -0.000104008 6.93902 0.00857881 6.43564 0.303667C5.68922 0.741976 1.9485 2.88572 0.837569 3.53233C0.377561 3.79703 0.15625 4.20496 0.15625 4.7344V11.2611C0.15625 11.5215 0.212661 11.7515 0.321151 11.9511C0.433991 12.1551 0.607574 12.3287 0.837569 12.4632C1.95285 13.1098 5.68922 15.2492 6.43564 15.6918C6.93902 15.9869 7.42939 15.9999 7.93279 15.7049C9.8075 14.62 11.6865 13.5438 13.5612 12.4632C13.7956 12.3287 13.9648 12.1594 14.0776 11.9511C14.1861 11.7515 14.2425 11.5215 14.2425 11.2611V4.73004Z" fill="#9A4993" />
        <path d="M7.21679 7.97192L0.3125 11.947C0.42534 12.1509 0.598924 12.3245 0.828918 12.4591C1.9442 13.1057 5.68057 15.2451 6.42698 15.6877C6.93037 15.9828 7.42076 15.9958 7.92414 15.7007C9.79884 14.6158 11.6779 13.5396 13.5526 12.4591C13.7869 12.3245 13.9562 12.1553 14.069 11.947L7.21679 7.97192Z" fill="#6A1577" />
        <path d="M5.17383 9.14794C5.57742 9.85096 6.3325 10.324 7.19609 10.324C8.06834 10.324 8.82776 9.84663 9.22701 9.13493L7.21778 7.97192L5.17383 9.14794Z" fill="#6A1577" />
        <path d="M14.2426 4.73012C14.2426 4.46541 14.1862 4.22673 14.069 4.0271L7.2168 7.97179L14.0777 11.9469C14.1862 11.7472 14.2426 11.5172 14.2426 11.2569V4.73012Z" fill="#813084" />
        <path d="M9.227 9.13481C8.82777 9.84216 8.06834 10.3239 7.19607 10.3239C6.32816 10.3239 5.57308 9.85084 5.17383 9.14782C4.97855 8.80501 4.86571 8.41444 4.86571 7.9935C4.86571 6.70464 5.90721 5.66314 7.19607 5.66314C8.05531 5.66314 8.80607 6.13181 9.20965 6.82614L11.2449 5.65446C10.4334 4.25712 8.92323 3.31543 7.19174 3.31543C4.60534 3.31543 2.51367 5.41145 2.51367 7.9935C2.51367 8.83972 2.73932 9.63821 3.13423 10.3239C3.94138 11.7255 5.46024 12.6716 7.19607 12.6716C8.93626 12.6716 10.4551 11.7212 11.2623 10.3108L9.227 9.13481ZM11.8004 6.8869H11.336V9.13047H11.8004V6.8869ZM12.8289 6.8869H12.3645V9.13047H12.8289V6.8869Z" fill="white" />
        <path d="M13.2065 7.2644H10.9629V7.72874H13.2065V7.2644ZM13.2065 8.28854H10.9629V8.75288H13.2065V8.28854Z" fill="white" />
    </g>
    <defs>
        <clipPath id="clip0_2712_122">
            <rect width="14.4" height="16" fill="white" />
        </clipPath>
    </defs>
</svg>