<svg width="16" height="6" viewBox="0 0 16 6" fill="none"
    xmlns="http://www.w3.org/2000/svg">
    <path d="M1.20735 1.8096C1.17602 1.8096 1.16868 1.79426 1.18402 1.77026L1.34802 1.56027C1.36335 1.53693 1.40202 1.5216 1.43335 1.5216H4.21467C4.24533 1.5216 4.25333 1.54493 4.238 1.56827L4.10533 1.77026C4.09 1.79426 4.05067 1.81693 4.02733 1.81693L1.20735 1.8096ZM0.031358 2.52626C2.48636e-05 2.52626 -0.00797509 2.51093 0.00802482 2.48759L0.171357 2.27693C0.18669 2.2536 0.226024 2.23826 0.257357 2.23826H3.80934C3.84067 2.23826 3.856 2.2616 3.848 2.28493L3.786 2.47159C3.778 2.50293 3.74734 2.51826 3.716 2.51826L0.031358 2.52626ZM1.91668 3.24292C1.88535 3.24292 1.87735 3.21959 1.89335 3.19626L2.00201 3.00159C2.01735 2.97826 2.04868 2.95493 2.08001 2.95493H3.638C3.66934 2.95493 3.68467 2.97826 3.68467 3.00959L3.66934 3.19626C3.66934 3.22759 3.638 3.25092 3.61467 3.25092L1.91668 3.24292ZM10.0026 1.6696C9.51197 1.79426 9.17664 1.8876 8.69397 2.01226C8.57664 2.04293 8.56931 2.05093 8.46731 1.93426C8.35131 1.8016 8.26531 1.71627 8.10198 1.63827C7.61065 1.39693 7.13532 1.46693 6.69199 1.75493C6.16199 2.0976 5.88932 2.60426 5.89732 3.23492C5.90466 3.85825 6.33332 4.37225 6.94865 4.45825C7.47865 4.52825 7.92198 4.34158 8.27331 3.94492C8.34331 3.85825 8.40531 3.76492 8.48331 3.65559H6.97998C6.81665 3.65559 6.77732 3.55425 6.83199 3.42226C6.93332 3.18092 7.11998 2.77559 7.22932 2.57293C7.24601 2.53538 7.27335 2.50356 7.30795 2.4814C7.34255 2.45924 7.3829 2.44772 7.42398 2.44826H10.2593C10.244 2.65893 10.244 2.86893 10.2126 3.07959C10.1319 3.6342 9.91223 4.15938 9.57397 4.60625C9.01331 5.34624 8.28064 5.80624 7.35398 5.93024C6.59065 6.03157 5.88132 5.88357 5.25866 5.41691C4.682 4.98025 4.35467 4.40358 4.26933 3.68692C4.168 2.83759 4.41733 2.07426 4.93133 1.40427C5.48466 0.680271 6.21666 0.220274 7.11265 0.0576082C7.84465 -0.0757244 8.54598 0.0109416 9.17664 0.438272C9.58997 0.711604 9.8853 1.08494 10.0806 1.53693C10.1273 1.60693 10.096 1.64627 10.0026 1.67027V1.6696ZM12.5813 5.97757C11.872 5.96157 11.2253 5.75891 10.68 5.29158C10.2263 4.90924 9.92726 4.37489 9.83863 3.78825C9.69863 2.90826 9.93997 2.12893 10.47 1.4356C11.0386 0.687604 11.724 0.298273 12.6513 0.135607C13.4459 -0.00439171 14.1939 0.0722744 14.8713 0.532272C15.4866 0.952269 15.8686 1.5216 15.9699 2.26893C16.1019 3.32092 15.7986 4.17758 15.0739 4.91025C14.5599 5.43224 13.9286 5.75891 13.2039 5.90691C12.9939 5.94691 12.784 5.95357 12.5813 5.97757V5.97757ZM14.4346 2.83093C14.4273 2.72893 14.4273 2.65093 14.4119 2.57293C14.2719 1.8016 13.5626 1.36627 12.8226 1.53693C12.098 1.70026 11.6306 2.16026 11.4593 2.89226C11.3193 3.50025 11.6153 4.11558 12.176 4.36558C12.6046 4.55225 13.0326 4.52825 13.4459 4.31892C14.0613 3.99892 14.3959 3.50026 14.4353 2.83026L14.4346 2.83093Z" fill-rule="evenodd" fill="#00ADD8" />
</svg>
