<svg width="16" height="12" viewBox="0 0 16 12" fill="none"
    xmlns="http://www.w3.org/2000/svg">
    <path d="M15.1301 0.743381C14.6648 0.278057 14.037 0.0116542 13.379 0.000373372C12.7211 -0.0109075 12.0845 0.233816 11.6035 0.682916C11.5794 0.705841 11.5602 0.733427 11.5471 0.763999C11.534 0.79457 11.5272 0.827489 11.5272 0.860755C11.5272 0.894021 11.534 0.92694 11.5471 0.957511C11.5602 0.988083 11.5794 1.01567 11.6035 1.03859L11.9094 1.35159C11.9508 1.3927 12.0055 1.4175 12.0637 1.42142C12.1219 1.42534 12.1795 1.40812 12.226 1.37293C12.5193 1.13862 12.8919 1.02679 13.2657 1.06082C13.6396 1.09486 13.9859 1.27211 14.2321 1.55553C14.4783 1.83894 14.6054 2.20657 14.5868 2.58154C14.5682 2.9565 14.4054 3.30977 14.1324 3.56746C12.1175 5.58059 9.42857 -0.0640061 3.32515 2.84543C3.22214 2.89492 3.1305 2.96521 3.05602 3.05189C2.98153 3.13856 2.92582 3.23973 2.8924 3.34901C2.85898 3.4583 2.84858 3.57332 2.86184 3.68683C2.87511 3.80034 2.91175 3.90987 2.96947 4.0085L4.01694 5.81712C4.1254 6.00576 4.30397 6.14393 4.51381 6.20156C4.72364 6.25918 4.94774 6.23158 5.13732 6.12478L5.16222 6.11055L5.14266 6.12478L5.60148 5.86869C6.11883 5.54748 6.60788 5.18278 7.06332 4.77854C7.10839 4.73745 7.16666 4.71379 7.22763 4.71184C7.28859 4.70988 7.34825 4.72975 7.39587 4.76787C7.42162 4.78946 7.44251 4.81626 7.45717 4.8465C7.47183 4.87673 7.47993 4.90973 7.48094 4.94332C7.48195 4.97691 7.47584 5.01033 7.46302 5.04139C7.4502 5.07245 7.43095 5.10045 7.40655 5.12355C6.92719 5.55533 6.41064 5.94394 5.86291 6.28483H5.8469L5.38274 6.54448C5.18671 6.65456 4.96557 6.71214 4.74074 6.71165C4.50789 6.71248 4.27893 6.65194 4.07693 6.53611C3.87493 6.42028 3.70702 6.25325 3.59013 6.05187L2.59957 4.34284C0.705585 5.69085 -0.45748 8.28018 0.172068 11.5595C0.182403 11.6148 0.211669 11.6647 0.254836 11.7008C0.298002 11.7368 0.35237 11.7566 0.408594 11.7569H1.52542C1.58695 11.7585 1.64677 11.7366 1.6927 11.6956C1.73863 11.6547 1.76721 11.5977 1.77262 11.5364C1.82509 11.1392 2.02014 10.7745 2.32146 10.5104C2.62277 10.2463 3.00981 10.1006 3.41051 10.1006C3.81121 10.1006 4.19825 10.2463 4.49956 10.5104C4.80088 10.7745 4.99593 11.1392 5.0484 11.5364C5.05537 11.5947 5.08346 11.6485 5.12738 11.6875C5.17129 11.7265 5.22798 11.748 5.28671 11.748H6.37864C6.43726 11.7476 6.49374 11.726 6.53758 11.687C6.58141 11.6481 6.60962 11.5946 6.61694 11.5364C6.66941 11.1392 6.86447 10.7745 7.16578 10.5104C7.4671 10.2463 7.85414 10.1006 8.25484 10.1006C8.65553 10.1006 9.04257 10.2463 9.34389 10.5104C9.6452 10.7745 9.84026 11.1392 9.89273 11.5364C9.90006 11.5946 9.92826 11.6481 9.97209 11.687C10.0159 11.726 10.0724 11.7476 10.131 11.748H11.2158C11.2794 11.748 11.3404 11.7231 11.3856 11.6785C11.4309 11.6339 11.4568 11.5733 11.4577 11.5097C11.4826 9.98032 11.8952 8.22328 13.0707 7.34297C17.1432 4.2966 16.0726 1.68593 15.1301 0.743381ZM10.9775 5.34407L10.2004 4.9546C10.2003 4.87139 10.2216 4.78955 10.2621 4.71687C10.3026 4.6442 10.3611 4.58311 10.4319 4.53943C10.5027 4.49575 10.5835 4.47093 10.6667 4.46734C10.7498 4.46376 10.8325 4.48152 10.9068 4.51893C10.9811 4.55635 11.0446 4.61218 11.0912 4.68109C11.1379 4.75001 11.1661 4.82971 11.1732 4.91262C11.1803 4.99553 11.166 5.07887 11.1318 5.15471C11.0975 5.23054 11.0444 5.29635 10.9775 5.34585V5.34407Z" fill="white"/>
</svg>
