<svg width="16" height="16" viewBox="0 0 16 16" fill="none"
    xmlns="http://www.w3.org/2000/svg">
    <g clip-path="url(#clip0_2713_156)">
        <path d="M16 0H0V16H16V0Z" fill="#F7DF1E" />
        <path d="M10.748 12.5001C11.0703 13.0263 11.4896 13.4131 12.2312 13.4131C12.8542 13.4131 13.2521 13.1018 13.2521 12.6715C13.2521 12.156 12.8432 11.9734 12.1575 11.6734L11.7817 11.5122C10.6967 11.0499 9.97594 10.4709 9.97594 9.24677C9.97594 8.11915 10.8351 7.26074 12.1778 7.26074C13.1338 7.26074 13.821 7.59344 14.3163 8.46455L13.1455 9.2163C12.8877 8.75408 12.6096 8.57198 12.1778 8.57198C11.7375 8.57198 11.4584 8.85135 11.4584 9.2163C11.4584 9.66735 11.7377 9.84995 12.3828 10.1293L12.7587 10.2903C14.0361 10.8381 14.7574 11.3966 14.7574 12.6522C14.7574 14.0059 13.694 14.7475 12.266 14.7475C10.8697 14.7475 9.96756 14.0821 9.52616 13.2099L10.748 12.5001ZM5.43676 12.6304C5.67295 13.0494 5.88781 13.4037 6.40438 13.4037C6.89835 13.4037 7.20997 13.2105 7.20997 12.459V7.34658H8.71346V12.4793C8.71346 14.0361 7.8007 14.7447 6.46838 14.7447C5.26457 14.7447 4.56743 14.1217 4.21289 13.3713L5.43676 12.6304Z" fill="white" />
    </g>
    <defs>
        <clipPath id="clip0_2713_156">
            <rect width="16" height="16" rx="2" fill="white" />
        </clipPath>
    </defs>
</svg>