<svg width="16" height="16" viewBox="0 0 16 16" fill="none"
    xmlns="http://www.w3.org/2000/svg">
    <g clip-path="url(#clip0_2803_43)">
        <path d="M14.7284 12.1382C13.8586 12.1166 13.1844 12.2036 12.6189 12.4427C12.4558 12.5079 12.1948 12.508 12.1731 12.7146C12.2601 12.8016 12.2709 12.943 12.3471 13.0626C12.4777 13.28 12.7059 13.5736 12.9125 13.7259C13.1408 13.8999 13.3692 14.0738 13.6084 14.2261C14.0325 14.4871 14.511 14.6392 14.9242 14.9002C15.1635 15.0524 15.4026 15.2482 15.6418 15.4113C15.7614 15.4982 15.8375 15.6397 15.9898 15.694V15.6614C15.9136 15.5635 15.8919 15.4222 15.8158 15.3134C15.7072 15.2047 15.5983 15.1068 15.4896 14.9981C15.1742 14.5741 14.7828 14.2043 14.3587 13.8999C14.0108 13.6606 13.2496 13.3344 13.1082 12.9321C13.1082 12.9321 13.0973 12.9212 13.0865 12.9104C13.3257 12.8886 13.6084 12.8016 13.8368 12.7364C14.2065 12.6384 14.5436 12.6602 14.9242 12.5624C15.0981 12.5189 15.2721 12.4645 15.4461 12.4101V12.3123C15.2504 12.1166 15.1091 11.8556 14.9024 11.6707C14.3479 11.1922 13.7389 10.7247 13.1082 10.3332C12.7711 10.1157 12.3361 9.97437 11.9773 9.78956C11.8469 9.72424 11.6294 9.69168 11.5533 9.58293C11.3575 9.34374 11.2487 9.02843 11.1074 8.74568C10.7922 8.14756 10.4876 7.48431 10.2157 6.85368C10.0201 6.42956 9.90049 6.00543 9.66124 5.61406C8.54124 3.76549 7.32337 2.64549 5.45312 1.54718C5.05074 1.31887 4.57231 1.22099 4.06124 1.10143C3.78949 1.09049 3.51756 1.06881 3.24574 1.05787C3.07174 0.981745 2.89774 0.775182 2.74549 0.677308C2.12581 0.285808 0.527243 -0.562255 0.0705552 0.557745C-0.22307 1.26449 0.505555 1.96037 0.755555 2.31931C0.940555 2.56937 1.17968 2.85206 1.31018 3.13481C1.38631 3.31956 1.40799 3.51543 1.48412 3.71112C1.65818 4.18943 1.82118 4.72237 2.04962 5.16825C2.16924 5.39656 2.29968 5.63574 2.45193 5.84237C2.53893 5.96193 2.69112 6.01637 2.72381 6.21206C2.57162 6.42956 2.56068 6.75581 2.47362 7.02762C2.08218 8.25637 2.23449 9.77868 2.78899 10.6812C2.96293 10.9529 3.37618 11.5512 3.93074 11.3227C4.42012 11.1271 4.31137 10.5072 4.45262 9.96356C4.48537 9.83293 4.46362 9.74606 4.52881 9.65906V9.68087C4.68106 9.98524 4.83324 10.2789 4.97462 10.5834C5.31174 11.1161 5.89887 11.6707 6.38818 12.0405C6.64924 12.2361 6.85581 12.5732 7.18205 12.6929V12.6602H7.16024C7.09499 12.5623 6.99712 12.5189 6.91018 12.4427C6.71449 12.2471 6.49693 12.0078 6.34474 11.7903C5.88812 11.1813 5.48568 10.5072 5.12687 9.81124C4.95293 9.47424 4.80062 9.1045 4.65931 8.76743C4.59399 8.63681 4.59399 8.44118 4.48531 8.376C4.32218 8.61518 4.08299 8.82181 3.96337 9.11537C3.75687 9.58293 3.73506 10.1592 3.65893 10.7572C3.61543 10.7682 3.63712 10.7572 3.61537 10.7791C3.26749 10.692 3.14787 10.3332 3.01731 10.0287C2.69106 9.25675 2.63668 8.01712 2.91949 7.1255C2.99562 6.89712 3.32187 6.17949 3.19137 5.96199C3.12612 5.75537 2.90856 5.63575 2.78899 5.47268C2.64768 5.26606 2.49537 5.00518 2.39756 4.77675C2.13656 4.16781 2.00606 3.49362 1.72337 2.88468C1.59287 2.60193 1.36462 2.30843 1.17968 2.04743C0.973118 1.75387 0.744743 1.54718 0.581618 1.19924C0.527305 1.07968 0.451118 0.883933 0.538118 0.753433C0.559868 0.666433 0.603305 0.63387 0.690368 0.61212C0.831743 0.492433 1.23412 0.644683 1.37537 0.709933C1.77774 0.872933 2.11481 1.02531 2.45193 1.25362C2.60412 1.36237 2.76724 1.56899 2.96293 1.62337H3.19131C3.53931 1.69943 3.93068 1.64512 4.25693 1.74293C4.8333 1.92774 5.35518 2.19962 5.8228 2.49324C7.2473 3.39574 8.42156 4.67887 9.21543 6.21206C9.34593 6.46206 9.40024 6.69056 9.51987 6.95143C9.74831 7.48431 10.031 8.02799 10.2592 8.54993C10.4876 9.06093 10.7051 9.58293 11.0313 10.0071C11.1944 10.2353 11.8468 10.355 12.1404 10.4746C12.3579 10.5724 12.6951 10.6595 12.8907 10.7791C13.2604 11.0073 13.6301 11.2684 13.9781 11.5184C14.1521 11.6489 14.6957 11.9208 14.7284 12.1382V12.1382Z" fill="white"/>
        <path d="M3.63716 2.68896C3.45234 2.68896 3.32191 2.71084 3.19141 2.7434V2.76515H3.21316C3.30022 2.93915 3.45234 3.05878 3.56103 3.21096C3.64809 3.3849 3.72416 3.55896 3.81122 3.73296C3.82203 3.72203 3.83291 3.71121 3.83291 3.71121C3.98522 3.6024 4.06128 3.42846 4.06128 3.16746C3.99603 3.0914 3.98516 3.01528 3.93078 2.93915C3.86559 2.83034 3.72416 2.77603 3.63716 2.68896V2.68896Z" fill="white"/>
    </g>
    <defs>
        <clipPath id="clip0_2803_43">
            <rect width="16" height="15.7504" fill="white"/>
        </clipPath>
    </defs>
</svg>
