<svg width="16" height="12" viewBox="0 0 16 12" fill="none"
    xmlns="http://www.w3.org/2000/svg">
    <path d="M8.19352 0.11499L6.97569 1.0645C6.34356 1.0443 5.1029 1.18594 4.4309 1.4304C3.81188 1.03827 3.26762 0.60522 3.26762 0.60522L2.51011 1.87447C2.07654 2.10529 1.64113 2.36443 1.25319 2.70752L0.261719 2.30253C0.859227 3.50778 1.25844 4.71486 2.35378 5.44011C4.09359 2.6923 12.1783 2.9483 13.954 5.42437C15.1021 4.82633 15.5488 3.54109 15.9999 2.34948C15.9501 2.36574 15.3363 2.57138 14.9382 2.72325C14.7005 2.46437 14.1403 2.06673 13.8219 1.87447C13.5202 1.32102 13.0803 0.574269 13.0803 0.574269C13.0803 0.574269 12.5597 0.961417 11.9561 1.38397C11.1409 1.23342 10.1547 1.05086 9.32533 1.09597C8.76087 0.631712 8.19352 0.11499 8.19352 0.11499V0.11499Z" fill="#F3D400" />
    <path d="M0.880859 4.86415L2.31614 8.34009C4.80873 11.6285 11.1738 11.8575 13.9489 8.40383L15.4912 4.84448C14.7794 5.89891 13.6211 6.62704 12.9076 7.01891C12.4006 7.29694 11.2308 7.46481 11.2308 7.46481L8.16191 5.8732L5.07286 7.43307C5.07286 7.43307 3.91876 7.24763 3.39601 7.00343C2.34158 6.44029 1.63181 5.77511 0.884007 4.86442L0.880859 4.86415Z" fill="#FFE953" />
</svg>