<svg width="16" height="14" viewBox="0 0 16 14" fill="none"
    xmlns="http://www.w3.org/2000/svg">
    <g clip-path="url(#clip0_2724_33)">
        <path d="M0 10.6356L7.98669 13.8027V5.3644L0 2.64893V10.6356Z" fill="black"/>
        <path d="M7.98633 13.8027L15.973 10.6356V2.64893L7.98633 5.3644V13.8027Z" fill="#1E1E1E"/>
        <path d="M0.0136719 2.64903L8.00036 5.36451L15.987 2.64903L8.00036 0.0134277L0.0136719 2.64903Z" fill="#36353A"/>
        <path d="M11.5801 6.25643C11.5801 6.25643 11.8308 5.96359 11.9195 5.99021C12.1507 6.05956 12.4741 6.19621 12.5973 6.07894C12.7836 5.90148 13.0066 5.80388 13.0066 5.80388L13.0034 3.6626L11.5801 4.14518V6.25643Z" fill="#FFE953"/>
        <path d="M11.5856 4.14518L3.58594 1.46988L5.01747 0.998535L13.005 3.66257L11.5856 4.14518Z" fill="#FFE953"/>
        <path d="M5.24062 8.3766C5.10197 7.70353 4.40466 6.99517 3.61403 6.82449C2.85143 6.65989 2.27005 7.03822 2.15795 7.58525L2.02548 7.72686L1.84021 7.12325L1.69922 6.15888L1.94188 6.36803C2.00902 6.27631 2.0571 6.20369 2.23076 6.09145L2.39875 5.59058L2.68709 5.98602C2.88468 5.95264 3.08406 5.91513 3.31687 5.97298L3.61403 5.60527L3.91771 6.08546C4.16503 6.11695 4.38381 6.2367 4.60728 6.35488L4.94586 6.04728L5.15029 6.6736C5.36751 6.88237 5.42874 6.98814 5.51502 7.12628L5.83497 7.0113L5.64749 8.04486L5.4077 8.61772L5.24062 8.3766Z" fill="#FFE953"/>
        <path d="M5.43572 8.48092L5.24023 8.3587L4.89481 8.89021L4.4344 8.95426L3.61366 8.06066L2.83869 8.50089L2.44068 8.2094L2.15755 7.56924L2.00285 7.59344L1.83984 7.10742L2.15755 8.59617C2.38675 9.40168 3.11846 10.0107 3.61366 10.1773C4.12715 10.3502 4.95942 10.2323 5.24023 9.50585L5.64712 8.02672L5.43572 8.48092Z" fill="#FFE953"/>
    </g>
    <defs>
        <clipPath id="clip0_2724_33">
            <rect width="16" height="13.817" fill="white"/>
        </clipPath>
    </defs>
</svg>
