<svg width="16" height="7" viewBox="0 0 16 7" fill="none"
    xmlns="http://www.w3.org/2000/svg">
    <g clip-path="url(#clip0_2719_32)">
        <path d="M0 0H16V5.33333H8V6.22222H4.44444V5.33333H0V0ZM0.888889 4.44444H2.66667V1.77778H3.55556V4.44444H4.44444V0.888889H0.888889V4.44444ZM5.33333 0.888889V5.33333H7.11111V4.44444H8.88889V0.888889H5.33333ZM7.11111 1.77778H8V3.55556H7.11111V1.77778ZM9.77778 0.888889V4.44444H11.5556V1.77778H12.4444V4.44444H13.3333V1.77778H14.2222V4.44444H15.1111V0.888889H9.77778Z" fill="#CB3837"/>
        <path d="M0.888672 4.44447H2.66645V1.7778H3.55534V4.44447H4.44423V0.888916H0.888672V4.44447Z" fill="white"/>
        <path d="M5.33398 0.888916V5.33336H7.11176V4.44447H8.88954V0.888916H5.33398ZM8.00065 3.55558H7.11176V1.7778H8.00065V3.55558Z" fill="white"/>
        <path d="M9.77734 0.888916V4.44447H11.5551V1.7778H12.444V4.44447H13.3329V1.7778H14.2218V4.44447H15.1107V0.888916H9.77734Z" fill="white"/>
    </g>
    <defs>
        <clipPath id="clip0_2719_32">
            <rect width="16" height="6.22222" fill="white"/>
        </clipPath>
    </defs>
</svg>
