<svg width="1174" height="1364" viewBox="0 0 1174 1364" fill="none"
    xmlns="http://www.w3.org/2000/svg">
    <path fill-rule="evenodd" clip-rule="evenodd" d="M933.839 184.989L696.418 276.389L927.366 360.904L1171.58 271.977L933.839 184.989Z" fill="#FFCA1E" stroke="#D7C5B2" stroke-width="2.08677" stroke-miterlimit="1.5" stroke-linecap="square" stroke-linejoin="round"/>
    <path fill-rule="evenodd" clip-rule="evenodd" d="M233.18 615.189L1171.62 272.036V826.394L233.18 1169.55V615.189Z" fill="#FFD241" stroke="#D7C5B2" stroke-width="1.93704" stroke-miterlimit="1.5" stroke-linecap="square" stroke-linejoin="round"/>
    <path fill-rule="evenodd" clip-rule="evenodd" d="M233.414 172.02L701.109 1.00009L932.526 83.782L464.832 254.802L233.414 172.02Z" fill="#2F6490" stroke="#D1E3F2" stroke-width="1.61294" stroke-miterlimit="1.5" stroke-linecap="square" stroke-linejoin="round"/>
    <path fill-rule="evenodd" clip-rule="evenodd" d="M465.484 255.526L709.497 166.3V1270.08L465.484 1359.3V255.526Z" fill="#3775A8" stroke="#D1E3F2" stroke-width="4.57948" stroke-miterlimit="1.5" stroke-linecap="square" stroke-linejoin="round"/>
    <path fill-rule="evenodd" clip-rule="evenodd" d="M465.592 255.942L232.987 172.624V1276.4L465.592 1359.72V255.942Z" fill="#2F6490" stroke="white" stroke-width="4.54348" stroke-miterlimit="1.5" stroke-linecap="square" stroke-linejoin="round"/>
    <path fill-rule="evenodd" clip-rule="evenodd" d="M465.592 1080.69L232.987 995.637V1276.4L465.592 1361.45V1080.69Z" fill="#EFEEEA" stroke="#D8D8D8" stroke-width="2.82366" stroke-miterlimit="1.5" stroke-linecap="square" stroke-linejoin="round"/>
    <path fill-rule="evenodd" clip-rule="evenodd" d="M233.018 615.264L1.99966 530.789V1085.07L233.018 1169.55V615.264Z" fill="#2F6490" stroke="#D1E3F2" stroke-width="3.95389" stroke-miterlimit="1.5" stroke-linecap="square" stroke-linejoin="round"/>
    <path fill-rule="evenodd" clip-rule="evenodd" d="M709.42 165.501L932.613 83.8861V1187.66L709.42 1269.28V165.501Z" fill="#3775A8" stroke="#D1E3F2" stroke-width="4.57019" stroke-miterlimit="1.5" stroke-linecap="square" stroke-linejoin="round"/>
    <path fill-rule="evenodd" clip-rule="evenodd" d="M233.203 615.17L465.619 530.183V1084.54L233.203 1169.53V615.17Z" fill="#3775A8" stroke="#D1E3F2" stroke-width="3.93855" stroke-miterlimit="1.5" stroke-linecap="square" stroke-linejoin="round"/>
    <path d="M2.69336 807.161L233.266 890.543L933.687 637.04M469.116 528.879L932.08 359.619" stroke="#D1E3F2" stroke-width="3.71167" stroke-miterlimit="1.5" stroke-linecap="square" stroke-linejoin="round"/>
    <path d="M933.686 637.04L1171.01 550.896" stroke="#D7C5B2" stroke-width="3.71167" stroke-miterlimit="1.5" stroke-linecap="square" stroke-linejoin="round"/>
    <path fill-rule="evenodd" clip-rule="evenodd" d="M2.13672 530.663L233.045 446.581L463.993 531.096L233.084 615.178L2.13672 530.663Z" fill="#2F6490" stroke="#D1E3F2" stroke-width="2.12053" stroke-miterlimit="1.5" stroke-linecap="square" stroke-linejoin="round"/>
    <path d="M563.638 409.024C588.841 396.065 607.838 363.072 606.068 335.331C604.299 307.591 582.434 295.608 557.231 308.567C532.029 321.526 513.032 354.519 514.801 382.259C516.571 410 538.436 421.982 563.638 409.024Z" fill="white"/>
    <path d="M478.568 83.252L707.563 165.376" stroke="#D1E3F2" stroke-width="3.71167" stroke-miterlimit="1.5" stroke-linecap="square" stroke-linejoin="round"/>
    <path fill-rule="evenodd" clip-rule="evenodd" d="M709.497 718.241L465.484 807.467L465.553 1361.34L709.497 1270.08V718.241Z" fill="#FFD241" stroke="#D7C5B2" stroke-width="3.8575" stroke-miterlimit="1.5" stroke-linecap="square" stroke-linejoin="round"/>
    <path fill-rule="evenodd" clip-rule="evenodd" d="M932.613 636.869L709.42 718.485L709.424 1270.07L932.613 1187.67V636.869Z" fill="#FFD241" stroke="#D7C5B2" stroke-width="3.98172" stroke-miterlimit="1.5" stroke-linecap="square" stroke-linejoin="round"/>
    <path d="M864.113 1128.09C888.934 1115.33 907.709 1083.88 906.049 1057.85C904.388 1031.82 882.921 1021.06 858.1 1033.82C833.28 1046.58 814.504 1078.03 816.165 1104.06C817.825 1130.09 839.292 1140.85 864.113 1128.09Z" fill="#FEFDFD"/>
    <path d="M466.047 1085.16L933.821 914.506" stroke="#D7C5B2" stroke-width="3.71167" stroke-miterlimit="1.5" stroke-linecap="square" stroke-linejoin="round"/>
</svg>
