<svg width="64" height="66" viewBox="0 0 64 66" fill="none"
    xmlns="http://www.w3.org/2000/svg">
    <path d="M47.6174 47.8802C48.0331 44.4192 47.9081 43.9141 50.4842 44.4727L51.1396 44.5314C53.1214 44.6206 55.7127 44.2126 57.2609 43.5061C60.5383 41.986 62.4818 39.4456 59.2503 40.1139C51.8793 41.634 51.3437 39.137 51.3437 39.137C59.1304 27.5831 62.3875 12.9176 59.5742 9.32904C51.9125 -0.464968 38.6472 4.16678 38.4253 4.28921L38.3539 4.30196C36.9001 3.9959 35.2932 3.81736 33.4314 3.79186C30.0953 3.74085 27.5651 4.66669 25.6421 6.12304C25.6421 6.12304 1.98084 -3.62507 3.08012 18.3834C3.31477 23.0662 9.788 53.8357 17.5161 44.5263C20.3446 41.1239 23.0737 38.2494 23.0737 38.2494C24.4255 39.1498 26.0501 39.6089 27.7513 39.4431L27.884 39.3309C27.8447 39.7717 27.8627 40.2158 27.9375 40.652C25.9481 42.8761 26.5347 43.2663 22.5559 44.085C18.5312 44.914 20.8981 46.3907 22.4386 46.7784C24.3107 47.2477 28.6415 47.9108 31.5695 43.8147L31.4521 44.2814C32.2326 44.9063 32.179 48.7703 32.2938 51.53C32.4086 54.2897 32.5897 56.8683 33.1533 58.3858C33.717 59.9034 34.3776 63.8184 39.6062 62.7217C43.9752 61.7857 47.3164 60.4364 47.6225 47.9032" fill="black"/>
    <path d="M47.6174 47.8802C48.0331 44.4192 47.9081 43.9141 50.4842 44.4727L51.1396 44.5314C53.1214 44.6206 55.7127 44.2126 57.2609 43.5061C60.5383 41.986 62.4818 39.4456 59.2503 40.1139C51.8793 41.634 51.3437 39.137 51.3437 39.137C59.1304 27.5831 62.3875 12.9176 59.5742 9.32904C51.9125 -0.464968 38.6472 4.16678 38.4253 4.28921L38.3539 4.30196C36.9001 3.9959 35.2932 3.81736 33.4314 3.79186C30.0953 3.74085 27.5651 4.66669 25.6421 6.12304C25.6421 6.12304 1.98084 -3.62507 3.08012 18.3834C3.31477 23.0662 9.788 53.8357 17.5161 44.5263C20.3446 41.1239 23.0737 38.2494 23.0737 38.2494C24.4255 39.1498 26.0501 39.6089 27.7513 39.4431L27.884 39.3309C27.8447 39.7717 27.8627 40.2158 27.9375 40.652C25.9481 42.8761 26.5347 43.2663 22.5559 44.085C18.5312 44.914 20.8981 46.3907 22.4386 46.7784C24.3107 47.2477 28.6415 47.9108 31.5695 43.8147L31.4521 44.2814C32.2326 44.9063 32.179 48.7703 32.2938 51.53C32.4086 54.2897 32.5897 56.8683 33.1533 58.3858C33.717 59.9034 34.3776 63.8184 39.6062 62.7217C43.9752 61.7857 47.3164 60.4364 47.6225 47.9032" stroke="black" stroke-width="5.3725"/>
    <path d="M59.2297 40.1368C51.8587 41.6569 51.3231 39.16 51.3231 39.16C59.1099 27.6061 62.3669 12.9406 59.5562 9.35199C51.8944 -0.442018 38.6292 4.19228 38.4073 4.31216L38.3359 4.32491C36.7156 3.99981 35.0683 3.82817 33.4159 3.81226C30.0798 3.76125 27.5497 4.68709 25.6266 6.14344C25.6266 6.14344 1.96283 -3.60467 3.06466 18.4038C3.29931 23.0866 9.77254 53.8561 17.5006 44.5467C20.347 41.1239 23.0761 38.2494 23.0761 38.2494C24.4278 39.1498 26.0525 39.6089 27.7537 39.4431L27.8864 39.3309C27.8474 39.7717 27.8654 40.2158 27.9399 40.652C25.9505 42.8761 26.5371 43.2663 22.5583 44.085C18.5336 44.914 20.9005 46.3907 22.441 46.7784C24.3131 47.2477 28.6439 47.9108 31.5719 43.8147L31.4545 44.2814C32.235 44.9063 32.7808 48.3444 32.689 51.4611C32.5972 54.5779 32.536 56.7152 33.1481 58.3884C33.7602 60.0615 34.3723 63.821 39.6009 62.7243C43.97 61.7882 46.2323 59.3576 46.5511 55.3124C46.7755 52.4354 47.2805 52.8588 47.3163 50.2879L47.7243 49.0688C48.1911 45.1664 47.8009 43.909 50.4917 44.4957L51.1471 44.5543C53.1289 44.6436 55.7228 44.2355 57.2429 43.529C60.5203 42.0089 62.4638 39.4686 59.2323 40.1368H59.2297Z" fill="#336791"/>
    <path d="M31.8837 41.4607C31.6797 48.7194 31.9347 56.9168 32.6438 58.6716C33.3528 60.4264 34.8755 63.9002 40.1066 62.783C44.4757 61.847 46.0672 60.0336 46.7558 56.0318L48.3703 42.3482M25.6145 5.95991C25.6145 5.95991 1.93547 -3.72188 3.03729 18.2866C3.27194 22.9694 9.74517 53.7389 17.4733 44.4295C20.2941 41.0296 22.8447 38.3694 22.8447 38.3694M38.4029 4.1924C37.5867 4.44745 51.5738 -0.921406 59.5263 9.23733C62.3319 12.8259 59.08 27.4914 51.2932 39.0453" stroke="white" stroke-width="1.79" stroke-linecap="round" stroke-linejoin="round"/>
    <path d="M51.2955 39.04C51.2955 39.04 51.8056 41.5395 59.2021 40.0143C62.4336 39.346 60.4876 41.8864 57.2127 43.4065C54.5245 44.6562 48.495 44.975 48.3955 43.2534C48.1405 38.8028 51.5684 40.1546 51.321 39.04C51.0965 38.0351 49.5611 37.0506 48.5511 34.5919C47.6661 32.4494 36.4106 15.9985 51.673 18.4394C52.2341 18.3246 47.6941 3.9014 33.4112 3.69226C19.1283 3.48312 19.5797 21.2526 19.5797 21.2526" stroke="white" stroke-width="1.79" stroke-linecap="round" stroke-linejoin="bevel"/>
    <path d="M27.8875 40.5652C25.898 42.7893 26.4847 43.1795 22.5058 43.9982C18.4811 44.8271 20.848 46.3039 22.3885 46.6916C24.2606 47.1609 28.5914 47.824 31.5194 43.7253C32.4121 42.4755 31.5143 40.4861 30.29 39.9811C29.6983 39.7363 28.9077 39.4302 27.8926 40.5677L27.8875 40.5652Z" stroke="white" stroke-width="1.79" stroke-linejoin="round"/>
    <path d="M27.7561 40.5272C27.5521 39.2188 28.1846 37.6655 28.8605 35.8444C29.8756 33.1154 32.217 30.3863 30.3449 21.7222C28.9498 15.2694 19.5817 20.3781 19.5817 21.2529C19.5817 22.1277 20.0051 25.6908 19.4287 29.8354C18.6712 35.2476 22.8719 39.8233 27.7077 39.3565" stroke="white" stroke-width="1.79" stroke-linecap="round" stroke-linejoin="round"/>
    <path d="M25.5296 21.1231C25.4862 21.4215 26.0779 22.2199 26.8457 22.327C27.6134 22.4341 28.2688 21.8118 28.3122 21.5108C28.3556 21.2098 27.7638 20.8834 26.9961 20.7763C26.2284 20.6691 25.5678 20.8273 25.5296 21.1231V21.1231Z" fill="white" stroke="white" stroke-width="0.5975"/>
    <path d="M48.9035 20.5135C48.9443 20.8119 48.3552 21.6102 47.5875 21.7174C46.8198 21.8245 46.1592 21.2021 46.1209 20.9012C46.0827 20.6002 46.6693 20.2738 47.437 20.1666C48.2047 20.0595 48.8653 20.2176 48.9035 20.5135Z" fill="white" stroke="white" stroke-width="0.2975"/>
    <path d="M51.6458 18.4443C51.7734 20.7908 51.1408 22.3849 51.0592 24.8819C50.9419 28.5087 52.7885 32.661 50.0059 36.8183" stroke="white" stroke-width="1.79" stroke-linecap="round" stroke-linejoin="round"/>
</svg>
