<svg width="16" height="16" viewBox="0 0 16 16" fill="none"
    xmlns="http://www.w3.org/2000/svg">
    <g clip-path="url(#clip0_2712_130)">
        <path d="M4.13027 2.09634C4.13027 1.01773 4.42612 0.430964 6.05946 0.151554C7.16838 -0.0384672 8.59022 -0.0622199 9.91648 0.151554C10.964 0.320593 11.8457 1.08345 11.8457 2.09634V5.65489C11.8457 6.69856 10.9897 7.55351 9.91648 7.55351H6.05946C4.75046 7.55351 3.64721 8.64471 3.64721 9.87834V11.5857H2.32101C1.19922 11.5857 0.546086 10.7949 0.271713 9.68832C-0.0983838 8.20172 -0.0826729 7.31599 0.271713 5.89225C0.578967 4.65021 1.56074 3.99488 2.68261 3.99488H7.98868V3.51983H4.13018V2.09626L4.13027 2.09634Z" fill="url(#paint0_linear_2712_130)" />
        <path d="M11.8463 13.4845C11.8463 14.5631 10.8888 15.1094 9.91707 15.3818C8.45516 15.7926 7.28184 15.7297 6.06005 15.3818C5.03966 15.0912 4.13086 14.4974 4.13086 13.4845V9.92591C4.13086 8.90179 5.00402 8.02729 6.06005 8.02729H9.91707C11.2018 8.02729 12.3293 6.94179 12.3293 5.65496V3.99512H13.7755C14.8988 3.99512 15.4276 4.81103 15.7048 5.89248C16.0906 7.39445 16.1077 8.51771 15.7048 9.68856C15.3147 10.8258 14.8973 11.5859 13.7755 11.5859H7.98924V12.061H11.8463V13.4845V13.4845Z" fill="url(#paint1_linear_2712_130)" />
        <path d="M5.0957 1.86028C5.0957 1.46631 5.41867 1.14771 5.81887 1.14771C6.21756 1.14771 6.54207 1.46623 6.54207 1.86028C6.54207 2.25299 6.21765 2.57144 5.81887 2.57144C5.41882 2.57144 5.0957 2.25292 5.0957 1.86028ZM9.43563 13.7206C9.43563 13.3279 9.76005 13.0094 10.1588 13.0094C10.5589 13.0094 10.882 13.328 10.882 13.7206C10.882 14.1146 10.559 14.4332 10.1588 14.4332C9.76011 14.4332 9.43563 14.1147 9.43563 13.7206Z" fill="white" />
    </g>
    <defs>
        <linearGradient id="paint0_linear_2712_130" x1="11.8458" y1="4.50391" x2="0.000126145" y2="4.40756" gradientUnits="userSpaceOnUse">
            <stop stop-color="#366A96" />
            <stop offset="1" stop-color="#3679B0" />
        </linearGradient>
        <linearGradient id="paint1_linear_2712_130" x1="16.0005" y1="9.83099" x2="-7.44822" y2="9.83099" gradientUnits="userSpaceOnUse">
            <stop stop-color="#FFC836" />
            <stop offset="1" stop-color="#FFE873" />
        </linearGradient>
        <clipPath id="clip0_2712_130">
            <rect width="16" height="15.7091" fill="white" />
        </clipPath>
    </defs>
</svg>