<svg width="16" height="16" viewBox="0 0 16 16" fill="none"
    xmlns="http://www.w3.org/2000/svg">
    <path d="M0.0753333 6.84667C0.037686 7.11424 0.0125476 7.38342 0 7.65333H12.1533C12.1107 7.57 12.0533 7.49533 11.9967 7.422C9.91867 4.73733 8.80133 4.97067 7.20333 4.902C6.67 4.87933 6.31 4.87 4.18733 4.87C3.05133 4.87 1.81733 4.87333 0.615333 4.87667C0.459333 5.29667 0.309333 5.70333 0.237333 6.03467H6.46533V6.84533H0.0753333V6.84667V6.84667ZM12.2487 8.464H0.006C0.0193333 8.68133 0.0393333 8.894 0.0686667 9.10467H11.372C11.8747 9.10467 12.158 8.81867 12.2487 8.46467V8.464ZM0.703333 11.3173C0.703333 11.3173 2.57667 15.9187 7.99 16C11.2267 16 14.008 14.078 15.27 11.3173H0.704H0.703333ZM7.992 0C5 0 2.39533 1.644 1.02067 4.072L4.18733 4.06867V4.06733C6.66067 4.06733 6.75333 4.078 7.236 4.09867L7.53467 4.10933C8.57667 4.144 9.858 4.256 10.8653 5.01867C11.412 5.43267 12.2033 6.34533 12.6733 6.99533C13.1093 7.59667 13.2347 8.28867 12.9373 8.95133C12.6653 9.56067 12.078 9.92333 11.3687 9.92333H0.260667C0.260667 9.92333 0.326667 10.2033 0.426667 10.514H15.592C15.8607 9.70415 15.9985 8.8566 16 8.00333C16 3.58467 12.414 0 7.992 0Z" fill="white"/>
</svg>
