<svg width="16" height="16" viewBox="0 0 16 16" fill="none"
    xmlns="http://www.w3.org/2000/svg">
    <path d="M7.49941 1.8846C7.49941 1.82216 7.51171 1.76032 7.53561 1.70263C7.55951 1.64493 7.59453 1.59251 7.63869 1.54836C7.68285 1.5042 7.73527 1.46917 7.79296 1.44527C7.85065 1.42138 7.91249 1.40908 7.97494 1.40908C8.03738 1.40908 8.09922 1.42138 8.15691 1.44527C8.21461 1.46917 8.26703 1.5042 8.31118 1.54836C8.35534 1.59251 8.39037 1.64493 8.41426 1.70263C8.43816 1.76032 8.45046 1.82216 8.45046 1.8846C8.45046 2.01072 8.40036 2.13167 8.31118 2.22085C8.22201 2.31003 8.10105 2.36013 7.97494 2.36013C7.84882 2.36013 7.72787 2.31003 7.63869 2.22085C7.54951 2.13167 7.49941 2.01072 7.49941 1.8846V1.8846ZM1.8261 6.18984C1.8261 6.12739 1.8384 6.06556 1.8623 6.00786C1.88619 5.95017 1.92122 5.89775 1.96538 5.85359C2.00953 5.80943 2.06196 5.77441 2.11965 5.75051C2.17734 5.72661 2.23918 5.71431 2.30163 5.71431C2.36407 5.71431 2.42591 5.72661 2.4836 5.75051C2.5413 5.77441 2.59372 5.80943 2.63787 5.85359C2.68203 5.89775 2.71706 5.95017 2.74095 6.00786C2.76485 6.06556 2.77715 6.12739 2.77715 6.18984C2.77715 6.31596 2.72705 6.43691 2.63787 6.52609C2.5487 6.61526 2.42774 6.66536 2.30163 6.66536C2.17551 6.66536 2.05456 6.61526 1.96538 6.52609C1.8762 6.43691 1.8261 6.31596 1.8261 6.18984V6.18984ZM13.1727 6.21184C13.1727 6.08572 13.2228 5.96477 13.312 5.87559C13.4012 5.78641 13.5221 5.73631 13.6482 5.73631C13.7744 5.73631 13.8953 5.78641 13.9845 5.87559C14.0737 5.96477 14.1238 6.08572 14.1238 6.21184C14.1238 6.33796 14.0737 6.45891 13.9845 6.54809C13.8953 6.63727 13.7744 6.68737 13.6482 6.68737C13.5221 6.68737 13.4012 6.63727 13.312 6.54809C13.2228 6.45891 13.1727 6.33796 13.1727 6.21184V6.21184ZM3.20218 6.86488C3.30725 6.81795 3.38945 6.7313 3.43078 6.6239C3.47211 6.5165 3.4692 6.3971 3.42269 6.29184L3.21168 5.81482H4.04172V9.55502H2.36713C2.16051 8.82916 2.09615 8.07019 2.17762 7.3199L3.20218 6.86488ZM6.67336 6.95688V5.85432H8.64947C8.75148 5.85432 9.36951 5.97233 9.36951 6.43435C9.36951 6.81837 8.89449 6.95638 8.50447 6.95638L6.67336 6.95688ZM3.97522 12.8927C3.97522 12.8303 3.98752 12.7684 4.01141 12.7107C4.03531 12.653 4.07034 12.6006 4.1145 12.5565C4.15865 12.5123 4.21107 12.4773 4.26877 12.4534C4.32646 12.4295 4.3883 12.4172 4.45074 12.4172C4.51319 12.4172 4.57503 12.4295 4.63272 12.4534C4.69041 12.4773 4.74283 12.5123 4.78699 12.5565C4.83115 12.6006 4.86617 12.653 4.89007 12.7107C4.91397 12.7684 4.92627 12.8303 4.92627 12.8927C4.92627 13.0188 4.87617 13.1398 4.78699 13.229C4.69781 13.3181 4.57686 13.3682 4.45074 13.3682C4.32463 13.3682 4.20367 13.3181 4.1145 13.229C4.02532 13.1398 3.97522 13.0188 3.97522 12.8927V12.8927ZM11.0221 12.9147C11.0221 12.7886 11.0722 12.6676 11.1614 12.5785C11.2506 12.4893 11.3715 12.4392 11.4976 12.4392C11.6237 12.4392 11.7447 12.4893 11.8339 12.5785C11.9231 12.6676 11.9732 12.7886 11.9732 12.9147C11.9732 13.0408 11.9231 13.1618 11.8339 13.251C11.7447 13.3401 11.6237 13.3902 11.4976 13.3902C11.3715 13.3902 11.2506 13.3401 11.1614 13.251C11.0722 13.1618 11.0221 13.0408 11.0221 12.9147ZM11.1691 11.8361C10.9341 11.7861 10.7041 11.9352 10.6541 12.1697L10.4156 13.2837C9.64794 13.6314 8.81431 13.8093 7.97162 13.8052C7.12893 13.8012 6.29705 13.6153 5.5328 13.2602L5.29429 12.1462C5.24429 11.9112 5.01427 11.7621 4.77926 11.8126L3.79571 12.0237C3.61296 11.8354 3.44307 11.6351 3.28718 11.4241H8.07244C8.12644 11.4241 8.16245 11.4141 8.16245 11.3651V9.67253C8.16245 9.62253 8.12644 9.61353 8.07244 9.61353H6.67237V8.54047H8.18595C8.32395 8.54047 8.92449 8.58047 9.117 9.34751L9.39951 10.5976C9.48952 10.8726 9.85604 11.4241 10.2461 11.4241H12.7162C12.5504 11.6459 12.3691 11.8556 12.1737 12.0517L11.1691 11.8361ZM13.8263 7.3669C13.8599 7.70475 13.8641 8.04489 13.8388 8.38346H13.2387C13.1787 8.38346 13.1537 8.42346 13.1537 8.48196V8.75798C13.1537 9.40802 12.7877 9.54802 12.4667 9.58452C12.1617 9.61953 11.8216 9.45652 11.7806 9.26951C11.6006 8.25545 11.3006 8.03944 10.8306 7.66442C11.4191 7.2904 12.0317 6.73937 12.0317 6.00083C12.0317 5.20378 11.4851 4.70176 11.1126 4.45574C10.5901 4.11072 10.0115 4.04222 9.85554 4.04222H3.6377C4.49658 3.08254 5.6479 2.43281 6.91338 2.19362L7.64592 2.96216C7.81093 3.13567 8.08594 3.14217 8.25895 2.97616L9.079 2.19262C9.91431 2.34903 10.7056 2.68539 11.3978 3.17835C12.0901 3.67131 12.6667 4.30905 13.0877 5.04728L12.5267 6.31435C12.4802 6.4196 12.4773 6.539 12.5186 6.6464C12.5599 6.7538 12.6421 6.84045 12.7472 6.88738L13.8263 7.3669ZM15.2253 7.3869L15.2063 7.19089L15.7844 6.65186C15.9019 6.54186 15.8579 6.32185 15.7079 6.26584L14.9693 5.98983L14.9113 5.79982L15.3713 5.15978C15.4653 5.02977 15.3788 4.82226 15.2213 4.79626L14.4423 4.66976L14.3488 4.49475L14.6763 3.77621C14.7433 3.6297 14.6188 3.44269 14.4578 3.44869L13.6677 3.47619L13.5427 3.32468L13.7243 2.55464C13.7608 2.39813 13.6022 2.23962 13.4457 2.27612L12.6757 2.45763L12.5237 2.33263L12.5512 1.54258C12.5572 1.38258 12.3702 1.25757 12.2242 1.32407L11.5061 1.65159L11.3311 1.55759L11.2041 0.778543C11.1791 0.620534 10.9706 0.534529 10.8406 0.628534L10.2006 1.08856L10.0105 1.03106L9.73453 0.292516C9.67853 0.142508 9.45802 0.0985054 9.34851 0.215512L8.80948 0.793543L8.61347 0.774542L8.19745 0.102006C8.11344 -0.0340019 7.88743 -0.0340019 7.80393 0.102006L7.3879 0.774542L7.19189 0.793543L6.65186 0.214512C6.54186 0.0975053 6.32185 0.141008 6.26584 0.291516L5.98983 1.03006L5.79982 1.08756L5.15978 0.627534C5.02978 0.533529 4.82176 0.620034 4.79626 0.777543L4.66926 1.55659L4.49425 1.65059L3.77621 1.32307C3.6302 1.25657 3.44269 1.38158 3.44919 1.54158L3.47669 2.33163L3.32468 2.45663L2.55464 2.27512C2.39813 2.23862 2.23962 2.39713 2.27612 2.55364L2.45763 3.32368L2.33263 3.47519L1.54258 3.44769C1.38258 3.44269 1.25757 3.6287 1.32407 3.77521L1.65159 4.49375L1.55759 4.66876L0.778543 4.79526C0.620534 4.82026 0.534529 5.02877 0.628534 5.15878L1.08856 5.79882L1.03056 5.98883L0.292016 6.26484C0.142008 6.32085 0.0980054 6.54136 0.215512 6.65086L0.793543 7.18989L0.774542 7.3859L0.102006 7.80193C-0.0340019 7.88593 -0.0340019 8.11194 0.102006 8.19545L0.774542 8.61147L0.793543 8.80748L0.214012 9.34851C0.0970053 9.45852 0.140508 9.67853 0.290516 9.73453L1.02906 10.0105L1.08706 10.2006L0.627034 10.8406C0.533529 10.9706 0.619534 11.1786 0.777043 11.2041L1.55559 11.3306L1.64959 11.5056L1.32207 12.2237C1.25557 12.3697 1.38108 12.5572 1.54058 12.5512L2.33063 12.5237L2.45563 12.6757L2.27412 13.4457C2.23762 13.6017 2.39613 13.7608 2.55264 13.7238L3.32268 13.5422L3.47469 13.6672L3.44719 14.4573C3.44119 14.6173 3.6282 14.7423 3.77421 14.6758L4.49225 14.3483L4.66726 14.4423L4.79426 15.2208C4.81926 15.3793 5.02778 15.4648 5.15778 15.3718L5.79782 14.9108L5.98783 14.9688L6.26384 15.7074C6.31985 15.8574 6.54036 15.9014 6.64986 15.7839L7.18889 15.2058L7.3849 15.2258L7.80093 15.8984C7.88493 16.0334 8.10994 16.0344 8.19445 15.8984L8.61047 15.2258L8.80648 15.2058L9.34551 15.7839C9.45552 15.9014 9.67553 15.8574 9.73153 15.7074L10.0075 14.9688L10.1976 14.9108L10.8376 15.3718C10.9676 15.4653 11.1756 15.3793 11.2011 15.2208L11.3281 14.4423L11.5031 14.3483L12.2212 14.6758C12.3672 14.7423 12.5542 14.6178 12.5482 14.4573L12.5207 13.6672L12.6722 13.5422L13.4422 13.7238C13.5987 13.7603 13.7573 13.6017 13.7208 13.4457L13.5392 12.6757L13.6642 12.5237L14.4543 12.5512C14.6143 12.5577 14.7393 12.3697 14.6728 12.2237L14.3453 11.5056L14.4388 11.3306L15.2178 11.2041C15.3763 11.1791 15.4628 10.9711 15.3678 10.8406L14.9078 10.2006L14.9658 10.0105L15.7044 9.73453C15.8544 9.67803 15.8984 9.45802 15.7809 9.34851L15.2028 8.80948L15.2218 8.61347L15.8944 8.19745C16.0304 8.11344 16.0309 7.88843 15.8944 7.80393L15.2253 7.3869Z" fill="#ffffff" />
</svg>