<svg width="16" height="16" viewBox="0 0 16 16" fill="none"
    xmlns="http://www.w3.org/2000/svg">
    <path d="M0 8V0H16V16H0" fill="#007ACC" />
    <path d="M3.50781 8.02795V8.67995H5.58781V14.5999H7.06381V8.67995H9.14381V8.03995C9.14381 7.67995 9.14381 7.38795 9.12781 7.37995C9.12781 7.36795 7.85981 7.36395 6.31981 7.36395L3.51981 7.37595V8.03195L3.50781 8.02795ZM12.8558 7.35995C13.2638 7.45595 13.5758 7.63995 13.8558 7.93195C14.0038 8.09195 14.2238 8.37195 14.2398 8.44395C14.2398 8.46795 13.5478 8.93595 13.1278 9.19595C13.1118 9.20795 13.0478 9.13995 12.9838 9.03595C12.7758 8.73995 12.5638 8.61195 12.2318 8.58795C11.7518 8.55595 11.4318 8.80795 11.4318 9.22795C11.4318 9.35595 11.4558 9.42795 11.5038 9.53195C11.6118 9.75195 11.8118 9.88395 12.4318 10.1559C13.5758 10.6479 14.0718 10.9719 14.3718 11.4359C14.7118 11.9559 14.7878 12.7719 14.5598 13.3839C14.3038 14.0519 13.6798 14.5039 12.7878 14.6519C12.5078 14.6999 11.8678 14.6919 11.5678 14.6399C10.9278 14.5199 10.3158 14.1999 9.93981 13.7879C9.79181 13.6279 9.50781 13.1999 9.52381 13.1719L9.67581 13.0759L10.2758 12.7279L10.7278 12.4639L10.8318 12.6039C10.9638 12.8119 11.2598 13.0919 11.4318 13.1879C11.9518 13.4559 12.6478 13.4199 12.9918 13.1079C13.1398 12.9719 13.2038 12.8279 13.2038 12.6279C13.2038 12.4439 13.1758 12.3599 13.0838 12.2199C12.9558 12.0439 12.6998 11.8999 11.9798 11.5799C11.1518 11.2279 10.7998 11.0039 10.4718 10.6599C10.2838 10.4519 10.1118 10.1279 10.0318 9.85995C9.97181 9.62795 9.95181 9.05995 10.0078 8.83195C10.1798 8.03195 10.7838 7.47195 11.6478 7.31195C11.9278 7.25595 12.5878 7.27995 12.8638 7.35195L12.8558 7.35995Z" fill="white" />
</svg>