<svg width="202" height="190" viewBox="0 0 202 190" fill="none" xmlns="http://www.w3.org/2000/svg">
<mask id="mask0_3104_124" style="mask-type:luminance" maskUnits="userSpaceOnUse" x="0" y="88" width="202" height="102">
<path d="M0 88.6167H201.403V92.6448C201.403 126.484 201.403 143.403 194.817 156.328C189.025 167.697 179.781 176.94 168.412 182.732C155.488 189.318 138.568 189.318 104.729 189.318H96.6733C62.8344 189.318 45.915 189.318 32.9904 182.732C21.6214 176.94 12.3782 167.697 6.58547 156.328C0 143.403 0 126.484 0 92.6448V88.6167Z" fill="white"/>
</mask>
<g mask="url(#mask0_3104_124)">
<path d="M221.543 128.897C221.543 173.389 185.474 209.458 140.982 209.458H60.4205C15.9278 209.458 -20.1406 173.389 -20.1406 128.897H20.1399C20.1399 151.144 38.1741 169.178 60.4205 169.178H140.982C163.228 169.178 181.262 151.144 181.262 128.897H221.543ZM60.4205 209.458C15.9278 209.458 -20.1406 173.389 -20.1406 128.897V88.6167H20.1399V128.897C20.1399 151.144 38.1741 169.178 60.4205 169.178V209.458ZM221.543 88.6167V128.897C221.543 173.389 185.474 209.458 140.982 209.458V169.178C163.228 169.178 181.262 151.144 181.262 128.897V88.6167H221.543Z" fill="white"/>
</g>
<mask id="mask1_3104_124" style="mask-type:luminance" maskUnits="userSpaceOnUse" x="0" y="0" width="202" height="101">
<path d="M201.403 100.701H0V96.6733C0 62.8344 0 45.915 6.58547 32.9904C12.3782 21.6214 21.6214 12.3782 32.9904 6.58547C45.915 4.80182e-07 62.8344 0 96.6733 0H104.729C138.568 0 155.488 4.80182e-07 168.412 6.58547C179.781 12.3782 189.025 21.6214 194.817 32.9904C201.403 45.915 201.403 62.8344 201.403 96.6733V100.701Z" fill="white"/>
</mask>
<g mask="url(#mask1_3104_124)">
<path d="M-20.1406 60.421C-20.1406 15.9283 15.9278 -20.1401 60.4205 -20.1401H140.982C185.474 -20.1401 221.543 15.9283 221.543 60.421H181.262C181.262 38.1746 163.228 20.1404 140.982 20.1404H60.4205C38.1741 20.1404 20.1399 38.1746 20.1399 60.421H-20.1406ZM140.982 -20.1401C185.474 -20.1401 221.543 15.9283 221.543 60.421V100.702H181.262V60.421C181.262 38.1746 163.228 20.1404 140.982 20.1404V-20.1401ZM-20.1406 100.702V60.421C-20.1406 15.9283 15.9278 -20.1401 60.4205 -20.1401V20.1404C38.1741 20.1404 20.1399 38.1746 20.1399 60.421V100.702H-20.1406Z" fill="white"/>
</g>
<path d="M64.3621 76.5332H60.4217C54.8601 76.5332 50.3516 81.0418 50.3516 86.6033V102.949C50.3516 108.511 54.8601 113.019 60.4217 113.019H64.3621C69.9237 113.019 74.4323 108.511 74.4323 102.949V86.6033C74.4323 81.0418 69.9237 76.5332 64.3621 76.5332Z" fill="white"/>
<path d="M140.981 76.5332H137.041C131.479 76.5332 126.971 81.0418 126.971 86.6033V102.949C126.971 108.511 131.479 113.019 137.041 113.019H140.981C146.543 113.019 151.051 108.511 151.051 102.949V86.6033C151.051 81.0418 146.543 76.5332 140.981 76.5332Z" fill="white"/>
</svg>
