<svg width="120" height="113" viewBox="0 0 120 113" fill="none"
    xmlns="http://www.w3.org/2000/svg">
    <mask id="mask0_3104_124" style="mask-type:luminance" maskUnits="userSpaceOnUse" x="0" y="52" width="120" height="61">
        <path d="M0 52.7998H120V55.1998C120 75.3617 120 85.4427 116.076 93.1434C112.625 99.9178 107.118 105.425 100.344 108.876C92.6429 112.8 82.5619 112.8 62.4 112.8H57.6C37.4381 112.8 27.3571 112.8 19.6564 108.876C12.8825 105.425 7.37521 99.9178 3.92376 93.1434C0 85.4427 0 75.3617 0 55.1998V52.7998Z" fill="white"/>
    </mask>
    <g mask="url(#mask0_3104_124)">
        <path d="M132 76.7998C132 103.309 110.51 124.8 84 124.8H36C9.49033 124.8 -12 103.309 -12 76.7998H12C12 90.0546 22.7452 100.8 36 100.8H84C97.2548 100.8 108 90.0546 108 76.7998H132ZM36 124.8C9.49033 124.8 -12 103.309 -12 76.7998V52.7998H12V76.7998C12 90.0546 22.7452 100.8 36 100.8V124.8ZM132 52.7998V76.7998C132 103.309 110.51 124.8 84 124.8V100.8C97.2548 100.8 108 90.0546 108 76.7998V52.7998H132Z" fill="black"/>
    </g>
    <mask id="mask1_3104_124" style="mask-type:luminance" maskUnits="userSpaceOnUse" x="0" y="0" width="120" height="60">
        <path d="M120 60H0V57.6C0 37.4381 0 27.3571 3.92376 19.6564C7.37521 12.8825 12.8825 7.3752 19.6564 3.92376C27.3571 2.86102e-07 37.4381 0 57.6 0H62.4C82.5619 0 92.6429 2.86102e-07 100.344 3.92376C107.118 7.3752 112.625 12.8825 116.076 19.6564C120 27.3571 120 37.4381 120 57.6V60Z" fill="white"/>
    </mask>
    <g mask="url(#mask1_3104_124)">
        <path d="M-12 36C-12 9.49032 9.49033 -12 36 -12H84C110.51 -12 132 9.49032 132 36H108C108 22.7452 97.2548 12 84 12H36C22.7452 12 12 22.7452 12 36H-12ZM84 -12C110.51 -12 132 9.49032 132 36V60H108V36C108 22.7452 97.2548 12 84 12V-12ZM-12 60V36C-12 9.49032 9.49033 -12 36 -12V12C22.7452 12 12 22.7452 12 36V60H-12Z" fill="black"/>
    </g>
    <path d="M38.3478 45.6001H36C32.6863 45.6001 30 48.2864 30 51.6001V61.3392C30 64.6529 32.6863 67.3392 36 67.3392H38.3478C41.6615 67.3392 44.3478 64.6529 44.3478 61.3392V51.6001C44.3478 48.2864 41.6615 45.6001 38.3478 45.6001Z" fill="black"/>
    <path d="M84.0001 45.6001H81.6523C78.3386 45.6001 75.6523 48.2864 75.6523 51.6001V61.3392C75.6523 64.6529 78.3386 67.3392 81.6523 67.3392H84.0001C87.3138 67.3392 90.0001 64.6529 90.0001 61.3392V51.6001C90.0001 48.2864 87.3138 45.6001 84.0001 45.6001Z" fill="black"/>
</svg>
