<svg width="596" height="113" viewBox="0 0 596 113" fill="none"
    xmlns="http://www.w3.org/2000/svg">
    <path d="M217.4 55.9999C222.8 51.1999 225.5 44.7999 225.5 38.3999C225.5 31.5999 222.4 24.9999 216.9 20.2999C211.2 15.4999 203.4 12.9999 194.3 12.9999H165C163.9 12.9999 163 13.8999 163 15.0999V23.1999L179.7 48.1999H163V96.8999C163 97.9999 163.9 98.9999 165 98.9999H194.3C214.8 98.9999 225.5 86.1999 225.5 73.5999C225.5 66.8999 222.6 60.5999 217.4 55.9999ZM185.4 28.5999H194.3C205 28.5999 209.9 33.6999 209.9 38.3999C209.9 42.4999 206.2 46.7999 198.3 47.8999L185.4 28.5999ZM178.6 83.2999V63.7999H194.3C205 63.7999 209.9 68.8999 209.9 73.5999C209.9 78.2999 205 83.2999 194.3 83.2999H178.6ZM278.965 98.9999C255.265 98.9999 235.965 79.6999 235.965 55.9999C235.965 32.2999 255.265 12.9999 278.965 12.9999C302.665 12.9999 321.965 32.2999 321.965 55.9999C321.965 79.6999 302.665 98.9999 278.965 98.9999ZM278.965 28.5999C263.865 28.5999 251.565 40.8999 251.565 55.9999C251.565 71.0999 263.865 83.2999 278.965 83.2999C294.065 83.2999 306.265 71.0999 306.265 55.9999C306.265 40.8999 294.065 28.5999 278.965 28.5999ZM380.502 26.5999C380.502 27.6999 379.402 28.5999 378.102 28.5999H359.002V96.4999C359.002 97.7999 358.102 98.8999 357.102 98.8999H345.302C344.302 98.8999 343.402 97.7999 343.402 96.4999V28.5999H323.902C322.802 28.5999 321.902 27.6999 321.902 26.5999V14.8999C321.902 13.7999 322.802 12.9999 323.902 12.9999H378.102C379.402 12.9999 380.502 13.7999 380.502 14.8999V26.5999ZM455.427 98.9999L422.727 66.2999L390.027 98.9999V15.0999C390.027 13.9999 390.927 13.0999 391.927 13.0999H403.527C404.627 13.0999 405.427 13.9999 405.427 15.0999V61.7999L422.727 44.4999L440.027 61.7999V15.0999C440.027 13.9999 440.927 13.0999 442.027 13.0999H453.527C454.627 13.0999 455.427 13.9999 455.427 15.0999V98.9999ZM525.569 65.6999C525.569 64.5999 524.669 63.7999 523.569 63.7999H516.969L504.769 14.8999L504.669 14.3999C504.369 13.6999 503.669 13.1999 502.869 13.1999H489.769C488.969 13.1999 488.269 13.6999 487.969 14.3999L487.869 14.9999L467.569 96.0999C467.569 96.1999 467.569 96.2999 467.469 96.2999V96.6999C467.469 97.8999 468.369 98.7999 469.369 98.7999H481.469C482.269 98.7999 483.069 98.1999 483.269 97.3999C483.269 97.2999 483.369 97.1999 483.369 97.1999L487.769 79.2999H504.869L509.269 97.0999L509.369 97.3999C509.669 98.1999 510.369 98.7999 511.169 98.7999H523.269C524.369 98.7999 525.169 97.8999 525.169 96.6999V96.4999L525.069 95.9999L520.869 79.2999H523.569C524.669 79.2999 525.569 78.4999 525.569 77.3999V65.6999ZM491.669 63.7999L496.369 45.2999L500.969 63.7999H491.669ZM595.821 14.9999C595.821 15.2999 595.821 15.4999 595.721 15.7999L595.521 16.0999L573.821 57.7999L570.521 64.2999L553.121 97.5999L553.021 97.8999C553.021 97.9999 553.021 97.9999 552.921 97.9999C552.621 98.4999 552.021 98.8999 551.321 98.8999H538.121C537.021 98.8999 536.221 97.9999 536.221 96.7999C536.221 96.5999 536.221 96.3999 536.321 96.1999L536.621 95.5999L556.821 56.7999L536.321 15.9999C536.221 15.5999 536.121 15.2999 536.121 14.9999C536.121 14.7999 536.121 14.4999 536.221 14.2999L536.521 13.6999C536.921 13.1999 537.421 12.8999 538.121 12.8999H551.121C551.821 12.8999 552.521 13.2999 552.821 13.8999L565.721 39.6999L578.921 14.1999C579.021 14.0999 579.021 13.9999 579.021 13.9999L579.221 13.6999C579.521 13.1999 580.121 12.8999 580.721 12.8999H593.921C595.021 12.8999 595.821 13.8999 595.821 14.9999Z" fill="black"/>
    <mask id="mask0_3104_125" style="mask-type:luminance" maskUnits="userSpaceOnUse" x="0" y="52" width="120" height="61">
        <path d="M0 52.7998H120V55.1998C120 75.3617 120 85.4427 116.076 93.1434C112.625 99.9178 107.118 105.425 100.344 108.876C92.6429 112.8 82.5619 112.8 62.4 112.8H57.6C37.4381 112.8 27.3571 112.8 19.6564 108.876C12.8825 105.425 7.37521 99.9178 3.92376 93.1434C0 85.4427 0 75.3617 0 55.1998V52.7998Z" fill="white"/>
    </mask>
    <g mask="url(#mask0_3104_125)">
        <path d="M132 76.7998C132 103.309 110.51 124.8 84 124.8H36C9.49033 124.8 -12 103.309 -12 76.7998H12C12 90.0546 22.7452 100.8 36 100.8H84C97.2548 100.8 108 90.0546 108 76.7998H132ZM36 124.8C9.49033 124.8 -12 103.309 -12 76.7998V52.7998H12V76.7998C12 90.0546 22.7452 100.8 36 100.8V124.8ZM132 52.7998V76.7998C132 103.309 110.51 124.8 84 124.8V100.8C97.2548 100.8 108 90.0546 108 76.7998V52.7998H132Z" fill="black"/>
    </g>
    <mask id="mask1_3104_125" style="mask-type:luminance" maskUnits="userSpaceOnUse" x="0" y="0" width="120" height="60">
        <path d="M120 60H0V57.6C0 37.4381 0 27.3571 3.92376 19.6564C7.37521 12.8825 12.8825 7.3752 19.6564 3.92376C27.3571 2.86102e-07 37.4381 0 57.6 0H62.4C82.5619 0 92.6429 2.86102e-07 100.344 3.92376C107.118 7.3752 112.625 12.8825 116.076 19.6564C120 27.3571 120 37.4381 120 57.6V60Z" fill="white"/>
    </mask>
    <g mask="url(#mask1_3104_125)">
        <path d="M-12 36C-12 9.49032 9.49033 -12 36 -12H84C110.51 -12 132 9.49032 132 36H108C108 22.7452 97.2548 12 84 12H36C22.7452 12 12 22.7452 12 36H-12ZM84 -12C110.51 -12 132 9.49032 132 36V60H108V36C108 22.7452 97.2548 12 84 12V-12ZM-12 60V36C-12 9.49032 9.49033 -12 36 -12V12C22.7452 12 12 22.7452 12 36V60H-12Z" fill="black"/>
    </g>
    <path d="M38.3478 45.6001H36C32.6863 45.6001 30 48.2864 30 51.6001V61.3392C30 64.6529 32.6863 67.3392 36 67.3392H38.3478C41.6615 67.3392 44.3478 64.6529 44.3478 61.3392V51.6001C44.3478 48.2864 41.6615 45.6001 38.3478 45.6001Z" fill="black"/>
    <path d="M84.0001 45.6001H81.6523C78.3386 45.6001 75.6523 48.2864 75.6523 51.6001V61.3392C75.6523 64.6529 78.3386 67.3392 81.6523 67.3392H84.0001C87.3138 67.3392 90.0001 64.6529 90.0001 61.3392V51.6001C90.0001 48.2864 87.3138 45.6001 84.0001 45.6001Z" fill="black"/>
</svg>
