<svg width="1000" height="190" viewBox="0 0 1000 190" fill="none" xmlns="http://www.w3.org/2000/svg">
<path d="M364.875 93.9875C373.938 85.9314 378.47 75.19 378.47 64.4485C378.47 53.0357 373.267 41.9585 364.036 34.0702C354.469 26.0141 341.378 21.8182 326.105 21.8182H276.929C275.083 21.8182 273.572 23.3287 273.572 25.3428V38.9375L301.601 80.8964H273.572V162.632C273.572 164.479 275.083 166.157 276.929 166.157H326.105C360.511 166.157 378.47 144.674 378.47 123.527C378.47 112.282 373.602 101.708 364.875 93.9875ZM311.167 48.0006H326.105C344.063 48.0006 352.287 56.5602 352.287 64.4485C352.287 71.3297 346.077 78.5467 332.818 80.3929L311.167 48.0006ZM299.755 139.807V107.079H326.105C344.063 107.079 352.287 115.638 352.287 123.527C352.287 131.415 344.063 139.807 326.105 139.807H299.755ZM468.203 166.157C428.426 166.157 396.034 133.765 396.034 93.9875C396.034 54.2105 428.426 21.8182 468.203 21.8182C507.98 21.8182 540.372 54.2105 540.372 93.9875C540.372 133.765 507.98 166.157 468.203 166.157ZM468.203 48.0006C442.86 48.0006 422.216 68.6444 422.216 93.9875C422.216 119.331 442.86 139.807 468.203 139.807C493.546 139.807 514.022 119.331 514.022 93.9875C514.022 68.6444 493.546 48.0006 468.203 48.0006ZM638.618 44.6439C638.618 46.4901 636.772 48.0006 634.59 48.0006H602.534V161.961C602.534 164.143 601.023 165.989 599.345 165.989H579.54C577.862 165.989 576.351 164.143 576.351 161.961V48.0006H543.623C541.777 48.0006 540.266 46.4901 540.266 44.6439V25.0071C540.266 23.1609 541.777 21.8182 543.623 21.8182H634.59C636.772 21.8182 638.618 23.1609 638.618 25.0071V44.6439ZM764.369 166.157L709.487 111.275L654.605 166.157V25.3428C654.605 23.4966 656.115 21.9861 657.793 21.9861H677.262C679.109 21.9861 680.451 23.4966 680.451 25.3428V103.722L709.487 74.6865L738.522 103.722V25.3428C738.522 23.4966 740.033 21.9861 741.879 21.9861H761.18C763.026 21.9861 764.369 23.4966 764.369 25.3428V166.157ZM882.092 110.268C882.092 108.421 880.582 107.079 878.736 107.079H867.658L847.182 25.0071L847.015 24.1679C846.511 22.9931 845.336 22.1539 843.994 22.1539H822.007C820.664 22.1539 819.49 22.9931 818.986 24.1679L818.818 25.1749L784.748 161.29C784.748 161.457 784.748 161.625 784.58 161.625V162.297C784.58 164.311 786.09 165.821 787.769 165.821H808.077C809.419 165.821 810.762 164.814 811.098 163.472C811.098 163.304 811.266 163.136 811.266 163.136L818.65 133.093H847.35L854.735 162.968L854.903 163.472C855.406 164.814 856.581 165.821 857.924 165.821H878.232C880.078 165.821 881.421 164.311 881.421 162.297V161.961L881.253 161.122L874.204 133.093H878.736C880.582 133.093 882.092 131.751 882.092 129.904V110.268ZM825.196 107.079L833.084 76.0291L840.805 107.079H825.196ZM1000 25.1749C1000 25.6784 1000 26.0141 999.832 26.5176L999.497 27.0211L963.076 97.0086L957.538 107.918L928.334 163.807L928.167 164.311C928.167 164.479 928.167 164.479 927.999 164.479C927.495 165.318 926.488 165.989 925.313 165.989H903.159C901.313 165.989 899.97 164.479 899.97 162.464C899.97 162.129 899.97 161.793 900.138 161.457L900.641 160.45L934.544 95.3302L900.138 26.8533C899.97 26.182 899.802 25.6784 899.802 25.1749C899.802 24.8393 899.802 24.3358 899.97 24.0001L900.474 22.9931C901.145 22.1539 901.984 21.6504 903.159 21.6504H924.978C926.152 21.6504 927.327 22.3217 927.831 23.3287L949.482 66.6303L971.636 23.8323C971.804 23.6644 971.804 23.4966 971.804 23.4966L972.14 22.9931C972.643 22.1539 973.65 21.6504 974.657 21.6504H996.811C998.658 21.6504 1000 23.3287 1000 25.1749Z" fill="white"/>
<mask id="mask0_3104_125" style="mask-type:luminance" maskUnits="userSpaceOnUse" x="0" y="88" width="202" height="102">
<path d="M0 88.6167H201.403V92.6448C201.403 126.484 201.403 143.403 194.817 156.328C189.025 167.697 179.781 176.94 168.412 182.732C155.488 189.318 138.568 189.318 104.729 189.318H96.6733C62.8344 189.318 45.915 189.318 32.9904 182.732C21.6214 176.94 12.3782 167.697 6.58547 156.328C0 143.403 0 126.484 0 92.6448V88.6167Z" fill="white"/>
</mask>
<g mask="url(#mask0_3104_125)">
<path d="M221.543 128.897C221.543 173.389 185.474 209.458 140.982 209.458H60.4205C15.9278 209.458 -20.1406 173.389 -20.1406 128.897H20.1399C20.1399 151.144 38.1741 169.178 60.4205 169.178H140.982C163.228 169.178 181.262 151.144 181.262 128.897H221.543ZM60.4205 209.458C15.9278 209.458 -20.1406 173.389 -20.1406 128.897V88.6167H20.1399V128.897C20.1399 151.144 38.1741 169.178 60.4205 169.178V209.458ZM221.543 88.6167V128.897C221.543 173.389 185.474 209.458 140.982 209.458V169.178C163.228 169.178 181.262 151.144 181.262 128.897V88.6167H221.543Z" fill="white"/>
</g>
<mask id="mask1_3104_125" style="mask-type:luminance" maskUnits="userSpaceOnUse" x="0" y="0" width="202" height="101">
<path d="M201.403 100.701H0V96.6733C0 62.8344 0 45.915 6.58547 32.9904C12.3782 21.6214 21.6214 12.3782 32.9904 6.58547C45.915 4.80182e-07 62.8344 0 96.6733 0H104.729C138.568 0 155.488 4.80182e-07 168.412 6.58547C179.781 12.3782 189.025 21.6214 194.817 32.9904C201.403 45.915 201.403 62.8344 201.403 96.6733V100.701Z" fill="white"/>
</mask>
<g mask="url(#mask1_3104_125)">
<path d="M-20.1406 60.421C-20.1406 15.9283 15.9278 -20.1401 60.4205 -20.1401H140.982C185.474 -20.1401 221.543 15.9283 221.543 60.421H181.262C181.262 38.1746 163.228 20.1404 140.982 20.1404H60.4205C38.1741 20.1404 20.1399 38.1746 20.1399 60.421H-20.1406ZM140.982 -20.1401C185.474 -20.1401 221.543 15.9283 221.543 60.421V100.702H181.262V60.421C181.262 38.1746 163.228 20.1404 140.982 20.1404V-20.1401ZM-20.1406 100.702V60.421C-20.1406 15.9283 15.9278 -20.1401 60.4205 -20.1401V20.1404C38.1741 20.1404 20.1399 38.1746 20.1399 60.421V100.702H-20.1406Z" fill="white"/>
</g>
<path d="M64.3621 76.5332H60.4217C54.8601 76.5332 50.3516 81.0418 50.3516 86.6033V102.949C50.3516 108.511 54.8601 113.019 60.4217 113.019H64.3621C69.9237 113.019 74.4323 108.511 74.4323 102.949V86.6033C74.4323 81.0418 69.9237 76.5332 64.3621 76.5332Z" fill="white"/>
<path d="M140.981 76.5332H137.041C131.479 76.5332 126.971 81.0418 126.971 86.6033V102.949C126.971 108.511 131.479 113.019 137.041 113.019H140.981C146.543 113.019 151.051 108.511 151.051 102.949V86.6033C151.051 81.0418 146.543 76.5332 140.981 76.5332Z" fill="white"/>
</svg>
