<svg width="618" height="150" viewBox="0 0 618 150" fill="none"
    xmlns="http://www.w3.org/2000/svg">
    <path d="M237.4 76C242.8 71.2 245.5 64.8 245.5 58.4C245.5 51.6 242.4 45 236.9 40.3C231.2 35.5 223.4 33 214.3 33H185C183.9 33 183 33.9 183 35.1V43.2L199.7 68.2H183V116.9C183 118 183.9 119 185 119H214.3C234.8 119 245.5 106.2 245.5 93.6C245.5 86.9 242.6 80.6 237.4 76ZM205.4 48.6H214.3C225 48.6 229.9 53.7 229.9 58.4C229.9 62.5 226.2 66.8 218.3 67.9L205.4 48.6ZM198.6 103.3V83.8H214.3C225 83.8 229.9 88.9 229.9 93.6C229.9 98.3 225 103.3 214.3 103.3H198.6ZM298.965 119C275.265 119 255.965 99.7 255.965 76C255.965 52.3 275.265 33 298.965 33C322.665 33 341.965 52.3 341.965 76C341.965 99.7 322.665 119 298.965 119ZM298.965 48.6C283.865 48.6 271.565 60.9 271.565 76C271.565 91.1 283.865 103.3 298.965 103.3C314.065 103.3 326.265 91.1 326.265 76C326.265 60.9 314.065 48.6 298.965 48.6ZM400.502 46.6C400.502 47.7 399.402 48.6 398.102 48.6H379.002V116.5C379.002 117.8 378.102 118.9 377.102 118.9H365.302C364.302 118.9 363.402 117.8 363.402 116.5V48.6H343.902C342.802 48.6 341.902 47.7 341.902 46.6V34.9C341.902 33.8 342.802 33 343.902 33H398.102C399.402 33 400.502 33.8 400.502 34.9V46.6ZM475.427 119L442.727 86.3L410.027 119V35.1C410.027 34 410.927 33.1 411.927 33.1H423.527C424.627 33.1 425.427 34 425.427 35.1V81.8L442.727 64.5L460.027 81.8V35.1C460.027 34 460.927 33.1 462.027 33.1H473.527C474.627 33.1 475.427 34 475.427 35.1V119ZM545.569 85.7C545.569 84.6 544.669 83.8 543.569 83.8H536.969L524.769 34.9L524.669 34.4C524.369 33.7 523.669 33.2 522.869 33.2H509.769C508.969 33.2 508.269 33.7 507.969 34.4L507.869 35L487.569 116.1C487.569 116.2 487.569 116.3 487.469 116.3V116.7C487.469 117.9 488.369 118.8 489.369 118.8H501.469C502.269 118.8 503.069 118.2 503.269 117.4C503.269 117.3 503.369 117.2 503.369 117.2L507.769 99.3H524.869L529.269 117.1L529.369 117.4C529.669 118.2 530.369 118.8 531.169 118.8H543.269C544.369 118.8 545.169 117.9 545.169 116.7V116.5L545.069 116L540.869 99.3H543.569C544.669 99.3 545.569 98.5 545.569 97.4V85.7ZM511.669 83.8L516.369 65.3L520.969 83.8H511.669ZM615.821 35C615.821 35.3 615.821 35.5 615.721 35.8L615.521 36.1L593.821 77.8L590.521 84.3L573.121 117.6L573.021 117.9C573.021 118 573.021 118 572.921 118C572.621 118.5 572.021 118.9 571.321 118.9H558.121C557.021 118.9 556.221 118 556.221 116.8C556.221 116.6 556.221 116.4 556.321 116.2L556.621 115.6L576.821 76.8L556.321 36C556.221 35.6 556.121 35.3 556.121 35C556.121 34.8 556.121 34.5 556.221 34.3L556.521 33.7C556.921 33.2 557.421 32.9 558.121 32.9H571.121C571.821 32.9 572.521 33.3 572.821 33.9L585.721 59.7L598.921 34.2C599.021 34.1 599.021 34 599.021 34L599.221 33.7C599.521 33.2 600.121 32.9 600.721 32.9H613.921C615.021 32.9 615.821 33.9 615.821 35Z" fill="#ECECEC"/>
    <rect width="150" height="150" rx="15" fill="#ECECEC"/>
    <mask id="path-3-inside-1_2310_79" fill="white">
        <path d="M25 72H125V74C125 90.8016 125 99.2024 121.73 105.62C118.854 111.265 114.265 115.854 108.62 118.73C102.202 122 93.8016 122 77 122H73C56.1984 122 47.7976 122 41.3803 118.73C35.7354 115.854 31.146 111.265 28.2698 105.62C25 99.2024 25 90.8016 25 74V72Z"/>
    </mask>
    <path d="M25 72H125H25ZM135 92C135 114.091 117.091 132 95 132H55C32.9086 132 15 114.091 15 92H35C35 103.046 43.9543 112 55 112H95C106.046 112 115 103.046 115 92H135ZM55 132C32.9086 132 15 114.091 15 92V72H35V92C35 103.046 43.9543 112 55 112V132ZM135 72V92C135 114.091 117.091 132 95 132V112C106.046 112 115 103.046 115 92V72H135Z" fill="black" mask="url(#path-3-inside-1_2310_79)"/>
    <mask id="path-5-inside-2_2310_79" fill="white">
        <path d="M125 78L25 78V76C25 59.1984 25 50.7976 28.2698 44.3803C31.146 38.7354 35.7354 34.146 41.3803 31.2698C47.7976 28 56.1984 28 73 28H77C93.8016 28 102.202 28 108.62 31.2698C114.265 34.146 118.854 38.7354 121.73 44.3803C125 50.7976 125 59.1984 125 76V78Z"/>
    </mask>
    <path d="M125 78L25 78L125 78ZM15 58C15 35.9086 32.9086 18 55 18H95C117.091 18 135 35.9086 135 58H115C115 46.9543 106.046 38 95 38H55C43.9543 38 35 46.9543 35 58H15ZM95 18C117.091 18 135 35.9086 135 58V78H115V58C115 46.9543 106.046 38 95 38V18ZM15 78V58C15 35.9086 32.9086 18 55 18L55 38C43.9543 38 35 46.9543 35 58V78H15Z" fill="black" mask="url(#path-5-inside-2_2310_79)"/>
    <rect x="50" y="66" width="11.9565" height="18.1159" rx="5" fill="black"/>
    <rect x="88.043" y="66" width="11.9565" height="18.1159" rx="5" fill="black"/>
    <circle cx="19" cy="18" r="5" fill="#CBCBCB"/>
    <circle cx="19" cy="132" r="5" fill="#CBCBCB"/>
    <circle cx="131" cy="18" r="5" fill="#CBCBCB"/>
    <circle cx="131" cy="132" r="5" fill="#CBCBCB"/>
</svg>
