<svg width="150" height="150" viewBox="0 0 150 150" fill="none"
    xmlns="http://www.w3.org/2000/svg">
    <rect width="150" height="150" rx="15" fill="#ECECEC"/>
    <mask id="path-2-inside-1_2307_38" fill="white">
        <path d="M25 72H125V74C125 90.8016 125 99.2024 121.73 105.62C118.854 111.265 114.265 115.854 108.62 118.73C102.202 122 93.8016 122 77 122H73C56.1984 122 47.7976 122 41.3803 118.73C35.7354 115.854 31.146 111.265 28.2698 105.62C25 99.2024 25 90.8016 25 74V72Z"/>
    </mask>
    <path d="M25 72H125H25ZM135 92C135 114.091 117.091 132 95 132H55C32.9086 132 15 114.091 15 92H35C35 103.046 43.9543 112 55 112H95C106.046 112 115 103.046 115 92H135ZM55 132C32.9086 132 15 114.091 15 92V72H35V92C35 103.046 43.9543 112 55 112V132ZM135 72V92C135 114.091 117.091 132 95 132V112C106.046 112 115 103.046 115 92V72H135Z" fill="black" mask="url(#path-2-inside-1_2307_38)"/>
    <mask id="path-4-inside-2_2307_38" fill="white">
        <path d="M125 78L25 78V76C25 59.1984 25 50.7976 28.2698 44.3803C31.146 38.7354 35.7354 34.146 41.3803 31.2698C47.7976 28 56.1984 28 73 28H77C93.8016 28 102.202 28 108.62 31.2698C114.265 34.146 118.854 38.7354 121.73 44.3803C125 50.7976 125 59.1984 125 76V78Z"/>
    </mask>
    <path d="M125 78L25 78L125 78ZM15 58C15 35.9086 32.9086 18 55 18H95C117.091 18 135 35.9086 135 58H115C115 46.9543 106.046 38 95 38H55C43.9543 38 35 46.9543 35 58H15ZM95 18C117.091 18 135 35.9086 135 58V78H115V58C115 46.9543 106.046 38 95 38V18ZM15 78V58C15 35.9086 32.9086 18 55 18L55 38C43.9543 38 35 46.9543 35 58V78H15Z" fill="black" mask="url(#path-4-inside-2_2307_38)"/>
    <rect x="50" y="66" width="11.9565" height="18.1159" rx="5" fill="black"/>
    <rect x="88.043" y="66" width="11.9565" height="18.1159" rx="5" fill="black"/>
    <circle cx="19" cy="18" r="5" fill="#CBCBCB"/>
    <circle cx="19" cy="132" r="5" fill="#CBCBCB"/>
    <circle cx="131" cy="18" r="5" fill="#CBCBCB"/>
    <circle cx="131" cy="132" r="5" fill="#CBCBCB"/>
</svg>
